<svg id="Scene" xmlns="http://www.w3.org/2000/svg" viewBox="0 0 63.99 60.55"><defs><style>.cls-1{fill:#7fb74a;}.cls-2{fill:#93563b;}.cls-3{fill:#68301a;}.cls-4{fill:#176937;}.cls-5{fill:#588645;}.cls-6{fill:#c64d22;}.cls-7{fill:#ff9580;}.cls-8{fill:#e09500;}.cls-9{fill:#f4b78e;}.cls-10{fill:#ce9174;}.cls-11{fill:#b25944;}.cls-12{fill:#ffc200;}</style></defs><g id="_11" data-name="11"><path class="cls-1" d="M169,143.41c-.09.64.46,1.23,1.55,2.38a16.5,16.5,0,0,0,1.7,1.57,21.72,21.72,0,0,0,13.84,4.19c6.3-.61,15.1-5.14,15.12-11.61,0-6.66-9.28-12-15.12-11.6a34.68,34.68,0,0,0-8.87,2.27c-1.18.49-2.41,1.11-2.41,1.11a18.24,18.24,0,0,0-3.1,1.75c-2.33,1.91-3.45,5.67-2.31,7.08.29.37.72.55.74,1C170.19,142.33,169.11,142.55,169,143.41Z" transform="translate(-168.01 -94.73)"/><path class="cls-2" d="M173.41,149.12c0-1,2.33-1.91,5.86-2.42a.79.79,0,0,1-.18-.46c0-1.59,5.75-2.88,12.84-2.88a40.27,40.27,0,0,1,10,1.06,47.25,47.25,0,0,1,7.78-.6c7.09,0,12.84,1.29,12.84,2.89s-5.75,2.88-12.84,2.88a40.76,40.76,0,0,1-10-1.06l-.8.12a.84.84,0,0,1,.18.47c0,.4-.36.77-1,1.12,2.65.53,4.33,1.29,4.33,2.15,0,1.59-5.75,2.88-12.84,2.88s-12.85-1.29-12.85-2.88c0-.4.36-.77,1-1.12C175.08,150.74,173.41,150,173.41,149.12Z" transform="translate(-168.01 -94.73)"/><ellipse class="cls-2" cx="23.06" cy="53.79" rx="12.84" ry="2.88"/><path class="cls-3" d="M184.68,152.72c0,.63,2.81,1.14,6.29,1.14s6.3-.51,6.3-1.14-2.82-1.13-6.3-1.13S184.68,152.09,184.68,152.72Z" transform="translate(-168.01 -94.73)"/><path class="cls-3" d="M179.4,151.55c.66,1.4,3.52,1.14,6.3,1.14,3.05,0,3.85-1.52,6.29-1.14.7.11,2.13.43,2.2.2s-.33-.25-.36-.42c-.19-1.09,13.76-3.7,13.65-5s-15.83-1.1-15.86-.4c0,.25,2.06.42,2.07,1s-1.51.72-4.07,1.75c-3,1.19-2.7,1.61-3.92,1.76-2.88.35-4.68-2-5.82-1A2,2,0,0,0,179.4,151.55Z" transform="translate(-168.01 -94.73)"/><path class="cls-1" d="M219.79,145.74c2-.57,3.06-.87,3.66-1.71,2.26-3.16-3.28-8.23-1-14.3.63-1.71,1.37-2.21,1.43-3.91.11-3.21-2.35-6-4.4-7.3a6.45,6.45,0,0,0-3.72-1.23c-.6,0-.59.14-1.64.23-2.08.18-2.53-.22-3.26.23-.88.53-.64,1.34-1.46,1.63s-1.4-.51-2.2-.2-.57,1.48-1.43,2c-1.1.63-2.37-.85-3.63-.32-.86.37-1,1.39-1.4,2.32-1.42,3.62-5,3-6.4,6.37-1.16,2.76-.81,5.3-.48,7.69.42,3,.41,5.33,2,6.54a5.13,5.13,0,0,0,3.38.76C208.43,144.23,211.67,148,219.79,145.74Z" transform="translate(-168.01 -94.73)"/><path class="cls-4" d="M206.85,131.87c5.07,7.31,5.29,9.25,6.19,9,1.8-.5,2.53-7.33-.35-12.24-1.67-2.84-4.89-5.69-6.55-4.94-1.09.49-1.24,2.4-1.27,2.83C204.69,128.82,206,130.57,206.85,131.87Z" transform="translate(-168.01 -94.73)"/><path class="cls-4" d="M211.71,134.87q.85,3.49,1.81,7a29.62,29.62,0,0,1,1,3.45,7.57,7.57,0,0,1,.2,2,8.07,8.07,0,0,1-.59-1.85c-.5-1.85-.72-3-.9-3.84-.88-4-1.54-5.95-1.73-6.71C211.44,134.77,211.68,134.71,211.71,134.87Z" transform="translate(-168.01 -94.73)"/><path class="cls-5" d="M211.25,141.29c2-1.67,2.52-5.69,1.29-9-1-2.71-3.15-5-3.88-4.63s-.17,2.46-.51,2.52-1-3.74-2.31-3.84c-.63,0-1.25.81-1.54,1.46-.86,2,.37,4.33,1.91,7.25,1.65,3.14,2.5,3.41,2.69,5.24,0,.5.08,1.42.61,1.67S211,141.46,211.25,141.29Z" transform="translate(-168.01 -94.73)"/><path class="cls-5" d="M208.06,148.64a7.23,7.23,0,0,0,.82-1.81c.27-.63.57-1.24.86-1.86a10,10,0,0,0,1.13-4.09c0-2.7-1.18-5.25-1.33-7.94,0-.16.24-.16.25,0,.16,2.95,1.62,5.78,1.28,8.76a12,12,0,0,1-1.23,3.64c-.35.73-.71,1.46-1,2.21a4,4,0,0,1-.62,1.26c-.1.13-.28-.05-.17-.17Z" transform="translate(-168.01 -94.73)"/><path class="cls-5" d="M216.93,136.05c2.26.27,5.58-4.38,5.08-8.28-.22-1.68-.95-1.71-1.42-4-.6-2.92.4-3.69,0-6.48s-2-6-3.31-6c-1.1.05-1.91,2.25-2.19,3-.5,1.35-.22,1.68-.77,4.12-.46,2-.71,2-.64,2.85.17,1.93,1.66,2.37,1.45,3.57-.23,1.39-2.28,1.26-2.83,2.84-.36,1,.19,2.09,1.32,4.14C215.13,134.56,215.88,135.92,216.93,136.05Z" transform="translate(-168.01 -94.73)"/><path class="cls-5" d="M211.7,147.43a48.75,48.75,0,0,0,4.56-10.78A39.32,39.32,0,0,0,217.51,125a.18.18,0,0,1,.35,0,39.6,39.6,0,0,1-1.27,11.78A50.24,50.24,0,0,1,212,147.61a.18.18,0,0,1-.3-.18Z" transform="translate(-168.01 -94.73)"/><path class="cls-5" d="M226.85,142.67c2.17-.56,3.87-3.61,3.38-6.11-.13-.69-.28-.58-.35-1.16-.28-2.39,2.38-3.46,2.09-5.34-.18-1.18-1.26-1-1.7-2.51-.6-2,1-3.41.42-4.13s-2.91-.17-4.21,1.18c-.89.92-1.17,2.07-1.62,3.91a19.16,19.16,0,0,1-.65,3c-.74,1.8-1.56,1.75-1.65,2.8-.15,1.68,1.89,2.17,1.84,4.06,0,1.34-1.07,1.89-.67,3a2.37,2.37,0,0,0,1.2,1.22A2.78,2.78,0,0,0,226.85,142.67Z" transform="translate(-168.01 -94.73)"/><path class="cls-5" d="M215.69,146.54a28.92,28.92,0,0,0,8.89-4.38c3.14-2.39,2.9-6.18,3.47-9.71,0-.16.27-.11.24,0-.52,3.28-.29,7-3,9.43a26.68,26.68,0,0,1-9.5,4.85c-.15,0-.23-.19-.08-.23Z" transform="translate(-168.01 -94.73)"/><path class="cls-5" d="M179.3,141.61c.42-4.94-.78-7.13-2-8.21-.74-.64-1.16-.58-2.45-1.68-2.14-1.82-2.33-3.11-3.9-3.54a2.78,2.78,0,0,0-2.68.45c-.38.46-.37,1.08.73,4.63a23,23,0,0,0,1.9,5.08,14.54,14.54,0,0,0,2.55,3c1.81,1.76,3.55,3.44,4.81,2.95.28-.11.95-.5,1.27-2.18Z" transform="translate(-168.01 -94.73)"/><path class="cls-5" d="M181.4,149.88c-1-2.33-2.06-4.68-3.13-7a27.72,27.72,0,0,0-3.68-6.2c-.1-.12.08-.3.18-.17a27.15,27.15,0,0,1,3.61,6c1.11,2.38,2.16,4.8,3.23,7.2.07.15-.15.27-.21.13Z" transform="translate(-168.01 -94.73)"/><path class="cls-4" d="M189.79,141.94c.21-.54.15-.5.91-6.17.34-2.5.48-3.52-.18-4.22-.86-.9-2.07-.19-2.77-1-1-1.15,1.06-3.07.59-5.76-.4-2.31-2.56-4.64-4.75-4.63a4.8,4.8,0,0,0-3.37,1.91c-2.86,3.36-1.72,8.93-1.09,12s1.17,3.19,1.45,5.95-.11,3.9.87,5.17a4.56,4.56,0,0,0,4.4,1.63C188.12,146.34,189.09,143.78,189.79,141.94Z" transform="translate(-168.01 -94.73)"/><path class="cls-4" d="M185.7,139.29a50,50,0,0,1-2.27,13.46c-.05.15-.29.08-.24-.07a49.11,49.11,0,0,0,2.26-13.39.13.13,0,0,1,.25,0Z" transform="translate(-168.01 -94.73)"/><path class="cls-4" d="M219.89,140.91c3-2.56,4.52-3.86,5-4.75.91-1.67,1.55-4.11.65-4.9-.41-.37-.88-.15-1.15-.54-.63-.91,1.51-2.83,1-3.63-.35-.51-1.69-.33-2.57.07-1,.47-1,1.05-2.27,1.86s-1.57.49-2.19,1c-1,.81-.78,2.13-.72,5.54.08,4.55-.18,6.12.53,6.37C218.49,142.08,218.86,141.79,219.89,140.91Z" transform="translate(-168.01 -94.73)"/><path class="cls-4" d="M221.5,134.69l-3.16,6a24.57,24.57,0,0,0-2.57,6.07c0,.15-.28.1-.24,0a23.84,23.84,0,0,1,2.46-5.9c1.1-2.07,2.19-4.14,3.29-6.2.08-.14.3,0,.22.11Z" transform="translate(-168.01 -94.73)"/><path class="cls-2" d="M219.39,150.18c.1-.78-3.74-2.5-7.73-2.65-.55,0-2.57.05-6.6.2-.38,0-.84,0-1.46.07-1.11.06-2.08.15-4.19.37-1.6.17-2.4.25-3.06.34-3.74.5-4,.72-4.08.92s.2.62,2.21,1.43a27.23,27.23,0,0,0,8.44,1.84,30,30,0,0,0,8.54-.27c1.2-.25.85-.28,5.38-1.43C218.72,150.51,219.35,150.48,219.39,150.18Z" transform="translate(-168.01 -94.73)"/><path class="cls-3" d="M200.63,149.3c-.14.71,3.23,2.27,5.31,2,1.14-.13,1.86-.28,1.86-.28a10.06,10.06,0,0,1,1.68-.33c.42,0,.52,0,1.31,0,.22,0,.77,0,1.16-.06.89-.1,2.3-.44,2.29-.73,0-.49-4-.84-6.44-1C204.44,148.77,200.77,148.58,200.63,149.3Z" transform="translate(-168.01 -94.73)"/><ellipse class="cls-6" cx="196.67" cy="98.44" rx="8.66" ry="3.15" transform="translate(-177.06 -74.05) rotate(-5.88)"/><path class="cls-6" d="M203.14,96.14a1.31,1.31,0,0,0-.83-1,7.26,7.26,0,0,0-1.6-.35c-.17,0-.25.24-.08.26a8.05,8.05,0,0,1,1.46.3,1.09,1.09,0,0,1,.79.84c0,.17.29.1.26-.07Z" transform="translate(-168.01 -94.73)"/><path class="cls-6" d="M202.23,95.67a3,3,0,0,0-1.14-.51,10.93,10.93,0,0,0-1.29-.27c-.17,0-.24.23-.07.26a11.58,11.58,0,0,1,1.2.24l.57.19a1.85,1.85,0,0,1,.54.28c.13.11.32-.08.19-.19Z" transform="translate(-168.01 -94.73)"/><path class="cls-6" d="M199.41,95.15a4.35,4.35,0,0,0-2.1-.42.14.14,0,1,0,0,.27,4.12,4.12,0,0,1,2,.38c.16.08.29-.15.14-.23Z" transform="translate(-168.01 -94.73)"/><path class="cls-6" d="M196.85,95.3a1.4,1.4,0,0,0-.6-.15c-.24,0-.49,0-.74,0-.5,0-1,0-1.51,0-.17,0-.17.28,0,.27.47,0,.93,0,1.4,0l.69,0a1.43,1.43,0,0,1,.62.12c.15.09.29-.15.14-.23Z" transform="translate(-168.01 -94.73)"/><path class="cls-6" d="M195.08,95.64a15.93,15.93,0,0,0-2.93,0c-.17,0-.17.29,0,.27a15.93,15.93,0,0,1,2.93,0c.17,0,.17-.25,0-.27Z" transform="translate(-168.01 -94.73)"/><path class="cls-6" d="M193.66,96.17a12.62,12.62,0,0,0-2.88.12c-.17,0-.1.29.07.26a12.58,12.58,0,0,1,2.81-.11c.17,0,.17-.26,0-.27Z" transform="translate(-168.01 -94.73)"/><path class="cls-6" d="M192,97a5.18,5.18,0,0,0-1.71-.21,3.05,3.05,0,0,0-1.54.4c-.15.09,0,.32.13.23a3,3,0,0,1,1.47-.37,5.24,5.24,0,0,1,1.58.21A.13.13,0,0,0,192,97Z" transform="translate(-168.01 -94.73)"/><path class="cls-6" d="M189.86,100.78a1.25,1.25,0,0,0,.5.69,3.26,3.26,0,0,0,.89.36.13.13,0,0,0,.07-.26c-.47-.13-1.07-.32-1.2-.86,0-.17-.3-.1-.26.07Z" transform="translate(-168.01 -94.73)"/><path class="cls-6" d="M191.41,100.93a.93.93,0,0,0,.45.74,4.14,4.14,0,0,0,.92.38A.14.14,0,0,0,193,102a.15.15,0,0,0-.1-.17,5.68,5.68,0,0,1-.81-.32.68.68,0,0,1-.36-.54.14.14,0,0,0-.27,0Z" transform="translate(-168.01 -94.73)"/><path class="cls-6" d="M200.78,100.15c-.08.19.11.34.26.4a2.07,2.07,0,0,0,.59.16,7.66,7.66,0,0,0,1.35.09.14.14,0,0,0,0-.27,7.81,7.81,0,0,1-1.08,0,3.7,3.7,0,0,1-.48-.08c-.06,0-.41-.11-.38-.17s-.2-.24-.26-.08Z" transform="translate(-168.01 -94.73)"/><path class="cls-6" d="M202.08,99.84a2.93,2.93,0,0,0,2.55-.07c.16-.06.09-.32-.07-.26a2.71,2.71,0,0,1-2.34.1c-.15-.1-.29.14-.14.23Z" transform="translate(-168.01 -94.73)"/><path class="cls-6" d="M203.23,99.21a2.43,2.43,0,0,0,1.36-.09,1.41,1.41,0,0,0,.95-.69c.08-.15-.16-.29-.23-.13a1.18,1.18,0,0,1-.83.57,2.16,2.16,0,0,1-1.18.08.13.13,0,0,0-.07.26Z" transform="translate(-168.01 -94.73)"/><path class="cls-6" d="M203.62,98.15a.72.72,0,0,0,.67,0,3.31,3.31,0,0,0,.65-.33,1.12,1.12,0,0,0,.52-1.18.14.14,0,0,0-.26.08.85.85,0,0,1-.42.88,2.78,2.78,0,0,1-.51.27c-.15.06-.36.18-.51.09s-.29.14-.14.23Z" transform="translate(-168.01 -94.73)"/><path class="cls-6" d="M203.62,97.24a.74.74,0,0,0,.48-.89,1,1,0,0,0-.67-.74.14.14,0,0,0-.08.26.66.66,0,0,1,.48.51c0,.23,0,.54-.28.6s-.1.3.07.26Z" transform="translate(-168.01 -94.73)"/><path class="cls-7" d="M198.23,117.39l2.38-.21c-.05-1.78-.16-3.27-.27-4.38-.46-4.81-1.12-6-2-6.43a1.58,1.58,0,0,0-.43-.15c-.36,1.73-.72,3.47-1.07,5.2Q197.52,114.41,198.23,117.39Z" transform="translate(-168.01 -94.73)"/><path class="cls-8" d="M197.6,117.67l3.31-.26c.35-2,1.06-7.52-2.25-10.84a7.05,7.05,0,0,0-.87-.74c-.22,1.45-.43,2.91-.65,4.36C197.29,112.68,197.45,115.17,197.6,117.67Z" transform="translate(-168.01 -94.73)"/><path class="cls-7" d="M185.69,114.93l-2.06-1.22c.81-1.59,1.56-2.88,2.13-3.84,2.49-4.14,3.6-4.93,4.58-4.93a1.39,1.39,0,0,1,.46,0c-.43,1.72-.85,3.43-1.27,5.15Z" transform="translate(-168.01 -94.73)"/><path class="cls-8" d="M186.13,115.44l-2.87-1.65c.54-1.93,2.28-7.24,6.7-8.81a9,9,0,0,1,1.11-.3c-.43,1.41-.87,2.81-1.3,4.22Z" transform="translate(-168.01 -94.73)"/><path class="cls-7" d="M194.31,153l-6.44,0a1.62,1.62,0,0,1,0-1,1.45,1.45,0,0,1,.15-.29,3.87,3.87,0,0,0,.48-1.54l1.17-.14c1.47,2,2.3,2.38,2.8,2.35.34,0,.68.17,1,.18s.5,0,.66.16A.49.49,0,0,1,194.31,153Z" transform="translate(-168.01 -94.73)"/><path class="cls-7" d="M191.38,136.54c-.34.91-1,2.64-1.73,2.58s-1.28-2.67-1.34-3.06a38.1,38.1,0,0,1,.76-16.24l3.71,4.51C193.2,130.5,192.22,134.34,191.38,136.54Z" transform="translate(-168.01 -94.73)"/><path class="cls-7" d="M190.12,150.76l-1.61.05c0-.4,0-1-.1-1.78-.34-3.92-1.23-5.29-1.18-7.6a9.82,9.82,0,0,1,1.26-4.45l2.91-.59c-.27,1.6-.51,3.28-.71,5A93.12,93.12,0,0,0,190.12,150.76Z" transform="translate(-168.01 -94.73)"/><path class="cls-7" d="M196.62,117.71c-.1.31-.33.94-.77,2.21a17.63,17.63,0,0,1-.86,2.29c-.71,1.26-2.27,2.45-3.39,2.32-1.62-.19-3.17-3.27-3-7.74.15-1,.29-1.91.45-2.93-.12-.4-.23-.83-.33-1.26a20,20,0,0,1-.47-4.42,3.92,3.92,0,0,1,4.06-3.91,14.06,14.06,0,0,1,2.29.29c.27,0,.53.12.79.18a14.61,14.61,0,0,1,1.6.54c1.11.52,1.21,3,1.23,3.9A24,24,0,0,1,196.62,117.71Z" transform="translate(-168.01 -94.73)"/><path class="cls-7" d="M193.7,123.63c-.42,2.06-2.13,3.46-3.83,3.12s-2.75-2.29-2.34-4.35,2.12-3.45,3.83-3.11S194.11,121.57,193.7,123.63Z" transform="translate(-168.01 -94.73)"/><path class="cls-7" d="M204.22,126.85c.61.61,2,2,1.65,2.63s-3,.08-3.35,0c-2.15-.12-13.65-5.51-14.75-6.65l4.84-2.34C199.26,122.64,202.56,125.2,204.22,126.85Z" transform="translate(-168.01 -94.73)"/><path class="cls-7" d="M205.92,145.24l-6.43,0a1.69,1.69,0,0,1,0-1,1.36,1.36,0,0,1,.16-.29,3.81,3.81,0,0,0,.48-1.54l1.16-.13c1.47,2,2.31,2.37,2.8,2.35s.68.17,1,.17.5,0,.66.16A.42.42,0,0,1,205.92,145.24Z" transform="translate(-168.01 -94.73)"/><path class="cls-7" d="M201.47,143.12l-1.4-.44c.08-.4.19-1,.28-1.77.49-3.9-.09-5.43.45-7.68a9.69,9.69,0,0,1,2.15-4.08l3,0q-.9,2.3-1.75,4.78C203.09,137.15,202.2,140.21,201.47,143.12Z" transform="translate(-168.01 -94.73)"/><path class="cls-7" d="M195.91,106.22l-3.66-1.48,2.22-4.26,2.9,1.17a6.72,6.72,0,0,0-.51.71,6.39,6.39,0,0,0-.76,1.77c0,.11-.06.23-.08.34A6.62,6.62,0,0,0,195.91,106.22Z" transform="translate(-168.01 -94.73)"/><path class="cls-3" d="M196,104.47l-.06,0c-.62-.25-.82-1.21-.44-2.15a3.73,3.73,0,0,1,.2-.4l1.14.46a6.39,6.39,0,0,0-.76,1.77C196.07,104.24,196,104.36,196,104.47Z" transform="translate(-168.01 -94.73)"/><path class="cls-7" d="M194.42,100.58a3.31,3.31,0,0,0,.12.85c.23.87,1.55,2.52,2.69,2.24.45-.11.77-.49,1.43-1.24A1.65,1.65,0,0,0,199,102c.09-.19.08-.27.19-.48s.11-.14.23-.33l.19-.28,0,0,.07-.13,0,0a1.06,1.06,0,0,1,.11-.19l.06-.1c.16-.27.3-.52.41-.75s.18-.35.26-.51A4.3,4.3,0,0,0,199,97.36a2.6,2.6,0,0,0-.55-.28,3.67,3.67,0,0,1-1.13.43c-.91.19-1.18,0-1.61.09a5.82,5.82,0,0,0-.64,1,6.13,6.13,0,0,0-.55,1.41A4.14,4.14,0,0,0,194.42,100.58Z" transform="translate(-168.01 -94.73)"/><path d="M199.51,101.61a1.92,1.92,0,0,0-.32-.32,1.29,1.29,0,0,0-.63-.25.06.06,0,0,1-.05-.06.05.05,0,0,1,.06,0,1.36,1.36,0,0,1,.68.27,1.3,1.3,0,0,1,.3.32,0,0,0,0,1,0,.07Z" transform="translate(-168.01 -94.73)"/><path class="cls-3" d="M198.83,101.21a.23.23,0,0,0,.1.31.24.24,0,0,0,.32-.06.25.25,0,0,0-.42-.25Z" transform="translate(-168.01 -94.73)"/><path d="M198,100.61a2.28,2.28,0,0,0-.32-.31,1.3,1.3,0,0,0-.64-.26s-.05,0,0-.05a0,0,0,0,1,0,0,1.41,1.41,0,0,1,.69.28,1.48,1.48,0,0,1,.3.31s0,.06,0,.07S198,100.61,198,100.61Z" transform="translate(-168.01 -94.73)"/><path class="cls-3" d="M197.49,100.32a.23.23,0,0,0,.09.31.22.22,0,0,0,.32-.07.24.24,0,0,0-.41-.24Z" transform="translate(-168.01 -94.73)"/><path class="cls-3" d="M197.41,99.49l.22.11a6.54,6.54,0,0,1,.84.75.32.32,0,0,0,.19-.11.23.23,0,0,0,.06-.17c-.29-.2-.5-.36-.63-.47a2.24,2.24,0,0,0-.43-.28.71.71,0,0,0-.19-.06.39.39,0,0,0-.33.12Z" transform="translate(-168.01 -94.73)"/><path class="cls-3" d="M199.26,100.74l.3.15,0,0,.07-.13,0,0-.14-.12a.33.33,0,0,0-.2.06A.18.18,0,0,0,199.26,100.74Z" transform="translate(-168.01 -94.73)"/><path class="cls-3" d="M197.66,101.9a.45.45,0,0,0,.28.24.4.4,0,0,0,.26,0Z" transform="translate(-168.01 -94.73)"/><path d="M197.92,102.86l-.23-.15-.17-.09a2.83,2.83,0,0,0-.29-.08.9.9,0,0,1-.53-.38s0-.06,0-.07a.05.05,0,0,1,.08,0,.79.79,0,0,0,.44.34,2.1,2.1,0,0,1,.33.09l.19.09a1,1,0,0,1,.21.15,0,0,0,0,1,0,.07S197.93,102.86,197.92,102.86Z" transform="translate(-168.01 -94.73)"/><path d="M197.47,102.89l-.3-.14a0,0,0,0,1,0-.06.05.05,0,0,1,.07,0l.29.13a.06.06,0,0,1,0,.07A.09.09,0,0,1,197.47,102.89Z" transform="translate(-168.01 -94.73)"/><path class="cls-8" d="M188,107.64q0,6.6,0,13.2c2.87,0,5.75,0,8.63-.06a32.81,32.81,0,0,0,1.82-9.65c0-.23,0-.46,0-.7V110c0-.88,0-1.72-.1-2.53a2.56,2.56,0,0,0-.42-1.36,2,2,0,0,0-.45-.53,2.44,2.44,0,0,0-1.1-.58l-.13,0c0-.15-.05-.29-.07-.44l0-.15-.47,0-.21,1.18-.64-1.39-2.24-.71c0,.24-.1.47-.16.71a4.75,4.75,0,0,0-1.18.07,4.2,4.2,0,0,0-.91.3l-.21.09A4.51,4.51,0,0,0,188,107.64Z" transform="translate(-168.01 -94.73)"/><path class="cls-9" d="M187.43,150l1.2.11c.65.07,1.29.14,1.93.19L192,136.56l1.32-10c.07-.49.14-1,.2-1.48-1-1.47-2.08-3-3.11-4.44-.33-.46-.65-.91-1-1.38a7.87,7.87,0,0,0-.67.65,6.38,6.38,0,0,0-.93,1.32,7,7,0,0,0-.58,4.6c.17,3.59.34,7.18.51,10.75a42.15,42.15,0,0,0-.34,13.45Z" transform="translate(-168.01 -94.73)"/><path class="cls-9" d="M188.77,119.89l1,2.2,1.83,3.82,1.41.53.26.1,5.48,2,3,1.09c-.29.75-.56,1.55-.82,2.38a33.22,33.22,0,0,0-1.39,9.91l.94.07,2,.17q1.92-6.42,3.85-12.84a1.85,1.85,0,0,0,0-.23,4.15,4.15,0,0,0-.83-1.91l-4.71-3.79-3.32-2.66c.42-3.4.85-6.82,1.27-10.23a7.73,7.73,0,0,0-2.06-.29c-1.6,0-2.49.47-3.46,0a2.3,2.3,0,0,1-.83-.75,26.67,26.67,0,0,1-2.16,7.7A25,25,0,0,1,188.77,119.89Z" transform="translate(-168.01 -94.73)"/><path class="cls-10" d="M198.8,128.57l3,1.09c-.29.75-.56,1.55-.82,2.38a33.22,33.22,0,0,0-1.39,9.91l.94.07a.44.44,0,0,0,.08-.11A44.37,44.37,0,0,1,202,136c1.12-3.63,2.13-5.25,1.3-6.61-.54-.87-1.19-.55-3.65-1.69-3.34-1.57-4.93-3.47-5.85-2.86a2,2,0,0,0-.64,1.12,2.18,2.18,0,0,0-.06.49Z" transform="translate(-168.01 -94.73)"/><path class="cls-6" d="M199.28,145.26l6.92.16a1.1,1.1,0,0,0-.08-.43c-.26-.59-1-.76-1.6-1a6.63,6.63,0,0,1-2-1.17l.37-1.7-3.59-.45c0,.94.07,1.88.11,2.81a3.86,3.86,0,0,0-.19,1A3.59,3.59,0,0,0,199.28,145.26Z" transform="translate(-168.01 -94.73)"/><path class="cls-10" d="M187.43,150l1.2.11c.06-1-.63-3-.79-6.1-.15-2.87.34-3.47.72-7.52a33.29,33.29,0,0,0,.16-4.68c-.07-1.65-.55-2.26-.23-3.48s.77-1.37.75-2.43-.43-1.58-.07-2,.82-.12,1-.44-.54-.91-.34-1.41.75-.37.85-.77-.18-.58-.26-.7c-.73-1,1.21-3.64,1.55-5a49.68,49.68,0,0,0,1.25-5.48,5.47,5.47,0,0,1-.83-.75,26.67,26.67,0,0,1-2.16,7.7,25,25,0,0,1-1.45,2.75,6.38,6.38,0,0,0-.93,1.32,7,7,0,0,0-.58,4.6c.17,3.59.34,7.18.51,10.75a42.15,42.15,0,0,0-.34,13.45Z" transform="translate(-168.01 -94.73)"/><path class="cls-6" d="M187.51,153l6.93.16a1.1,1.1,0,0,0-.08-.43c-.26-.59-1-.75-1.6-1a6.7,6.7,0,0,1-2-1.18c0-.55-.05-1.1-.07-1.65l-3.42.39.23,1.95c0,.31,0,.64,0,1S187.5,152.79,187.51,153Z" transform="translate(-168.01 -94.73)"/><path class="cls-9" d="M190.42,104.6a7.61,7.61,0,0,1,1.12,1.15,8.79,8.79,0,0,1,1.69,5.65l.83,0a9.55,9.55,0,0,0-1.87-6.19,10.88,10.88,0,0,0-.86-.94A4.2,4.2,0,0,0,190.42,104.6Z" transform="translate(-168.01 -94.73)"/><path class="cls-9" d="M196.46,105c0,.11.1.23.14.34a18.44,18.44,0,0,1,1.18,5.81l.73,0h.1c0-.37,0-.74-.08-1.1a18.64,18.64,0,0,0-1-4.42A2.44,2.44,0,0,0,196.46,105Z" transform="translate(-168.01 -94.73)"/><path d="M188.77,148.56a.05.05,0,0,1-.05-.05v-2.45a.05.05,0,0,1,.05-.05,0,0,0,0,1,0,.05v2.45A0,0,0,0,1,188.77,148.56Z" transform="translate(-168.01 -94.73)"/><path d="M188.77,144.16a.05.05,0,0,1-.05,0l.29-19.4s0,0,0,0a2.23,2.23,0,0,0,1.94-1.59,1.6,1.6,0,0,0-.11-.93,0,0,0,0,1,.09,0,1.69,1.69,0,0,1,.12,1,2.32,2.32,0,0,1-2,1.66l-.29,19.36A0,0,0,0,1,188.77,144.16Z" transform="translate(-168.01 -94.73)"/><path d="M202.73,128.92l-.66-.26a0,0,0,1,1,0-.09l.64.25a.05.05,0,0,1,0,.07S202.75,128.92,202.73,128.92Z" transform="translate(-168.01 -94.73)"/><path d="M201.21,128.39l-7-3.1a0,0,0,0,1,0-.06.05.05,0,0,1,.07,0l7,3.09a.05.05,0,0,1,0,.07A.09.09,0,0,1,201.21,128.39Z" transform="translate(-168.01 -94.73)"/><path d="M193.21,126.55c-.05,0-.06,0-.05-.08l.45-.78s0,0,.06,0,0,0,0,.06l-.44.79S193.23,126.55,193.21,126.55Z" transform="translate(-168.01 -94.73)"/><path d="M196.8,121.29c-.05-.05-.05-.08,0-.1l.62-.4a.05.05,0,0,1,.05.09l-.61.4Z" transform="translate(-168.01 -94.73)"/><path d="M200.5,140.39s-.05,0-.05-.06l2.79-10.41a.06.06,0,0,1,.07,0s0,0,0,.06l-2.79,10.42A.05.05,0,0,1,200.5,140.39Z" transform="translate(-168.01 -94.73)"/><path d="M196.28,120.79s-.05,0-.05,0a.06.06,0,0,1,.05-.06l.87-.08a0,0,0,0,1,0,0s0,0,0,0l-.87.08Z" transform="translate(-168.01 -94.73)"/><path class="cls-3" d="M194.38,100.58c.21,0,.63-.51.87-1s.26-.65.46-.66.27.26.49.27.45-.65.84-.72.92.63,1.1.5.08-.15.21-.26l.08,0c.45-.14.8.74,1.64.89a.75.75,0,0,0,.21,0c.39,0,.79-.13.87-.36s-.1-.41-.34-.68c-.89-1-1.3-1.58-1.77-1.64a.61.61,0,0,0-.27,0c-.16,0-.18.08-.35.14a2.12,2.12,0,0,1-.49,0l-.29,0h-.43a2.3,2.3,0,0,0-.85.17,3.67,3.67,0,0,0-.68.28l-.15.05A2.9,2.9,0,0,0,194.38,100.58Z" transform="translate(-168.01 -94.73)"/><path d="M194.11,106a.05.05,0,0,1,0-.07l.69-1.69a0,0,0,0,1,.07,0s0,0,0,.06l-.7,1.69A.05.05,0,0,1,194.11,106Z" transform="translate(-168.01 -94.73)"/><path d="M194.11,106s-1.64-1.74-1.64-1.74a0,0,0,0,1,0-.07s.06,0,.07,0l1.61,1.73a0,0,0,0,1,0,.07Z" transform="translate(-168.01 -94.73)"/><path d="M196.23,105.81a.05.05,0,0,1,0,0l-.41-1.28a.07.07,0,0,1,0-.07.06.06,0,0,1,.06,0l.41,1.28a.06.06,0,0,1,0,.07Z" transform="translate(-168.01 -94.73)"/><path d="M196.23,105.81a.06.06,0,0,1,0-.06l.1-.77s0,0,.06,0,0,0,0,.06l-.1.78A0,0,0,0,1,196.23,105.81Z" transform="translate(-168.01 -94.73)"/><path d="M195.74,110a0,0,0,0,1-.05,0l-.17-3.7a0,0,0,0,1,0,0,.05.05,0,0,1,.05,0l.17,3.7a.05.05,0,0,1,0,0Z" transform="translate(-168.01 -94.73)"/><path class="cls-9" d="M205.88,149.93a4.41,4.41,0,0,1,1.18-.11,11.25,11.25,0,0,0,1.6.13c.51,0,.49-.22.88-.31a4.23,4.23,0,0,1,2.28.4l-4.4-4.68-5.49-.14a12.63,12.63,0,0,0,.7,1.36A10.85,10.85,0,0,0,205.88,149.93Z" transform="translate(-168.01 -94.73)"/><path class="cls-11" d="M205.46,145.52a.51.51,0,0,1-.45-.29l-16-33.85a.5.5,0,0,1,.24-.67.5.5,0,0,1,.66.24l16,33.85a.51.51,0,0,1-.24.67A.54.54,0,0,1,205.46,145.52Z" transform="translate(-168.01 -94.73)"/><path class="cls-7" d="M193.21,117.78c-.21.52-.43,1-.64,1.55-1.08-.22-2-.33-2.59-.4-2.71-.3-3.58-.27-4.66-.89a5.4,5.4,0,0,1-2-2l1.69-1.19a11.45,11.45,0,0,1,1.86.48c2.21.79,3,1.83,5.14,2.3A7.57,7.57,0,0,0,193.21,117.78Z" transform="translate(-168.01 -94.73)"/><path class="cls-7" d="M196.59,126l1.67.17c.33-1,.65-1.88.89-2.46.9-2.16,1.59-3.09,1.46-4.51a4.12,4.12,0,0,0-.35-1.32l-2.35-.47a12.86,12.86,0,0,0-.46,1.87c-.38,2.31.15,3.52-.45,5.61A10.52,10.52,0,0,1,196.59,126Z" transform="translate(-168.01 -94.73)"/><path class="cls-12" d="M197.6,118.21l4.08.56c-.12-.32-.23-.64-.34-1,.11-.33.22-.65.34-1h-3.91C197.71,117.3,197.65,117.76,197.6,118.21Z" transform="translate(-168.01 -94.73)"/><path class="cls-12" d="M183,116.3l3.67-1.14.17-.75-4.25-1.08c.09.41.19.81.28,1.22C182.87,115.13,182.91,115.72,183,116.3Z" transform="translate(-168.01 -94.73)"/><path class="cls-7" d="M190.93,119.05l2.24,1.47,1.3-.55c0-.43,0-.86,0-1.29l-.8-1.26-2.37.08Z" transform="translate(-168.01 -94.73)"/><path class="cls-7" d="M197,124.87l-.67-.19-1.26,1.39c.14.77.27,1.54.4,2.32l1.28.19,1.35-.63.23-2.36Z" transform="translate(-168.01 -94.73)"/><path d="M196.72,128.5c-.05,0-.06-.05-.05-.07l.43-.85a.07.07,0,0,1,.07,0s0,0,0,.07l-.43.85S196.74,128.5,196.72,128.5Z" transform="translate(-168.01 -94.73)"/><path d="M195.89,128.5s0-.05,0-.07l.49-1s0,0,.06,0a0,0,0,0,1,0,.06l-.49,1A.05.05,0,0,1,195.89,128.5Z" transform="translate(-168.01 -94.73)"/><path d="M195.35,128.24s-.06,0,0-.06l.16-1a.06.06,0,0,1,.06,0,.07.07,0,0,1,0,.06l-.17,1A0,0,0,0,1,195.35,128.24Z" transform="translate(-168.01 -94.73)"/><path d="M194.13,118.43l-.53-.22a0,0,0,0,1,0-.06.05.05,0,0,1,.07,0l.51.22a0,0,0,0,1,0,.06S194.15,118.43,194.13,118.43Z" transform="translate(-168.01 -94.73)"/><path class="cls-6" d="M188,99.18a1.81,1.81,0,0,0-1.23.35.13.13,0,0,0,.13.23,1.62,1.62,0,0,1,1-.32.15.15,0,0,0,.17-.09.13.13,0,0,0-.1-.17Z" transform="translate(-168.01 -94.73)"/><path class="cls-6" d="M187.87,100.11a1,1,0,0,0-.62.9.13.13,0,0,0,.13.14.14.14,0,0,0,.14-.14V101a.36.36,0,0,1,0-.15.64.64,0,0,1,0-.1l0,0,.1-.12s0,0,0,0l.25-.15a.13.13,0,0,0,0-.18.13.13,0,0,0-.18,0Z" transform="translate(-168.01 -94.73)"/><path class="cls-6" d="M188.22,100.75a.89.89,0,0,0-.19.91,1.26,1.26,0,0,0,.65.69.14.14,0,0,0,.19,0,.13.13,0,0,0-.05-.18,1,1,0,0,1-.52-.51.63.63,0,0,1,.11-.67c.12-.12-.07-.31-.19-.19Z" transform="translate(-168.01 -94.73)"/><path class="cls-6" d="M191.81,102.31a1,1,0,0,0,.29.33.9.9,0,0,0,.41.16.15.15,0,0,0,.1,0,.18.18,0,0,0,0-.1.11.11,0,0,0,0-.09.13.13,0,0,0-.1,0l-.14,0-.13-.07a.53.53,0,0,1-.11-.11.55.55,0,0,1-.08-.13.14.14,0,0,0-.19,0,.15.15,0,0,0-.05.19Z" transform="translate(-168.01 -94.73)"/><path class="cls-12" d="M204.7,145.36a1,1,0,0,0,1.09.32,1,1,0,0,0,.44-.35l-1-1.91-1,.08Z" transform="translate(-168.01 -94.73)"/></g></svg>