<svg id="Layer_1" data-name="Layer 1" xmlns="http://www.w3.org/2000/svg" xmlns:xlink="http://www.w3.org/1999/xlink" viewBox="0 0 228 264.08"><defs><style>.cls-1{fill:#fff;}.cls-2{fill:url(#linear-gradient);}.cls-3{fill:url(#linear-gradient-2);}.cls-4{fill:url(#linear-gradient-3);}.cls-5{fill:url(#linear-gradient-4);}.cls-6{fill:url(#linear-gradient-5);}.cls-7{fill:url(#linear-gradient-6);}.cls-8{fill:url(#linear-gradient-7);}.cls-9{fill:url(#linear-gradient-8);}.cls-10{fill:url(#linear-gradient-9);}.cls-11{fill:url(#linear-gradient-10);}.cls-12{fill:url(#linear-gradient-11);}.cls-13{fill:url(#linear-gradient-12);}.cls-14{fill:url(#linear-gradient-13);}.cls-15{fill:url(#linear-gradient-14);}.cls-16{fill:url(#linear-gradient-15);}.cls-17{fill:url(#linear-gradient-16);}.cls-18{fill:url(#linear-gradient-17);}.cls-19{fill:url(#linear-gradient-18);}.cls-20{fill:url(#linear-gradient-19);}.cls-21{fill:url(#linear-gradient-20);}.cls-22{fill:url(#linear-gradient-21);}.cls-23{fill:url(#linear-gradient-22);}.cls-24{fill:url(#linear-gradient-23);}.cls-25{fill:url(#linear-gradient-24);}.cls-26{fill:url(#linear-gradient-25);}.cls-27{font-size:36px;fill:#009540;font-family:Roboto-Black, Roboto;font-weight:800;}.cls-28{letter-spacing:-0.02em;}</style><linearGradient id="linear-gradient" x1="80.35" y1="198.47" x2="270.95" y2="72.34" gradientUnits="userSpaceOnUse"><stop offset="0" stop-color="#006838"/><stop offset="0.13" stop-color="#318333"/><stop offset="0.29" stop-color="#639e2e"/><stop offset="0.45" stop-color="#8cb52a"/><stop offset="0.6" stop-color="#acc727"/><stop offset="0.74" stop-color="#c3d425"/><stop offset="0.88" stop-color="#d1db23"/><stop offset="1" stop-color="#d6de23"/></linearGradient><linearGradient id="linear-gradient-2" x1="75.05" y1="190.47" x2="265.65" y2="64.34" xlink:href="#linear-gradient"/><linearGradient id="linear-gradient-3" x1="85.21" y1="205.81" x2="275.8" y2="79.68" xlink:href="#linear-gradient"/><linearGradient id="linear-gradient-4" x1="96.14" y1="222.33" x2="286.73" y2="96.2" xlink:href="#linear-gradient"/><linearGradient id="linear-gradient-5" x1="111.52" y1="245.57" x2="302.11" y2="119.44" xlink:href="#linear-gradient"/><linearGradient id="linear-gradient-6" x1="71.95" y1="185.78" x2="262.54" y2="59.65" xlink:href="#linear-gradient"/><linearGradient id="linear-gradient-7" x1="105.27" y1="236.12" x2="295.86" y2="110" xlink:href="#linear-gradient"/><linearGradient id="linear-gradient-8" x1="109.99" y1="243.26" x2="300.58" y2="117.13" xlink:href="#linear-gradient"/><linearGradient id="linear-gradient-9" x1="2.95" y1="51.62" x2="193.54" y2="-74.51" gradientTransform="matrix(0.77, -0.64, 0.64, 0.77, 80.55, 196.37)" gradientUnits="userSpaceOnUse"><stop offset="0" stop-color="#ec1c24"/><stop offset="0.13" stop-color="#f04c1c"/><stop offset="0.29" stop-color="#f57e13"/><stop offset="0.45" stop-color="#f8a70c"/><stop offset="0.6" stop-color="#fbc707"/><stop offset="0.74" stop-color="#fdde03"/><stop offset="0.88" stop-color="#ffec01"/><stop offset="1" stop-color="#fff100"/></linearGradient><linearGradient id="linear-gradient-10" x1="-2.35" y1="43.61" x2="188.24" y2="-82.52" xlink:href="#linear-gradient-9"/><linearGradient id="linear-gradient-11" x1="7.8" y1="58.95" x2="198.4" y2="-67.17" xlink:href="#linear-gradient-9"/><linearGradient id="linear-gradient-12" x1="18.74" y1="75.47" x2="209.33" y2="-50.65" xlink:href="#linear-gradient-9"/><linearGradient id="linear-gradient-13" x1="34.12" y1="98.71" x2="224.71" y2="-27.41" xlink:href="#linear-gradient-9"/><linearGradient id="linear-gradient-14" x1="-5.45" y1="38.92" x2="185.14" y2="-87.21" xlink:href="#linear-gradient-9"/><linearGradient id="linear-gradient-15" x1="27.87" y1="89.26" x2="218.45" y2="-36.86" xlink:href="#linear-gradient-9"/><linearGradient id="linear-gradient-16" x1="32.58" y1="96.4" x2="223.17" y2="-29.73" xlink:href="#linear-gradient-9"/><linearGradient id="linear-gradient-17" x1="-348.46" y1="-115.68" x2="-157.85" y2="-241.81" gradientTransform="translate(353.13 -57.78) rotate(-74.02)" gradientUnits="userSpaceOnUse"><stop offset="0" stop-color="#2b388f"/><stop offset="0.21" stop-color="#2960ab"/><stop offset="0.43" stop-color="#287fc2"/><stop offset="0.64" stop-color="#2796d3"/><stop offset="0.83" stop-color="#26a4dd"/><stop offset="1" stop-color="#26a9e0"/></linearGradient><linearGradient id="linear-gradient-18" x1="-353.76" y1="-123.68" x2="-163.15" y2="-249.82" xlink:href="#linear-gradient-17"/><linearGradient id="linear-gradient-19" x1="-343.6" y1="-108.34" x2="-153" y2="-234.47" xlink:href="#linear-gradient-17"/><linearGradient id="linear-gradient-20" x1="-332.67" y1="-91.82" x2="-142.06" y2="-217.95" xlink:href="#linear-gradient-17"/><linearGradient id="linear-gradient-21" x1="-317.29" y1="-68.57" x2="-126.68" y2="-194.71" xlink:href="#linear-gradient-17"/><linearGradient id="linear-gradient-22" x1="-356.86" y1="-128.38" x2="-166.26" y2="-254.51" xlink:href="#linear-gradient-17"/><linearGradient id="linear-gradient-23" x1="-323.54" y1="-78.02" x2="-132.94" y2="-204.16" xlink:href="#linear-gradient-17"/><linearGradient id="linear-gradient-24" x1="-318.82" y1="-70.89" x2="-128.22" y2="-197.03" xlink:href="#linear-gradient-17"/><linearGradient id="linear-gradient-25" x1="44.31" y1="210.73" x2="266.92" y2="210.73" xlink:href="#linear-gradient"/></defs><path class="cls-1" d="M93.91,181.25s24,14.92,29.83,15.59c6.54.74,31.39,17.84,46.34,17.84,13.45-.75,17.95-4.42,30.37-10.09,9.1-4.15,19.62-8.75,29.05-15.6,5.42-3.93,10-8.91,14.95-14.2a77.24,77.24,0,0,0,9.44-13.18c16.88-28.27,20.53-71.5,16.63-97.72a29.34,29.34,0,0,1-15.89,20.27C247,88,236,89.5,226.32,91.07c-11.95.47-25,2-34.28,2.43,0,0-7.38.35-15.79,1.5-13.81,1.89-34.11,6.88-47,20.65-9.45,10.09-15.26,33.57-21.58,45.68C100.13,175.79,95.9,180.11,93.91,181.25Z" transform="translate(-44.31 -9.2)"/><path class="cls-2" d="M189.76,140c-.07,2.21-.18,4.35-.28,6.38s-.24,3.95-.36,5.72c-.16,2.28-.33,4.32-.48,6q4.2-1.86,8.33-3.89,6.61-3.26,12.94-7l.22-.67c.57-1.66,1.35-4.06,2.25-7,.44-1.45.92-3,1.41-4.69s1-3.42,1.49-5.25,1-3.72,1.48-5.65c.24-1,.48-1.94.71-2.92.11-.49.23-1,.35-1.47l.33-1.47q.66-3,1.22-5.91c.19-1,.35-2,.53-2.91s.31-1.91.46-2.84.26-1.86.38-2.77.21-1.78.29-2.65.17-1.7.22-2.52.1-1.6.12-2.36,0-1.48,0-2.17,0-1.35,0-2c0-.31,0-.6,0-.88-11.09.93-23.07,1.37-34.94,2.58.15.55.28,1.14.43,1.77.08.35.17.71.26,1.08s.15.75.23,1.15c.16.79.34,1.62.48,2.49.62,3.48,1.14,7.58,1.5,12,.08,1.1.18,2.22.24,3.36,0,.57.07,1.14.11,1.71s.05,1.15.08,1.73.05,1.17.07,1.75l.06,1.76c0,1.18.05,2.36.07,3.54s0,2.36,0,3.53,0,2.35,0,3.51C189.89,135.49,189.84,137.78,189.76,140Z" transform="translate(-44.31 -9.2)"/><path class="cls-3" d="M142.69,106.42c.15.5.33,1,.52,1.65.09.3.19.61.29.93l.3,1c.2.69.41,1.44.64,2.22s.42,1.62.65,2.49c.43,1.74.88,3.63,1.31,5.64.23,1,.43,2,.64,3.1s.41,2.15.61,3.25c.4,2.21.76,4.51,1.11,6.84.17,1.17.32,2.35.49,3.53s.3,2.38.44,3.57c.28,2.38.54,4.77.75,7.13.05.58.11,1.17.16,1.75s.1,1.17.14,1.75c.1,1.15.18,2.29.26,3.42.16,2.24.29,4.42.4,6.48s.18,4,.24,5.83q.08,2.14.12,4c1.17-.32,2.35-.64,3.54-1,6.85-1.95,13.86-4.21,20.86-6.83l2.93-1.12c0-.13.07-.31.13-.55.12-.52.3-1.29.52-2.27.44-2,1-4.78,1.71-8.19.34-1.7.69-3.55,1-5.51s.7-4,1-6.17.66-4.36,1-6.62c.14-1.13.29-2.27.44-3.42s.28-2.3.4-3.45.25-2.3.35-3.45c.05-.58.1-1.15.16-1.72s.09-1.14.13-1.71.09-1.14.13-1.7.07-1.13.1-1.69c.08-1.11.12-2.22.17-3.3.18-4.35.16-8.41,0-11.89,0-.87-.1-1.7-.16-2.49,0-.4-.06-.79-.09-1.16s-.08-.74-.12-1.09c-.08-.66-.13-1.28-.22-1.85-15.48,1.6-30.71,4.55-43.41,11.61Z" transform="translate(-44.31 -9.2)"/><path class="cls-4" d="M222,92c.08.62.15,1.28.24,2s.11,1.43.18,2.2.07,1.56.12,2.39,0,1.69,0,2.57,0,1.79,0,2.72-.06,1.87-.09,2.83-.11,1.94-.17,2.93-.14,2-.23,3c-.18,2-.39,4-.63,6.09l-.18,1.53c-.07.51-.14,1-.2,1.52-.13,1-.28,2-.42,3-.29,2-.6,4-.91,5.86s-.64,3.73-1,5.46-.63,3.38-.94,4.89c-.1.5-.2,1-.3,1.47a150.32,150.32,0,0,0,16.61-12.71c2.67-2.36,5.21-4.79,7.59-7.26s4.63-5,6.71-7.52,4-5.09,5.78-7.63l1.3-1.91,1.26-1.9c.81-1.26,1.6-2.51,2.35-3.74,1.49-2.47,2.83-4.88,4-7.23q.87-1.77,1.59-3.48c.49-1.14.92-2.27,1.33-3.37A73.68,73.68,0,0,0,269.17,74c.62-3.34.91-6,1.1-7.82.1-.91.16-1.61.19-2.08l.06-.71c-4.06,21-24.08,25.68-48.67,27.79C221.89,91.45,221.94,91.73,222,92Z" transform="translate(-44.31 -9.2)"/><path class="cls-5" d="M270.53,66.18c0,1.83-.08,4.52-.39,7.94A75.16,75.16,0,0,1,268,86.36c-.32,1.17-.66,2.37-1.05,3.59s-.83,2.47-1.32,3.74c-.95,2.54-2.11,5.15-3.41,7.82q-1,2-2.05,4l-1.1,2-1.16,2.09c-1.58,2.8-3.34,5.63-5.25,8.46s-4,5.67-6.27,8.48-4.67,5.6-7.24,8.33a159.05,159.05,0,0,1-16.77,15.4l2,.36c1.29.25,2.66.51,4.06.82l2.13.48,2.18.53c1.46.37,2.94.78,4.41,1.21l2.19.68c.72.25,1.44.47,2.15.74s1.42.5,2.1.78l1,.4c.34.13.67.28,1,.42l1,.42.95.44c.31.15.62.28.93.44l.89.45c.59.29,1.14.61,1.68.91s1.05.62,1.53.92c.25.15.49.3.71.45l.66.46.12.09c26.21-43.47,16.43-98,16.43-98v.71C270.53,64.57,270.54,65.27,270.53,66.18Z" transform="translate(-44.31 -9.2)"/><path class="cls-6" d="M253.6,161.88l-.7-.37c-.23-.12-.49-.23-.74-.35-.5-.24-1-.49-1.59-.71s-1.13-.47-1.73-.68l-.91-.33c-.31-.12-.63-.21-1-.32l-1-.31-1-.29-1-.29-1-.27c-.69-.18-1.4-.34-2.12-.5s-1.44-.3-2.16-.45-1.46-.27-2.19-.4c-1.47-.25-2.94-.47-4.39-.65L230,155.7l-2.11-.21c-1.39-.13-2.73-.23-4-.31s-2.48-.14-3.59-.18-2.13-.07-3-.09h-.76c-4.49,3.3-9.16,6.42-13.95,9.35-1.32.82-2.66,1.61-4,2.4a214.11,214.11,0,0,1,18.38,11c3.49,2.34,6.88,4.83,9.92,7.34,1.31,1.07,2.54,2.15,3.7,3.21A98.75,98.75,0,0,0,253.73,162Z" transform="translate(-44.31 -9.2)"/><path class="cls-7" d="M117.28,178.35c7.45-1.18,15.7-2.74,24.41-4.79.24-1.85.53-4.19.83-6.88.19-1.74.38-3.64.56-5.65s.36-4.13.52-6.32c.08-1.1.16-2.22.23-3.35,0-.57.07-1.14.1-1.71l.09-1.72c.12-2.32.2-4.66.27-7l.06-3.52c0-1.17,0-2.34,0-3.5,0-2.31-.05-4.6-.13-6.8,0-1.11-.07-2.19-.14-3.25s-.1-2.11-.19-3.12c-.13-2-.31-3.93-.49-5.69-.1-.88-.19-1.73-.29-2.53s-.21-1.56-.31-2.27c0-.36-.09-.71-.14-1s-.11-.65-.16-1c-.11-.62-.2-1.18-.28-1.69-.06-.33-.12-.63-.17-.91-11.6,6.54-21,16.55-26.58,32.2-6.85,24.47-16.14,37.47-21.58,43.42C100.1,180.71,108.08,179.81,117.28,178.35Z" transform="translate(-44.31 -9.2)"/><path class="cls-8" d="M181.13,211.48c-.17-.24-.34-.49-.52-.73s-.37-.49-.56-.74c-.39-.5-.77-1-1.21-1.53-.84-1-1.77-2.09-2.76-3.14-.51-.53-1-1.07-1.54-1.58s-1.06-1.06-1.63-1.57l-.84-.77-.86-.76c-.57-.51-1.17-1-1.76-1.49s-1.2-1-1.8-1.44-1.22-.92-1.82-1.37c-1.23-.89-2.44-1.75-3.64-2.53s-2.38-1.52-3.5-2.2-2.21-1.29-3.21-1.84c-1.34-.73-2.54-1.34-3.54-1.83-10.13,3.59-19.81,6.46-28.56,8.75a65.78,65.78,0,0,1,12,5.52c12.45,7.34,24.63,16.71,46.62,10.54C181.74,212.35,181.45,211.92,181.13,211.48Z" transform="translate(-44.31 -9.2)"/><path class="cls-9" d="M225.42,186.86c-3.22-2.11-6.78-4.16-10.42-6.08a215.9,215.9,0,0,0-20.57-9.33l-2.64-1q-5.1,2.76-10.27,5.26c-7.1,3.42-14.24,6.48-21.24,9.18h0c.67.53,1.35,1.1,2.06,1.69,1.07.9,2.18,1.87,3.3,2.9s2.24,2.13,3.37,3.26c.55.57,1.11,1.15,1.66,1.74s1.1,1.18,1.63,1.79,1.06,1.22,1.57,1.85c.25.31.51.62.77.92l.73.95c.5.62,1,1.26,1.42,1.88s.89,1.27,1.32,1.88c.84,1.25,1.62,2.49,2.3,3.68.36.59.67,1.19,1,1.75l.44.84.41.83c.29.57.54,1.12.77,1.65a92.72,92.72,0,0,0,18.66-8.16,108.89,108.89,0,0,0,27.38-15C227.89,188.51,226.68,187.68,225.42,186.86Z" transform="translate(-44.31 -9.2)"/><path class="cls-1" d="M115.14,212.44s28-3.72,32.94-6.92c5.53-3.58,35.58-6.16,47.12-15.66,9.92-9.13,11.05-14.82,17-27.09,4.39-9,9.59-19.22,12.52-30.51,1.69-6.47,2.08-13.24,2.52-20.46a76.55,76.55,0,0,0-1.08-16.17c-4.93-32.56-29.57-68.26-49.25-86a29.33,29.33,0,0,1,.62,25.75c-3.48,7.83-11,15.93-17.47,23.32-8.94,8-18,17.47-24.93,23.67,0,0-5.48,5-11.25,11.18-9.46,10.24-22,27-23.17,45.81-.89,13.8,9.55,35.62,12.36,49C116.47,204.27,116,210.3,115.14,212.44Z" transform="translate(-44.31 -9.2)"/><path class="cls-10" d="M162.94,119.68c1.35,1.75,2.63,3.47,3.84,5.11s2.33,3.19,3.35,4.64c1.33,1.86,2.5,3.54,3.47,5q2.07-4.11,4-8.3c2-4.47,3.88-9,5.54-13.61-.07-.21-.16-.43-.24-.67-.63-1.64-1.55-4-2.69-6.79-.58-1.4-1.21-2.92-1.89-4.51s-1.42-3.28-2.19-5-1.59-3.5-2.44-5.3c-.43-.9-.86-1.8-1.31-2.7l-.66-1.36L171,84.8c-.91-1.81-1.85-3.59-2.8-5.34-.47-.88-1-1.73-1.44-2.58l-1.46-2.49c-.49-.81-1-1.6-1.46-2.37s-1-1.52-1.46-2.24-.95-1.42-1.43-2.08-.94-1.31-1.41-1.9-.9-1.18-1.34-1.71l-1.28-1.5-.59-.63c-8,7.76-17,15.71-25.34,24.18.46.33.93.71,1.45,1.09l.89.67c.29.25.6.49.91.75.62.51,1.29,1,1.95,1.62,2.69,2.29,5.7,5.12,8.77,8.3.77.8,1.56,1.6,2.33,2.44.39.42.77.84,1.17,1.26l1.16,1.28,1.17,1.31,1.16,1.32c.78.88,1.54,1.78,2.3,2.68s1.52,1.81,2.27,2.72l2.22,2.72C160.18,116.12,161.6,117.92,162.94,119.68Z" transform="translate(-44.31 -9.2)"/><path class="cls-11" d="M105.27,123.67c.43.28.92.59,1.44.94l.83.53.87.6,1.9,1.31,2.09,1.51c1.44,1.06,3,2.23,4.6,3.52.81.63,1.62,1.3,2.46,2s1.68,1.4,2.53,2.12c1.72,1.45,3.46,3,5.21,4.58.88.79,1.74,1.6,2.62,2.41l2.61,2.47c1.73,1.67,3.44,3.35,5.1,5l1.24,1.26,1.22,1.25c.81.83,1.6,1.66,2.38,2.48,1.55,1.63,3,3.23,4.42,4.76s2.7,3,3.89,4.34c.95,1.07,1.83,2.08,2.63,3,.7-1,1.41-2,2.11-3,4.05-5.86,8-12.06,11.77-18.53.52-.9,1-1.81,1.55-2.72l-.25-.51c-.24-.48-.59-1.19-1-2.08-.91-1.8-2.23-4.36-3.88-7.42-.82-1.52-1.73-3.17-2.7-4.91s-2-3.55-3.12-5.42-2.26-3.8-3.45-5.74l-1.83-2.92c-.63-1-1.24-2-1.89-2.92s-1.27-1.93-1.92-2.89l-1-1.42-1-1.41c-.33-.47-.66-.93-1-1.4s-.67-.91-1-1.36c-.65-.92-1.32-1.79-2-2.66-2.63-3.47-5.22-6.6-7.58-9.16-.57-.66-1.16-1.25-1.71-1.83l-.81-.83c-.26-.27-.53-.52-.78-.77-.48-.45-.91-.9-1.34-1.29-10.94,11.08-20.83,23-26.14,36.55Z" transform="translate(-44.31 -9.2)"/><path class="cls-12" d="M157.36,62.16l1.44,1.38c.5.49,1,1,1.54,1.58s1,1.17,1.61,1.78,1.09,1.29,1.67,2,1.12,1.39,1.7,2.11,1.14,1.48,1.73,2.25l1.72,2.37c.57.81,1.16,1.62,1.73,2.45,1.14,1.67,2.28,3.38,3.38,5.11l.83,1.29.81,1.3c.55.87,1.08,1.74,1.6,2.6,1,1.73,2.06,3.44,3,5.11s1.88,3.28,2.73,4.83,1.65,3,2.37,4.37c.25.45.48.9.71,1.33a151.57,151.57,0,0,0,4.75-20.37c.56-3.52,1-7,1.25-10.43s.4-6.79.4-10.08-.13-6.47-.39-9.56c-.07-.77-.14-1.54-.2-2.29s-.17-1.52-.25-2.27c-.16-1.5-.35-3-.55-4.39-.42-2.85-.92-5.56-1.53-8.1-.3-1.28-.63-2.51-1-3.7s-.73-2.34-1.12-3.44a71.93,71.93,0,0,0-5-11.09c-1.64-3-3.1-5.22-4.11-6.74-.5-.76-.9-1.34-1.17-1.73l-.41-.59C186.86,28,174.35,44.33,156.7,61.59Z" transform="translate(-44.31 -9.2)"/><path class="cls-13" d="M178.42,11.37c1.14,1.42,2.81,3.53,4.74,6.37a74.82,74.82,0,0,1,6.12,10.82c.5,1.09,1,2.24,1.47,3.43s.93,2.44,1.36,3.72c.88,2.57,1.65,5.32,2.34,8.21.35,1.45.67,2.92,1,4.43.15.76.3,1.51.46,2.28s.29,1.56.43,2.35c.56,3.16,1,6.46,1.31,9.87s.52,6.93.55,10.53,0,7.29-.3,11A159.15,159.15,0,0,1,194.72,107l1.78-1c1.16-.63,2.38-1.29,3.66-1.94l2-1c.66-.33,1.34-.65,2-1,1.36-.65,2.76-1.27,4.17-1.87.71-.29,1.41-.58,2.13-.86s1.41-.56,2.13-.81,1.41-.51,2.11-.73l1.05-.34,1-.31,1-.3,1-.26,1-.26,1-.21c.63-.15,1.27-.26,1.88-.37s1.2-.19,1.76-.26l.84-.11.8-.06h.15c-7.39-50.21-49.57-86.1-49.57-86.1l.46.55C177.39,10.11,177.85,10.65,178.42,11.37Z" transform="translate(-44.31 -9.2)"/><path class="cls-14" d="M226.15,96l-.77.16c-.26,0-.53.13-.8.2-.54.13-1.1.27-1.68.46s-1.17.35-1.77.57l-.92.33c-.31.1-.61.24-.93.36l-.94.37-1,.41c-.32.14-.65.27-1,.42l-1,.45c-.65.3-1.3.63-1.95,1s-1.31.69-2,1-1.3.72-1.95,1.08c-1.28.75-2.56,1.51-3.8,2.29-.62.39-1.23.78-1.83,1.18s-1.19.78-1.77,1.17c-1.15.78-2.25,1.56-3.29,2.31s-2,1.46-2.89,2.14-1.68,1.3-2.39,1.86l-.59.47c-1.38,5.4-3,10.78-4.83,16.09-.51,1.47-1,2.94-1.58,4.4a213.78,213.78,0,0,1,21.19-3.18c4.18-.4,8.38-.64,12.32-.64,1.69,0,3.33,0,4.9.13a98.6,98.6,0,0,0,1.26-35Z" transform="translate(-44.31 -9.2)"/><path class="cls-15" d="M131.35,195.36c5-5.65,10.38-12.1,15.8-19.22-1-1.58-2.24-3.57-3.73-5.83-1-1.47-2-3.06-3.15-4.73s-2.35-3.41-3.62-5.21c-.64-.9-1.28-1.81-2-2.73l-1-1.38c-.34-.46-.68-.93-1-1.39-1.37-1.86-2.8-3.73-4.24-5.59l-2.19-2.76c-.74-.91-1.47-1.82-2.21-2.71-1.48-1.78-3-3.52-4.43-5.17-.73-.83-1.44-1.65-2.17-2.43s-1.42-1.55-2.12-2.28c-1.39-1.48-2.74-2.84-4-4.08l-1.83-1.77-1.68-1.56-.77-.71-.74-.64L105,124l-.71-.59c-4.8,12.41-5.73,26.15-.06,41.75,10.26,23.25,11.34,39.19,10.92,47.24C119.58,208.09,125.17,202.33,131.35,195.36Z" transform="translate(-44.31 -9.2)"/><path class="cls-16" d="M201.7,180.37l-.87-.24-.9-.21c-.61-.14-1.24-.3-1.9-.42-1.31-.26-2.69-.49-4.13-.67-.72-.08-1.45-.19-2.2-.24s-1.49-.14-2.25-.17l-1.14-.07-1.14,0c-.77,0-1.54,0-2.31,0s-1.54,0-2.3,0l-2.28.1c-1.51.09-3,.2-4.42.36s-2.81.34-4.1.52-2.53.41-3.65.63c-1.5.28-2.81.57-3.9.83-5.53,9.21-11.18,17.58-16.49,24.9a66,66,0,0,1,12.78-3.36c14.28-2.25,29.64-2.75,42.7-21.49C202.72,180.65,202.22,180.5,201.7,180.37Z" transform="translate(-44.31 -9.2)"/><path class="cls-17" d="M220.26,133.21c-3.83.42-7.88,1.1-11.91,1.93A216.88,216.88,0,0,0,186.54,141l-2.69.89q-2.19,5.37-4.6,10.58c-3.3,7.16-6.87,14.05-10.56,20.59v0c.85,0,1.74,0,2.66,0,1.4,0,2.87.06,4.39.15s3.09.22,4.67.37c.8.09,1.6.18,2.39.29s1.6.21,2.4.35,1.6.27,2.39.43l1.18.23,1.16.26c.78.16,1.54.36,2.3.55s1.49.41,2.21.62c1.45.43,2.83.89,4.12,1.37.65.23,1.26.5,1.86.74l.88.36.84.38c.58.26,1.13.53,1.65.79A92.81,92.81,0,0,0,213,161.8a109,109,0,0,0,11.62-29C223.21,132.92,221.75,133,220.26,133.21Z" transform="translate(-44.31 -9.2)"/><path class="cls-1" d="M133.17,227.57s21-19,23.2-24.39c2.52-6.08,25.8-25.26,29.91-39.63,3-13.14.69-18.48-1.34-32-1.49-9.9-3-21.27-7-32.23-2.29-6.29-5.8-12.09-9.53-18.28a77.26,77.26,0,0,0-10.07-12.7c-22.53-24-63.08-39.43-89.37-42.9A29.35,29.35,0,0,1,84.09,46.32c1.58,8.42,0,19.35-1.15,29.12-2.85,11.63-5,24.63-7.11,33.63,0,0-1.7,7.19-2.91,15.6-2,13.79-2.77,34.68,6.91,50.86,7.11,11.87,28.08,23.91,38,33.33C129.63,220.09,132.62,225.34,133.17,227.57Z" transform="translate(-44.31 -9.2)"/><path class="cls-18" d="M119.9,124.06c2.1.68,4.13,1.37,6,2s3.73,1.31,5.4,1.92c2.15.79,4.06,1.51,5.67,2.13-.42-3-.89-6.06-1.44-9.08-.87-4.84-1.92-9.64-3.16-14.37l-.58-.4c-1.44-1-3.53-2.41-6.07-4.07-1.26-.83-2.64-1.72-4.11-2.64s-3-1.9-4.64-2.88-3.3-2-5-3c-.87-.5-1.73-1-2.61-1.49l-1.32-.74-1.33-.72c-1.77-1-3.56-1.91-5.34-2.81-.88-.45-1.77-.87-2.65-1.3l-2.61-1.23-2.55-1.12c-.84-.35-1.66-.7-2.47-1s-1.59-.63-2.36-.9-1.51-.54-2.24-.77-1.41-.45-2.08-.64l-1.89-.51-.86-.18c-2.15,10.91-5,22.55-7.14,34.29.57,0,1.17,0,1.82.07l1.11,0,1.17.1c.8.06,1.65.12,2.52.23,3.52.36,7.6,1,11.94,1.85,1.09.22,2.19.44,3.3.69l1.68.38,1.69.39,1.7.41,1.7.44c1.15.28,2.28.59,3.42.9s2.28.63,3.41,1l3.37,1C115.6,122.7,117.79,123.37,119.9,124.06Z" transform="translate(-44.31 -9.2)"/><path class="cls-19" d="M74.66,160.07l1.73,0,1,0h3.37l2.57.05c1.79.07,3.74.15,5.79.29,1,.06,2.08.16,3.15.25s2.18.19,3.3.3c2.23.23,4.54.51,6.88.82,1.17.15,2.34.33,3.53.5l3.55.55c2.37.4,4.73.81,7,1.25l1.74.33,1.71.34c1.14.22,2.26.46,3.36.69q3.31.7,6.35,1.41c2,.47,3.91.93,5.66,1.37,1.39.34,2.69.68,3.87,1,0-1.22,0-2.44,0-3.68,0-7.12-.24-14.48-.83-21.94-.08-1-.17-2.07-.27-3.11l-.49-.28-2-1.13c-1.76-1-4.31-2.32-7.4-3.9-1.54-.79-3.22-1.63-5-2.51s-3.68-1.79-5.65-2.7-4-1.84-6.1-2.77l-3.16-1.36c-1.06-.44-2.13-.9-3.2-1.33s-2.15-.88-3.23-1.29l-1.61-.63-1.61-.6-1.59-.59-1.59-.56c-1.06-.39-2.1-.73-3.14-1.08-4.12-1.36-8-2.47-11.43-3.24-.85-.21-1.67-.37-2.44-.53l-1.14-.23-1.08-.19c-.65-.1-1.27-.22-1.84-.3-2.72,15.33-4.09,30.78-.79,44.93Z" transform="translate(-44.31 -9.2)"/><path class="cls-20" d="M82.66,79.87l2,.32c.69.12,1.41.28,2.16.43s1.53.36,2.34.55,1.63.43,2.48.66,1.72.51,2.61.77l2.69.88,2.77,1c.92.34,1.87.68,2.81,1,1.89.73,3.79,1.49,5.68,2.28l1.42.6L111,89c.94.4,1.87.82,2.79,1.23,1.84.83,3.64,1.67,5.38,2.49s3.41,1.65,5,2.43,3.07,1.55,4.43,2.25l1.34.7a151.5,151.5,0,0,0-7.64-19.47q-2.31-4.83-4.9-9.3c-1.71-3-3.52-5.82-5.38-8.52s-3.79-5.26-5.75-7.65l-1.47-1.77c-.5-.59-1-1.17-1.49-1.74q-1.47-1.7-2.94-3.29c-2-2.11-3.91-4.06-5.86-5.81-1-.88-1.94-1.71-2.91-2.48s-1.92-1.52-2.87-2.21a73.45,73.45,0,0,0-10.41-6.29c-3-1.51-5.52-2.53-7.21-3.21-.85-.35-1.51-.59-1.95-.76l-.67-.25C87.58,35,86.54,55.55,81.79,79.77Z" transform="translate(-44.31 -9.2)"/><path class="cls-21" d="M71.18,26.09c1.75.53,4.32,1.32,7.52,2.57a74.9,74.9,0,0,1,11.18,5.42c1,.63,2.09,1.28,3.16,2s2.15,1.48,3.23,2.29c2.18,1.62,4.38,3.45,6.58,5.43,1.11,1,2.21,2,3.33,3.09.55.54,1.1,1.08,1.67,1.62l1.68,1.69q3.39,3.44,6.69,7.39c2.19,2.62,4.35,5.41,6.42,8.35s4.1,6,6,9.25a160,160,0,0,1,10.2,20.37l.9-1.83c.59-1.18,1.22-2.42,1.9-3.68.34-.63.69-1.28,1-1.92s.73-1.29,1.11-1.95c.76-1.3,1.56-2.61,2.38-3.9.42-.64.83-1.29,1.26-1.92s.85-1.26,1.29-1.87.88-1.22,1.33-1.8l.67-.88c.22-.29.45-.56.68-.84l.67-.83.69-.79c.23-.26.44-.53.67-.77l.68-.73c.44-.49.91-.94,1.35-1.37s.88-.84,1.3-1.22l.63-.56.62-.51.12-.09C123.58,30.94,68.48,25.33,68.48,25.33l.69.19Q69.86,25.7,71.18,26.09Z" transform="translate(-44.31 -9.2)"/><path class="cls-22" d="M158.52,68.72l-.55.56-.54.62c-.37.42-.75.85-1.12,1.34s-.77,1-1.13,1.47l-.58.79c-.19.26-.37.54-.56.82s-.37.56-.57.84-.36.59-.55.88-.37.59-.55.9l-.54.92c-.37.61-.72,1.25-1.07,1.89s-.69,1.31-1,2-.66,1.33-1,2c-.64,1.35-1.26,2.7-1.83,4-.29.67-.58,1.34-.84,2s-.54,1.32-.79,2c-.51,1.3-1,2.57-1.4,3.77s-.82,2.34-1.17,3.4-.65,2-.91,2.89l-.22.73c1.93,5.22,3.65,10.57,5.15,16,.42,1.5.81,3,1.2,4.52,4.24-4.36,9.75-9.71,15.64-14.64,3.22-2.7,6.54-5.28,9.79-7.52,1.39-.95,2.76-1.85,4.11-2.67a99.05,99.05,0,0,0-18.85-29.57Z" transform="translate(-44.31 -9.2)"/><path class="cls-23" d="M136.82,204.3c.91-7.48,1.68-15.85,2.11-24.78-1.71-.75-3.88-1.67-6.38-2.69-1.63-.66-3.4-1.37-5.28-2.1s-3.87-1.49-5.94-2.24c-1-.38-2.08-.77-3.15-1.14l-1.62-.57-1.63-.56c-2.19-.75-4.42-1.48-6.67-2.19l-3.37-1c-1.12-.33-2.24-.67-3.35-1-2.23-.63-4.44-1.22-6.58-1.75-1.07-.26-2.13-.53-3.17-.76s-2.05-.48-3-.68c-2-.43-3.86-.78-5.61-1.09l-2.51-.42L78.36,161l-1-.14-1-.11-1.71-.2-.92-.09c3.09,13,10.12,24.79,23.65,34.42C119,208.19,129,220.7,133.17,227.57,134.35,221.47,135.69,213.55,136.82,204.3Z" transform="translate(-44.31 -9.2)"/><path class="cls-24" d="M186.24,152.05l-.84.29-.87.34c-.58.23-1.19.46-1.8.74-1.22.52-2.49,1.12-3.78,1.79-.64.34-1.3.66-1.94,1s-1.31.73-1.95,1.14l-1,.59-1,.62c-.65.41-1.28.85-1.92,1.28s-1.25.89-1.87,1.33l-1.83,1.38c-1.19.93-2.34,1.86-3.43,2.8s-2.12,1.87-3.08,2.76-1.85,1.77-2.65,2.58c-1.07,1.08-2,2.07-2.74,2.9.67,10.72.77,20.82.56,29.86a65.68,65.68,0,0,1,8.61-10c10.48-9.95,22.84-19.08,23-41.92C187.25,151.7,186.75,151.86,186.24,152.05Z" transform="translate(-44.31 -9.2)"/><path class="cls-25" d="M174.77,102.68c-2.92,2.52-5.87,5.38-8.71,8.35a216.1,216.1,0,0,0-14.63,17.2c-.62.8-1.19,1.55-1.72,2.26q1.24,5.67,2.22,11.32c1.34,7.77,2.31,15.47,3,22.94v0c.69-.5,1.42-1,2.19-1.52,1.16-.77,2.4-1.58,3.7-2.36s2.66-1.58,4.06-2.35c.7-.38,1.41-.75,2.13-1.12s1.43-.73,2.17-1.07,1.46-.69,2.2-1l1.11-.48,1.11-.45c.73-.31,1.47-.58,2.2-.85s1.46-.5,2.17-.75c1.44-.46,2.83-.87,4.17-1.2.66-.18,1.32-.31,2-.45l.94-.2.9-.16c.63-.12,1.23-.21,1.8-.29A92.15,92.15,0,0,0,185,130.35a108.7,108.7,0,0,0-6.86-30.45Q176.49,101.2,174.77,102.68Z" transform="translate(-44.31 -9.2)"/><path class="cls-26" d="M58.64,197.73s29.27-45.35,70.16-41.62a253,253,0,0,1,30.91,8.56c18.09,6.14,28.51,8.2,37.27,5.13s19.79-1.9,6,12.11c0,0-10.51,13.05-34.31,7.52-14.87-3.22-40.59-15.39-30.83.72a44.89,44.89,0,0,0,36.06,11.53c22.36-2.73,42.22-13.15,59.52-22.74s23.57-9.13,26.13-10,15.24.83,0,11.22a242.94,242.94,0,0,0-36.24,25.27c-16.83,14.53-48.38,37.82-96.94,23.44-33.68-11.18-49.62-13.82-63.6-5.2,0,0-18.8,9.85-13.62,41.85C49.15,265.56,33.44,242,58.64,197.73Z" transform="translate(-44.31 -9.2)"/><text class="cls-27" transform="translate(39.02 254.33)"><tspan class="cls-28">F</tspan><tspan x="19.09" y="0">armEasy</tspan></text></svg>