<svg id="Scene" xmlns="http://www.w3.org/2000/svg" viewBox="0 0 108.83 70.91"><defs><style>.cls-1{fill:#7fb74a;}.cls-2{fill:#739b48;}.cls-3{fill:#176937;}.cls-4{fill:#588645;}.cls-5{fill:#d8a88f;}.cls-6{fill:#f4b78e;}.cls-7{fill:#ce9174;}.cls-8{fill:#e59a03;}.cls-9{fill:#68301a;}.cls-10{fill:#c64d22;}.cls-11{fill:#e09500;}.cls-12{fill:#f2b225;}.cls-13{fill:#843a2c;}.cls-14{fill:#ebf4df;}.cls-15{fill:#efc9b6;}</style></defs><g id="_8" data-name="8"><path class="cls-1" d="M252.19,152.69a10.52,10.52,0,0,1-1.65,4.19,2.53,2.53,0,0,1-.21.32c-.06.07-.11.15-.17.21a7.17,7.17,0,0,1-1.37,1.38s-.06,0-.09.07a2.59,2.59,0,0,1-.39.25,4.22,4.22,0,0,1-1.25.56c-1.57.43-2.11-.39-4.42-.87h0a10.49,10.49,0,0,0-4,0,24,24,0,0,0-3.41,1l-.58.2c-1.62.54-2.91.82-3.86-.19a3,3,0,0,1-.61-1,2,2,0,0,0-.72-.89c-1.38-1-3,0-5.1.78l-.74.25a20.58,20.58,0,0,1-4.07.91l-.95.08a13.59,13.59,0,0,1-6.15-1l-.37-.17a15.2,15.2,0,0,0-1.63-.89,9,9,0,0,0-1.56-.49,10,10,0,0,0-3.85,0c-1.39.22-2.91.63-4.75,1l-1.82.38c-4.18.84-7.49,1.29-11.28.24-2.78-.77-2.28-1.33-4.38-1.66-5.43-.86-8.85,2.92-11.85.62a6.74,6.74,0,0,0-2.32-1.63,5.14,5.14,0,0,0-3.72.44c-3.45,1.47-10.48,3.26-13,.31-.68-.8-.46-1.32-1.28-2-1.63-1.32-3.63-.22-4.57-1.67a2.5,2.5,0,0,1-.35-1c-.4-2,.93-4,1.39-4.65,3.24-4.76,11.88-4.62,11.88-4.62,22.93.35,59.07,4.54,70.36,1.22,5.5-1.62,11.29-1.5,16.84-2.84a2.82,2.82,0,0,1,1.17,0C250.23,142.11,253,147.68,252.19,152.69Z" transform="translate(-145.58 -89.54)"/><path class="cls-2" d="M249.88,147.51c.06.5-.72,1.51-.23,2.67s1.5,1.17,1.45,1.68c-.07.78-2.62,1.72-4.93,1.17-1.13-.26-1.49-.72-3.35-1.22-.27-.07-.92-.24-1.81-.54-.65-.22-1.1-.41-1.22-.45a11.6,11.6,0,0,0-4.39-.41c-11.15,1-22.39-.3-33.57,0-5.38.14-10.79-.53-16.14,0,0,0-6.69.68-10.22-.9a11,11,0,0,0-1.67-.61,12.06,12.06,0,0,0-2.74-.41c-2.93-.1-8.57-.28-8.57-.33s22.45-2,39.59-2C202.08,146.18,249.43,143.36,249.88,147.51Z" transform="translate(-145.58 -89.54)"/><path class="cls-3" d="M246,129.8a13.39,13.39,0,0,1,.55,3.78c0,6.63-4.75,12-10.6,12a9.91,9.91,0,0,1-7.09-3.09c-1.61,2-3.51,3.11-5.54,3.11a5.5,5.5,0,0,1-2.07-.41,7.32,7.32,0,0,1-5.05,2.27,7.51,7.51,0,0,1-5.4-2.64,24.14,24.14,0,0,1-2.73.16c-6.43,0-11.66-2.51-11.66-5.61,0-1.49,1.22-2.83,3.19-3.84a11,11,0,0,1,.62-9.59,6.69,6.69,0,0,1-.33-2c0-2.84,1.86-5.32,4.67-6.76a6.34,6.34,0,0,1,1.38-2.75c-.05-.13-.09-.26-.13-.4a3.69,3.69,0,0,1-.13-1,4.57,4.57,0,0,1,4.78-4.34c.22,0,.43,0,.66.06,1.56-3,4.27-5,7.36-5a7.23,7.23,0,0,1,3.47.9,5.27,5.27,0,0,1,1.37-.19,7.17,7.17,0,0,1,5.32,2.84,4.84,4.84,0,0,1,1.57-.34,5.05,5.05,0,0,1,4.64,2.93,10.09,10.09,0,0,1,5.33,7.84,6,6,0,0,1,1.1,1.19,6.88,6.88,0,0,1,4.92,5.16,9,9,0,0,1,.35,2.51A9.16,9.16,0,0,1,246,129.8Z" transform="translate(-145.58 -89.54)"/><path class="cls-4" d="M246.23,124.15a22.74,22.74,0,0,1-7-.35c-3.3-.51-4.38-1.53-4.69-1.83-1.32-1.34-.93-2.4-2.23-4.21a9,9,0,0,0-4.9-3.39c-3.8-.78-7.15,2.5-7.8,1.69-.53-.65,1.55-2.92,1.09-3.39s-3.06,2.29-5.92,1.76c-1.3-.24-1.56-1-2.57-1.49-1.83-.93-4.13-.11-6.35,1.1a3.69,3.69,0,0,1-.13-1,4.57,4.57,0,0,1,4.78-4.34c.22,0,.43,0,.66.06,1.56-3,4.27-5,7.36-5a7.23,7.23,0,0,1,3.47.9,5.27,5.27,0,0,1,1.37-.19,7.17,7.17,0,0,1,5.32,2.84,4.84,4.84,0,0,1,1.57-.34,5.05,5.05,0,0,1,4.64,2.93,10.09,10.09,0,0,1,5.33,7.84,6,6,0,0,1,1.1,1.19A6.88,6.88,0,0,1,246.23,124.15Z" transform="translate(-145.58 -89.54)"/><path class="cls-3" d="M186.93,113.36a7.74,7.74,0,0,0-.31,2.17c0,3.81,2.72,6.89,6.08,6.89a5.67,5.67,0,0,0,4.07-1.78,4.23,4.23,0,0,0,3.18,1.79,3.23,3.23,0,0,0,1.19-.23,4.21,4.21,0,0,0,2.9,1.29,4.28,4.28,0,0,0,3.1-1.51,13.22,13.22,0,0,0,1.56.09c3.7,0,6.7-1.44,6.7-3.21,0-.86-.7-1.63-1.83-2.21a6.29,6.29,0,0,0-.36-5.51,3.68,3.68,0,0,0,.19-1.14,4.49,4.49,0,0,0-2.68-3.88,3.69,3.69,0,0,0-.79-1.58,1.55,1.55,0,0,0,.07-.23,1.91,1.91,0,0,0,.08-.54,2.62,2.62,0,0,0-2.74-2.49c-.13,0-.26,0-.38,0a4.9,4.9,0,0,0-4.23-2.86,4.18,4.18,0,0,0-2,.51,3,3,0,0,0-.79-.11,4.11,4.11,0,0,0-3,1.64,2.74,2.74,0,0,0-.9-.2,2.92,2.92,0,0,0-2.67,1.68,5.82,5.82,0,0,0-3.06,4.5,4.1,4.1,0,0,0-.63.68,4,4,0,0,0-2.82,3,5.17,5.17,0,0,0-.2,1.44A5.27,5.27,0,0,0,186.93,113.36Z" transform="translate(-145.58 -89.54)"/><path class="cls-4" d="M186.82,110.12c.7-1.05,1-1.23,1.12-1.17s.08.7.3.77.35-.47.77-.59c.66-.19,1.17.93,1.84.79s.57-1.14,1.21-1.24,1.06.52,1.41.25l.07-.07c.42-.45-.06-1,.24-1.52s.65-.36,1-.89a1.68,1.68,0,0,1,.75-.62c.39-.1.55.39.88.34.52-.09.4-1.28,1.18-1.67a1.31,1.31,0,0,1,1-.06c.51.18.57.61.88.62.48,0,.58-1,1.13-1.07s.84.89,1.5.86.72-.87,1.38-.92,1.17.76,1.39.61-.16-.66.06-.93,1.07,0,1.42.07a14.67,14.67,0,0,0,3.64.63,1.91,1.91,0,0,0,.08-.54,2.62,2.62,0,0,0-2.74-2.49c-.13,0-.26,0-.38,0a4.9,4.9,0,0,0-4.23-2.86,4.18,4.18,0,0,0-2,.51,3,3,0,0,0-.79-.11,4.11,4.11,0,0,0-3,1.64,2.74,2.74,0,0,0-.9-.2,2.92,2.92,0,0,0-2.67,1.68,5.82,5.82,0,0,0-3.06,4.5,4.1,4.1,0,0,0-.63.68A4,4,0,0,0,186.82,110.12Z" transform="translate(-145.58 -89.54)"/><path class="cls-3" d="M183.87,134a7.74,7.74,0,0,1,.31,2.17c0,3.81-2.72,6.89-6.08,6.89a5.66,5.66,0,0,1-4.07-1.77,4.25,4.25,0,0,1-3.18,1.78,3.27,3.27,0,0,1-1.19-.23,4.23,4.23,0,0,1-2.9,1.3,4.34,4.34,0,0,1-3.1-1.51c-.5,0-1,.09-1.56.09-3.7,0-6.7-1.44-6.7-3.22,0-.86.7-1.63,1.83-2.21a6.27,6.27,0,0,1-.47-2.38,6.38,6.38,0,0,1,.83-3.13,3.63,3.63,0,0,1-.19-1.14,4.49,4.49,0,0,1,2.68-3.88,3.6,3.6,0,0,1,.79-1.57,2.64,2.64,0,0,1-.15-.78,2.63,2.63,0,0,1,2.75-2.49l.37,0a4.9,4.9,0,0,1,4.23-2.86,4.15,4.15,0,0,1,2,.51,3.5,3.5,0,0,1,.79-.11,4.11,4.11,0,0,1,3.05,1.64,2.74,2.74,0,0,1,.9-.2,2.91,2.91,0,0,1,2.67,1.68,5.82,5.82,0,0,1,3.06,4.5,4.17,4.17,0,0,1,.63.69,3.94,3.94,0,0,1,2.82,3,4.87,4.87,0,0,1,.2,1.44A5.27,5.27,0,0,1,183.87,134Z" transform="translate(-145.58 -89.54)"/><path class="cls-4" d="M184,130.74c-.69-1.05-1-1.22-1.12-1.17s-.08.7-.29.77-.36-.47-.77-.59c-.67-.19-1.18.93-1.85.79s-.57-1.14-1.21-1.24-1.05.52-1.41.25l-.07-.06c-.41-.46.06-1.05-.24-1.53-.21-.33-.65-.36-1-.89a1.81,1.81,0,0,0-.75-.62c-.39-.09-.54.39-.88.34-.52-.08-.4-1.27-1.18-1.67a1.31,1.31,0,0,0-1-.05c-.51.17-.57.6-.88.61-.48,0-.58-1-1.13-1.07s-.84.89-1.5.86-.72-.87-1.38-.92-1.17.77-1.39.61.16-.66-.06-.93-1.06,0-1.42.07a15,15,0,0,1-3.64.64,2,2,0,0,1-.08-.55,2.63,2.63,0,0,1,2.75-2.49l.37,0a4.9,4.9,0,0,1,4.23-2.86,4.15,4.15,0,0,1,2,.51,3.5,3.5,0,0,1,.79-.11,4.11,4.11,0,0,1,3.05,1.64,2.74,2.74,0,0,1,.9-.2,2.91,2.91,0,0,1,2.67,1.68,5.82,5.82,0,0,1,3.06,4.5,4.17,4.17,0,0,1,.63.69A3.94,3.94,0,0,1,184,130.74Z" transform="translate(-145.58 -89.54)"/><path class="cls-5" d="M248.05,147.18l-10.77.08H236.2l-2.77,0-1.33,0h-.48l-9.51.06c1-3.06,2-6.35,2.86-9.87.61-2.37,1.19-4.85,1.71-7.42a160.38,160.38,0,0,0,2.45-16l11.27-.5q.27,2.78.68,5.72A138.44,138.44,0,0,0,245,137.68C245.92,141,247,144.2,248.05,147.18Z" transform="translate(-145.58 -89.54)"/><path class="cls-6" d="M242.29,117.32H227.15c.12-.32.25-.65.37-1,.28-.8.56-1.65.81-2.57q.24-.89.45-1.83c.07-.27.14-.55.19-.83.09-.47.18-.94.27-1.44l.06-.4c0-.17,0-.35.08-.53.06-.46.12-.92.16-1.36.12-1,.18-2,.2-3a.91.91,0,0,0,0-.17h9.95v.17c0,.28,0,.56,0,.86a.86.86,0,0,1,0,.16c0,.55.05,1.1.1,1.69s.11,1.19.2,1.82c0,.18,0,.36.08.54l.06.38c.06.37.13.71.19,1.06s.09.46.15.68c.13.63.28,1.23.45,1.81.06.25.13.48.19.71.19.64.4,1.24.6,1.8,0,.1.06.18.09.26C242,116.56,242.14,117,242.29,117.32Z" transform="translate(-145.58 -89.54)"/><rect class="cls-6" x="83.72" y="14" width="10.84" height="0.83"/><path class="cls-7" d="M230.62,105.14a1.25,1.25,0,0,0,0,1.32,1.07,1.07,0,0,0,1,.47,1,1,0,0,0,.61-.41,1.89,1.89,0,0,0,.32-1.48Z" transform="translate(-145.58 -89.54)"/><path class="cls-7" d="M232.91,105.06a1.24,1.24,0,0,0,0,1.31,1.05,1.05,0,0,0,.95.48,1,1,0,0,0,.61-.41,1.89,1.89,0,0,0,.32-1.48Z" transform="translate(-145.58 -89.54)"/><path class="cls-7" d="M235.53,105.06a1.26,1.26,0,0,0,0,1.31,1.05,1.05,0,0,0,.95.48,1,1,0,0,0,.62-.41,1.88,1.88,0,0,0,.31-1.48Z" transform="translate(-145.58 -89.54)"/><path class="cls-7" d="M237.79,105.06a1.26,1.26,0,0,0,0,1.31,1.05,1.05,0,0,0,.95.48,1,1,0,0,0,.61-.41,1.89,1.89,0,0,0,.32-1.48Z" transform="translate(-145.58 -89.54)"/><path class="cls-7" d="M230.91,108.75a1,1,0,0,1-.61.4,1,1,0,0,1-.92-.43c.06-.46.12-.92.16-1.36l1.69-.09A1.89,1.89,0,0,1,230.91,108.75Z" transform="translate(-145.58 -89.54)"/><path class="cls-7" d="M232,107.37a1.24,1.24,0,0,0,0,1.31,1,1,0,0,0,.95.47,1,1,0,0,0,.61-.4,1.91,1.91,0,0,0,.32-1.49Z" transform="translate(-145.58 -89.54)"/><path class="cls-7" d="M234.2,107.37a1.24,1.24,0,0,0,0,1.31,1,1,0,0,0,1,.47,1,1,0,0,0,.61-.4,1.89,1.89,0,0,0,.31-1.49Z" transform="translate(-145.58 -89.54)"/><path class="cls-7" d="M236.82,107.2a1.26,1.26,0,0,0,0,1.31,1,1,0,0,0,1,.47,1,1,0,0,0,.61-.4,1.85,1.85,0,0,0,.31-1.49Z" transform="translate(-145.58 -89.54)"/><path class="cls-7" d="M240,108.9a1.06,1.06,0,0,1-.88-.47,1.25,1.25,0,0,1,0-1.32l.71,0C239.87,107.66,239.93,108.27,240,108.9Z" transform="translate(-145.58 -89.54)"/><path class="cls-7" d="M230.45,111.06a1,1,0,0,1-.61.4,1,1,0,0,1-.87-.37c.09-.47.18-.94.27-1.44l1.53-.08A1.91,1.91,0,0,1,230.45,111.06Z" transform="translate(-145.58 -89.54)"/><path class="cls-7" d="M231.15,109.59a1.26,1.26,0,0,0,0,1.31,1,1,0,0,0,.95.48,1,1,0,0,0,.61-.41,1.89,1.89,0,0,0,.32-1.48Z" transform="translate(-145.58 -89.54)"/><path class="cls-7" d="M233.78,109.59a1.26,1.26,0,0,0,0,1.31,1.05,1.05,0,0,0,.95.48,1,1,0,0,0,.61-.41,1.89,1.89,0,0,0,.32-1.48Z" transform="translate(-145.58 -89.54)"/><path class="cls-7" d="M236,109.59a1.24,1.24,0,0,0,0,1.31,1.05,1.05,0,0,0,.95.48,1,1,0,0,0,.61-.41,1.89,1.89,0,0,0,.32-1.48Z" transform="translate(-145.58 -89.54)"/><path class="cls-7" d="M240.35,110.88a1,1,0,0,1-.62.41,1.07,1.07,0,0,1-.95-.47,1.27,1.27,0,0,1,0-1.32l1.34-.06.06.38C240.22,110.19,240.29,110.53,240.35,110.88Z" transform="translate(-145.58 -89.54)"/><path class="cls-7" d="M235.26,111.66a1.25,1.25,0,0,0,0,1.32,1,1,0,0,0,.95.47,1,1,0,0,0,.61-.41,1.89,1.89,0,0,0,.32-1.48Z" transform="translate(-145.58 -89.54)"/><path class="cls-7" d="M237.55,111.58a1.26,1.26,0,0,0,0,1.31,1.05,1.05,0,0,0,1,.48,1,1,0,0,0,.61-.41,1.89,1.89,0,0,0,.32-1.48Z" transform="translate(-145.58 -89.54)"/><path class="cls-7" d="M241,113.37a1.07,1.07,0,0,1-.75-.48,1.24,1.24,0,0,1,0-1.31l.33,0C240.63,112.19,240.78,112.79,241,113.37Z" transform="translate(-145.58 -89.54)"/><path class="cls-7" d="M229.29,113.36a1,1,0,0,1-.61.41.81.81,0,0,1-.35,0q.24-.89.45-1.83l.83,0A1.89,1.89,0,0,1,229.29,113.36Z" transform="translate(-145.58 -89.54)"/><path class="cls-7" d="M230.33,112a1.27,1.27,0,0,0,0,1.32,1.07,1.07,0,0,0,1,.47,1,1,0,0,0,.61-.41,1.89,1.89,0,0,0,.32-1.48Z" transform="translate(-145.58 -89.54)"/><path class="cls-7" d="M232.59,112a1.25,1.25,0,0,0,0,1.32,1.07,1.07,0,0,0,.95.47,1,1,0,0,0,.61-.41,1.89,1.89,0,0,0,.32-1.48Z" transform="translate(-145.58 -89.54)"/><path class="cls-7" d="M228.76,114.34a1.26,1.26,0,0,0,0,1.31,1.05,1.05,0,0,0,.95.48,1,1,0,0,0,.61-.41,1.89,1.89,0,0,0,.32-1.48Z" transform="translate(-145.58 -89.54)"/><path class="cls-7" d="M231.05,114.26a1.26,1.26,0,0,0,0,1.31.92.92,0,0,0,1.57.07,1.88,1.88,0,0,0,.31-1.48Z" transform="translate(-145.58 -89.54)"/><path class="cls-7" d="M233.68,114.26a1.24,1.24,0,0,0,0,1.31,1,1,0,0,0,1,.47,1,1,0,0,0,.61-.4,1.89,1.89,0,0,0,.32-1.48Z" transform="translate(-145.58 -89.54)"/><path class="cls-7" d="M235.93,114.26a1.24,1.24,0,0,0,0,1.31,1,1,0,0,0,.95.47,1,1,0,0,0,.61-.4,1.88,1.88,0,0,0,.31-1.48Z" transform="translate(-145.58 -89.54)"/><path class="cls-7" d="M238.52,114.18a1.26,1.26,0,0,0,0,1.31,1.05,1.05,0,0,0,1,.48,1,1,0,0,0,.61-.41,1.89,1.89,0,0,0,.32-1.48Z" transform="translate(-145.58 -89.54)"/><path class="cls-7" d="M241.74,115.88a1,1,0,0,1-.91-.47,1.3,1.3,0,0,1,0-1.32h.33C241.33,114.72,241.54,115.32,241.74,115.88Z" transform="translate(-145.58 -89.54)"/><path class="cls-7" d="M236.16,117.32H234.3a1.29,1.29,0,0,1,.09-1.08l1.9-.1A2,2,0,0,1,236.16,117.32Z" transform="translate(-145.58 -89.54)"/><path class="cls-7" d="M238.4,117.32h-1.79a1.29,1.29,0,0,1,.08-1.16l1.9-.1A2,2,0,0,1,238.4,117.32Z" transform="translate(-145.58 -89.54)"/><path class="cls-7" d="M241,117.32h-1.79a1.26,1.26,0,0,1,.07-1.16l1.9-.1A2,2,0,0,1,241,117.32Z" transform="translate(-145.58 -89.54)"/><path class="cls-7" d="M242.29,117.32h-.79a1.29,1.29,0,0,1,.06-1.16l.27,0C242,116.56,242.14,117,242.29,117.32Z" transform="translate(-145.58 -89.54)"/><path class="cls-7" d="M228.61,117.32h-1.46c.12-.32.25-.65.37-1l1.17-.07A2.1,2.1,0,0,1,228.61,117.32Z" transform="translate(-145.58 -89.54)"/><path class="cls-7" d="M231.23,117.32h-1.95a1.32,1.32,0,0,1,.14-1l1.9-.11A2.14,2.14,0,0,1,231.23,117.32Z" transform="translate(-145.58 -89.54)"/><path class="cls-7" d="M233.49,117.32h-2a1.31,1.31,0,0,1,.13-1l1.9-.11A2.22,2.22,0,0,1,233.49,117.32Z" transform="translate(-145.58 -89.54)"/><path class="cls-7" d="M248.05,147.18l-10.77.08H236.2l-2.77,0-1.33,0h-.48l-9.51.06c1-3.06,2-6.35,2.86-9.87.49-1,.58-1.5,1.3-1.79,1-.41,1.95.22,5.43,1.05A10,10,0,0,0,234,137c.38,0,.69,0,.9-.05L236,137c.35-.17.86-.4,1.45-.7a5.85,5.85,0,0,0,1.75-1c.6-1-.86-2.32-1.7-4.67-1.23-3.37-.55-7.12.41-7.35.41-.1.63.54,1.15.48,1.12-.12,1.12-3.17,2.06-4.47A138.44,138.44,0,0,0,245,137.68C245.92,141,247,144.2,248.05,147.18Z" transform="translate(-145.58 -89.54)"/><rect class="cls-6" x="88.25" y="33.31" width="2.89" height="3.84"/><rect class="cls-8" x="88.54" y="33.59" width="2.29" height="3.27"/><rect class="cls-6" x="89.57" y="33.41" width="0.24" height="3.65"/><rect class="cls-6" x="88.4" y="34.97" width="2.64" height="0.19"/><rect class="cls-6" x="87.29" y="40.28" width="4.56" height="6.07"/><rect class="cls-8" x="87.76" y="40.73" width="3.62" height="5.16"/><rect class="cls-6" x="89.38" y="40.44" width="0.38" height="5.76"/><rect class="cls-6" x="87.53" y="42.9" width="4.17" height="0.29"/><rect class="cls-9" x="216.04" y="92.63" width="0.15" height="2.68" transform="translate(-17.43 -214.2) rotate(44.58)"/><rect class="cls-9" x="216.46" y="93.04" width="0.15" height="2.68" transform="translate(-17.13 -214.33) rotate(44.56)"/><rect class="cls-9" x="216.87" y="93.45" width="0.15" height="2.68" transform="translate(-16.72 -214.51) rotate(44.56)"/><rect class="cls-9" x="217.29" y="93.86" width="0.15" height="2.68" transform="translate(-16.21 -214.73) rotate(44.58)"/><rect class="cls-9" x="217.7" y="94.26" width="0.15" height="2.68" transform="translate(-15.91 -214.85) rotate(44.56)"/><rect class="cls-9" x="218.12" y="94.67" width="0.15" height="2.68" transform="translate(-15.4 -215.07) rotate(44.58)"/><rect class="cls-9" x="218.53" y="95.08" width="0.15" height="2.68" transform="translate(-15.1 -215.2) rotate(44.56)"/><rect class="cls-9" x="218.95" y="95.49" width="0.15" height="2.68" transform="translate(-14.69 -215.38) rotate(44.56)"/><rect class="cls-9" x="219.37" y="95.91" width="0.15" height="2.68" transform="translate(-14.17 -215.6) rotate(44.58)"/><rect class="cls-9" x="219.79" y="96.32" width="0.15" height="2.68" transform="translate(-13.87 -215.73) rotate(44.56)"/><rect class="cls-9" x="220.21" y="96.73" width="0.15" height="2.68" transform="translate(-13.46 -215.9) rotate(44.56)"/><rect class="cls-9" x="220.62" y="97.14" width="0.15" height="2.68" transform="translate(-12.94 -216.12) rotate(44.58)"/><rect class="cls-9" x="221.03" y="97.54" width="0.15" height="2.68" transform="translate(-12.65 -216.25) rotate(44.56)"/><rect class="cls-9" x="221.45" y="97.95" width="0.15" height="2.68" transform="translate(-12.25 -216.42) rotate(44.56)"/><rect class="cls-9" x="221.87" y="98.36" width="0.15" height="2.68" transform="translate(-11.73 -216.64) rotate(44.58)"/><rect class="cls-9" x="222.28" y="98.77" width="0.15" height="2.68" transform="translate(-11.43 -216.77) rotate(44.56)"/><rect class="cls-9" x="222.71" y="99.19" width="0.15" height="2.68" transform="translate(-11.01 -216.95) rotate(44.56)"/><rect class="cls-9" x="223.12" y="99.6" width="0.15" height="2.68" transform="translate(-10.49 -217.17) rotate(44.58)"/><rect class="cls-9" x="223.54" y="100.01" width="0.15" height="2.68" transform="translate(-10.2 -217.3) rotate(44.56)"/><rect class="cls-9" x="223.96" y="100.42" width="0.15" height="2.68" transform="translate(-9.79 -217.47) rotate(44.56)"/><rect class="cls-9" x="224.37" y="100.83" width="0.15" height="2.68" transform="translate(-9.39 -217.64) rotate(44.56)"/><rect class="cls-9" x="224.78" y="101.24" width="0.15" height="2.68" transform="translate(-8.98 -217.82) rotate(44.56)"/><rect class="cls-9" x="225.2" y="101.65" width="0.15" height="2.68" transform="translate(-8.46 -218.04) rotate(44.58)"/><rect class="cls-9" x="225.62" y="102.06" width="0.15" height="2.68" transform="translate(-8.17 -218.17) rotate(44.56)"/><rect class="cls-9" x="226.04" y="102.48" width="0.15" height="2.68" transform="translate(-7.75 -218.35) rotate(44.56)"/><rect class="cls-9" x="226.46" y="102.89" width="0.15" height="2.68" transform="translate(-7.34 -218.52) rotate(44.56)"/><rect class="cls-9" x="226.87" y="103.3" width="0.15" height="2.68" transform="translate(-6.82 -218.74) rotate(44.58)"/><rect class="cls-9" x="227.29" y="103.71" width="0.15" height="2.68" transform="translate(-6.53 -218.87) rotate(44.56)"/><rect class="cls-9" x="227.7" y="104.11" width="0.15" height="2.68" transform="translate(-6.01 -219.08) rotate(44.58)"/><rect class="cls-9" x="228.12" y="104.52" width="0.15" height="2.68" transform="translate(-5.72 -219.21) rotate(44.56)"/><rect class="cls-9" x="228.53" y="104.93" width="0.15" height="2.68" transform="translate(-5.31 -219.39) rotate(44.56)"/><rect class="cls-9" x="228.95" y="105.34" width="0.15" height="2.68" transform="translate(-4.79 -219.61) rotate(44.58)"/><rect class="cls-9" x="213.6" y="98.88" width="20.15" height="1.3" transform="translate(-11.44 -217.87) rotate(44.56)"/><rect class="cls-6" x="215.33" y="92.5" width="0.36" height="2.44" transform="translate(-17.89 -213.8) rotate(44.56)"/><rect class="cls-6" x="215.33" y="92.5" width="0.36" height="2.44" transform="translate(-17.89 -213.8) rotate(44.56)"/><rect class="cls-6" x="229.43" y="106.39" width="0.36" height="2.44" transform="translate(-4.04 -219.72) rotate(44.57)"/><rect class="cls-9" x="229.43" y="106.39" width="0.36" height="2.44" transform="translate(-4.04 -219.72) rotate(44.57)"/><rect class="cls-9" x="211.72" y="101.31" width="20.15" height="0.26" transform="translate(-10.64 -216) rotate(44.56)"/><rect class="cls-9" x="212.66" y="100.34" width="20.15" height="0.27" transform="translate(-11.04 -216.95) rotate(44.56)"/><rect class="cls-9" x="212.15" y="100.86" width="20.15" height="0.27" transform="translate(-10.82 -216.44) rotate(44.56)"/><rect class="cls-9" x="252.75" y="124.1" width="0.15" height="2.68" transform="translate(199.25 302.71) rotate(-135.42)"/><rect class="cls-9" x="252.33" y="123.69" width="0.15" height="2.68" transform="translate(198.95 301.68) rotate(-135.44)"/><rect class="cls-9" x="251.92" y="123.28" width="0.15" height="2.68" transform="translate(198.53 300.68) rotate(-135.44)"/><rect class="cls-9" x="251.5" y="122.87" width="0.15" height="2.68" transform="translate(197.97 299.73) rotate(-135.42)"/><rect class="cls-9" x="251.09" y="122.47" width="0.15" height="2.68" transform="translate(197.68 298.71) rotate(-135.44)"/><rect class="cls-9" x="250.68" y="122.06" width="0.15" height="2.68" transform="translate(197.26 297.71) rotate(-135.44)"/><rect class="cls-9" x="250.26" y="121.65" width="0.15" height="2.68" transform="translate(196.71 296.77) rotate(-135.42)"/><rect class="cls-9" x="249.84" y="121.24" width="0.15" height="2.68" transform="translate(196.41 295.73) rotate(-135.44)"/><rect class="cls-9" x="249.42" y="120.82" width="0.15" height="2.68" transform="translate(195.97 294.71) rotate(-135.44)"/><rect class="cls-9" x="249" y="120.41" width="0.15" height="2.68" transform="translate(195.42 293.76) rotate(-135.42)"/><rect class="cls-9" x="248.58" y="120" width="0.15" height="2.68" transform="translate(195.12 292.72) rotate(-135.44)"/><rect class="cls-9" x="248.17" y="119.59" width="0.15" height="2.68" transform="translate(194.7 291.73) rotate(-135.44)"/><rect class="cls-9" x="247.76" y="119.19" width="0.15" height="2.68" transform="translate(194.15 290.79) rotate(-135.42)"/><rect class="cls-9" x="247.34" y="118.78" width="0.15" height="2.68" transform="translate(193.85 289.75) rotate(-135.44)"/><rect class="cls-9" x="246.92" y="118.37" width="0.15" height="2.68" transform="translate(193.3 288.8) rotate(-135.42)"/><rect class="cls-9" x="246.51" y="117.96" width="0.15" height="2.68" transform="translate(193 287.77) rotate(-135.44)"/><rect class="cls-9" x="246.08" y="117.54" width="0.15" height="2.68" transform="translate(192.57 286.74) rotate(-135.44)"/><rect class="cls-9" x="245.67" y="117.13" width="0.15" height="2.68" transform="translate(192.14 285.75) rotate(-135.44)"/><rect class="cls-9" x="245.25" y="116.72" width="0.15" height="2.68" transform="translate(191.59 284.8) rotate(-135.42)"/><rect class="cls-9" x="244.83" y="116.31" width="0.15" height="2.68" transform="translate(191.29 283.76) rotate(-135.44)"/><rect class="cls-9" x="244.42" y="115.9" width="0.15" height="2.68" transform="translate(190.75 282.83) rotate(-135.42)"/><rect class="cls-9" x="244.01" y="115.49" width="0.15" height="2.68" transform="translate(190.45 281.79) rotate(-135.44)"/><rect class="cls-9" x="243.59" y="115.08" width="0.15" height="2.68" transform="translate(190.02 280.8) rotate(-135.44)"/><rect class="cls-9" x="243.17" y="114.67" width="0.15" height="2.68" transform="translate(189.47 279.85) rotate(-135.42)"/><rect class="cls-9" x="242.75" y="114.25" width="0.15" height="2.68" transform="translate(189.16 278.78) rotate(-135.44)"/><rect class="cls-9" x="242.33" y="113.84" width="0.15" height="2.68" transform="translate(188.86 277.74) rotate(-135.47)"/><rect class="cls-9" x="241.92" y="113.43" width="0.15" height="2.68" transform="translate(188.19 276.84) rotate(-135.42)"/><rect class="cls-9" x="241.5" y="113.02" width="0.15" height="2.68" transform="translate(187.89 275.8) rotate(-135.44)"/><rect class="cls-9" x="241.09" y="112.62" width="0.15" height="2.68" transform="translate(187.47 274.82) rotate(-135.44)"/><rect class="cls-9" x="240.67" y="112.21" width="0.15" height="2.68" transform="translate(186.92 273.87) rotate(-135.42)"/><rect class="cls-9" x="240.26" y="111.8" width="0.15" height="2.68" transform="translate(186.62 272.83) rotate(-135.44)"/><rect class="cls-9" x="239.84" y="111.39" width="0.15" height="2.68" transform="translate(186.19 271.84) rotate(-135.44)"/><rect class="cls-9" x="235.19" y="119.23" width="20.15" height="1.3" transform="translate(190.31 287.85) rotate(-135.44)"/><rect class="cls-6" x="253.25" y="124.47" width="0.36" height="2.44" transform="translate(200.25 303.52) rotate(-135.44)"/><rect class="cls-6" x="253.25" y="124.47" width="0.36" height="2.44" transform="translate(200.25 303.52) rotate(-135.44)"/><rect class="cls-6" x="239.15" y="110.59" width="0.36" height="2.44" transform="translate(185.85 269.85) rotate(-135.45)"/><rect class="cls-9" x="239.15" y="110.59" width="0.36" height="2.44" transform="translate(185.85 269.85) rotate(-135.45)"/><rect class="cls-9" x="237.07" y="117.84" width="20.15" height="0.26" transform="translate(194.87 285.9) rotate(-135.44)"/><rect class="cls-9" x="236.13" y="118.8" width="20.15" height="0.27" transform="translate(192.57 286.89) rotate(-135.44)"/><rect class="cls-9" x="236.64" y="118.28" width="20.15" height="0.27" transform="translate(193.82 286.35) rotate(-135.44)"/><rect class="cls-9" x="228.16" y="109.26" width="12.37" height="0.65" transform="translate(-1.31 -222.47) rotate(44.56)"/><rect class="cls-9" x="218.92" y="126.94" width="0.15" height="2.68" transform="translate(-170.7 108.22) rotate(-46.25)"/><rect class="cls-9" x="219.32" y="126.52" width="0.15" height="2.68" transform="translate(-170.23 108.5) rotate(-46.28)"/><rect class="cls-9" x="219.73" y="126.1" width="0.15" height="2.68" transform="translate(-169.87 108.42) rotate(-46.22)"/><rect class="cls-9" x="220.13" y="125.68" width="0.15" height="2.68" transform="translate(-169.41 108.7) rotate(-46.25)"/><rect class="cls-9" x="220.53" y="125.26" width="0.15" height="2.68" transform="translate(-168.95 108.98) rotate(-46.28)"/><rect class="cls-9" x="220.93" y="124.84" width="0.15" height="2.68" transform="translate(-168.56 109.02) rotate(-46.25)"/><rect class="cls-9" x="221.34" y="124.42" width="0.15" height="2.68" transform="translate(-168.13 109.19) rotate(-46.25)"/><rect class="cls-9" x="221.74" y="124" width="0.15" height="2.68" transform="translate(-167.66 109.47) rotate(-46.28)"/><rect class="cls-9" x="222.16" y="123.56" width="0.15" height="2.68" transform="translate(-167.29 109.4) rotate(-46.22)"/><rect class="cls-9" x="222.56" y="123.14" width="0.15" height="2.68" transform="translate(-166.79 109.79) rotate(-46.28)"/><rect class="cls-9" x="222.96" y="122.72" width="0.15" height="2.68" transform="translate(-166.36 109.95) rotate(-46.28)"/><rect class="cls-9" x="223.37" y="122.3" width="0.15" height="2.68" transform="translate(-166 109.88) rotate(-46.22)"/><rect class="cls-9" x="223.77" y="121.88" width="0.15" height="2.68" transform="translate(-165.55 110.15) rotate(-46.25)"/><rect class="cls-9" x="224.17" y="121.46" width="0.15" height="2.68" transform="translate(-165.12 110.32) rotate(-46.25)"/><rect class="cls-9" x="224.57" y="121.04" width="0.15" height="2.68" transform="translate(-164.69 110.48) rotate(-46.25)"/><rect class="cls-9" x="224.98" y="120.61" width="0.15" height="2.68" transform="translate(-164.26 110.64) rotate(-46.25)"/><rect class="cls-9" x="225.39" y="120.18" width="0.15" height="2.68" transform="translate(-163.78 110.93) rotate(-46.28)"/><rect class="cls-9" x="225.8" y="119.76" width="0.15" height="2.68" transform="translate(-163.42 110.85) rotate(-46.22)"/><rect class="cls-9" x="226.2" y="119.34" width="0.15" height="2.68" transform="translate(-162.92 111.25) rotate(-46.28)"/><rect class="cls-9" x="226.6" y="118.92" width="0.15" height="2.68" transform="translate(-162.57 111.17) rotate(-46.22)"/><rect class="cls-9" x="227" y="118.5" width="0.15" height="2.68" transform="translate(-162.07 111.57) rotate(-46.28)"/><rect class="cls-9" x="227.41" y="118.08" width="0.15" height="2.68" transform="translate(-161.67 111.62) rotate(-46.25)"/><rect class="cls-9" x="227.81" y="117.66" width="0.15" height="2.68" transform="translate(-161.25 111.77) rotate(-46.25)"/><rect class="cls-9" x="228.21" y="117.23" width="0.15" height="2.68" transform="translate(-160.78 112.05) rotate(-46.28)"/><rect class="cls-9" x="228.63" y="116.8" width="0.15" height="2.68" transform="translate(-160.34 112.21) rotate(-46.28)"/><rect class="cls-9" x="229.03" y="116.38" width="0.15" height="2.68" transform="translate(-159.95 112.26) rotate(-46.25)"/><rect class="cls-9" x="229.44" y="115.96" width="0.15" height="2.68" transform="translate(-159.52 112.43) rotate(-46.25)"/><rect class="cls-9" x="229.84" y="115.54" width="0.15" height="2.68" transform="translate(-159.05 112.7) rotate(-46.28)"/><rect class="cls-9" x="230.24" y="115.12" width="0.15" height="2.68" transform="translate(-158.67 112.74) rotate(-46.25)"/><rect class="cls-9" x="230.64" y="114.7" width="0.15" height="2.68" transform="translate(-158.19 113.03) rotate(-46.28)"/><rect class="cls-9" x="231.04" y="114.28" width="0.15" height="2.68" transform="translate(-157.85 112.95) rotate(-46.22)"/><rect class="cls-9" x="231.45" y="113.85" width="0.15" height="2.68" transform="translate(-157.38 113.23) rotate(-46.25)"/><rect class="cls-9" x="214.37" y="120" width="20.15" height="1.3" transform="translate(-163.49 109.83) rotate(-46.25)"/><rect class="cls-6" x="218.58" y="127.68" width="0.36" height="2.44" transform="translate(-171.19 108.3) rotate(-46.26)"/><rect class="cls-6" x="218.58" y="127.68" width="0.36" height="2.44" transform="translate(-171.19 108.3) rotate(-46.26)"/><rect class="cls-6" x="232.26" y="113.38" width="0.36" height="2.44" transform="translate(-156.66 113.73) rotate(-46.25)"/><rect class="cls-9" x="232.26" y="113.38" width="0.36" height="2.44" transform="translate(-156.66 113.73) rotate(-46.25)"/><rect class="cls-9" x="216.31" y="122.37" width="20.15" height="0.26" transform="translate(-164.23 111.8) rotate(-46.25)"/><rect class="cls-9" x="215.33" y="121.43" width="20.15" height="0.27" transform="translate(-163.86 110.8) rotate(-46.25)"/><rect class="cls-9" x="215.86" y="121.94" width="20.15" height="0.27" transform="translate(-164.06 111.34) rotate(-46.25)"/><rect class="cls-9" x="249.87" y="89.79" width="0.15" height="2.68" transform="translate(343.03 -115.94) rotate(133.75)"/><rect class="cls-9" x="249.47" y="90.21" width="0.15" height="2.68" transform="translate(342.65 -114.94) rotate(133.75)"/><rect class="cls-9" x="249.06" y="90.63" width="0.15" height="2.68" transform="translate(342.21 -114.05) rotate(133.72)"/><rect class="cls-9" x="248.66" y="91.05" width="0.15" height="2.68" transform="translate(341.89 -112.92) rotate(133.75)"/><rect class="cls-9" x="248.26" y="91.47" width="0.15" height="2.68" transform="translate(341.46 -112.05) rotate(133.72)"/><rect class="cls-9" x="247.86" y="91.89" width="0.15" height="2.68" transform="translate(341.2 -110.81) rotate(133.78)"/><rect class="cls-9" x="247.45" y="92.31" width="0.15" height="2.68" transform="translate(340.71 -110.04) rotate(133.72)"/><rect class="cls-9" x="247.05" y="92.74" width="0.15" height="2.68" transform="translate(340.33 -109.04) rotate(133.72)"/><rect class="cls-9" x="246.63" y="93.17" width="0.15" height="2.68" transform="translate(340.05 -107.77) rotate(133.78)"/><rect class="cls-9" x="246.23" y="93.59" width="0.15" height="2.68" transform="translate(339.56 -107) rotate(133.72)"/><rect class="cls-9" x="245.83" y="94.01" width="0.15" height="2.68" transform="translate(339.24 -105.88) rotate(133.75)"/><rect class="cls-9" x="245.42" y="94.43" width="0.15" height="2.68" transform="translate(338.86 -104.87) rotate(133.75)"/><rect class="cls-9" x="245.02" y="94.85" width="0.15" height="2.68" transform="translate(338.48 -103.89) rotate(133.75)"/><rect class="cls-9" x="244.62" y="95.27" width="0.15" height="2.68" transform="translate(338.06 -102.99) rotate(133.72)"/><rect class="cls-9" x="244.22" y="95.69" width="0.15" height="2.68" transform="translate(337.78 -101.75) rotate(133.78)"/><rect class="cls-9" x="243.81" y="96.12" width="0.15" height="2.68" transform="translate(337.3 -100.98) rotate(133.72)"/><rect class="cls-9" x="243.4" y="96.55" width="0.15" height="2.68" transform="translate(336.96 -99.83) rotate(133.75)"/><rect class="cls-9" x="242.99" y="96.97" width="0.15" height="2.68" transform="translate(336.59 -98.82) rotate(133.75)"/><rect class="cls-9" x="242.59" y="97.39" width="0.15" height="2.68" transform="translate(336.16 -97.94) rotate(133.72)"/><rect class="cls-9" x="242.19" y="97.82" width="0.15" height="2.68" transform="translate(335.83 -96.82) rotate(133.75)"/><rect class="cls-9" x="241.79" y="98.23" width="0.15" height="2.68" transform="translate(335.46 -95.83) rotate(133.75)"/><rect class="cls-9" x="241.38" y="98.65" width="0.15" height="2.68" transform="translate(335.03 -94.93) rotate(133.72)"/><rect class="cls-9" x="240.98" y="99.07" width="0.15" height="2.68" transform="translate(334.7 -93.81) rotate(133.75)"/><rect class="cls-9" x="240.58" y="99.5" width="0.15" height="2.68" transform="translate(334.32 -92.82) rotate(133.75)"/><rect class="cls-9" x="240.16" y="99.93" width="0.15" height="2.68" transform="translate(333.88 -91.9) rotate(133.72)"/><rect class="cls-9" x="239.76" y="100.35" width="0.15" height="2.68" transform="translate(333.6 -90.65) rotate(133.78)"/><rect class="cls-9" x="239.35" y="100.77" width="0.15" height="2.68" transform="translate(333.13 -89.88) rotate(133.72)"/><rect class="cls-9" x="238.95" y="101.2" width="0.15" height="2.68" transform="translate(332.75 -88.88) rotate(133.72)"/><rect class="cls-9" x="238.55" y="101.61" width="0.15" height="2.68" transform="translate(332.43 -87.77) rotate(133.75)"/><rect class="cls-9" x="238.15" y="102.03" width="0.15" height="2.68" transform="translate(332.05 -86.77) rotate(133.75)"/><rect class="cls-9" x="237.75" y="102.46" width="0.15" height="2.68" transform="translate(331.62 -85.88) rotate(133.72)"/><rect class="cls-9" x="237.34" y="102.88" width="0.15" height="2.68" transform="translate(331.29 -84.75) rotate(133.75)"/><rect class="cls-9" x="234.42" y="98.11" width="20.15" height="1.3" transform="translate(339.31 -99.11) rotate(133.75)"/><rect class="cls-6" x="250" y="89.3" width="0.36" height="2.44" transform="translate(342.98 -117.18) rotate(133.75)"/><rect class="cls-6" x="250" y="89.3" width="0.36" height="2.44" transform="translate(342.98 -117.18) rotate(133.75)"/><rect class="cls-6" x="236.32" y="103.59" width="0.36" height="2.44" transform="translate(330.16 -83.11) rotate(133.75)"/><rect class="cls-9" x="236.32" y="103.59" width="0.36" height="2.44" transform="translate(330.16 -83.11) rotate(133.75)"/><rect class="cls-9" x="232.48" y="96.78" width="20.15" height="0.26" transform="translate(334.69 -100.85) rotate(133.75)"/><rect class="cls-9" x="233.46" y="97.71" width="20.15" height="0.27" transform="translate(337.02 -99.97) rotate(133.75)"/><rect class="cls-9" x="232.93" y="97.2" width="20.15" height="0.27" transform="translate(335.76 -100.44) rotate(133.75)"/><rect class="cls-9" x="228.16" y="109.51" width="12.37" height="0.65" transform="translate(-152.62 113.64) rotate(-46.25)"/><path class="cls-9" d="M237.11,109.85a2.75,2.75,0,1,1-2.75-2.74A2.74,2.74,0,0,1,237.11,109.85Z" transform="translate(-145.58 -89.54)"/><circle class="cls-10" cx="88.78" cy="20.31" r="1.81"/><path class="cls-9" d="M237.29,142.24v5l-5.18,0v-5a2.59,2.59,0,0,1,2.59-2.6A2.55,2.55,0,0,1,236,140a2.49,2.49,0,0,1,.52.4A2.57,2.57,0,0,1,237.29,142.24Z" transform="translate(-145.58 -89.54)"/><rect class="cls-10" x="17.54" y="39.41" width="29.67" height="18.94"/><rect class="cls-9" x="47.21" y="39.41" width="35.03" height="18.94"/><path class="cls-10" d="M187.65,118.18V129H168.26V118.18c.49-.38,1-.77,1.45-1.16a.24.24,0,0,0,.08-.06l1.35-1.07.08-.07c.44-.34.87-.69,1.3-1a.27.27,0,0,0,.08-.07l1.34-1.07.09-.06,1.09-.87.08-.07,1.34-1.07.09-.06c.27-.23.55-.44.82-.66l.47.34.09.06,1.34,1,.08.06,1.3.94.08.05,1.35,1,.08.06,1.3.94.08.06,1.34,1,.09.06Z" transform="translate(-145.58 -89.54)"/><path class="cls-11" d="M187.65,129V118.18l-10.2-7.33,3,.12.33,0L182,111h.34c.39,0,.77,0,1.15,0l.34,0,1.18,0,.34,0,1.2,0h.33l1.19.05h.34l1.15,0,.34,0,1.19,0h.33l1,0h.34l1.18,0,.34,0,1.15,0h.34l1.18.05.34,0,1.21,0,.33,0,1.19,0,.33,0,1.16,0,.33,0,1.19,0h.33l1.25,0,.34,0,1.19.05h.33l1.15,0H208l1.18,0,.34,0,1.2,0H211l1.19.05h.33l1,0,6,5.75c.7,2.84,1.39,5.67,2.09,8.51l5.85,2.35Z" transform="translate(-145.58 -89.54)"/><rect class="cls-8" x="41.57" y="39.14" width="41.89" height="1.02"/><rect class="cls-8" x="41.27" y="28.07" width="1.18" height="12.09"/><rect class="cls-8" x="21.72" y="28.07" width="1.18" height="11.58"/><rect class="cls-8" x="17.35" y="39.2" width="5.56" height="1.05"/><path d="M207.22,128.43h-19a0,0,0,0,1,0-.1h19a0,0,0,1,1,0,.1Z" transform="translate(-145.58 -89.54)"/><path d="M221.51,128.22h-13.1a0,0,0,0,1,0-.05.05.05,0,0,1,0,0h13.1a.05.05,0,0,1,.05,0A0,0,0,0,1,221.51,128.22Z" transform="translate(-145.58 -89.54)"/><path d="M192.79,118h-3.44a0,0,0,0,1,0-.1h3.44a.05.05,0,0,1,0,.1Z" transform="translate(-145.58 -89.54)"/><path d="M215.56,118H195.15a.05.05,0,0,1,0-.1h20.41a0,0,0,0,1,0,.1Z" transform="translate(-145.58 -89.54)"/><path d="M218.64,118h-1.45a0,0,0,0,1,0-.1h1.45a0,0,0,1,1,0,.1Z" transform="translate(-145.58 -89.54)"/><polygon class="cls-12" points="67.93 38.38 66.02 28.67 66.26 28.62 68.17 38.33 67.93 38.38"/><polygon class="cls-12" points="69.38 38.38 67.46 28.67 67.71 28.62 69.62 38.33 69.38 38.38"/><polygon class="cls-12" points="70.79 38.38 68.88 28.67 69.12 28.62 71.03 38.33 70.79 38.38"/><polygon class="cls-12" points="72.24 38.38 70.33 28.67 70.57 28.62 72.48 38.33 72.24 38.38"/><polygon class="cls-12" points="73.7 38.38 71.79 28.67 72.03 28.62 73.94 38.33 73.7 38.38"/><polygon class="cls-12" points="75.15 38.38 73.23 28.67 73.48 28.62 75.39 38.33 75.15 38.38"/><polygon class="cls-12" points="56.33 38.38 54.42 28.67 54.66 28.62 56.58 38.33 56.33 38.38"/><polygon class="cls-12" points="57.78 38.38 55.87 28.67 56.11 28.62 58.03 38.33 57.78 38.38"/><polygon class="cls-12" points="59.2 38.38 57.28 28.67 57.53 28.62 59.44 38.33 59.2 38.38"/><polygon class="cls-12" points="60.64 38.38 58.73 28.67 58.98 28.62 60.89 38.33 60.64 38.38"/><polygon class="cls-12" points="62.1 38.38 60.19 28.67 60.44 28.62 62.35 38.33 62.1 38.38"/><polygon class="cls-12" points="63.55 38.38 61.64 28.67 61.88 28.62 63.8 38.33 63.55 38.38"/><polygon class="cls-12" points="64.97 38.38 63.05 28.67 63.3 28.62 65.21 38.33 64.97 38.38"/><polygon class="cls-12" points="66.41 38.38 64.5 28.67 64.75 28.62 66.66 38.33 66.41 38.38"/><polygon class="cls-12" points="44.97 38.38 43.06 28.67 43.3 28.62 45.22 38.33 44.97 38.38"/><polygon class="cls-12" points="46.42 38.38 44.51 28.67 44.75 28.62 46.66 38.33 46.42 38.38"/><polygon class="cls-12" points="47.84 38.38 45.92 28.67 46.17 28.62 48.08 38.33 47.84 38.38"/><polygon class="cls-12" points="49.28 38.38 47.37 28.67 47.62 28.62 49.53 38.33 49.28 38.38"/><polygon class="cls-12" points="50.74 38.38 48.83 28.67 49.08 28.62 50.99 38.33 50.74 38.38"/><polygon class="cls-12" points="52.19 38.38 50.28 28.67 50.52 28.62 52.44 38.33 52.19 38.38"/><polygon class="cls-12" points="53.6 38.38 51.69 28.67 51.94 28.62 53.85 38.33 53.6 38.38"/><polygon class="cls-12" points="55.05 38.38 53.14 28.67 53.39 28.62 55.3 38.33 55.05 38.38"/><path class="cls-8" d="M211.57,117.56l-.13.15L204.61,112l.34,0Z" transform="translate(-145.58 -89.54)"/><path class="cls-8" d="M213,117.56l-.13.15L206.14,112h.33Z" transform="translate(-145.58 -89.54)"/><path class="cls-8" d="M214.43,117.56l-.13.15-6.68-5.61H208Z" transform="translate(-145.58 -89.54)"/><path class="cls-8" d="M215.88,117.56l-.13.15-6.6-5.55.34,0Z" transform="translate(-145.58 -89.54)"/><path class="cls-8" d="M217.34,117.56l-.13.15-6.52-5.48H211Z" transform="translate(-145.58 -89.54)"/><path class="cls-8" d="M218.79,117.56l-.13.15-6.45-5.42h.33Z" transform="translate(-145.58 -89.54)"/><path class="cls-8" d="M200,117.56l-.13.15-7.43-6.24h.34Z" transform="translate(-145.58 -89.54)"/><path class="cls-8" d="M201.42,117.56l-.13.15-7.35-6.18.34,0Z" transform="translate(-145.58 -89.54)"/><path class="cls-8" d="M202.84,117.56l-.13.15-7.28-6.11h.34Z" transform="translate(-145.58 -89.54)"/><path class="cls-8" d="M204.29,117.56l-.14.15-7.2-6.06.34,0Z" transform="translate(-145.58 -89.54)"/><path class="cls-8" d="M205.75,117.56l-.13.15-7.12-6,.33,0Z" transform="translate(-145.58 -89.54)"/><path class="cls-8" d="M207.2,117.56l-.14.15-7-5.93.33,0Z" transform="translate(-145.58 -89.54)"/><path class="cls-8" d="M208.61,117.56l-.13.15-7-5.87.33,0Z" transform="translate(-145.58 -89.54)"/><path class="cls-8" d="M210.06,117.56l-.13.15-6.9-5.8h.33Z" transform="translate(-145.58 -89.54)"/><path class="cls-8" d="M188.61,117.56l-.13.15-8-6.74.33,0Z" transform="translate(-145.58 -89.54)"/><path class="cls-8" d="M190.06,117.56l-.13.15L182,111h.34Z" transform="translate(-145.58 -89.54)"/><path class="cls-8" d="M191.48,117.56l-.14.15-7.86-6.62.34,0Z" transform="translate(-145.58 -89.54)"/><path class="cls-8" d="M192.92,117.56l-.13.15L185,111.16l.34,0Z" transform="translate(-145.58 -89.54)"/><path class="cls-8" d="M194.39,117.56l-.14.15-7.71-6.48h.33Z" transform="translate(-145.58 -89.54)"/><path class="cls-8" d="M195.83,117.56l-.13.15-7.64-6.42h.34Z" transform="translate(-145.58 -89.54)"/><path class="cls-8" d="M197.25,117.56l-.13.15-7.57-6.36.34,0Z" transform="translate(-145.58 -89.54)"/><path class="cls-8" d="M198.69,117.56l-.13.15-7.48-6.3h.33Z" transform="translate(-145.58 -89.54)"/><rect class="cls-13" x="18.51" y="40.71" width="0.1" height="17.11"/><rect class="cls-13" x="19.93" y="40.71" width="0.1" height="17.11"/><rect class="cls-13" x="21.31" y="40.71" width="0.1" height="17.11"/><rect class="cls-13" x="22.74" y="40.71" width="0.1" height="17.11"/><path class="cls-9" d="M169.79,117v30.4h-.08V117A.24.24,0,0,0,169.79,117Z" transform="translate(-145.58 -89.54)"/><path class="cls-9" d="M171.22,115.82v31.54h-.08V115.89Z" transform="translate(-145.58 -89.54)"/><path class="cls-9" d="M172.6,114.71v32.65h-.08V114.78A.27.27,0,0,0,172.6,114.71Z" transform="translate(-145.58 -89.54)"/><path class="cls-9" d="M174,113.58v33.78h-.09V113.64Z" transform="translate(-145.58 -89.54)"/><path class="cls-9" d="M175.2,112.64v34.72h-.08V112.71Z" transform="translate(-145.58 -89.54)"/><path class="cls-9" d="M176.63,111.51v35.85h-.09V111.57Z" transform="translate(-145.58 -89.54)"/><path class="cls-9" d="M178,111.25v36.11h-.09V111.19Z" transform="translate(-145.58 -89.54)"/><path class="cls-9" d="M179.43,112.27v35.09h-.08V112.21Z" transform="translate(-145.58 -89.54)"/><path class="cls-9" d="M180.81,113.26v34.1h-.08V113.21Z" transform="translate(-145.58 -89.54)"/><path class="cls-9" d="M182.24,114.29v33.07h-.08V114.23Z" transform="translate(-145.58 -89.54)"/><path class="cls-9" d="M183.62,115.29v32.07h-.08V115.23Z" transform="translate(-145.58 -89.54)"/><path class="cls-9" d="M185.05,116.31v31.05H185V116.25Z" transform="translate(-145.58 -89.54)"/><rect class="cls-13" x="40.61" y="40.71" width="0.1" height="17.11"/><rect class="cls-13" x="42.04" y="40.71" width="0.1" height="17.11"/><rect class="cls-13" x="43.42" y="40.71" width="0.1" height="17.11"/><rect class="cls-13" x="44.85" y="40.71" width="0.1" height="17.11"/><rect class="cls-13" x="46.23" y="40.71" width="0.1" height="17.11"/><rect class="cls-13" x="47.65" y="40.71" width="0.1" height="17.11"/><rect class="cls-13" x="49.03" y="40.71" width="0.1" height="17.11"/><rect class="cls-13" x="50.46" y="40.71" width="0.1" height="17.11"/><path d="M193.77,147.41a0,0,0,0,1-.05,0v-17.1a0,0,0,0,1,.1,0v17.1A0,0,0,0,1,193.77,147.41Z" transform="translate(-145.58 -89.54)"/><path d="M195.2,147.41a0,0,0,0,1,0,0v-17.1a.05.05,0,0,1,.1,0v17.1A0,0,0,0,1,195.2,147.41Z" transform="translate(-145.58 -89.54)"/><path d="M196.58,147.41a0,0,0,0,1-.05,0v-17.1a0,0,0,0,1,.1,0v17.1A0,0,0,0,1,196.58,147.41Z" transform="translate(-145.58 -89.54)"/><path d="M198,147.41a.05.05,0,0,1-.05,0v-17.1a.05.05,0,0,1,.05,0,0,0,0,0,1,.05,0v17.1A0,0,0,0,1,198,147.41Z" transform="translate(-145.58 -89.54)"/><path d="M199.38,147.41a0,0,0,0,1,0,0v-17.1a0,0,0,0,1,0,0,0,0,0,0,1,.05,0v17.1A0,0,0,0,1,199.38,147.41Z" transform="translate(-145.58 -89.54)"/><path d="M200.81,147.41a0,0,0,0,1-.05,0v-17.1a.05.05,0,0,1,.1,0v17.1A0,0,0,0,1,200.81,147.41Z" transform="translate(-145.58 -89.54)"/><path d="M202.19,147.41a0,0,0,0,1-.05,0v-17.1a.05.05,0,0,1,.1,0v17.1A0,0,0,0,1,202.19,147.41Z" transform="translate(-145.58 -89.54)"/><path d="M203.62,147.41a0,0,0,0,1-.05,0v-17.1a0,0,0,0,1,.05,0,.05.05,0,0,1,0,0v17.1A.05.05,0,0,1,203.62,147.41Z" transform="translate(-145.58 -89.54)"/><path d="M205.14,147.41a0,0,0,0,1,0,0v-17.1a0,0,0,0,1,0,0,.05.05,0,0,1,.05,0v17.1A.05.05,0,0,1,205.14,147.41Z" transform="translate(-145.58 -89.54)"/><path d="M206.56,147.41a0,0,0,0,1-.05,0v-17.1a.05.05,0,0,1,.1,0v17.1A0,0,0,0,1,206.56,147.41Z" transform="translate(-145.58 -89.54)"/><path d="M207.94,147.41a0,0,0,0,1-.05,0v-17.1a0,0,0,0,1,.1,0v17.1A0,0,0,0,1,207.94,147.41Z" transform="translate(-145.58 -89.54)"/><path d="M209.37,147.41a0,0,0,0,1-.05,0v-17.1a0,0,0,0,1,.1,0v17.1A0,0,0,0,1,209.37,147.41Z" transform="translate(-145.58 -89.54)"/><path d="M210.75,147.41a0,0,0,0,1-.05,0v-17.1a0,0,0,0,1,.1,0v17.1A0,0,0,0,1,210.75,147.41Z" transform="translate(-145.58 -89.54)"/><path d="M212.17,147.41a.05.05,0,0,1,0,0v-17.1a.05.05,0,0,1,0,0,0,0,0,0,1,.05,0v17.1A0,0,0,0,1,212.17,147.41Z" transform="translate(-145.58 -89.54)"/><path d="M213.55,147.41a.05.05,0,0,1-.05,0v-17.1a.05.05,0,0,1,.05,0,0,0,0,0,1,0,0v17.1A0,0,0,0,1,213.55,147.41Z" transform="translate(-145.58 -89.54)"/><path d="M215,147.41a0,0,0,0,1,0,0v-17.1a0,0,0,0,1,.1,0v17.1A0,0,0,0,1,215,147.41Z" transform="translate(-145.58 -89.54)"/><path d="M216.59,147.41a0,0,0,0,1-.05,0v-17.1a0,0,0,0,1,.1,0v17.1A0,0,0,0,1,216.59,147.41Z" transform="translate(-145.58 -89.54)"/><path d="M218,147.41a.05.05,0,0,1,0,0v-17.1a.05.05,0,0,1,0,0,0,0,0,0,1,.05,0v17.1A0,0,0,0,1,218,147.41Z" transform="translate(-145.58 -89.54)"/><path d="M219.39,147.41a.05.05,0,0,1,0,0v-17.1a.05.05,0,0,1,0,0,0,0,0,0,1,.05,0v17.1A0,0,0,0,1,219.39,147.41Z" transform="translate(-145.58 -89.54)"/><path d="M220.82,147.41a0,0,0,0,1,0,0v-17.1a.05.05,0,0,1,.1,0v17.1A0,0,0,0,1,220.82,147.41Z" transform="translate(-145.58 -89.54)"/><path d="M222.2,147.41a0,0,0,0,1,0,0v-17.1a.05.05,0,0,1,.1,0v17.1A0,0,0,0,1,222.2,147.41Z" transform="translate(-145.58 -89.54)"/><path d="M223.63,147.41a0,0,0,0,1,0,0v-17.1a0,0,0,0,1,0,0,.05.05,0,0,1,.05,0v17.1A.05.05,0,0,1,223.63,147.41Z" transform="translate(-145.58 -89.54)"/><path d="M225,147.41a0,0,0,0,1,0,0v-17.1a0,0,0,0,1,0,0,.05.05,0,0,1,.05,0v17.1A.05.05,0,0,1,225,147.41Z" transform="translate(-145.58 -89.54)"/><path d="M226.43,147.41a0,0,0,0,1-.05,0v-17.1a.05.05,0,0,1,.1,0v17.1A0,0,0,0,1,226.43,147.41Z" transform="translate(-145.58 -89.54)"/><rect class="cls-8" x="171.89" y="108.14" width="1.18" height="12.21" transform="translate(10.63 -181.54) rotate(51.97)"/><path class="cls-8" d="M187.31,118.47l.73-.86L178.42,110h-1.49l.69,1Z" transform="translate(-145.58 -89.54)"/><rect class="cls-9" x="26.26" y="42.26" width="10.86" height="15.85"/><path class="cls-9" d="M180.14,121.8a3.22,3.22,0,1,1-3.21-3.21A3.22,3.22,0,0,1,180.14,121.8Z" transform="translate(-145.58 -89.54)"/><rect class="cls-14" x="30.31" y="53.41" width="1.22" height="8.83"/><rect class="cls-14" x="38.65" y="53.41" width="1.22" height="8.83"/><rect class="cls-14" x="46.82" y="53.41" width="1.22" height="8.83"/><rect class="cls-14" x="55.02" y="53.41" width="1.22" height="8.83"/><rect class="cls-14" x="62.71" y="53.41" width="1.22" height="8.83"/><rect class="cls-14" x="71.04" y="53.41" width="1.22" height="8.83"/><rect class="cls-14" x="79.22" y="53.41" width="1.22" height="8.83"/><rect class="cls-14" x="87.42" y="53.41" width="1.22" height="8.83"/><rect class="cls-14" x="30.31" y="54.02" width="58.33" height="1.27"/><rect class="cls-14" x="30.31" y="57.82" width="58.33" height="0.63"/><rect class="cls-14" x="30.31" y="58.99" width="58.33" height="1.38"/><path class="cls-2" d="M250.33,157.2a2.53,2.53,0,0,0,.21-.32l-2.06-.63-8.19-2.54-4.1-1.27-2-.6H233l2,.6h-7l-2-.6H224.8l2,.6h-7l-2-.6h-1.22l2,.6h-7.12l-2-.6h-1.22l2,.6H203.8l-2-.6h-1.21l2,.6h-7l-2-.6H192.4l2,.6h-6.94l-2-.6h-1.21l2,.6h-7.12l-2-.6h-1.23l2,.6,4.1,1.27,8.19,2.54,2,.63,1.71.53,4.46,1.38c.61-.11,1.21-.24,1.84-.37,1.84-.38,3.36-.79,4.75-1h-1.49l-1.71-.53h7l1.71.53h-1.61a9,9,0,0,1,1.56.49,15.2,15.2,0,0,1,1.63.89h2.88l3.64,1.13.95-.08-3.37-1.05h7l.46.14.74-.25c2.14-.78,3.72-1.75,5.1-.78a2,2,0,0,1,.72.89h.67l3.8,1.18.58-.2-3.17-1h6.58a10.49,10.49,0,0,1,4,0h4.69l1,.32a2.59,2.59,0,0,0,.39-.25l-.21-.07h.3a7.17,7.17,0,0,0,1.37-1.38H244l-1.72-.53h7Zm-19.46-3.49,8.19,2.54h-6.95l-8.2-2.54Zm-8.18,0,8.19,2.54h-7.12l-8.19-2.54Zm-8.33,0,8.18,2.54h-6.46l-8.19-2.54Zm-23,2.54-8.19-2.54h7.12l8.19,2.54Zm10.88,1.16h-7.12l-1.72-.53h7.12Zm-2.54-1.16-8.19-2.54h6.95l8.19,2.54Zm8.17,0-8.19-2.54h7l8.18,2.54Zm3.76,1.16-1.72-.53h7l1.71.53Zm8.2,0-1.71-.53h6.46l1.71.53Zm7.69,0-1.72-.53h7.12l1.72.53Zm15.28,0h-6.95l-1.71-.53h6.95Zm-2.54-1.16-8.19-2.54h7l8.2,2.54Z" transform="translate(-145.58 -89.54)"/><path class="cls-2" d="M172.89,150.63c.05.49-1.46.52-5.11,2.27a5.91,5.91,0,0,1-3,.76,5,5,0,0,1-1.68-.4c-3.54-1.41-7.3.82-10.88-1.43-.46-.29-1.25-.79-1.16-1.24.2-1.11,5.23-.06,8.46-1.36a2.56,2.56,0,0,1,2.08-.13c.44.23.49.56.8.84.89.81,2.65,0,4.05-.3C169.55,148.91,172.82,149.94,172.89,150.63Z" transform="translate(-145.58 -89.54)"/><path class="cls-15" d="M174.41,141.38c-.16.29-.62.33-.81.34l-.64-.45-.2-.16c-.66-.52-.84-.78-1.31-.9a1.13,1.13,0,0,0-.82,0,.78.78,0,0,0-.31.34,10.54,10.54,0,0,1-3.67,2.78,10.26,10.26,0,0,1-4.84.73,16.46,16.46,0,0,1-3.51-.45,2.39,2.39,0,0,1-1.58.32c-1.12-.25-1.6-1.46-1.77-1.91-.44-1.11-.59-3,.38-4,1.44-1.5,3.8.48,10,.23,1.62-.07,4.64-.21,6.25-1.5.16-.13.91-.75,1.08-.6s-.09.54-.27.87a14.8,14.8,0,0,0,.79,1.57c.06.1.18.31.39.65.29.51.44.76.51.93a1.51,1.51,0,0,1,.09.18C174.44,140.86,174.54,141.15,174.41,141.38Z" transform="translate(-145.58 -89.54)"/><path class="cls-15" d="M158,143.55s0,.1-.08.16a.71.71,0,0,1-.08.15A4.48,4.48,0,0,1,157,145a7,7,0,0,0-1.3,1.63c-.88,1.5-1.12,2.83-.88,3.36a.34.34,0,0,0,.13.19c.11.08.36.17.43.41a.61.61,0,0,1-.07.41h-1.38c.11-.4.18-.73.23-1a3,3,0,0,0,0-1.17,2.83,2.83,0,0,1,0-.76,3.93,3.93,0,0,1,.11-.76,3.55,3.55,0,0,1,.53-1,3.17,3.17,0,0,0,.31-1.7c0-1.8-.88-2.3-.76-3.6a2.76,2.76,0,0,1,.32-1.09,4,4,0,0,1,.66-1l3.07,1.34A5.74,5.74,0,0,1,158,143.55Z" transform="translate(-145.58 -89.54)"/><path class="cls-15" d="M167.34,143c-.07.17-.13.33-.21.49a3.76,3.76,0,0,1-.56.82c-.28.33-.6.57-.95,1a8.21,8.21,0,0,0-.76,1.07c-1,1.72-1.17,3.23-.74,3.55.14.08.36.18.42.4a.55.55,0,0,1-.06.41H163.1c.08-.29.14-.56.19-.8a3.24,3.24,0,0,0,.05-1.37,3.94,3.94,0,0,1,0-.76,3.72,3.72,0,0,1,.13-.77,4,4,0,0,1,.52-1,3.22,3.22,0,0,0,.31-1.69,2.81,2.81,0,0,0,0-.3c-.07-1.56-.86-2.08-.76-3.3a3.44,3.44,0,0,1,1-2l3.07,1.34A6.21,6.21,0,0,1,167.34,143Z" transform="translate(-145.58 -89.54)"/><path class="cls-15" d="M159.13,150.59h-1.29c0-.22-.07-.43-.11-.65s0-.23-.07-.35c-.11.08-.16.08-.19.07s.05-.65.07-.72a1.65,1.65,0,0,1,.11-.27c.1-.24,0-1.17-.67-3.72,0-.14-.07-.3-.12-.47l.26-.47.83-1.54.06,1.08a1.93,1.93,0,0,1,0,.24c.07,1.21.14,2.42.2,3.62.12.84.25,1.68.37,2.52a.47.47,0,0,1,.17,0,.53.53,0,0,1,.31.19A.51.51,0,0,1,159.13,150.59Z" transform="translate(-145.58 -89.54)"/><path class="cls-15" d="M167.64,150.48h-1.28c0-.18-.07-.36-.1-.54l-.09-.46c-.1.08-.16.08-.19.07s.05-.66.07-.72a2.09,2.09,0,0,1,.11-.28c.09-.21,0-1-.54-3.24-.07-.28-.16-.6-.25-.94l.35-.64.74-1.38.06,1.07c0,.31,0,.6,0,.91.05,1,.11,2,.17,3,.11.84.24,1.68.36,2.52a.52.52,0,0,1,.41.12l.07.08A.51.51,0,0,1,167.64,150.48Z" transform="translate(-145.58 -89.54)"/><path class="cls-8" d="M155.33,138c-.14-.13-.78.24-1.27.73-.28.27-.77.83-1.54,3.91a5,5,0,0,0-.27,1.83c.05.89.41,2,.83,2s.54-.51.68-.8a6,6,0,0,0,.39-2.69,10.53,10.53,0,0,1,.31-3C154.85,138.83,155.49,138.18,155.33,138Z" transform="translate(-145.58 -89.54)"/><path class="cls-8" d="M171.64,136.74c-.69,2.58-1.1,3.45-1.35,3.42s-.24-.34-.36-.31,0,.61-.29.83-.35,0-.6.06c-.68.15-.62,1.47-1.16,1.6s-1.13-1-1.49-.85-.1.7-.33.79-.62-.44-.85-.76a3.15,3.15,0,0,1-.87-1.76,2.45,2.45,0,0,1,.45-1.48,15.23,15.23,0,0,0,3.31-.33A14.92,14.92,0,0,0,171.64,136.74Z" transform="translate(-145.58 -89.54)"/><path class="cls-8" d="M172.87,137.75c0,.4-.14.82-.27.81s-.24-.56-.28-.81-.11-.74,0-.79S172.81,137.3,172.87,137.75Z" transform="translate(-145.58 -89.54)"/><path d="M158.19,143.52c-.05,0-.06,0-.05-.07a3.33,3.33,0,0,0,.21-2.08,3.46,3.46,0,0,0-1-1.77,0,0,0,0,1,0-.07,0,0,0,0,1,.07,0,3.53,3.53,0,0,1,1.06,1.83,3.49,3.49,0,0,1-.22,2.14S158.21,143.52,158.19,143.52Z" transform="translate(-145.58 -89.54)"/><path d="M157,144.9c-.05,0-.05-.06,0-.08l.78-.88s0,0,.07,0a0,0,0,0,1,0,.07l-.78.87Z" transform="translate(-145.58 -89.54)"/><path d="M165.87,145.14c-.06,0-.06-.08,0-.09l.61-.49a.06.06,0,0,1,.07,0s0,.06,0,.07l-.61.49Z" transform="translate(-145.58 -89.54)"/><path d="M164.19,144a0,0,0,0,1-.05,0l-.08-.8s0,0,0,0,.05,0,.06,0l.08.8a.06.06,0,0,1-.05.06Z" transform="translate(-145.58 -89.54)"/><path d="M167.18,143.25a0,0,0,0,1-.05-.05l0-.66a0,0,0,0,1,.05,0,.05.05,0,0,1,0,0l0,.66A0,0,0,0,1,167.18,143.25Z" transform="translate(-145.58 -89.54)"/><path class="cls-9" d="M155.36,150.54a.61.61,0,0,1-.07.41h-1.38c.11-.4.18-.73.23-1h.66a.34.34,0,0,0,.13.19C155,150.21,155.29,150.3,155.36,150.54Z" transform="translate(-145.58 -89.54)"/><path class="cls-9" d="M159.07,150.13a.51.51,0,0,1,.06.46h-1.29c0-.22-.07-.43-.11-.65h1A.53.53,0,0,1,159.07,150.13Z" transform="translate(-145.58 -89.54)"/><path class="cls-9" d="M164.54,150.33a.55.55,0,0,1-.06.41H163.1c.08-.29.14-.56.19-.8h.85C164.26,150,164.48,150.11,164.54,150.33Z" transform="translate(-145.58 -89.54)"/><path class="cls-9" d="M167.64,150.48h-1.28c0-.18-.07-.36-.1-.54h1.25l.07.08A.51.51,0,0,1,167.64,150.48Z" transform="translate(-145.58 -89.54)"/><path d="M173.15,139.23l0,0a.18.18,0,0,0-.08-.07.18.18,0,0,0-.18,0,.06.06,0,0,1-.07,0s0-.06,0-.07a.27.27,0,0,1,.28,0,.29.29,0,0,1,.12.1,0,0,0,0,1,0,.07Z" transform="translate(-145.58 -89.54)"/><ellipse class="cls-9" cx="27.38" cy="49.62" rx="0.08" ry="0.11"/><path d="M173.88,141a.2.2,0,0,1-.14-.06s0-.05,0-.07a0,0,0,0,1,.07,0,.11.11,0,0,0,.12,0,.1.1,0,0,0,0-.11.06.06,0,0,1,0-.07s.05,0,.06,0a.2.2,0,0,1-.09.22A.17.17,0,0,1,173.88,141Z" transform="translate(-145.58 -89.54)"/><path d="M173.84,141.71s-.4-.4-.4-.4a.06.06,0,0,1,0-.08.06.06,0,0,1,.07,0l.36.39a0,0,0,0,1,0,.07Z" transform="translate(-145.58 -89.54)"/></g></svg>