<svg id="Scene" xmlns="http://www.w3.org/2000/svg" viewBox="0 0 72.83 56.97"><defs><style>.cls-1{fill:#93563b;}.cls-2{fill:#68301a;}.cls-3{fill:#176937;}.cls-4{fill:#588645;}.cls-5{fill:#7fb74a;}.cls-6{fill:#e09500;}.cls-7{fill:#739b48;}.cls-8{fill:#c64d22;}.cls-9{fill:#efc9b6;}.cls-10{fill:#ffc200;}.cls-11{fill:#e59a03;}.cls-12{fill:#f4b78e;}.cls-13{fill:#ce9174;}</style></defs><g id="_7" data-name="7"><path class="cls-1" d="M236.41,144.82c-.13-2.13-3.09-3.8-5.24-3.64-.82.06-1.13.36-2.36.44a8.67,8.67,0,0,1-3.25-.42c-4.68-1.36-18,2.05-20.15.27a2.29,2.29,0,0,0-1.11-.56,6.49,6.49,0,0,0-1.89.36l-.87.22s-.61.14-1.23.21c-1.31.14-4.34-.76-6.2-1-2.4-.31-2.16.6-4.5.32-2.94-.34-3-1.73-6-2.09-.1,0-1.7.12-4.91.37-1.66.14-2.52.2-3.2.85-.85.8-.53,1.56-1.26,2.19-1.44,1.23-3.87-.69-4.91.25s-.4,4.19,1.56,5.84c1.49,1.26,2.66.45,6.91,1.64,2.95.83,2.68,1.3,4.52,1.49a17,17,0,0,0,6.39-.5,4.5,4.5,0,0,1,2.74-.28c.76.21,1,.56,1.59.88,1.35.69,2.16,0,4.42,0,1.47,0,1,.24,5.34.85.75.11,1.64.21,2.8.3,4.33.35,4.43-.1,9.21.08,7.32.29,10.39,1.44,12.06-.51.94-1.1.58-2.2,1.84-3,1.54-1,2.81.12,4.79-.71C234.94,148,236.51,146.45,236.41,144.82Z" transform="translate(-163.58 -96.52)"/><path class="cls-2" d="M183.18,148.26c2.51,1.83,5.26,1.57,9.79,1.48,5.1-.1,6.38-.28,9.77.12,2.06.24,2.24.42,4.38.74a43.44,43.44,0,0,0,11.72.33c5.74-.77,11.7-3.43,11.47-4.77-.19-1.18-5.34-1.25-6.74-1.27-9-.11-11.55,3.42-16.2,1.43-1.64-.69-3-1.84-5.06-1.52s-2.19,1.52-3.87,1.56c-2.43.07-2.89-2.49-5.58-2.59-1.86-.07-2.37,1.13-4.08.66-1.31-.36-1.55-1.21-2.8-1.23-.85,0-.94.38-2.51.82-1.75.5-2.43.23-2.67.66C180.4,145.39,181.66,147.15,183.18,148.26Z" transform="translate(-163.58 -96.52)"/><path class="cls-3" d="M201.77,101v.16c0,.22,0,.43,0,.65l0,.39a1.36,1.36,0,0,0,0,.2,8.64,8.64,0,0,0,.17,1.24.8.8,0,0,0,0,.15,3.61,3.61,0,0,0,.4,1,.8.8,0,0,0,.09.14.35.35,0,0,0,.05.08,4.44,4.44,0,0,0,.68.71l.16.15.87.73.16.14a.7.7,0,0,0,.1.08c1.57,1.33,1.92,1.51,2.29,1.44.63-.14,1-.91,1.16-1.39a3.36,3.36,0,0,0,.24-.74c0-.06,0-.12,0-.18a4.61,4.61,0,0,0,.06-1.16v-.17a6.92,6.92,0,0,0-.17-1.06,1.89,1.89,0,0,0-.06-.18c0-.19-.09-.35-.13-.48a4.39,4.39,0,0,0-.46-1,.65.65,0,0,0-.09-.16l-.68-1.21a.86.86,0,0,1-.1-.16l-.19-.32-.42-.74-.1-.18-.51-.88-.11-.17c-.26-.43-.47-.74-.65-1a1.79,1.79,0,0,0-.13-.14,1,1,0,0,0-.58-.38.36.36,0,0,0-.15,0,1.26,1.26,0,0,0-.8.34l-.11.1-.25.26a2.81,2.81,0,0,0-.43.61.39.39,0,0,0-.08.14,4.49,4.49,0,0,0-.42,1.73v.16A10,10,0,0,0,201.77,101Z" transform="translate(-163.58 -96.52)"/><path class="cls-4" d="M203.84,98.15v.25c0,.24,0,.49,0,.74a1.11,1.11,0,0,0,0,.17.31.31,0,0,0,0,.1,3.91,3.91,0,0,0,.17.77,2.25,2.25,0,0,0,.08.24,4.58,4.58,0,0,0,.3.69l.12.23c.07.13.15.26.23.39l.41.66.12.21c.11.18.22.36.31.54s.11.22.16.33a3.08,3.08,0,0,1,.19.47,1.66,1.66,0,0,1,.1.29c0,.12.07.24.1.37a1.8,1.8,0,0,1,.06.32,1.85,1.85,0,0,1,0,.23c0,.22.06.44.08.66a1.64,1.64,0,0,1,0,.22l0,.27c0,.09,0,.17,0,.25,0,.46.08.93.14,1.4,0,.1.17.06.15,0-.08-.52-.12-1-.16-1.56,0-.06,0-.12,0-.18,0-.3-.06-.59-.1-.89a.25.25,0,0,0,0-.08s0-.07,0-.12,0-.22-.05-.32,0-.18-.06-.26a4.32,4.32,0,0,0-.29-.88,1,1,0,0,0-.1-.24,6.59,6.59,0,0,0-.38-.75l0-.06,0-.07c-.07-.12-.13-.22-.2-.32l-.32-.52c-.07-.12-.14-.23-.19-.34a5.88,5.88,0,0,1-.45-.95,2.41,2.41,0,0,1-.08-.25,5.42,5.42,0,0,1-.21-1c0-.13,0-.27,0-.41s0-.21,0-.31c0-.62,0-1.23,0-1.84a.36.36,0,0,0-.15,0C203.86,97.06,203.84,97.6,203.84,98.15Z" transform="translate(-163.58 -96.52)"/><path class="cls-4" d="M202.17,98a5.6,5.6,0,0,0,.43.41,7.08,7.08,0,0,0,.71.51,3.37,3.37,0,0,1,.38.28c.08.07.13.18.22.24s.19,0,.11-.11-.09-.11-.13-.16l-.13-.12c-.11-.09-.23-.17-.35-.25s-.48-.32-.7-.5-.32-.29-.46-.44A.39.39,0,0,0,202.17,98Z" transform="translate(-163.58 -96.52)"/><path class="cls-4" d="M201.75,99.86a2.8,2.8,0,0,0,.31.09c.36.08.73.12,1.1.17a1.61,1.61,0,0,1,1,.31c.09,0,.17-.06.11-.12l-.06,0-.11-.08a2.11,2.11,0,0,0-.62-.17c-.35-.06-.7-.09-1-.15a5,5,0,0,1-.67-.16Z" transform="translate(-163.58 -96.52)"/><path class="cls-4" d="M201.77,101v.16l.6.06c.39,0,.77,0,1.15,0a1.55,1.55,0,0,1,1,.17c.1,0,.15-.09.08-.13a.83.83,0,0,0-.16-.09,1.34,1.34,0,0,0-.66-.12c-.38,0-.74,0-1.11,0A7.4,7.4,0,0,1,201.77,101Z" transform="translate(-163.58 -96.52)"/><path class="cls-4" d="M201.85,102.15a1.36,1.36,0,0,0,0,.2l.11.07a1.76,1.76,0,0,0,.93.17c.42,0,.83-.08,1.25-.1a2.59,2.59,0,0,1,1.18.11l.07,0a0,0,0,0,0,.06,0s0,0,.05-.05a.06.06,0,0,0,0-.08,1.3,1.3,0,0,0-.27-.1,5.83,5.83,0,0,0-1.91,0,2.49,2.49,0,0,1-1.12-.05A1.45,1.45,0,0,1,201.85,102.15Z" transform="translate(-163.58 -96.52)"/><path class="cls-4" d="M202,103.59a.8.8,0,0,0,0,.15c.22,0,.44,0,.65-.06.46-.05.92-.15,1.37-.24a6.37,6.37,0,0,1,.87-.17c.21,0,.71-.1.82.17.07.06.12,0,.14,0a.4.4,0,0,0-.27-.32,1.4,1.4,0,0,0-.54,0,11,11,0,0,0-1.58.3A10.11,10.11,0,0,1,202,103.59Z" transform="translate(-163.58 -96.52)"/><path class="cls-4" d="M202.47,104.73a.8.8,0,0,0,.09.14,6.33,6.33,0,0,0,1-.16c.41-.1.82-.23,1.22-.37s1-.53,1.33-.14c.09.06.18,0,.13-.08a.6.6,0,0,0-.21-.18.8.8,0,0,0-.57,0c-.44.14-.87.32-1.31.45A9.13,9.13,0,0,1,202.47,104.73Z" transform="translate(-163.58 -96.52)"/><path class="cls-4" d="M203.29,105.66l.16.15a5.89,5.89,0,0,0,1.17-.29,7.31,7.31,0,0,0,.79-.4,1,1,0,0,1,.47-.14.61.61,0,0,1,.42.17s0,0,0,0a.07.07,0,0,0,.12,0,.06.06,0,0,0,0-.08.64.64,0,0,0-.21-.2,1,1,0,0,0-.47-.09,2.24,2.24,0,0,0-.81.35A4.55,4.55,0,0,1,203.29,105.66Z" transform="translate(-163.58 -96.52)"/><path class="cls-4" d="M204.33,106.54a1,1,0,0,0,.15.14,1.63,1.63,0,0,0,.78-.25c.18-.11.34-.24.52-.36s.45-.24.62,0,.18,0,.12-.11a.36.36,0,0,0-.14-.11c-.3-.17-.72.15-1,.33a2.27,2.27,0,0,1-.65.35A1.58,1.58,0,0,1,204.33,106.54Z" transform="translate(-163.58 -96.52)"/><path class="cls-4" d="M202.93,97a5.16,5.16,0,0,0,.91,1.44.08.08,0,1,0,.12-.11.81.81,0,0,1-.12-.14,5.24,5.24,0,0,1-.8-1.29Z" transform="translate(-163.58 -96.52)"/><path class="cls-4" d="M204,98.69a.08.08,0,0,0,0,0c.13-.33.32-.64.46-1a4.44,4.44,0,0,0,.19-.62,1.79,1.79,0,0,0-.13-.14,3.92,3.92,0,0,1-.22.74c-.11.25-.23.47-.35.71a2.44,2.44,0,0,0-.1.24C203.87,98.68,204,98.72,204,98.69Z" transform="translate(-163.58 -96.52)"/><path class="cls-4" d="M204.16,100.42c.07.1.15.08.15,0s0,0,0-.06a1.42,1.42,0,0,1,.34-.64,4.57,4.57,0,0,0,.43-.65,5.54,5.54,0,0,0,.37-.87l-.11-.17a6.52,6.52,0,0,1-.47,1.09,8,8,0,0,0-.64,1,.58.58,0,0,0-.05.14A.41.41,0,0,0,204.16,100.42Z" transform="translate(-163.58 -96.52)"/><path class="cls-4" d="M204.71,101.52s.11.11.1.16,0,0,0,0,.13.06.15,0v-.07a.28.28,0,0,0,0-.09s-.07-.06-.07-.1.08-.15.1-.19l.13-.17c.18-.27.34-.53.49-.8a8.08,8.08,0,0,0,.47-1l-.1-.18a7,7,0,0,1-.53,1.18,6.67,6.67,0,0,1-.5.8,2.2,2.2,0,0,0-.17.25l-.05.07A.29.29,0,0,0,204.71,101.52Z" transform="translate(-163.58 -96.52)"/><path class="cls-4" d="M205.47,102.62s0,0,.06,0c.26-.07.33-.31.39-.53a3.91,3.91,0,0,1,.46-.82c.14-.26.27-.53.4-.8a.86.86,0,0,1-.1-.16c-.12.26-.24.53-.38.78s-.3.47-.43.72-.11.6-.38.66A.07.07,0,0,0,205.47,102.62Z" transform="translate(-163.58 -96.52)"/><path class="cls-4" d="M205.89,103.57c0,.1.13.15.15.05a1.88,1.88,0,0,1,.45-.94c.22-.22.54-.26.78-.45a1.29,1.29,0,0,0,.28-.37.65.65,0,0,0-.09-.16,1.15,1.15,0,0,1-.55.56,1.55,1.55,0,0,0-.68.47,2.23,2.23,0,0,0-.29.65Z" transform="translate(-163.58 -96.52)"/><path class="cls-4" d="M206.38,104.74a2,2,0,0,1,.24-.43,1.11,1.11,0,0,1,.36-.25,3.82,3.82,0,0,1,.48-.15,1.69,1.69,0,0,0,.37-.15,2.26,2.26,0,0,0,.37-.26,1.89,1.89,0,0,0-.06-.18,1.49,1.49,0,0,1-.58.39,4.15,4.15,0,0,0-.83.31,1.16,1.16,0,0,0-.4.48l-.08.15C206.21,104.74,206.33,104.82,206.38,104.74Z" transform="translate(-163.58 -96.52)"/><path class="cls-4" d="M206.35,105.22a.07.07,0,0,0,.12.06.08.08,0,0,0,0,0,.31.31,0,0,1,.3-.2l.4-.05a4.55,4.55,0,0,0,.74-.11,1.9,1.9,0,0,0,.42-.15v-.17a2.34,2.34,0,0,1-.78.23l-.81.1a.44.44,0,0,0-.42.31S206.35,105.21,206.35,105.22Z" transform="translate(-163.58 -96.52)"/><path class="cls-4" d="M206.38,106.47a.08.08,0,0,0,.07.08.09.09,0,0,0,.09-.08.21.21,0,0,1,0-.12c.1-.14.37-.12.52-.12a4.87,4.87,0,0,0,.66,0,2.71,2.71,0,0,0,.51-.12c0-.06,0-.12,0-.18a2.7,2.7,0,0,1-.89.17,1.94,1.94,0,0,0-.85.11.23.23,0,0,0-.14.13A.34.34,0,0,0,206.38,106.47Z" transform="translate(-163.58 -96.52)"/><path class="cls-3" d="M209.82,102.58l-.12.1c-.16.15-.32.29-.48.45l-.29.27-.14.13a12,12,0,0,0-.87.91,1.25,1.25,0,0,0-.09.12,3.8,3.8,0,0,0-.52.93.6.6,0,0,0-.05.16.2.2,0,0,0,0,.08,5,5,0,0,0-.12,1c0,.07,0,.13,0,.21,0,.31,0,.69,0,1.14a1.55,1.55,0,0,0,0,.21s0,.08,0,.12c0,2.07,0,2.45.32,2.69.5.41,1.31.18,1.81,0a4.55,4.55,0,0,0,.73-.27l.16-.09a4.9,4.9,0,0,0,.95-.68l.12-.11a6.46,6.46,0,0,0,.73-.8l.1-.15c.12-.15.21-.29.29-.4a4.45,4.45,0,0,0,.48-1s.05-.11.07-.17l.51-1.29a1.34,1.34,0,0,1,.07-.18c0-.11.09-.23.13-.35.11-.28.22-.55.31-.79l.08-.19c.14-.35.26-.67.36-1a1.46,1.46,0,0,0,.07-.19,11.32,11.32,0,0,0,.36-1.12l0-.19a1,1,0,0,0-.07-.69.54.54,0,0,0-.07-.13,1.3,1.3,0,0,0-.77-.41l-.16,0-.35,0a2.7,2.7,0,0,0-.75,0l-.16,0a4.61,4.61,0,0,0-1.6.76l-.13.1A9.16,9.16,0,0,0,209.82,102.58Z" transform="translate(-163.58 -96.52)"/><path class="cls-4" d="M213.3,102.44l-.19.16a6.41,6.41,0,0,0-.55.49l-.13.12-.07.07a4.85,4.85,0,0,0-.5.62,1.48,1.48,0,0,0-.13.21,4.88,4.88,0,0,0-.35.67l-.11.24c-.05.14-.11.27-.16.42l-.25.73-.09.23c-.07.19-.15.39-.23.58l-.15.33c-.08.15-.16.3-.25.44s-.11.18-.17.26a3,3,0,0,1-.22.31,2.62,2.62,0,0,1-.22.25l-.15.17c-.15.16-.31.32-.47.47a1.14,1.14,0,0,1-.15.16l-.2.19-.18.17c-.33.32-.68.65-1,1-.07.07.06.16.13.09.35-.38.73-.74,1.11-1.1a1.59,1.59,0,0,0,.13-.13c.22-.2.43-.41.63-.62l.06-.06.08-.09.22-.24.17-.21a4.3,4.3,0,0,0,.5-.78,1.71,1.71,0,0,0,.13-.23,6.51,6.51,0,0,0,.34-.76l0-.07s0,0,0-.08l.13-.35c.06-.19.13-.39.2-.58l.15-.37a5.75,5.75,0,0,1,.46-.93A1.76,1.76,0,0,1,212,104a4.93,4.93,0,0,1,.67-.79l.3-.28.24-.2c.48-.4,1-.76,1.43-1.16a.54.54,0,0,0-.07-.13C214.16,101.77,213.72,102.1,213.3,102.44Z" transform="translate(-163.58 -96.52)"/><path class="cls-4" d="M212.39,101c0,.2,0,.4,0,.6a8.77,8.77,0,0,0,0,.88,2.36,2.36,0,0,1,0,.46c0,.11-.06.21,0,.32s.16.12.16,0a.34.34,0,0,1,0-.2,1.15,1.15,0,0,0,0-.18c0-.14,0-.28,0-.43a6.2,6.2,0,0,1-.05-.86c0-.21,0-.42.05-.63Z" transform="translate(-163.58 -96.52)"/><path class="cls-4" d="M210.66,101.88a2.52,2.52,0,0,0,.12.29c.16.34.36.65.55,1a1.61,1.61,0,0,1,.38,1c0,.09.15.1.16,0V104a.59.59,0,0,0,0-.13,1.81,1.81,0,0,0-.25-.59c-.17-.31-.37-.6-.54-.91a4.34,4.34,0,0,1-.28-.62Z" transform="translate(-163.58 -96.52)"/><path class="cls-4" d="M209.82,102.58l-.12.1.33.5a10.51,10.51,0,0,0,.72.9,1.5,1.5,0,0,1,.51.9c.05.08.16.06.15,0a1.13,1.13,0,0,0,0-.18,1.4,1.4,0,0,0-.32-.6c-.23-.29-.49-.55-.72-.84A7.24,7.24,0,0,1,209.82,102.58Z" transform="translate(-163.58 -96.52)"/><path class="cls-4" d="M208.93,103.4l-.14.13a.53.53,0,0,0,0,.13,1.75,1.75,0,0,0,.46.83c.28.32.58.61.86.92a2.63,2.63,0,0,1,.65,1,.14.14,0,0,1,0,.06s0,0,0,.05,0,0,.07,0a.07.07,0,0,0,0-.07,2.34,2.34,0,0,0-.09-.28,5.54,5.54,0,0,0-1.21-1.48,2.6,2.6,0,0,1-.66-.91A1.67,1.67,0,0,1,208.93,103.4Z" transform="translate(-163.58 -96.52)"/><path class="cls-4" d="M207.92,104.44a1.25,1.25,0,0,0-.09.12c.15.16.3.32.46.47.33.32.68.62,1,.92a4.58,4.58,0,0,1,.67.57c.16.15.53.49.39.74,0,.1,0,.13.08.13a.39.39,0,0,0,.07-.41,1.39,1.39,0,0,0-.31-.45,10.35,10.35,0,0,0-1.22-1A9.6,9.6,0,0,1,207.92,104.44Z" transform="translate(-163.58 -96.52)"/><path class="cls-4" d="M207.31,105.49a.6.6,0,0,0-.05.16,5.65,5.65,0,0,0,.73.65,12.2,12.2,0,0,0,1,.72c.3.19,1.07.49.94,1,0,.11.12.14.14.06a.54.54,0,0,0,0-.28.82.82,0,0,0-.35-.46c-.39-.25-.79-.47-1.17-.73A8.88,8.88,0,0,1,207.31,105.49Z" transform="translate(-163.58 -96.52)"/><path class="cls-4" d="M207.1,106.72c0,.07,0,.13,0,.21a5.65,5.65,0,0,0,1,.73,8.25,8.25,0,0,0,.8.37.84.84,0,0,1,.41.28.65.65,0,0,1,.13.43s0,0,0,.06,0,.11.07.1a.06.06,0,0,0,.07-.05.56.56,0,0,0,0-.28.93.93,0,0,0-.22-.43,2.29,2.29,0,0,0-.79-.41A4.77,4.77,0,0,1,207.1,106.72Z" transform="translate(-163.58 -96.52)"/><path class="cls-4" d="M207.06,108.07a1.55,1.55,0,0,0,0,.21,1.69,1.69,0,0,0,.67.45l.61.18c.21.07.48.2.43.46,0,.1.13.12.15,0a.31.31,0,0,0,0-.19c-.06-.34-.57-.46-.86-.54a2.29,2.29,0,0,1-.68-.29A1.82,1.82,0,0,1,207.06,108.07Z" transform="translate(-163.58 -96.52)"/><path class="cls-4" d="M213.65,101a5.27,5.27,0,0,0-.54,1.61.08.08,0,1,0,.16,0,.57.57,0,0,1,0-.18,5.2,5.2,0,0,1,.51-1.43Z" transform="translate(-163.58 -96.52)"/><path class="cls-4" d="M213,102.91H213c.34-.11.7-.15,1.05-.25a3.41,3.41,0,0,0,.6-.24l0-.19a3.74,3.74,0,0,1-.72.29c-.26.07-.51.12-.77.17l-.25.07A.07.07,0,0,0,213,102.91Z" transform="translate(-163.58 -96.52)"/><path class="cls-4" d="M211.73,104.11c0,.12,0,.17.09.13l.05,0a1.44,1.44,0,0,1,.71-.14,4.13,4.13,0,0,0,.78-.08,4.62,4.62,0,0,0,.9-.25,1.46,1.46,0,0,0,.07-.19,7.41,7.41,0,0,1-1.14.32A7.85,7.85,0,0,0,212,104l-.13,0A.71.71,0,0,0,211.73,104.11Z" transform="translate(-163.58 -96.52)"/><path class="cls-4" d="M211.22,105.23s0,.15-.07.17,0,0,0,0,0,.14.1.11a.1.1,0,0,0,0,0l.07-.06a.53.53,0,0,1,0-.12s.16,0,.21,0h.22a8.58,8.58,0,0,0,2-.4l.08-.19a9,9,0,0,1-1.26.33,9.1,9.1,0,0,1-.93.11h-.3l-.09,0A.18.18,0,0,0,211.22,105.23Z" transform="translate(-163.58 -96.52)"/><path class="cls-4" d="M210.83,106.51a0,0,0,0,0,0,.06.63.63,0,0,0,.66,0,4.11,4.11,0,0,1,.93-.16q.44-.07.87-.18a1.34,1.34,0,0,1,.07-.18c-.28.07-.57.14-.85.19s-.56.06-.84.12-.53.29-.74.12S210.82,106.46,210.83,106.51Z" transform="translate(-163.58 -96.52)"/><path class="cls-4" d="M210.35,107.44c-.09,0,0,.19.06.14a1.94,1.94,0,0,1,1-.24c.3,0,.53.26.83.33a1.24,1.24,0,0,0,.47,0s.05-.11.07-.17a1.22,1.22,0,0,1-.78-.08,1.53,1.53,0,0,0-.8-.24,2.36,2.36,0,0,0-.68.18Z" transform="translate(-163.58 -96.52)"/><path class="cls-4" d="M209.75,108.55a1.67,1.67,0,0,1,.49-.08,1.06,1.06,0,0,1,.42.12c.15.07.27.19.42.28a1.41,1.41,0,0,0,.34.19,1.59,1.59,0,0,0,.44.12l.1-.15a1.42,1.42,0,0,1-.67-.21,4.11,4.11,0,0,0-.76-.45,1.09,1.09,0,0,0-.62,0,.86.86,0,0,0-.17,0C209.64,108.42,209.66,108.56,209.75,108.55Z" transform="translate(-163.58 -96.52)"/><path class="cls-4" d="M209.36,108.82a.08.08,0,0,0,0,.14h.06a.32.32,0,0,1,.35.11l.28.29a6.52,6.52,0,0,0,.55.5,1.54,1.54,0,0,0,.39.23l.12-.11a2.27,2.27,0,0,1-.66-.45c-.2-.19-.39-.4-.59-.58a.47.47,0,0,0-.34-.16l-.16,0Z" transform="translate(-163.58 -96.52)"/><path class="cls-4" d="M208.4,109.63a.07.07,0,0,0,0,.1.1.1,0,0,0,.12,0,.16.16,0,0,1,.12-.05c.17,0,.32.22.41.33a4.24,4.24,0,0,0,.46.49,3.29,3.29,0,0,0,.41.33l.16-.09a3,3,0,0,1-.69-.58c-.15-.17-.36-.51-.62-.61a.24.24,0,0,0-.19,0A.37.37,0,0,0,208.4,109.63Z" transform="translate(-163.58 -96.52)"/><path class="cls-5" d="M210.33,105.36a1.87,1.87,0,0,0-.45-1.27,2,2,0,0,0-3.17.68Z" transform="translate(-163.58 -96.52)"/><path class="cls-6" d="M205.75,104.39c-1.47.81-1.29,3.25-.95,4.47.07.25.63,2.22,1.53,2.26,1.14,0,2-3.2,2.23-3.93.45-1.64.28-2.06.16-2.26A2.41,2.41,0,0,0,205.75,104.39Z" transform="translate(-163.58 -96.52)"/><path class="cls-6" d="M210.35,108.06c.32-1.86-.15-3.49-1-3.64s-1.87,1.23-2.19,3.09.16,3.49,1,3.64S210,109.92,210.35,108.06Z" transform="translate(-163.58 -96.52)"/><path class="cls-6" d="M212,108.5c.24-1.47-.26-3.33-1.11-3.49s-2,1.51-2.32,3,.05,3.48.9,3.68S211.71,110.2,212,108.5Z" transform="translate(-163.58 -96.52)"/><path class="cls-5" d="M210.07,101.62c.15.27-.49.7-.76,1.56a2.66,2.66,0,0,0-.11.81.67.67,0,0,1-.57-.07c-.36-.33.12-1.32.17-1.42a2.92,2.92,0,0,1,.85-1C209.94,101.47,210,101.55,210.07,101.62Z" transform="translate(-163.58 -96.52)"/><path class="cls-5" d="M212.67,113a1.89,1.89,0,0,0,.54,1.23,2,2,0,0,0,2.51,0,1.91,1.91,0,0,0,.6-.87Z" transform="translate(-163.58 -96.52)"/><path class="cls-4" d="M217.31,113.6c1.4-.91,1.05-3.33.63-4.53-.08-.24-.78-2.17-1.68-2.14-1.14,0-1.81,3.33-1.95,4.08-.34,1.66-.14,2.07,0,2.26A2.41,2.41,0,0,0,217.31,113.6Z" transform="translate(-163.58 -96.52)"/><path class="cls-4" d="M212.46,110.26c-.19,1.87.4,3.47,1.3,3.56s1.79-1.37,2-3.24-.4-3.47-1.3-3.56S212.64,108.38,212.46,110.26Z" transform="translate(-163.58 -96.52)"/><path class="cls-4" d="M210.8,109.94c-.14,1.47.49,3.3,1.34,3.4s1.9-1.64,2.11-3.15-.29-3.47-1.15-3.61S211,108.22,210.8,109.94Z" transform="translate(-163.58 -96.52)"/><path class="cls-5" d="M213.19,116.66c-.16-.26.44-.72.65-1.6a2.78,2.78,0,0,0,.06-.82.63.63,0,0,1,.57,0c.38.3,0,1.33-.08,1.43a2.92,2.92,0,0,1-.77,1.09C213.33,116.8,213.23,116.73,213.19,116.66Z" transform="translate(-163.58 -96.52)"/><path class="cls-5" d="M189,104.9c1.2,3,4.3,4.64,6.93,3.61s3.79-4.34,2.59-7.37-4.29-4.64-6.92-3.61S187.78,101.87,189,104.9Z" transform="translate(-163.58 -96.52)"/><path class="cls-7" d="M195.23,109.48c-1.24-.48-1.44-3.38-1.07-5.25.29-1.46,1.22-2.56,3.08-4.76a1.69,1.69,0,0,1,1.27-.76,1.32,1.32,0,0,1,.78.33c.61.51.59,1.28.87,2.75.32,1.68.5,1.46.5,2.08,0,1.63-1.24,2.81-2.2,3.74C197.26,108.76,196.14,109.83,195.23,109.48Z" transform="translate(-163.58 -96.52)"/><path class="cls-5" d="M199.51,98.18c.31.31,0,1.57-.81,2.17-.46.35-.79.27-1.09.69s0,.73-.3,1.26-.81.43-1.36,1.08a4,4,0,0,0-.68,1.5,10.85,10.85,0,0,1-1.21,2.31,7.23,7.23,0,0,1-.35-3.41,5.92,5.92,0,0,1,.8-2.36c.73-1.16,1.11-.77,2.57-2.32a4.23,4.23,0,0,1,1-.63C198.63,98.24,199.27,98,199.51,98.18Z" transform="translate(-163.58 -96.52)"/><path class="cls-7" d="M196.47,108.6c.58-1.2-1.26-3.45-2.8-4.56-1.21-.87-2.64-1-5.51-1.37a1.76,1.76,0,0,0-1.45.31,1.4,1.4,0,0,0-.34.77c-.09.79.45,1.34,1.25,2.61.91,1.44.63,1.4,1,1.85,1.12,1.19,2.83,1.21,4.17,1.23C194.5,109.46,196.05,109.48,196.47,108.6Z" transform="translate(-163.58 -96.52)"/><path class="cls-5" d="M185.63,103.28c0,.44,1.08,1.13,2.07,1,.58-.06.76-.34,1.26-.24s.53.51,1.09.71.88-.24,1.73-.14a4.16,4.16,0,0,1,1.52.63,11.08,11.08,0,0,0,2.46.87,7,7,0,0,0-2.08-2.74,5.78,5.78,0,0,0-2.19-1.17c-1.32-.35-1.33.2-3.46.06a4.18,4.18,0,0,0-1.19.25C186.31,102.72,185.65,102.94,185.63,103.28Z" transform="translate(-163.58 -96.52)"/><path class="cls-7" d="M197.27,99.09a5.23,5.23,0,0,1-.67,1.31c-.1.13-.29,0-.2-.16a5.12,5.12,0,0,0,.65-1.25c0-.15.28,0,.22.1Z" transform="translate(-163.58 -96.52)"/><path class="cls-7" d="M196,101.21c-.27.29-.35.7-.6,1a5.4,5.4,0,0,0-.41.42,1.59,1.59,0,0,0-.13.72c0,.24,0,.47-.07.7a3.7,3.7,0,0,0-.06.74,2.47,2.47,0,0,0,.69,1.35c.11.12-.09.27-.19.15a3,3,0,0,1-.72-1.32,6,6,0,0,1,.1-1.58,3,3,0,0,1,.09-.72,1.11,1.11,0,0,1,.34-.46,1.67,1.67,0,0,0,.42-.59,2.46,2.46,0,0,1,.34-.56c.11-.11.3,0,.2.16Z" transform="translate(-163.58 -96.52)"/><path class="cls-7" d="M194.41,105.39a6.34,6.34,0,0,1-1.56-1.21,2.59,2.59,0,0,0-.71-.69,3.05,3.05,0,0,0-.51-.17l-.25-.07a.35.35,0,0,0-.25.1c-.12.1-.27-.11-.15-.2a.5.5,0,0,1,.41-.15,4.77,4.77,0,0,1,.54.15,1.52,1.52,0,0,1,.47.2,2,2,0,0,1,.36.36,6.35,6.35,0,0,0,1.74,1.45c.14.07.05.3-.09.23Z" transform="translate(-163.58 -96.52)"/><path class="cls-7" d="M190.37,103.21a.27.27,0,0,0-.13-.07.31.31,0,0,0-.13-.06,1.38,1.38,0,0,0-.27-.08,1.86,1.86,0,0,0-.62,0,1.51,1.51,0,0,1-.6,0,1.89,1.89,0,0,1-.54-.25c-.13-.09,0-.29.15-.2a1.19,1.19,0,0,0,.57.23,3,3,0,0,0,.67-.08,1.52,1.52,0,0,1,.6,0c.18.06.43.14.52.32a.12.12,0,1,1-.22.09Z" transform="translate(-163.58 -96.52)"/><path class="cls-7" d="M191.71,97.82c-.24.53,0,1,0,1.53a3.08,3.08,0,0,1-.08.68c0,.34.16.51.29.8a7.15,7.15,0,0,0,.29.77,1.87,1.87,0,0,0,.7.61,1.19,1.19,0,0,1,.44.36c.13.21.08.47.18.69s-.15.23-.22.09,0-.58-.3-.79-.5-.28-.71-.48c-.44-.41-.48-1-.78-1.45s0-.94-.07-1.45a6.86,6.86,0,0,1-.14-.79,1.39,1.39,0,0,1,.14-.67.12.12,0,0,1,.22.1Z" transform="translate(-163.58 -96.52)"/><path class="cls-7" d="M196,99.6a7.57,7.57,0,0,0-3.57-2.12c-.15,0-.12-.29,0-.25a8,8,0,0,1,3.69,2.17c.11.12,0,.31-.15.2Z" transform="translate(-163.58 -96.52)"/><path class="cls-7" d="M194.68,100.32a5.27,5.27,0,0,0-2.87-1.21c-.16,0-.12-.28,0-.25a5.43,5.43,0,0,1,3,1.27c.11.11,0,.31-.15.19Z" transform="translate(-163.58 -96.52)"/><path class="cls-7" d="M194.08,101.37a.9.9,0,0,0-.47-.2l-.59-.1c-.4,0-.81-.08-1.21-.1-.15,0-.12-.26,0-.25.43,0,.86.06,1.29.11a2.08,2.08,0,0,1,1.1.35c.12.1,0,.3-.15.19Z" transform="translate(-163.58 -96.52)"/><path class="cls-7" d="M193.57,102.1l-.13-.06-.24-.05a4.17,4.17,0,0,0-.49-.08c-.06,0-.11-.08-.1-.14a.11.11,0,0,1,.13-.1,3.08,3.08,0,0,1,.53.08.86.86,0,0,1,.49.2.12.12,0,1,1-.19.15Z" transform="translate(-163.58 -96.52)"/><path class="cls-7" d="M190.32,98.48a5.67,5.67,0,0,1,.84,2.52c.06.74-.1,1.64-.88,1.88-.14,0-.24-.19-.09-.24.75-.23.79-1.15.71-1.83a5.29,5.29,0,0,0-.78-2.19c-.08-.13.11-.28.2-.14Z" transform="translate(-163.58 -96.52)"/><path class="cls-7" d="M190.78,101.1a1.66,1.66,0,0,0-1.39.69c-.1.12-.29,0-.2-.16a1.89,1.89,0,0,1,1.56-.78.13.13,0,0,1,.13.11c0,.06,0,.14-.1.14Z" transform="translate(-163.58 -96.52)"/><path class="cls-7" d="M190.83,99.91a3.14,3.14,0,0,0-.67.17l-.32.14c-.07,0-.17.07-.2.15s-.29,0-.22-.1a.47.47,0,0,1,.24-.24,2,2,0,0,1,.36-.16,3.46,3.46,0,0,1,.78-.21.13.13,0,0,1,0,.25Z" transform="translate(-163.58 -96.52)"/><path class="cls-7" d="M190.32,99.23a1,1,0,0,0-.31.19.74.74,0,0,0-.13.12,1,1,0,0,0-.11.17.12.12,0,0,1-.17,0,.13.13,0,0,1,0-.17,1.36,1.36,0,0,1,.66-.55.11.11,0,0,1,.16.07.13.13,0,0,1-.07.16Z" transform="translate(-163.58 -96.52)"/><path class="cls-8" d="M200.66,103.29c-3.68-3.32-4.68-4.06-4.77-4s2.2,1.61,2.94,4.33a6.42,6.42,0,0,1,.22,1.8c0,2.51-1.35,4.4-.18,5.56a3.47,3.47,0,0,0,2.77.83,3,3,0,0,0,.76-.22c1-.4,2.58-1.05,3-2.5s-.71-2.77-1.31-3.53a6.36,6.36,0,0,0-1.2-1.14A7.32,7.32,0,0,0,200.66,103.29Z" transform="translate(-163.58 -96.52)"/><path class="cls-9" d="M200.66,103.29c-3.68-3.32-4.68-4.06-4.77-4s2.2,1.61,2.94,4.33a6.42,6.42,0,0,1,.22,1.8c.78.6,1.84,1.23,2.4.88s.51-1.21.89-1.21.45.5.59.45.1-.59,0-1.12A7.32,7.32,0,0,0,200.66,103.29Z" transform="translate(-163.58 -96.52)"/><path class="cls-9" d="M199.93,104.79a3.19,3.19,0,0,0-2-.54c-.12,0-.09-.19,0-.18a3.31,3.31,0,0,1,2.06.58.09.09,0,1,1-.11.14Z" transform="translate(-163.58 -96.52)"/><path class="cls-9" d="M199.1,103.48c-.46-.06-.93-.1-1.4-.12,0,0-.08-.06-.07-.11s.05-.07.1-.07a10.87,10.87,0,0,1,1.4.12c.12,0,.09.2,0,.18Z" transform="translate(-163.58 -96.52)"/><path class="cls-9" d="M198.49,102.58a4.11,4.11,0,0,0-.82-.26c-.12,0-.09-.2,0-.18a4.19,4.19,0,0,1,.87.27c.11,0,0,.22-.07.17Z" transform="translate(-163.58 -96.52)"/><path class="cls-9" d="M198.14,101.92c-.29-.08-.58-.17-.86-.27a.11.11,0,0,1,0-.13.09.09,0,0,1,.12,0l.81.26a.1.1,0,0,1,.07.11s-.06.09-.1.07Z" transform="translate(-163.58 -96.52)"/><path class="cls-9" d="M198,101.29a7.13,7.13,0,0,1-1.56-.39c-.11,0,0-.21.08-.17a6.56,6.56,0,0,0,1.51.38.09.09,0,1,1,0,.18Z" transform="translate(-163.58 -96.52)"/><path class="cls-9" d="M197.05,100.54l-.81-.29a.1.1,0,0,1,0-.12.09.09,0,0,1,.12,0l.81.29c.05,0,.06.08.05.12a.11.11,0,0,1-.13.05Z" transform="translate(-163.58 -96.52)"/><path class="cls-9" d="M197.31,100.59a7,7,0,0,1-.24-.87.09.09,0,0,1,.05-.12s.11,0,.12.06c.07.29.15.58.24.86a.1.1,0,0,1-.06.12.09.09,0,0,1-.11,0Z" transform="translate(-163.58 -96.52)"/><path class="cls-9" d="M198.13,101.39a5.38,5.38,0,0,1-.31-1,.09.09,0,0,1,.05-.12s.11,0,.12.06a6.58,6.58,0,0,0,.31.95c0,.11-.12.18-.17.07Z" transform="translate(-163.58 -96.52)"/><path class="cls-9" d="M198.82,102.25a3.29,3.29,0,0,1-.24-1.2.09.09,0,0,1,.09-.1.09.09,0,0,1,.1.08,3.08,3.08,0,0,0,.23,1.16c0,.11-.13.17-.18.06Z" transform="translate(-163.58 -96.52)"/><path class="cls-9" d="M200.38,104c-.13-.92-.28-1.84-.45-2.75,0-.12.16-.13.18,0,.18.91.33,1.83.45,2.75a.09.09,0,1,1-.18,0Z" transform="translate(-163.58 -96.52)"/><path class="cls-9" d="M200.29,105.62a.4.4,0,1,0,.05.56A.4.4,0,0,0,200.29,105.62Z" transform="translate(-163.58 -96.52)"/><path class="cls-9" d="M200.25,106.69a.08.08,0,0,0-.11,0,.08.08,0,0,0,0,.1.09.09,0,0,0,.11,0A.08.08,0,0,0,200.25,106.69Z" transform="translate(-163.58 -96.52)"/><path class="cls-9" d="M200.73,106.72a.34.34,0,0,0-.43.53.34.34,0,0,0,.43-.53Z" transform="translate(-163.58 -96.52)"/><path class="cls-9" d="M199.7,106.81a.19.19,0,0,0-.26,0,.18.18,0,0,0,0,.26.19.19,0,0,0,.27,0A.2.2,0,0,0,199.7,106.81Z" transform="translate(-163.58 -96.52)"/><path class="cls-9" d="M201.79,105.78a.44.44,0,1,0,.06.62A.44.44,0,0,0,201.79,105.78Z" transform="translate(-163.58 -96.52)"/><path class="cls-9" d="M202.53,104.49a.49.49,0,0,0-.7.07.49.49,0,0,0,.06.7.5.5,0,0,0,.71-.06A.5.5,0,0,0,202.53,104.49Z" transform="translate(-163.58 -96.52)"/><path class="cls-8" d="M217.84,122.47c.32,5,.52,6.17.65,6.17s-.46-2.68.92-5.15A5.86,5.86,0,0,1,220.5,122c1.77-1.78,4-2.2,4-3.85a3.52,3.52,0,0,0-1.41-2.54,3.83,3.83,0,0,0-.7-.36c-1-.39-2.57-1.05-3.89-.3s-1.42,2.47-1.52,3.44a6.35,6.35,0,0,0,.06,1.65A7.3,7.3,0,0,0,217.84,122.47Z" transform="translate(-163.58 -96.52)"/><path class="cls-9" d="M217.84,122.47c.32,5,.52,6.17.65,6.17s-.46-2.68.92-5.15A5.86,5.86,0,0,1,220.5,122c-.14-1-.46-2.16-1.11-2.3s-1.2.51-1.48.25,0-.68-.1-.74-.49.35-.76.83A7.3,7.3,0,0,0,217.84,122.47Z" transform="translate(-163.58 -96.52)"/><path class="cls-9" d="M219.42,121.9a3.15,3.15,0,0,0,1,1.77c.08.09-.07.2-.15.11a3.35,3.35,0,0,1-1.07-1.86.1.1,0,0,1,.19,0Z" transform="translate(-163.58 -96.52)"/><path class="cls-9" d="M219.09,123.42a13.18,13.18,0,0,0,.92,1.06.11.11,0,0,1,0,.13.09.09,0,0,1-.13,0c-.32-.34-.63-.69-.92-1.06a.09.09,0,1,1,.15-.11Z" transform="translate(-163.58 -96.52)"/><path class="cls-9" d="M218.9,124.49a4.28,4.28,0,0,0,.41.76c.07.1-.08.21-.15.11a4.11,4.11,0,0,1-.43-.8c0-.11.13-.18.17-.07Z" transform="translate(-163.58 -96.52)"/><path class="cls-9" d="M218.7,125.21c.14.26.28.52.41.79a.09.09,0,1,1-.17.07q-.18-.39-.39-.75s0-.1,0-.13a.09.09,0,0,1,.13,0Z" transform="translate(-163.58 -96.52)"/><path class="cls-9" d="M218.38,125.78a7.4,7.4,0,0,1,.84,1.37c.05.11-.12.17-.17.07a7,7,0,0,0-.82-1.33c-.07-.09.08-.2.15-.11Z" transform="translate(-163.58 -96.52)"/><path class="cls-9" d="M218.5,127c.14.25.26.51.38.77a.1.1,0,0,1,0,.12.09.09,0,0,1-.12-.06c-.12-.26-.25-.51-.38-.77a.1.1,0,0,1,0-.12.09.09,0,0,1,.12.06Z" transform="translate(-163.58 -96.52)"/><path class="cls-9" d="M218.36,126.75c-.14.26-.28.53-.43.78a.11.11,0,0,1-.13,0,.09.09,0,0,1,0-.12c.15-.26.29-.52.43-.79a.1.1,0,0,1,.12,0,.11.11,0,0,1,.05.13Z" transform="translate(-163.58 -96.52)"/><path class="cls-9" d="M218.33,125.6a7.56,7.56,0,0,1-.45.9.1.1,0,0,1-.12,0,.1.1,0,0,1,0-.12,6.41,6.41,0,0,0,.45-.91c0-.11.21,0,.17.08Z" transform="translate(-163.58 -96.52)"/><path class="cls-9" d="M218.43,124.49a3.08,3.08,0,0,1-.66,1,.09.09,0,1,1-.15-.11,3.06,3.06,0,0,0,.64-1,.09.09,0,0,1,.17.07Z" transform="translate(-163.58 -96.52)"/><path class="cls-9" d="M218.53,122.17c-.56.75-1.09,1.51-1.6,2.28-.07.1-.21,0-.15-.11.51-.78,1.05-1.54,1.6-2.29.07-.09.22,0,.15.12Z" transform="translate(-163.58 -96.52)"/><path class="cls-9" d="M219.73,121.06a.4.4,0,0,0,.44.35.4.4,0,1,0-.09-.79A.4.4,0,0,0,219.73,121.06Z" transform="translate(-163.58 -96.52)"/><path class="cls-9" d="M220.51,120.32a.08.08,0,0,0,.08.07s.07,0,.06-.08a.08.08,0,0,0-.08-.07S220.5,120.28,220.51,120.32Z" transform="translate(-163.58 -96.52)"/><path class="cls-9" d="M220.19,120a.34.34,0,1,0,.3-.37A.34.34,0,0,0,220.19,120Z" transform="translate(-163.58 -96.52)"/><path class="cls-9" d="M221,120.61a.18.18,0,0,0,.2.17.19.19,0,1,0,0-.37A.18.18,0,0,0,221,120.61Z" transform="translate(-163.58 -96.52)"/><path class="cls-9" d="M218.77,119.9a.42.42,0,0,0,.48.38.44.44,0,0,0-.09-.87A.44.44,0,0,0,218.77,119.9Z" transform="translate(-163.58 -96.52)"/><path class="cls-9" d="M217.33,120.3a.51.51,0,1,0,.45-.55A.51.51,0,0,0,217.33,120.3Z" transform="translate(-163.58 -96.52)"/><path class="cls-10" d="M212.68,110c2.57-.52,4.63,1.48,4.94,1.78,3,2.9,3,9.5-.16,13.27-4.34,5.16-14.46,5-18.37-.66-3.69-5.33-1.13-14.52,3.4-15.73,3-.82,6.32,2.13,7.35,3.12A5.13,5.13,0,0,1,212.68,110Z" transform="translate(-163.58 -96.52)"/><path class="cls-10" d="M209.89,120.52c-.08,5-1,6.82.21,7.83s3.88.41,5.34-.95,1.49-3.16,1.65-6.88.24-5.63-1-7.14c-1.53-1.88-4.61-2.94-6-1.88S210,114.62,209.89,120.52Z" transform="translate(-163.58 -96.52)"/><path class="cls-10" d="M208.14,120.52c.09,5,1,6.82-.2,7.83s-3.89.41-5.35-.95-1.48-3.16-1.64-6.88-.25-5.63,1-7.14c1.54-1.88,4.62-2.94,6-1.88S208,114.62,208.14,120.52Z" transform="translate(-163.58 -96.52)"/><path class="cls-10" d="M204.05,112c0,1.2,2.08,2.18,4.63,2.18s4.63-1,4.63-2.18-2.07-2.17-4.63-2.17S204.05,110.8,204.05,112Z" transform="translate(-163.58 -96.52)"/><path d="M216.27,126.43a.13.13,0,0,1-.08,0,.14.14,0,0,1,0-.18c3-3.67,3.46-8.61,1.21-12a9.55,9.55,0,0,0-5.9-3.82.11.11,0,0,1-.09-.15.11.11,0,0,1,.14-.09,9.81,9.81,0,0,1,6.06,3.92c2.31,3.48,1.8,8.54-1.22,12.3A.14.14,0,0,1,216.27,126.43Z" transform="translate(-163.58 -96.52)"/><path d="M210.61,128.64c-.11,0-.14-.11-.12-.17a25.2,25.2,0,0,0,0-17.78.12.12,0,0,1,.08-.16.13.13,0,0,1,.16.07,25.55,25.55,0,0,1,0,18A.13.13,0,0,1,210.61,128.64Z" transform="translate(-163.58 -96.52)"/><path d="M202.33,127.05a.14.14,0,0,1-.12-.07c-.33-.7-3.14-6.93.2-12.46a12.06,12.06,0,0,1,4.68-4.35.13.13,0,0,1,.12.22,11.81,11.81,0,0,0-4.59,4.26c-3.27,5.42-.51,11.54-.18,12.22a.13.13,0,0,1-.06.17Z" transform="translate(-163.58 -96.52)"/><path d="M207.29,128.28a.13.13,0,0,1-.13-.11,37.67,37.67,0,0,1,1.52-17.82.13.13,0,0,1,.16-.08.12.12,0,0,1,.07.16,37.68,37.68,0,0,0-1.5,17.71.12.12,0,0,1-.1.14Z" transform="translate(-163.58 -96.52)"/><path class="cls-3" d="M206.29,110.32c0,.49,1.34.89,3,.89s3-.4,3-.89-1.34-.89-3-.89S206.29,109.83,206.29,110.32Z" transform="translate(-163.58 -96.52)"/><path class="cls-3" d="M210.22,105.78a21.38,21.38,0,0,1,.12,2.55c0,1.31-.12,1.71-.41,1.87a.81.81,0,0,1-.9-.11c-.46-.49.41-1.45.16-2.82a3.12,3.12,0,0,0-.52-1.24Z" transform="translate(-163.58 -96.52)"/><path class="cls-3" d="M181.22,114.82a9.42,9.42,0,0,0,.8,2.76c.08.2.18.4.27.59a7.88,7.88,0,0,0,1.87,2.33c.12.1.23.2.36.29s.31.22.47.32l.32.17a4.82,4.82,0,0,0,.77.33,1.4,1.4,0,0,0,.29.09l.28.08a2.89,2.89,0,0,0,.5.08.83.83,0,0,0,.22,0,.13.13,0,0,0,.09,0,.74.74,0,0,0,.21,0,5.08,5.08,0,0,0,1.79-.18l.39-.12a6.79,6.79,0,0,0,1.2-.54,3.87,3.87,0,0,0,.43-.27,2.11,2.11,0,0,0,.27-.18,5.9,5.9,0,0,0,.47-.37,8.44,8.44,0,0,0,1.19-1.28,9.37,9.37,0,0,0,.26-10.39,1.27,1.27,0,0,0-.13-.19,3.15,3.15,0,0,0-.22-.29,7.53,7.53,0,0,0-2.13-1.89,3,3,0,0,0-.34-.2,6.84,6.84,0,0,0-2.06-.68,3.11,3.11,0,0,0-.44-.06,4.49,4.49,0,0,0-1,0,.21.21,0,0,0-.08,0l-.24,0H187a4.9,4.9,0,0,0-.92.21l-.18.07a1.34,1.34,0,0,0-.3.12,4.11,4.11,0,0,0-.6.28,2.11,2.11,0,0,0-.31.21,6.72,6.72,0,0,0-1.87,1.85c-.08.12-.16.24-.23.36a8.14,8.14,0,0,0-.86,1.81,6.59,6.59,0,0,0-.22.72A9.8,9.8,0,0,0,181.22,114.82Z" transform="translate(-163.58 -96.52)"/><path class="cls-4" d="M191.19,115.67a17.35,17.35,0,0,1-1.73,6.06l.39-.12a17.59,17.59,0,0,0,1.64-5.94,16,16,0,0,0-.92-6.88,12.65,12.65,0,0,0-1.78-3.46,3.11,3.11,0,0,0-.44-.06,12.28,12.28,0,0,1,2.23,4.49A15.74,15.74,0,0,1,191.19,115.67Z" transform="translate(-163.58 -96.52)"/><path class="cls-4" d="M192.25,114.87a16,16,0,0,1-1.2,6.2,3.87,3.87,0,0,0,.43-.27,16.2,16.2,0,0,0,1.05-4.92c0-1,0-2.07-.06-3.1a28.25,28.25,0,0,0,0-2.91c-.18-1.3-1-2.41-1.3-3.66a3,3,0,0,0-.34-.2,30.09,30.09,0,0,0,1.13,3,9.64,9.64,0,0,1,.18,3.17C192.16,113.1,192.24,114,192.25,114.87Z" transform="translate(-163.58 -96.52)"/><path class="cls-4" d="M191.75,120.62a5.9,5.9,0,0,0,.47-.37l.61-1.51a15.11,15.11,0,0,0,1.19-4.09,24.19,24.19,0,0,0-.21-4.73c0-.45-.09-.89-.14-1.34a1.27,1.27,0,0,0-.13-.19,3.15,3.15,0,0,0-.22-.29c.09.77.17,1.54.24,2.32a21.29,21.29,0,0,1,.14,4.37,17.64,17.64,0,0,1-1.33,4.31Z" transform="translate(-163.58 -96.52)"/><path class="cls-4" d="M187.49,121.11c-.11.24-.23.49-.34.75a.83.83,0,0,0,.22,0,.13.13,0,0,0,.09,0c.12-.28.25-.56.38-.83l.66-1.37a13.81,13.81,0,0,0,1.64-4.55,13.82,13.82,0,0,0-1-5.49,34.63,34.63,0,0,0-1.78-4.38.21.21,0,0,0-.08,0l-.24,0a35.48,35.48,0,0,1,1.81,4.43c.27.85.56,1.72.75,2.62a8.14,8.14,0,0,1,.12,3.47,18.61,18.61,0,0,1-1.82,4.39c-.13.25-.25.5-.37.75Z" transform="translate(-163.58 -96.52)"/><path class="cls-4" d="M186.64,113.15a20.05,20.05,0,0,1-.56,8.46,1.4,1.4,0,0,0,.29.09,21.06,21.06,0,0,0,.68-7.87c-.2-1.53-.67-3-.9-4.55a26.65,26.65,0,0,1-.24-3.68,1.34,1.34,0,0,0-.3.12c0,1,.06,2,.17,3C186,110.24,186.37,111.67,186.64,113.15Z" transform="translate(-163.58 -96.52)"/><path class="cls-4" d="M184.46,114.29c.12,2.27.33,4.54.53,6.82l.32.17c-.22-2.33-.43-4.66-.55-7A62.07,62.07,0,0,1,185,106a2.11,2.11,0,0,0-.31.21A60.6,60.6,0,0,0,184.46,114.29Z" transform="translate(-163.58 -96.52)"/><path class="cls-4" d="M183.53,112.92a6.91,6.91,0,0,0-.3,1.62,5.43,5.43,0,0,0,.28,1.75,13,13,0,0,1,.33,2.4,14.31,14.31,0,0,0,.32,1.81c.12.1.23.2.36.29a16.26,16.26,0,0,1-.43-2.68,8.18,8.18,0,0,0-.21-1.64,6,6,0,0,1-.34-2.22c.11-1.15.74-2.17.33-3.33-.23-.62-.62-1.16-.82-1.8a5.55,5.55,0,0,1-.22-1.06c-.08.12-.16.24-.23.36a6.65,6.65,0,0,0,.65,1.91A3.21,3.21,0,0,1,183.53,112.92Z" transform="translate(-163.58 -96.52)"/><path class="cls-4" d="M181.52,111a10.33,10.33,0,0,1,0,1.48,13.11,13.11,0,0,0,.28,2.5,16.74,16.74,0,0,1,.18,2.64c.08.2.18.4.27.59a16.91,16.91,0,0,0-.1-2.85,18.6,18.6,0,0,1-.32-3,12.39,12.39,0,0,0-.13-2.12,6.59,6.59,0,0,0-.22.72Z" transform="translate(-163.58 -96.52)"/><path class="cls-4" d="M187.49,121.11c0,.25-.07.52-.12.78a.13.13,0,0,0,.09,0,.74.74,0,0,0,.21,0,8.33,8.33,0,0,0,.17-.84,8.14,8.14,0,0,0,.08-.85,4.18,4.18,0,0,0,0-.5,5.56,5.56,0,0,1,.28-2.54c.22-.53.55-1,.77-1.55a7.84,7.84,0,0,0,.63-3.27,7.65,7.65,0,0,0-.42-2.38c-.54-1.61-1.44-3.09-1.9-4.7l-.24,0H187a36.65,36.65,0,0,0,1.62,4,8.36,8.36,0,0,1-.46,7.34C187.46,118.08,187.65,119.59,187.49,121.11Z" transform="translate(-163.58 -96.52)"/><path class="cls-7" d="M223.15,121.52c-1.27-3.17-4.65-4.5-6.79-5.35-.46-.18-5.86-2.28-6.62-1-.59,1,1.76,3.38,3.5,5.14a19.05,19.05,0,0,0,6,4.19c1.57.69,3.15,1.38,3.95.7C224.24,124.32,223.2,121.64,223.15,121.52Z" transform="translate(-163.58 -96.52)"/><path class="cls-9" d="M222.57,124.64a.32.32,0,0,0,.32.31.32.32,0,1,0,0-.63A.32.32,0,0,0,222.57,124.64Z" transform="translate(-163.58 -96.52)"/><path class="cls-3" d="M212.59,115c-.13-.22-.31-.3-1.16-.58-1.15-.38-1.3-.38-1.46-.33a1.34,1.34,0,0,0-.86.78,2.11,2.11,0,0,0,1.33,2.31c.64.19.84.16.9.07s-.25-.46-.16-.59.45.15.67,0,.06-.44.3-.65.36-.08.49-.22A.76.76,0,0,0,212.59,115Z" transform="translate(-163.58 -96.52)"/><path class="cls-3" d="M206.77,114.15c0,.11.71-.22,1.42.08s.92,1.14,1.43,1.09a.58.58,0,0,0,.5-.43c.07-.5-1-1.26-2.06-1.23C207.35,113.67,206.74,114.05,206.77,114.15Z" transform="translate(-163.58 -96.52)"/><path class="cls-6" d="M191,116.07a9.73,9.73,0,0,0,.23,1.4c0,.19.08.36.13.54a9.77,9.77,0,0,0,1.51,3.09l.27.33a3,3,0,0,0,.42.46.07.07,0,0,0,0,0,1.21,1.21,0,0,0,.2.19,4.88,4.88,0,0,0,1.09.79,2.31,2.31,0,0,0,.35.18,4.7,4.7,0,0,0,.45.17l.36.1a2.74,2.74,0,0,0,.43.08,4.36,4.36,0,0,0,.51,0c3.35,0,5.64-3.92,6-7.41a11,11,0,0,0-.94-5.58,9.2,9.2,0,0,0-.76-1.39,3.3,3.3,0,0,0-.22-.3A5.71,5.71,0,0,0,199,107l-.27-.13a3.46,3.46,0,0,0-.94-.26,3.78,3.78,0,0,0-1.3,0,2,2,0,0,0-.35.09C193.19,107.67,190.7,112,191,116.07Z" transform="translate(-163.58 -96.52)"/><path class="cls-11" d="M192.89,121.1l.27.33a3,3,0,0,0,.42.46.07.07,0,0,0,0,0,1.21,1.21,0,0,0,.2.19,4.88,4.88,0,0,0,1.09.79,2.31,2.31,0,0,0,.35.18,4.7,4.7,0,0,0,.45.17l.36.1a2.74,2.74,0,0,0,.43.08,4.36,4.36,0,0,0,.51,0c3.35,0,5.64-3.92,6-7.41a11,11,0,0,0-.94-5.58,5.13,5.13,0,0,1-1.83,1.94c-1.34.78-2.23.32-3,1.4s-.09,2.18-.71,3.87a4.88,4.88,0,0,1-2.11,2.46l-.36.23-.8.5-.32.2Z" transform="translate(-163.58 -96.52)"/><path class="cls-11" d="M193.58,121.89a.07.07,0,0,0,0,0,1.21,1.21,0,0,0,.2.19l.57-2a50,50,0,0,1,2.18-6,3.51,3.51,0,0,1,1.71-1.79,7.11,7.11,0,0,0,1.52-1,6.27,6.27,0,0,0,1.5-2.17,3.3,3.3,0,0,0-.22-.3,5.86,5.86,0,0,1-2.51,3,6.38,6.38,0,0,0-1.61,1.05,4.71,4.71,0,0,0-.76,1.35,60.11,60.11,0,0,0-2.17,6.17Q193.79,121.14,193.58,121.89Z" transform="translate(-163.58 -96.52)"/><path class="cls-11" d="M192.9,121.11c.09.12.17.22.26.32,0-.19.05-.37.07-.54a21.36,21.36,0,0,1,1.71-6.84c1.22-2.43,3.13-4.47,4.08-7l-.27-.13c-1,2.74-3.12,4.87-4.31,7.53a23.78,23.78,0,0,0-1.53,6.68S192.9,121.1,192.9,121.11Z" transform="translate(-163.58 -96.52)"/><path class="cls-11" d="M191.25,117.47c0,.19.08.36.13.54a19.64,19.64,0,0,1,1-2.32c1.33-3,3.11-5.89,4.17-9a1.37,1.37,0,0,0-.35.08,42.69,42.69,0,0,1-2.29,5c-.77,1.57-1.51,3.17-2.21,4.77C191.52,116.82,191.37,117.14,191.25,117.47Z" transform="translate(-163.58 -96.52)"/><path class="cls-12" d="M180.66,127a17.18,17.18,0,0,0,5,4.85c2.65,1.64,4.63,1.7,11.79,2.63,6.22.81,11.22,1.61,14.43,2.14a43.62,43.62,0,0,0,9.29-6.92c.75-.78,1.24-1.41,1.74-2a16,16,0,0,1,2.34-2.41,8.06,8.06,0,0,0,1.92-2.15,7.62,7.62,0,0,0,.93-2.62c-.38-.09-1-.25-1.83-.38a21.73,21.73,0,0,0-6.42-.09c-2.1.27-6.07,0-37.3-2.42-1.18-.09-3-.24-3.91.87C177.43,120,178.35,123.69,180.66,127Z" transform="translate(-163.58 -96.52)"/><path class="cls-13" d="M180.66,127a17.18,17.18,0,0,0,5,4.85c2.65,1.64,4.63,1.7,11.79,2.63,6.22.81,11.22,1.61,14.43,2.14a43.62,43.62,0,0,0,9.29-6.92c.75-.78,1.24-1.41,1.74-2a4.39,4.39,0,0,0-1.33-.24c-1.26,0-1.79.63-2.8.3-1.31-.43-1.13-1.88-2.18-2.32-2.6-1.07-4.72,3.41-8.79,3.42-3.39,0-3.75-3.22-7.67-3.4-3.32-.16-3.63,1.86-7.79,2.3-3.59.38-4.6-1-8.88-1.1A15.67,15.67,0,0,0,180.66,127Z" transform="translate(-163.58 -96.52)"/><path class="cls-13" d="M207.39,127.73c-.21.25-.18.45.07.45a1.33,1.33,0,0,0,.84-.45c.21-.25.18-.45-.07-.45A1.33,1.33,0,0,0,207.39,127.73Z" transform="translate(-163.58 -96.52)"/><path class="cls-13" d="M204.1,128.6c-.33.38-.44.69-.26.69a1.92,1.92,0,0,0,.93-.69c.33-.38.44-.69.26-.69A1.92,1.92,0,0,0,204.1,128.6Z" transform="translate(-163.58 -96.52)"/><path class="cls-13" d="M204.52,125.3c-.48.56-.57,1-.21,1a2.76,2.76,0,0,0,1.53-1c.47-.56.56-1,.2-1A2.78,2.78,0,0,0,204.52,125.3Z" transform="translate(-163.58 -96.52)"/><path class="cls-13" d="M201.45,125.76c-.32.38-.47.69-.33.69a2.08,2.08,0,0,0,.84-.69c.33-.38.48-.69.34-.69A2.16,2.16,0,0,0,201.45,125.76Z" transform="translate(-163.58 -96.52)"/><path class="cls-13" d="M199,128.25c-.64.75-.74,1.35-.21,1.35a3.7,3.7,0,0,0,2.1-1.35c.64-.74.73-1.34.21-1.34A3.66,3.66,0,0,0,199,128.25Z" transform="translate(-163.58 -96.52)"/><path class="cls-13" d="M192.1,128.41c-.87,1-1.25,1.85-.85,1.85a5.48,5.48,0,0,0,2.31-1.85c.87-1,1.25-1.84.85-1.84A5.58,5.58,0,0,0,192.1,128.41Z" transform="translate(-163.58 -96.52)"/><path class="cls-13" d="M195.8,127.32c-.66.77-.65,1.39,0,1.39a4,4,0,0,0,2.43-1.39c.66-.78.65-1.4,0-1.4A3.92,3.92,0,0,0,195.8,127.32Z" transform="translate(-163.58 -96.52)"/><path class="cls-13" d="M188.8,127.75c-.4.47-.46.85-.13.85a2.34,2.34,0,0,0,1.33-.85c.4-.47.46-.84.13-.84A2.34,2.34,0,0,0,188.8,127.75Z" transform="translate(-163.58 -96.52)"/><path class="cls-13" d="M186.56,127.32c-.51.61-.64,1.09-.27,1.09a3,3,0,0,0,1.61-1.09c.52-.6.64-1.09.27-1.09A3,3,0,0,0,186.56,127.32Z" transform="translate(-163.58 -96.52)"/><path class="cls-13" d="M192.55,125.55c-.28.32-.29.57,0,.57a1.57,1.57,0,0,0,1-.57c.27-.32.29-.58,0-.58A1.6,1.6,0,0,0,192.55,125.55Z" transform="translate(-163.58 -96.52)"/><path class="cls-13" d="M190.83,125.51c-.25.29-.34.53-.21.53a1.58,1.58,0,0,0,.71-.53c.25-.3.34-.54.21-.54A1.54,1.54,0,0,0,190.83,125.51Z" transform="translate(-163.58 -96.52)"/><path class="cls-13" d="M212,125c-.13.16-.08.28.11.28a.87.87,0,0,0,.59-.28c.13-.15.08-.27-.11-.27A.88.88,0,0,0,212,125Z" transform="translate(-163.58 -96.52)"/><path class="cls-13" d="M213.55,125.07c-.45.54-.51,1-.11,1a2.61,2.61,0,0,0,1.53-1c.46-.53.51-1,.12-1A2.69,2.69,0,0,0,213.55,125.07Z" transform="translate(-163.58 -96.52)"/><path class="cls-13" d="M216.91,125.55c-.27.32-.31.57-.09.57a1.55,1.55,0,0,0,.89-.57c.28-.32.32-.58.1-.58A1.59,1.59,0,0,0,216.91,125.55Z" transform="translate(-163.58 -96.52)"/><path class="cls-13" d="M219.55,125.37c-.1.12-.09.22,0,.22a.62.62,0,0,0,.4-.22c.1-.12.09-.21,0-.21A.61.61,0,0,0,219.55,125.37Z" transform="translate(-163.58 -96.52)"/><path class="cls-13" d="M223.68,124c-.38.45-.45.81-.16.81a2.19,2.19,0,0,0,1.23-.81c.38-.44.45-.8.15-.8A2.2,2.2,0,0,0,223.68,124Z" transform="translate(-163.58 -96.52)"/><circle cx="216.44" cy="142.79" r="7.36" transform="translate(-183.66 -60) rotate(-9.22)"/><path class="cls-9" d="M213.8,142.79a2.64,2.64,0,1,0,2.64-2.64A2.64,2.64,0,0,0,213.8,142.79Z" transform="translate(-163.58 -96.52)"/><path class="cls-13" d="M216.54,143.73c-.87,0-2.9-1.25-9-9.42l.8-.6c6.69,8.94,8.09,9,8.23,9s.68-1.21-3.09-10.5l.93-.38c4.36,10.77,3.24,11.41,2.64,11.75A.92.92,0,0,1,216.54,143.73Z" transform="translate(-163.58 -96.52)"/><path class="cls-13" d="M190,146.88c-1,0-1.74-1-2.79-2.94a44.46,44.46,0,0,1-5.08-16.67l1-.12a43.15,43.15,0,0,0,5,16.31c.59,1.06,1.42,2.48,1.94,2.42s2.11-1.23,3.08-14.68l1,.08c-1,13.59-2.65,15.47-4,15.59Z" transform="translate(-163.58 -96.52)"/><path class="cls-13" d="M180.72,120.78l.91-.41a39.9,39.9,0,0,0-7-10.61,55.33,55.33,0,0,0-7.19-6.28c-1.32-1-2.81-2.13-2.81-2.52a16.47,16.47,0,0,1,5.48.46c7.06,1.84,10.6,7.94,11.46,9.54l.36-1.12c-4.41-6.93-9.26-8.77-11.52-9.37-2.49-.66-6.24-1-6.7.11s.84,2,3.12,3.7a52.9,52.9,0,0,1,7.07,6.16A38.84,38.84,0,0,1,180.72,120.78Z" transform="translate(-163.58 -96.52)"/><path class="cls-5" d="M220.59,115.42c-.39-.77,1-2.45,1.65-2.26.38.11.21.8.7,1.07.7.4,1.58-.73,2.3-.41s.37,2.17,1.15,2.51,1.28-.88,2.26-.91c1.56,0,3,2.78,3.62,4.86,1.34,4.72-.72,9.73-1.56,9.66-.28,0-.49-.95-.91-2.8-.79-3.53-1-6.28-1.76-6.37-.28,0-.43.3-.95.29a1.69,1.69,0,0,1-1.11-.54c-.67-.7-.16-1.52-.45-2.71-.42-1.72-2.21-3.12-3.13-2.84-.53.17-.73.89-1.27.82A.71.71,0,0,1,220.59,115.42Z" transform="translate(-163.58 -96.52)"/><path class="cls-7" d="M221.18,115.76c.77-.12,1.78-2.88,1.36-5.59a10.35,10.35,0,0,0-2.47-4.9c-1.34-1.73-3-3.21-3.37-3s1.21,1.76,1,4.11c-.09,1.16-.53,1.64-.21,2.47s1.06.71,1.77,1.73a8.25,8.25,0,0,1,1,3.7c0,.38.07,1.19.53,1.4A.62.62,0,0,0,221.18,115.76Z" transform="translate(-163.58 -96.52)"/><path class="cls-7" d="M220.85,115.72c.28.64,6.3-.27,7.2-3.11.25-.79-.05-1.25.44-2.47a16.66,16.66,0,0,0,1.15-2.71,3.59,3.59,0,0,0,.16-.83c.07-1.12-.55-1.79-.24-2.16.16-.19.35,0,.6-.22.63-.46.32-2-.3-3,0-.07-.32-.51-.44-.46s.47,1.32,0,2.38c-.31.73-.77.51-1.43,1.35-.85,1.08-.34,1.79-1.31,3.31-.35.55-.49.58-.64,1-.33,1,.21,1.52,0,2.3s-.84,1-2,1.81C223.81,113.05,220.63,115.2,220.85,115.72Z" transform="translate(-163.58 -96.52)"/><path class="cls-2" d="M211.23,149.22c.1-.83,2-1.41,3.44-1.47.88,0,1.11.14,4.92,1.24,1.56.44,1.91.52,1.91.68,0,.52-3.91.71-5.7.8-2.58.12-4,0-4.46-.8A.82.82,0,0,1,211.23,149.22Z" transform="translate(-163.58 -96.52)"/><path class="cls-2" d="M228.65,145.34c0,.35.54.64,1.2.64s1.2-.29,1.2-.64-.53-.64-1.2-.64S228.65,145,228.65,145.34Z" transform="translate(-163.58 -96.52)"/><path class="cls-2" d="M229.29,143.45s.09.08.2.08.21,0,.21-.08-.09-.09-.21-.09S229.29,143.4,229.29,143.45Z" transform="translate(-163.58 -96.52)"/><ellipse class="cls-2" cx="68.91" cy="46.85" rx="0.56" ry="0.27"/><path class="cls-2" d="M226.28,143.86c0,.36.5.66,1.11.66s1.11-.3,1.11-.66-.49-.66-1.11-.66S226.28,143.49,226.28,143.86Z" transform="translate(-163.58 -96.52)"/><path class="cls-2" d="M198.32,144.28c0,.1.24.18.55.18s.55-.08.55-.18-.25-.17-.55-.17S198.32,144.18,198.32,144.28Z" transform="translate(-163.58 -96.52)"/><path class="cls-2" d="M196.25,144.06c0,.18.2.32.45.32s.45-.14.45-.32-.2-.31-.45-.31S196.25,143.89,196.25,144.06Z" transform="translate(-163.58 -96.52)"/><path class="cls-2" d="M178.33,147.67c0,.81,1.52,1.46,3.38,1.46s3.39-.65,3.39-1.46-1.52-1.46-3.39-1.46S178.33,146.86,178.33,147.67Z" transform="translate(-163.58 -96.52)"/><ellipse class="cls-2" cx="17.91" cy="47.95" rx="1.96" ry="0.87"/><path class="cls-2" d="M185.57,147.43c0,.86,1.89,1.57,4.22,1.57s4.21-.71,4.21-1.57-1.89-1.58-4.21-1.58S185.57,146.56,185.57,147.43Z" transform="translate(-163.58 -96.52)"/></g></svg>