<svg id="Scene" xmlns="http://www.w3.org/2000/svg" viewBox="0 0 89.45 94.8"><defs><style>.cls-1{fill:#7fb74a;}.cls-2{fill:#739b48;}.cls-3{fill:#e09500;}.cls-4{fill:#f2b225;}.cls-5{fill:#68301a;}.cls-6{fill:#ff9580;}.cls-7{fill:#c64d22;}.cls-8{fill:#efc9b6;}.cls-9{fill:#fff;}.cls-10{fill:#9bc3c9;}.cls-11{fill:#f4b78e;}</style></defs><g id="_2" data-name="2"><path class="cls-1" d="M244.72,163c-.35-2.86-11.95-2.34-33.7-2-35.45.61-55.46-.35-55.74,2.39-.14,1.34,4.42,3.4,6.09,4,2.71,1.06,2.65.31,6,1.48,3.17,1.11,4.51,2.24,7.9,2.77.39.06,1.06.15,2.14.21,8.16.44,17.41-2.3,17.74-1.31.08.23-.41.4-.36.67.22,1.09,8.62,1.37,17.57-.42,5.15-1,10.6-2.78,12.53-.4.45.55.46,1,1.1,1.46,1.67,1.17,4.49-.06,7.74-1.76C241.2,166.26,244.88,164.31,244.72,163Z" transform="translate(-155.27 -77.6)"/><path class="cls-2" d="M200.92,164.59c-.25,2.52-15.17,3-24.87,2.22-3.47-.27-9.72-1-9.72-1.88,0-.48,4.27,0,9.72-1.89a37.75,37.75,0,0,0,5.23-2.49C189.09,157,201.15,162.28,200.92,164.59Z" transform="translate(-155.27 -77.6)"/><path class="cls-2" d="M240.62,165.48c-.17,1.71-10.43-1.81-24.87,2.22a53.23,53.23,0,0,1-12.1,2c-2.09.09-8.93.41-9.49-1.59-.21-.74.53-1.54,1.06-2.1,1.84-2,4-2,13-3,1.31-.15,3.38-.4,3.49,0s-2.24,1.21-2.13,1.63,3.82.06,6.16-.66A13.24,13.24,0,0,0,218,163c.84-.43,1.26-.81,3-1.59C228.8,157.86,240.86,163.17,240.62,165.48Z" transform="translate(-155.27 -77.6)"/><path class="cls-3" d="M203.4,151.89a36.08,36.08,0,0,1-.73,4.69,10.47,10.47,0,0,1-1,3.27c-.25.38-1,1.38-4,2.65a16.73,16.73,0,0,1-6.58,1.75,14.57,14.57,0,0,1-6.58-1.42c-1.65-.79-4-1.92-5.27-4.44-.85-1.68-.74-3.29-.51-6.5.26-3.79.47-7.11,2.87-8.88a21.06,21.06,0,0,1,2.54-1.12c3.37-1.38,5.06-2.07,6.95-2.37a11.6,11.6,0,0,1,5,0c4,1,7.29,4.81,7.64,8.47A26.64,26.64,0,0,1,203.4,151.89Z" transform="translate(-155.27 -77.6)"/><path class="cls-4" d="M191.36,152.2c-.08-1,1.24-.44,1.65-.17a3.87,3.87,0,0,1,.72.56c.31.35.27.33.06.62s-1.47.5-1.9.52a4.33,4.33,0,0,1-1.91-.35c-2.25-1-.84-5,1.23-5.37,5-1,6.82,8.39,2.45,10.07-3.95,1.52-11.07-1.1-10.61-6.12.2-2.2,2.14-3.83,3.67-5.2a8.29,8.29,0,0,1,2.74-1.83,5.26,5.26,0,0,1,3.85.35,13.35,13.35,0,0,1,3.38,2.12,8.41,8.41,0,0,1,2.09,3.38c.47,1.22,1.12,3,.75,4.28a20,20,0,0,1-1.88,3.69c-.37.68.66,1.29,1,.61s.87-1.62,1.3-2.43a6.07,6.07,0,0,0,.81-2.13,10.77,10.77,0,0,0-1.14-5.06,8.73,8.73,0,0,0-2.78-3.73,13,13,0,0,0-4.53-2.33c-3.36-.81-5.93,1.53-8.11,3.78a7.9,7.9,0,0,0-2.28,3.79,6,6,0,0,0,.9,4.43c1.72,2.7,5.17,3.93,8.26,4a6.4,6.4,0,0,0,4.32-1.25,5.77,5.77,0,0,0,1.81-4c.2-2.88-1-6.31-3.9-7.35s-5.38,1.07-5.61,4a3.21,3.21,0,0,0,2.3,3.68c1.39.44,3.66.4,4.76-.71,1.25-1.27-.61-2.75-1.67-3.28s-3.1-.12-3,1.51c.06.77,1.26.77,1.2,0Z" transform="translate(-155.27 -77.6)"/><path class="cls-4" d="M179.11,158a23.13,23.13,0,0,0,7,4.15.61.61,0,0,0,.74-.42.62.62,0,0,0-.42-.74,21.46,21.46,0,0,1-6.48-3.84c-.59-.5-1.44.35-.85.85Z" transform="translate(-155.27 -77.6)"/><path class="cls-4" d="M190.62,162.25l5.65-1.18a.6.6,0,1,0-.32-1.16l-5.65,1.19a.6.6,0,1,0,.32,1.15Z" transform="translate(-155.27 -77.6)"/><path class="cls-4" d="M182.16,146.59c.12-.2.25-.38.39-.57l-.09.13a6.26,6.26,0,0,1,1-1,.59.59,0,0,0,.17-.42.61.61,0,0,0-.17-.43.59.59,0,0,0-.85,0,7.43,7.43,0,0,0-1.46,1.7.62.62,0,0,0,.22.83.61.61,0,0,0,.82-.22Z" transform="translate(-155.27 -77.6)"/><path class="cls-4" d="M193,142.13a7.19,7.19,0,0,1,3.38,1,6.61,6.61,0,0,1,2.29,2.35c.43.63,1.47,0,1-.61a7.85,7.85,0,0,0-2.71-2.78,8.36,8.36,0,0,0-4-1.2.6.6,0,0,0,0,1.2Z" transform="translate(-155.27 -77.6)"/><path class="cls-4" d="M187.29,142.23A14.37,14.37,0,0,1,189.1,139c.13-.18-.16-.34-.29-.17a14.26,14.26,0,0,0-1.84,3.33c-.08.21.24.29.32.09Z" transform="translate(-155.27 -77.6)"/><path class="cls-4" d="M186.14,141.84a5.42,5.42,0,0,1,.72-1.54.17.17,0,0,0-.06-.23.17.17,0,0,0-.23.06,5.82,5.82,0,0,0-.75,1.62.17.17,0,0,0,.32.09Z" transform="translate(-155.27 -77.6)"/><path class="cls-4" d="M185,142.49c0-.51,0-1,.08-1.53a.17.17,0,0,0-.34,0c-.05.51-.07,1-.07,1.53a.17.17,0,0,0,.33,0Z" transform="translate(-155.27 -77.6)"/><path class="cls-4" d="M183.84,142.36a3.17,3.17,0,0,1-.12-.41c0-.07,0-.13-.05-.2s0-.07,0-.11-.08-.25-.18-.25-.18.08-.17.17a3.49,3.49,0,0,0,.21.89.17.17,0,0,0,.21.11.15.15,0,0,0,.11-.2Z" transform="translate(-155.27 -77.6)"/><path class="cls-4" d="M183.23,143.56a.84.84,0,0,1-.18-.35c-.06-.14-.11-.29-.17-.44s-.19-.59-.28-.89a.17.17,0,0,0-.32.09c.09.32.19.64.3.95l.18.47a1.27,1.27,0,0,0,.23.41c.15.15.39-.09.24-.24Z" transform="translate(-155.27 -77.6)"/><path class="cls-4" d="M182.62,144a11.72,11.72,0,0,1-.78-1.49.18.18,0,0,0-.23-.06.17.17,0,0,0-.06.23,11.72,11.72,0,0,0,.78,1.49.17.17,0,0,0,.29-.17Z" transform="translate(-155.27 -77.6)"/><path class="cls-4" d="M178.72,145.53c.67.64,1.32,1.29,1.95,2,.15.16.39-.08.24-.24-.63-.68-1.28-1.33-2-2-.15-.15-.39.09-.23.24Z" transform="translate(-155.27 -77.6)"/><path class="cls-4" d="M178.57,147.18a20.62,20.62,0,0,0,2.06,1.26.17.17,0,0,0,.17-.29,20.62,20.62,0,0,1-2.06-1.26c-.18-.12-.34.17-.17.29Z" transform="translate(-155.27 -77.6)"/><path class="cls-4" d="M179.13,149.59a2.44,2.44,0,0,1,1.22.25.17.17,0,0,0,.23-.06.16.16,0,0,0-.06-.23,2.91,2.91,0,0,0-1.39-.3.18.18,0,0,0-.17.17.18.18,0,0,0,.17.17Z" transform="translate(-155.27 -77.6)"/><path class="cls-4" d="M176.72,152.65a2,2,0,0,1,1.15.16,8.3,8.3,0,0,1,1.07.44c.19.1.36-.19.17-.29a8.76,8.76,0,0,0-1.19-.49,2.28,2.28,0,0,0-1.29-.15.17.17,0,0,0,.09.33Z" transform="translate(-155.27 -77.6)"/><path class="cls-4" d="M177.29,156.42a20.07,20.07,0,0,1,4-.25.17.17,0,0,0,0-.34,22.65,22.65,0,0,0-4.11.26c-.21,0-.12.36.09.33Z" transform="translate(-155.27 -77.6)"/><path class="cls-4" d="M177.55,154.71c.57,0,1.14,0,1.72,0a.17.17,0,0,0,0-.34c-.58,0-1.15,0-1.72,0-.22,0-.22.35,0,.34Z" transform="translate(-155.27 -77.6)"/><path class="cls-4" d="M177.58,151.29l1.8.1a.16.16,0,0,0,.16-.16.16.16,0,0,0-.16-.17l-1.8-.11c-.22,0-.22.33,0,.34Z" transform="translate(-155.27 -77.6)"/><path class="cls-4" d="M179,159.69h5.05a.17.17,0,0,0,0-.34H179a.17.17,0,0,0,0,.34Z" transform="translate(-155.27 -77.6)"/><path class="cls-4" d="M181.41,162.25v.09a.17.17,0,0,0,.25.15,7.26,7.26,0,0,1,2.74-1.05c.21,0,.12-.36-.09-.33a7.6,7.6,0,0,0-2.82,1.09l.26.14v-.09c0-.22-.33-.22-.34,0Z" transform="translate(-155.27 -77.6)"/><path class="cls-4" d="M185.27,164.31c.41-.61.84-1.2,1.3-1.76a.17.17,0,0,0-.24-.24c-.47.59-.93,1.2-1.35,1.83-.12.18.17.35.29.17Z" transform="translate(-155.27 -77.6)"/><path class="cls-4" d="M187.32,164.87a7.5,7.5,0,0,1,1.11-1.52c.15-.15-.08-.39-.23-.24a7.64,7.64,0,0,0-1.17,1.6c-.1.19.19.36.29.16Z" transform="translate(-155.27 -77.6)"/><path class="cls-4" d="M190.64,165.16a5.64,5.64,0,0,1,.73-1.55.16.16,0,0,0-.06-.23.18.18,0,0,0-.23.06,5.51,5.51,0,0,0-.76,1.63.17.17,0,0,0,.32.09Z" transform="translate(-155.27 -77.6)"/><path class="cls-4" d="M193.85,164.43a6.56,6.56,0,0,1,.48-2,.17.17,0,0,0-.12-.21.17.17,0,0,0-.21.12,6.53,6.53,0,0,0-.48,2c0,.22.32.21.33,0Z" transform="translate(-155.27 -77.6)"/><path class="cls-4" d="M195.56,164.09a20.18,20.18,0,0,1,2-2.78c.14-.16-.1-.4-.24-.23a19.91,19.91,0,0,0-2,2.84c-.11.18.18.35.29.17Z" transform="translate(-155.27 -77.6)"/><path class="cls-4" d="M198.47,163.06a22.94,22.94,0,0,1,.66-3.09.17.17,0,0,0-.32-.09,21.52,21.52,0,0,0-.67,3.09c0,.21.3.3.33.09Z" transform="translate(-155.27 -77.6)"/><path class="cls-4" d="M200.79,161.63a8.94,8.94,0,0,1-.34-2.29.17.17,0,0,0-.34,0,9.51,9.51,0,0,0,.36,2.37c.06.21.38.12.32-.08Z" transform="translate(-155.27 -77.6)"/><path class="cls-4" d="M202.83,160.56a13.73,13.73,0,0,1-1.51-2.83c-.08-.2-.41-.11-.33.09a14,14,0,0,0,1.55,2.91c.12.17.42,0,.29-.17Z" transform="translate(-155.27 -77.6)"/><path class="cls-4" d="M202.07,153.55c.89.83,1.77,1.67,2.65,2.52a.17.17,0,0,0,.23-.24q-1.3-1.28-2.64-2.52c-.16-.14-.4.09-.24.24Z" transform="translate(-155.27 -77.6)"/><path class="cls-4" d="M202.11,152.23a9.5,9.5,0,0,0,2.08,1.54.17.17,0,0,0,.17-.29,9.11,9.11,0,0,1-2-1.49.17.17,0,0,0-.24.24Z" transform="translate(-155.27 -77.6)"/><path class="cls-4" d="M202.4,150.88c.57.32,1.13.67,1.68,1,.18.12.35-.17.17-.29-.55-.36-1.11-.71-1.68-1-.18-.11-.35.18-.17.29Z" transform="translate(-155.27 -77.6)"/><path class="cls-4" d="M202.6,148.07a12.14,12.14,0,0,1,2.52.52c.2.06.29-.26.09-.33a13,13,0,0,0-2.61-.53c-.22,0-.22.31,0,.34Z" transform="translate(-155.27 -77.6)"/><path class="cls-4" d="M202.23,146.43a8.49,8.49,0,0,1,2-.19.17.17,0,1,0,0-.33,9.28,9.28,0,0,0-2,.19c-.21.05-.12.37.09.33Z" transform="translate(-155.27 -77.6)"/><path class="cls-4" d="M201,145c.76-.32,1.52-.6,2.29-.86a.17.17,0,0,0-.09-.33c-.77.26-1.53.55-2.29.86a.17.17,0,0,0-.11.21.17.17,0,0,0,.2.12Z" transform="translate(-155.27 -77.6)"/><path class="cls-4" d="M201,144l2-1.56c.07,0,.05-.18,0-.24a.18.18,0,0,0-.24,0l-2,1.56a.17.17,0,0,0,.24.24Z" transform="translate(-155.27 -77.6)"/><path class="cls-4" d="M199.39,142.41a29.16,29.16,0,0,1,2.83-1.84c.19-.1,0-.39-.17-.29a29.06,29.06,0,0,0-2.83,1.83c-.17.13,0,.42.17.3Z" transform="translate(-155.27 -77.6)"/><path class="cls-4" d="M198,141.37a17.44,17.44,0,0,1,3.05-1.54c.2-.08.12-.4-.09-.32a17.62,17.62,0,0,0-3.13,1.57c-.18.12,0,.41.17.29Z" transform="translate(-155.27 -77.6)"/><path class="cls-4" d="M196.7,140.72a3.75,3.75,0,0,1,1.13-.8c.44-.24.88-.47,1.33-.67.2-.09,0-.38-.17-.29-.46.21-.92.44-1.37.69a4,4,0,0,0-1.16.83.2.2,0,0,0,0,.24.17.17,0,0,0,.24,0Z" transform="translate(-155.27 -77.6)"/><path class="cls-4" d="M194,140.53a4.8,4.8,0,0,1,1-.92c.37-.26.75-.49,1.14-.72.78-.44,1.6-.83,2.41-1.21.2-.09,0-.38-.17-.29a27.79,27.79,0,0,0-2.55,1.3,6.93,6.93,0,0,0-2.16,1.67c-.13.17.17.34.29.17Z" transform="translate(-155.27 -77.6)"/><path class="cls-4" d="M192.25,140.17A6.72,6.72,0,0,1,194,138c.16-.15-.08-.39-.24-.24a7.05,7.05,0,0,0-1.86,2.37.17.17,0,0,0,.12.2.16.16,0,0,0,.2-.11Z" transform="translate(-155.27 -77.6)"/><path class="cls-4" d="M190.51,141.2a2.21,2.21,0,0,1,.62-1.1,9.35,9.35,0,0,1,.91-.87,13.64,13.64,0,0,1,2.12-1.4.17.17,0,0,0-.17-.29,14.59,14.59,0,0,0-2.24,1.5,9.06,9.06,0,0,0-.94.92,2.4,2.4,0,0,0-.62,1.15c0,.22.29.31.32.09Z" transform="translate(-155.27 -77.6)"/><path class="cls-4" d="M190.57,145.81a12.79,12.79,0,0,1-.77-3.61c0-.22-.35-.22-.34,0a13.08,13.08,0,0,0,.79,3.7c.08.2.4.11.32-.09Z" transform="translate(-155.27 -77.6)"/><path class="cls-4" d="M192.69,145.68l1-3c.07-.2-.25-.29-.32-.09-.32,1-.64,2-1,3-.06.2.26.29.33.09Z" transform="translate(-155.27 -77.6)"/><path class="cls-4" d="M194.46,146.12a18.52,18.52,0,0,1,2-2.52c.14-.15-.09-.39-.24-.23a18.81,18.81,0,0,0-2,2.58c-.12.18.17.35.29.17Z" transform="translate(-155.27 -77.6)"/><path class="cls-4" d="M195.83,147.57a12.25,12.25,0,0,1,1.6-1c.19-.1,0-.39-.17-.29a13,13,0,0,0-1.67,1.1.17.17,0,0,0,.24.24Z" transform="translate(-155.27 -77.6)"/><path class="cls-4" d="M199.32,150.54a11,11,0,0,1,1.49-.76.17.17,0,0,0,.12-.21.16.16,0,0,0-.21-.11,10.49,10.49,0,0,0-1.57.79.17.17,0,0,0,.17.29Z" transform="translate(-155.27 -77.6)"/><path class="cls-4" d="M199,155.73l1.18.52a.16.16,0,0,0,.23-.06.16.16,0,0,0-.06-.23l-1.18-.52a.17.17,0,0,0-.23.06.18.18,0,0,0,.06.23Z" transform="translate(-155.27 -77.6)"/><path class="cls-4" d="M199.39,157.9c.46.26.9.54,1.33.84a.18.18,0,0,0,.23-.06.18.18,0,0,0-.06-.23c-.43-.3-.87-.58-1.33-.84-.19-.1-.36.19-.17.29Z" transform="translate(-155.27 -77.6)"/><path class="cls-4" d="M194.19,156.69c0,.92,0,1.84-.05,2.76a.17.17,0,0,0,.34,0c0-.92,0-1.84.05-2.76a.17.17,0,0,0-.34,0Z" transform="translate(-155.27 -77.6)"/><path class="cls-4" d="M192.14,157.42a17.35,17.35,0,0,1-1.19,3.23c-.1.2.19.37.29.17a18.22,18.22,0,0,0,1.22-3.31.17.17,0,0,0-.32-.09Z" transform="translate(-155.27 -77.6)"/><path class="cls-4" d="M188.24,157.14,187,159.25a.17.17,0,0,0,.29.17l1.23-2.11a.17.17,0,0,0-.29-.17Z" transform="translate(-155.27 -77.6)"/><path class="cls-4" d="M185.64,155.78a7.65,7.65,0,0,1-1.63,1.07l-1.85,1.07a.17.17,0,0,0,.17.29l1.91-1.1a7.8,7.8,0,0,0,1.64-1.09c.15-.15-.09-.39-.24-.24Z" transform="translate(-155.27 -77.6)"/><path class="cls-4" d="M183.91,154.85c-.61,0-1.22,0-1.84,0-.29,0-.59,0-.89,0a2.21,2.21,0,0,1-.8-.17c-.2-.1-.37.19-.17.29a4.17,4.17,0,0,0,1.72.26c.66,0,1.32,0,2,0,.22,0,.22-.35,0-.34Z" transform="translate(-155.27 -77.6)"/><path class="cls-4" d="M183.8,153q-2.09-1.2-4.06-2.58c-.18-.13-.35.17-.17.29q2,1.38,4.06,2.58a.17.17,0,0,0,.17-.29Z" transform="translate(-155.27 -77.6)"/><path class="cls-4" d="M184.14,150.53a18.19,18.19,0,0,1-1.37-2.93c-.07-.2-.4-.11-.32.09a19.59,19.59,0,0,0,1.4,3,.17.17,0,0,0,.29-.17Z" transform="translate(-155.27 -77.6)"/><path class="cls-4" d="M188.76,152.6c-.51.22-1,.45-1.51.71l-.71.38c-.19.11-.49.22-.52.47a.17.17,0,1,0,.32.09c0-.1.16-.15.24-.19l.31-.18c.22-.12.44-.24.67-.35.45-.23.9-.44,1.36-.64.2-.09,0-.38-.16-.29Z" transform="translate(-155.27 -77.6)"/><path class="cls-4" d="M190.79,153.86c-.15.68-.27,1.37-.36,2a.17.17,0,0,0,.11.21.17.17,0,0,0,.21-.12c.1-.68.22-1.37.36-2.05,0-.21-.28-.3-.32-.09Z" transform="translate(-155.27 -77.6)"/><path class="cls-3" d="M183,152.59a40,40,0,0,1-.73,4.69,10.4,10.4,0,0,1-1,3.27c-.25.39-1,1.38-4,2.66a16.84,16.84,0,0,1-6.58,1.74,14.57,14.57,0,0,1-6.58-1.42c-1.65-.79-4-1.92-5.27-4.43-.85-1.69-.74-3.3-.51-6.51.27-3.79.47-7.11,2.87-8.87a18.57,18.57,0,0,1,2.55-1.13c3.37-1.38,5.05-2.07,6.94-2.36a11.43,11.43,0,0,1,5,0c4,1.05,7.3,4.81,7.64,8.47A26.07,26.07,0,0,1,183,152.59Z" transform="translate(-155.27 -77.6)"/><path class="cls-4" d="M171,152.9c-.08-1,1.24-.44,1.65-.17a3.31,3.31,0,0,1,.72.56c.32.35.28.34.07.63s-1.47.49-1.9.51a4.21,4.21,0,0,1-1.92-.35c-2.25-1-.84-5,1.23-5.36,5-1,6.82,8.39,2.45,10.06-3.95,1.52-11.07-1.1-10.61-6.12.21-2.2,2.14-3.83,3.67-5.2a8.39,8.39,0,0,1,2.74-1.83,5.3,5.3,0,0,1,3.85.35,13.35,13.35,0,0,1,3.38,2.12,8.5,8.5,0,0,1,2.1,3.38c.46,1.23,1.11,3,.74,4.29a19.65,19.65,0,0,1-1.88,3.68c-.37.68.67,1.29,1,.61s.87-1.61,1.29-2.43a6.09,6.09,0,0,0,.82-2.13,10.78,10.78,0,0,0-1.15-5.06,8.73,8.73,0,0,0-2.78-3.73,13,13,0,0,0-4.52-2.32c-3.37-.82-5.93,1.53-8.12,3.77a7.9,7.9,0,0,0-2.28,3.79,6.11,6.11,0,0,0,.9,4.44c1.73,2.7,5.18,3.92,8.26,4a6.45,6.45,0,0,0,4.32-1.24,5.79,5.79,0,0,0,1.81-4c.2-2.88-1-6.32-3.89-7.36s-5.38,1.07-5.62,4a3.21,3.21,0,0,0,2.31,3.68c1.38.44,3.66.41,4.76-.71s-.61-2.75-1.68-3.27-3.09-.12-3,1.5c.07.77,1.27.77,1.2,0Z" transform="translate(-155.27 -77.6)"/><path class="cls-4" d="M158.73,158.75a23.31,23.31,0,0,0,7,4.14.6.6,0,0,0,.74-.42.62.62,0,0,0-.42-.74,21.55,21.55,0,0,1-6.48-3.83c-.58-.51-1.44.34-.85.85Z" transform="translate(-155.27 -77.6)"/><path class="cls-4" d="M170.25,163l5.64-1.19a.6.6,0,1,0-.32-1.16l-5.64,1.19a.6.6,0,0,0-.42.74.62.62,0,0,0,.74.42Z" transform="translate(-155.27 -77.6)"/><path class="cls-4" d="M161.78,147.29a5.23,5.23,0,0,1,.4-.56l-.1.12a7.19,7.19,0,0,1,1-1,.6.6,0,0,0,.18-.42.62.62,0,0,0-.18-.43.59.59,0,0,0-.42-.17.68.68,0,0,0-.43.17,7.2,7.2,0,0,0-1.45,1.71.6.6,0,0,0,.21.82.61.61,0,0,0,.82-.22Z" transform="translate(-155.27 -77.6)"/><path class="cls-4" d="M172.66,142.84a7,7,0,0,1,3.38,1,6.61,6.61,0,0,1,2.29,2.35c.43.64,1.47,0,1-.61a8,8,0,0,0-2.72-2.78,8.36,8.36,0,0,0-4-1.2c-.77,0-.77,1.23,0,1.21Z" transform="translate(-155.27 -77.6)"/><path class="cls-4" d="M166.92,142.94a14,14,0,0,1,1.8-3.26c.13-.17-.16-.34-.29-.17a14.7,14.7,0,0,0-1.84,3.34c-.08.2.25.29.33.09Z" transform="translate(-155.27 -77.6)"/><path class="cls-4" d="M165.77,142.54a5.82,5.82,0,0,1,.71-1.54.17.17,0,0,0-.06-.23.18.18,0,0,0-.23.06,6.12,6.12,0,0,0-.75,1.62.17.17,0,0,0,.33.09Z" transform="translate(-155.27 -77.6)"/><path class="cls-4" d="M164.58,143.19c0-.51,0-1,.07-1.53a.17.17,0,0,0-.17-.17.18.18,0,0,0-.17.17c-.05.51-.07,1-.07,1.53a.17.17,0,0,0,.34,0Z" transform="translate(-155.27 -77.6)"/><path class="cls-4" d="M163.47,143.06a2.8,2.8,0,0,1-.13-.41,1.18,1.18,0,0,1,0-.2s0-.07,0-.11-.08-.25-.18-.25a.17.17,0,0,0-.16.17,3.38,3.38,0,0,0,.2.89.18.18,0,0,0,.21.12.18.18,0,0,0,.12-.21Z" transform="translate(-155.27 -77.6)"/><path class="cls-4" d="M162.85,144.26a1.06,1.06,0,0,1-.18-.35c-.06-.14-.11-.29-.16-.44a9.18,9.18,0,0,1-.28-.89.17.17,0,0,0-.33.09c.09.32.19.64.31,1,0,.16.11.31.17.47a1.34,1.34,0,0,0,.23.4c.15.15.39-.09.24-.24Z" transform="translate(-155.27 -77.6)"/><path class="cls-4" d="M162.24,144.71a13.3,13.3,0,0,1-.78-1.5.17.17,0,0,0-.23-.06.19.19,0,0,0-.06.23,13.3,13.3,0,0,0,.78,1.5c.12.18.41,0,.29-.17Z" transform="translate(-155.27 -77.6)"/><path class="cls-4" d="M158.34,146.23c.67.64,1.32,1.3,2,2,.15.16.38-.08.24-.24-.64-.67-1.29-1.33-2-2-.16-.14-.4.09-.24.24Z" transform="translate(-155.27 -77.6)"/><path class="cls-4" d="M158.2,147.89a20.48,20.48,0,0,0,2.05,1.26c.2.1.37-.19.17-.29a18.87,18.87,0,0,1-2-1.27c-.18-.12-.35.17-.17.3Z" transform="translate(-155.27 -77.6)"/><path class="cls-4" d="M158.75,150.29a2.48,2.48,0,0,1,1.23.26.18.18,0,0,0,.23-.06.17.17,0,0,0-.06-.23,2.71,2.71,0,0,0-1.4-.3.16.16,0,0,0-.16.16.16.16,0,0,0,.16.17Z" transform="translate(-155.27 -77.6)"/><path class="cls-4" d="M156.35,153.35a2,2,0,0,1,1.14.16,7.75,7.75,0,0,1,1.07.44c.19.1.36-.19.17-.29a8.26,8.26,0,0,0-1.19-.49,2.35,2.35,0,0,0-1.28-.15.17.17,0,0,0,.09.33Z" transform="translate(-155.27 -77.6)"/><path class="cls-4" d="M156.92,157.12a21.61,21.61,0,0,1,4-.25c.21,0,.21-.33,0-.34a22.59,22.59,0,0,0-4.11.26c-.22,0-.13.36.09.33Z" transform="translate(-155.27 -77.6)"/><path class="cls-4" d="M157.17,155.41c.58,0,1.15,0,1.72,0a.17.17,0,0,0,0-.34c-.57,0-1.14,0-1.72.05-.21,0-.21.34,0,.33Z" transform="translate(-155.27 -77.6)"/><path class="cls-4" d="M157.2,152l1.8.11a.17.17,0,1,0,0-.34l-1.8-.11c-.21,0-.21.33,0,.34Z" transform="translate(-155.27 -77.6)"/><path class="cls-4" d="M158.66,160.39h5.06a.17.17,0,0,0,0-.33h-5.06a.17.17,0,0,0,0,.33Z" transform="translate(-155.27 -77.6)"/><path class="cls-4" d="M161,163v.1a.17.17,0,0,0,.26.14,7.22,7.22,0,0,1,2.73-1.05c.21,0,.12-.36-.09-.32a7.31,7.31,0,0,0-2.81,1.08l.25.15V163c0-.22-.32-.21-.33,0Z" transform="translate(-155.27 -77.6)"/><path class="cls-4" d="M164.9,165c.4-.61.84-1.19,1.3-1.76a.18.18,0,0,0,0-.24.17.17,0,0,0-.24,0q-.72.88-1.35,1.83c-.12.18.17.35.29.17Z" transform="translate(-155.27 -77.6)"/><path class="cls-4" d="M167,165.58a6.67,6.67,0,0,1,1.11-1.52c.15-.16-.09-.4-.24-.24a7,7,0,0,0-1.16,1.59.17.17,0,0,0,.29.17Z" transform="translate(-155.27 -77.6)"/><path class="cls-4" d="M170.27,165.87a5.06,5.06,0,0,1,.73-1.56.18.18,0,0,0-.06-.23.18.18,0,0,0-.23.06,5.24,5.24,0,0,0-.77,1.64c-.06.2.27.29.33.09Z" transform="translate(-155.27 -77.6)"/><path class="cls-4" d="M173.48,165.13a6.25,6.25,0,0,1,.47-1.95.16.16,0,0,0-.11-.21.17.17,0,0,0-.21.12,6.84,6.84,0,0,0-.49,2c0,.22.32.22.34,0Z" transform="translate(-155.27 -77.6)"/><path class="cls-4" d="M175.18,164.79a20.32,20.32,0,0,1,2-2.77c.14-.17-.1-.41-.24-.24a22,22,0,0,0-2.05,2.84.17.17,0,0,0,.29.17Z" transform="translate(-155.27 -77.6)"/><path class="cls-4" d="M178.09,163.76a23.27,23.27,0,0,1,.66-3.09.17.17,0,0,0-.32-.09,21.79,21.79,0,0,0-.66,3.09c0,.21.29.3.32.09Z" transform="translate(-155.27 -77.6)"/><path class="cls-4" d="M180.42,162.33a8.46,8.46,0,0,1-.34-2.29c0-.21-.35-.21-.34,0a9.07,9.07,0,0,0,.35,2.38.17.17,0,0,0,.33-.09Z" transform="translate(-155.27 -77.6)"/><path class="cls-4" d="M182.46,161.26a13.31,13.31,0,0,1-1.52-2.83c-.08-.2-.4-.11-.33.09a14.51,14.51,0,0,0,1.55,2.91c.13.18.42,0,.3-.17Z" transform="translate(-155.27 -77.6)"/><path class="cls-4" d="M181.69,154.25c.9.83,1.78,1.67,2.65,2.52a.17.17,0,0,0,.24-.23c-.87-.85-1.76-1.7-2.65-2.52-.16-.15-.4.09-.24.23Z" transform="translate(-155.27 -77.6)"/><path class="cls-4" d="M181.74,152.93a9.55,9.55,0,0,0,2.08,1.55c.19.1.36-.19.17-.29a9.55,9.55,0,0,1-2-1.5c-.15-.15-.39.09-.23.24Z" transform="translate(-155.27 -77.6)"/><path class="cls-4" d="M182,151.58c.57.33,1.13.67,1.67,1,.18.12.35-.17.17-.29-.54-.37-1.1-.71-1.67-1a.17.17,0,0,0-.17.29Z" transform="translate(-155.27 -77.6)"/><path class="cls-4" d="M182.22,148.77a12,12,0,0,1,2.52.52c.21.07.3-.26.09-.32a12.88,12.88,0,0,0-2.61-.54c-.21,0-.21.32,0,.34Z" transform="translate(-155.27 -77.6)"/><path class="cls-4" d="M181.86,147.13a9.05,9.05,0,0,1,1.94-.19.17.17,0,1,0,0-.33,9.26,9.26,0,0,0-2,.2c-.22,0-.13.37.09.32Z" transform="translate(-155.27 -77.6)"/><path class="cls-4" d="M180.62,145.72c.75-.31,1.51-.6,2.29-.86.2-.07.11-.39-.09-.32-.78.25-1.54.54-2.29.86a.16.16,0,0,0-.12.2.17.17,0,0,0,.21.12Z" transform="translate(-155.27 -77.6)"/><path class="cls-4" d="M180.64,144.65l2-1.56a.16.16,0,0,0,0-.23.17.17,0,0,0-.24,0l-2,1.55a.17.17,0,1,0,.24.24Z" transform="translate(-155.27 -77.6)"/><path class="cls-4" d="M179,143.11a26.15,26.15,0,0,1,2.82-1.83.17.17,0,0,0-.17-.29,26.15,26.15,0,0,0-2.82,1.83c-.18.12,0,.42.17.29Z" transform="translate(-155.27 -77.6)"/><path class="cls-4" d="M177.63,142.08a16.91,16.91,0,0,1,3.06-1.55c.2-.07.11-.4-.09-.32a17.42,17.42,0,0,0-3.14,1.58c-.18.11,0,.4.17.29Z" transform="translate(-155.27 -77.6)"/><path class="cls-4" d="M176.33,141.42a3.51,3.51,0,0,1,1.13-.8c.43-.24.88-.46,1.33-.67.2-.09,0-.38-.17-.29-.47.21-.93.44-1.37.69a3.73,3.73,0,0,0-1.16.83.17.17,0,1,0,.24.24Z" transform="translate(-155.27 -77.6)"/><path class="cls-4" d="M173.67,141.23a4.38,4.38,0,0,1,1-.92c.36-.25.75-.49,1.14-.71.78-.45,1.59-.84,2.41-1.22.19-.09,0-.38-.17-.29-.87.41-1.73.82-2.56,1.3a6.92,6.92,0,0,0-2.15,1.67c-.13.17.16.34.29.17Z" transform="translate(-155.27 -77.6)"/><path class="cls-4" d="M171.88,140.87a6.8,6.8,0,0,1,1.77-2.22c.16-.14-.08-.38-.23-.23a7,7,0,0,0-1.87,2.36.18.18,0,0,0,.12.21.19.19,0,0,0,.21-.12Z" transform="translate(-155.27 -77.6)"/><path class="cls-4" d="M170.13,141.91a2.18,2.18,0,0,1,.63-1.1,7.38,7.38,0,0,1,.9-.87,15,15,0,0,1,2.12-1.41.17.17,0,0,0-.17-.29,14.5,14.5,0,0,0-2.23,1.5,7.44,7.44,0,0,0-.94.92,2.33,2.33,0,0,0-.63,1.16c0,.21.29.3.32.09Z" transform="translate(-155.27 -77.6)"/><path class="cls-4" d="M170.2,146.51a12.73,12.73,0,0,1-.78-3.61c0-.22-.35-.22-.34,0a13.36,13.36,0,0,0,.79,3.7c.08.2.4.12.33-.09Z" transform="translate(-155.27 -77.6)"/><path class="cls-4" d="M172.31,146.38c.32-1,.65-2,1-2.95.06-.2-.26-.29-.33-.09l-1,2.95c-.07.21.25.29.32.09Z" transform="translate(-155.27 -77.6)"/><path class="cls-4" d="M174.08,146.82a19.24,19.24,0,0,1,2-2.51c.15-.16-.09-.4-.24-.24a19.61,19.61,0,0,0-2,2.58c-.12.18.17.35.29.17Z" transform="translate(-155.27 -77.6)"/><path class="cls-4" d="M175.45,148.27a11.94,11.94,0,0,1,1.61-1,.17.17,0,0,0-.17-.29,11.69,11.69,0,0,0-1.67,1.09.16.16,0,0,0,0,.24.16.16,0,0,0,.23,0Z" transform="translate(-155.27 -77.6)"/><path class="cls-4" d="M178.94,151.24a10.55,10.55,0,0,1,1.5-.76.16.16,0,0,0,.11-.2c0-.08-.12-.16-.2-.12a10.59,10.59,0,0,0-1.58.79c-.18.11,0,.4.17.29Z" transform="translate(-155.27 -77.6)"/><path class="cls-4" d="M178.58,156.43l1.18.52a.17.17,0,0,0,.23-.06.18.18,0,0,0-.06-.23l-1.18-.52a.16.16,0,0,0-.23.06.16.16,0,0,0,.06.23Z" transform="translate(-155.27 -77.6)"/><path class="cls-4" d="M179,158.61a12.89,12.89,0,0,1,1.33.83.16.16,0,0,0,.23-.06.18.18,0,0,0-.06-.23,14.06,14.06,0,0,0-1.33-.83.17.17,0,0,0-.17.29Z" transform="translate(-155.27 -77.6)"/><path class="cls-4" d="M173.82,157.39l-.06,2.76a.17.17,0,0,0,.34,0c0-.92,0-1.84.05-2.76a.17.17,0,1,0-.33,0Z" transform="translate(-155.27 -77.6)"/><path class="cls-4" d="M171.76,158.13a17.89,17.89,0,0,1-1.19,3.23c-.09.19.2.36.29.17a17.08,17.08,0,0,0,1.22-3.31.17.17,0,0,0-.32-.09Z" transform="translate(-155.27 -77.6)"/><path class="cls-4" d="M167.86,157.84,166.63,160a.17.17,0,0,0,.3.17l1.22-2.11a.17.17,0,0,0-.29-.17Z" transform="translate(-155.27 -77.6)"/><path class="cls-4" d="M165.26,156.49a7.4,7.4,0,0,1-1.63,1.07l-1.85,1.06c-.18.11,0,.4.17.29l1.91-1.1a7.51,7.51,0,0,0,1.64-1.08c.15-.16-.09-.4-.24-.24Z" transform="translate(-155.27 -77.6)"/><path class="cls-4" d="M163.54,155.55c-.62,0-1.23,0-1.84,0l-.89,0a2.22,2.22,0,0,1-.81-.18c-.19-.1-.36.19-.17.29a4.17,4.17,0,0,0,1.72.26c.66,0,1.33,0,2,0,.21,0,.21-.35,0-.34Z" transform="translate(-155.27 -77.6)"/><path class="cls-4" d="M163.43,153.75c-1.4-.81-2.75-1.67-4.07-2.59-.18-.12-.34.17-.17.29,1.32.92,2.67,1.78,4.07,2.59.18.11.35-.19.17-.29Z" transform="translate(-155.27 -77.6)"/><path class="cls-4" d="M163.77,151.24a20.06,20.06,0,0,1-1.38-2.93c-.07-.2-.4-.12-.32.09a20,20,0,0,0,1.4,3c.11.18.4,0,.3-.17Z" transform="translate(-155.27 -77.6)"/><path class="cls-4" d="M168.38,153.3c-.51.22-1,.46-1.5.71l-.71.38c-.19.11-.49.23-.53.48a.16.16,0,0,0,.12.2.15.15,0,0,0,.2-.11c0-.11.17-.16.25-.2l.3-.17.67-.36c.45-.23.91-.44,1.37-.64.2-.09,0-.38-.17-.29Z" transform="translate(-155.27 -77.6)"/><path class="cls-4" d="M170.41,154.56c-.15.68-.27,1.37-.36,2.06a.16.16,0,0,0,.12.2.15.15,0,0,0,.2-.11c.1-.69.22-1.38.36-2.06.05-.21-.27-.3-.32-.09Z" transform="translate(-155.27 -77.6)"/><path class="cls-3" d="M186.21,144.65a40.55,40.55,0,0,1-4.56,1.3,10.69,10.69,0,0,1-3.4.44c-.46-.07-1.67-.32-4.1-2.56a16.71,16.71,0,0,1-4.33-5.25,14.52,14.52,0,0,1-1.46-6.58c0-1.83.07-4.44,1.83-6.64,1.17-1.47,2.68-2,5.7-3.18,3.55-1.34,6.65-2.54,9.26-1.09a18.35,18.35,0,0,1,2.08,1.84c2.66,2.49,4,3.73,5.05,5.32a11.48,11.48,0,0,1,2.05,4.54c.72,4.07-1.33,8.64-4.51,10.48A26.29,26.29,0,0,1,186.21,144.65Z" transform="translate(-155.27 -77.6)"/><path class="cls-4" d="M181,133.81c1.08-.61,1.28,3.39-.29,2.38a4.05,4.05,0,0,1-1.41-3.18c0-1.32,1.32-1.88,2.47-2.08a2.86,2.86,0,0,1,3.05,1.22c2.55,4.19-5,9.43-8.29,6.19-3-3-3.56-10.44,1.12-12.14,2.26-.82,5,.48,7,1.45a6.22,6.22,0,0,1,2.59,2A5.85,5.85,0,0,1,188,133a12.09,12.09,0,0,1-.6,4,9,9,0,0,1-2.28,3.22,5,5,0,0,1-5.34,2.25l-2.26-.14c-.77-.05-.77,1.15,0,1.2,1.66.12,3.81.59,5.37-.14a12.51,12.51,0,0,0,3.68-3,8.85,8.85,0,0,0,2.31-4.37,13.77,13.77,0,0,0,.22-4.57c-.54-3.48-3.58-4.84-6.56-6a7.78,7.78,0,0,0-5.24-.45,6.29,6.29,0,0,0-3.07,2.45c-1.83,2.75-1.44,6.55-.12,9.42a6.13,6.13,0,0,0,3.08,3.31,6,6,0,0,0,4.65-.33c2.58-1.16,5-3.63,4.56-6.67s-3.5-4.22-6.18-3.08a3.19,3.19,0,0,0-2.07,3.84,5.18,5.18,0,0,0,2.53,3.69c1.71.72,2.32-1.73,2.33-2.92,0-1.39-1.25-2.77-2.66-2a.6.6,0,0,0,.61,1Z" transform="translate(-155.27 -77.6)"/><path class="cls-4" d="M170.46,125.19a23,23,0,0,0-.84,8c.06.76,1.26.77,1.2,0a21.92,21.92,0,0,1,.8-7.64.6.6,0,0,0-1.16-.32Z" transform="translate(-155.27 -77.6)"/><path class="cls-4" d="M171.39,137.28c1.15,1.55,2.3,3.09,3.44,4.64a.61.61,0,0,0,.82.21.61.61,0,0,0,.22-.82l-3.44-4.64a.6.6,0,0,0-1,.61Z" transform="translate(-155.27 -77.6)"/><path class="cls-4" d="M182.21,123.14l-.09,0a6.6,6.6,0,0,1,1.7.47l-.14-.06.24.1a.61.61,0,0,0,.46.06.58.58,0,0,0,.36-.27.6.6,0,0,0-.22-.82,7.61,7.61,0,0,0-1.12-.43,8.09,8.09,0,0,0-1.19-.24.61.61,0,0,0-.6.61.62.62,0,0,0,.18.42.64.64,0,0,0,.42.18Z" transform="translate(-155.27 -77.6)"/><path class="cls-4" d="M190.77,131.21a7,7,0,0,1,.45,3.39,6.63,6.63,0,0,1-1.21,3.16.6.6,0,0,0,1,.61,7.74,7.74,0,0,0,1.37-3.77,8.26,8.26,0,0,0-.61-4c-.34-.69-1.38-.08-1,.61Z" transform="translate(-155.27 -77.6)"/><path class="cls-4" d="M188.23,126a14,14,0,0,1,3.71.28c.21,0,.3-.28.09-.33a14.71,14.71,0,0,0-3.8-.29c-.22,0-.22.35,0,.34Z" transform="translate(-155.27 -77.6)"/><path class="cls-4" d="M188.15,124.77a5.37,5.37,0,0,1,1.65,0,.17.17,0,0,0,.21-.12.16.16,0,0,0-.12-.2,5.91,5.91,0,0,0-1.83,0,.17.17,0,1,0,.09.33Z" transform="translate(-155.27 -77.6)"/><path class="cls-4" d="M187.06,124a13.67,13.67,0,0,1,1.38-.55.18.18,0,0,0,.12-.21.17.17,0,0,0-.21-.12c-.49.18-1,.37-1.46.59a.18.18,0,0,0-.06.23.17.17,0,0,0,.23.06Z" transform="translate(-155.27 -77.6)"/><path class="cls-4" d="M186.71,122.89l.32-.29.15-.1.18-.12a.17.17,0,0,0-.17-.29,3.19,3.19,0,0,0-.71.56.17.17,0,0,0,0,.24.16.16,0,0,0,.23,0Z" transform="translate(-155.27 -77.6)"/><path class="cls-4" d="M185.36,122.82a1.05,1.05,0,0,1,.23-.29l.34-.34c.23-.21.46-.43.7-.63a.17.17,0,0,0-.24-.24c-.25.22-.5.44-.74.67l-.34.35a1.33,1.33,0,0,0-.28.39.17.17,0,0,0,.12.21.17.17,0,0,0,.21-.12Z" transform="translate(-155.27 -77.6)"/><path class="cls-4" d="M184.7,122.46a12.57,12.57,0,0,1,1-1.3.17.17,0,1,0-.24-.24,12.83,12.83,0,0,0-1.06,1.37.17.17,0,0,0,.06.23.16.16,0,0,0,.23-.06Z" transform="translate(-155.27 -77.6)"/><path class="cls-4" d="M181.67,119.58c-.29.87-.62,1.74-1,2.6a.17.17,0,0,0,.12.2.17.17,0,0,0,.21-.11c.35-.86.67-1.73,1-2.6.07-.21-.26-.3-.33-.09Z" transform="translate(-155.27 -77.6)"/><path class="cls-4" d="M180.12,120.09a22.42,22.42,0,0,0-.29,2.45c0,.21.32.21.34,0a18.76,18.76,0,0,1,.28-2.36c0-.21-.29-.3-.33-.09Z" transform="translate(-155.27 -77.6)"/><path class="cls-4" d="M178.17,121.65a2.37,2.37,0,0,1,.27,1.22.17.17,0,1,0,.34,0,2.81,2.81,0,0,0-.32-1.39.17.17,0,0,0-.23-.06.18.18,0,0,0-.06.23Z" transform="translate(-155.27 -77.6)"/><path class="cls-4" d="M174.39,120.73a2,2,0,0,1,.32,1,7.58,7.58,0,0,1,0,1.26.17.17,0,0,0,.34,0,7.3,7.3,0,0,0-.07-1.4,2,2,0,0,0-.39-1.1c-.14-.17-.38.07-.24.23Z" transform="translate(-155.27 -77.6)"/><path class="cls-4" d="M171.18,122.79a21.66,21.66,0,0,1,1.91,3.55c.08.2.41.11.32-.09a21.82,21.82,0,0,0-1.94-3.63c-.12-.18-.42,0-.29.17Z" transform="translate(-155.27 -77.6)"/><path class="cls-4" d="M172.86,122.35c.26.51.51,1,.76,1.54a.15.15,0,0,0,.23.06.17.17,0,0,0,.06-.23c-.25-.52-.5-1-.76-1.54-.1-.19-.39,0-.29.17Z" transform="translate(-155.27 -77.6)"/><path class="cls-4" d="M176,120.91c.23.55.44,1.11.66,1.68a.16.16,0,0,0,.2.11.17.17,0,0,0,.12-.2c-.21-.57-.43-1.12-.65-1.68a.17.17,0,0,0-.33.09Z" transform="translate(-155.27 -77.6)"/><path class="cls-4" d="M169,125.78c.71,1.54,1.41,3.07,2.12,4.6.09.19.38,0,.29-.17q-1.06-2.3-2.11-4.59c-.09-.2-.39,0-.3.16Z" transform="translate(-155.27 -77.6)"/><path class="cls-4" d="M167.64,129l-.09,0a.17.17,0,0,0,0,.31,7.08,7.08,0,0,1,2.07,2c.12.18.41,0,.29-.17a7.53,7.53,0,0,0-2.19-2.13c0,.1,0,.2,0,.31l.09,0a.18.18,0,0,0,.12-.21c0-.08-.13-.15-.21-.11Z" transform="translate(-155.27 -77.6)"/><path class="cls-4" d="M167.33,133.36c.73.11,1.46.27,2.18.45a.17.17,0,0,0,.09-.32c-.72-.19-1.45-.34-2.18-.46a.19.19,0,0,0-.21.12.18.18,0,0,0,.12.21Z" transform="translate(-155.27 -77.6)"/><path class="cls-4" d="M167.71,135.46a6.92,6.92,0,0,1,1.85.38c.2.07.29-.25.09-.33a8,8,0,0,0-1.94-.39c-.22,0-.21.33,0,.34Z" transform="translate(-155.27 -77.6)"/><path class="cls-4" d="M168.84,138.59a5.2,5.2,0,0,1,1.67,0,.17.17,0,0,0,.2-.12.16.16,0,0,0-.11-.21,5.74,5.74,0,0,0-1.85,0,.17.17,0,1,0,.09.32Z" transform="translate(-155.27 -77.6)"/><path class="cls-4" d="M170.8,141.22a6.33,6.33,0,0,1,2-.39c.22,0,.22-.35,0-.34a6.91,6.91,0,0,0-2.06.4c-.2.08-.11.4.09.33Z" transform="translate(-155.27 -77.6)"/><path class="cls-4" d="M171.87,142.62a20.25,20.25,0,0,1,3.35.66.17.17,0,0,0,.09-.33,21.33,21.33,0,0,0-3.44-.67c-.22,0-.22.31,0,.34Z" transform="translate(-155.27 -77.6)"/><path class="cls-4" d="M174,144.83a20.44,20.44,0,0,1,3.08-.69c.22,0,.12-.36-.09-.33a23.22,23.22,0,0,0-3.08.69.17.17,0,0,0,.09.33Z" transform="translate(-155.27 -77.6)"/><path class="cls-4" d="M176.28,146.33a9.23,9.23,0,0,1,1.94-1.26c.2-.09,0-.38-.17-.29a9.51,9.51,0,0,0-2,1.31c-.16.15.08.38.24.24Z" transform="translate(-155.27 -77.6)"/><path class="cls-4" d="M178.1,147.74a14.25,14.25,0,0,1,1.94-2.56c.15-.15-.09-.39-.24-.24a14.55,14.55,0,0,0-2,2.63.17.17,0,0,0,.29.17Z" transform="translate(-155.27 -77.6)"/><path class="cls-4" d="M184.14,144.15c-.38,1.15-.78,2.31-1.19,3.45-.07.21.25.3.33.09.41-1.15.8-2.3,1.18-3.46.07-.2-.26-.29-.32-.08Z" transform="translate(-155.27 -77.6)"/><path class="cls-4" d="M185.36,143.63a9.58,9.58,0,0,0-.53,2.54c0,.22.32.22.33,0a9.31,9.31,0,0,1,.52-2.45c.08-.2-.25-.29-.32-.09Z" transform="translate(-155.27 -77.6)"/><path class="cls-4" d="M186.71,143.34c-.06.63-.14,1.27-.24,1.91a.17.17,0,0,0,.12.2.16.16,0,0,0,.21-.11c.1-.67.19-1.34.25-2a.17.17,0,1,0-.34,0Z" transform="translate(-155.27 -77.6)"/><path class="cls-4" d="M189.34,142.3a11.94,11.94,0,0,1,.58,2.5.17.17,0,0,0,.34,0,12.81,12.81,0,0,0-.6-2.59c-.07-.21-.39-.12-.32.09Z" transform="translate(-155.27 -77.6)"/><path class="cls-4" d="M190.66,141.28a9.09,9.09,0,0,1,1,1.73.18.18,0,0,0,.23.06.17.17,0,0,0,.06-.23,9.61,9.61,0,0,0-1-1.73.19.19,0,0,0-.24-.06.18.18,0,0,0-.06.23Z" transform="translate(-155.27 -77.6)"/><path class="cls-4" d="M191.46,139.6c.6.55,1.18,1.13,1.73,1.72.15.16.39-.08.24-.23-.56-.6-1.14-1.18-1.74-1.73-.16-.14-.39.09-.23.24Z" transform="translate(-155.27 -77.6)"/><path class="cls-4" d="M192.4,139.15l2.24,1.15c.19.1.36-.19.17-.29l-2.24-1.15c-.19-.1-.36.19-.17.29Z" transform="translate(-155.27 -77.6)"/><path class="cls-4" d="M193.16,137.05a28,28,0,0,1,2.85,1.81c.17.12.34-.17.17-.29a26.38,26.38,0,0,0-2.85-1.81c-.19-.1-.36.19-.17.29Z" transform="translate(-155.27 -77.6)"/><path class="cls-4" d="M193.52,135.37a17.17,17.17,0,0,1,2.68,2.13c.15.15.39-.09.24-.24a17,17,0,0,0-2.75-2.18c-.18-.12-.35.17-.17.29Z" transform="translate(-155.27 -77.6)"/><path class="cls-4" d="M193.57,133.9a3.64,3.64,0,0,1,1.19.69c.39.29.77.59,1.14.91.17.14.41-.1.24-.24-.39-.33-.79-.66-1.21-1a3.73,3.73,0,0,0-1.27-.72c-.21-.05-.3.27-.09.32Z" transform="translate(-155.27 -77.6)"/><path class="cls-4" d="M192.6,131.4a6.87,6.87,0,0,1,2.37,1.26c.74.53,1.44,1.11,2.14,1.7.16.14.4-.1.24-.24-.72-.6-1.44-1.2-2.21-1.75a7.06,7.06,0,0,0-2.45-1.3c-.22,0-.31.28-.09.33Z" transform="translate(-155.27 -77.6)"/><path class="cls-4" d="M192.18,129.63a6.49,6.49,0,0,1,2.79.69c.2.08.29-.25.09-.33a6.9,6.9,0,0,0-2.88-.7c-.22,0-.22.35,0,.34Z" transform="translate(-155.27 -77.6)"/><path class="cls-4" d="M190.55,128.47a2.14,2.14,0,0,1,1.27.12,7.7,7.7,0,0,1,1.2.48,15,15,0,0,1,2.12,1.32c.17.12.34-.17.17-.29a14.36,14.36,0,0,0-2.34-1.43,7.42,7.42,0,0,0-1.22-.45,2.36,2.36,0,0,0-1.29-.08.17.17,0,0,0,.09.33Z" transform="translate(-155.27 -77.6)"/><path class="cls-4" d="M186.39,130.44a12.84,12.84,0,0,1,3-2.21c.19-.1,0-.39-.17-.29a12.91,12.91,0,0,0-3,2.27.17.17,0,0,0,.24.23Z" transform="translate(-155.27 -77.6)"/><path class="cls-4" d="M187.35,132.32l3.08-.35c.21,0,.22-.36,0-.34l-3.08.35c-.21,0-.21.37,0,.34Z" transform="translate(-155.27 -77.6)"/><path class="cls-4" d="M187.69,134.11a19.13,19.13,0,0,1,3.16.76c.2.07.29-.25.09-.32a19.16,19.16,0,0,0-3.16-.77c-.21,0-.3.3-.09.33Z" transform="translate(-155.27 -77.6)"/><path class="cls-4" d="M187,136a11.75,11.75,0,0,1,1.65,1,.16.16,0,0,0,.23-.06.17.17,0,0,0-.06-.23,12.35,12.35,0,0,0-1.65-1c-.2-.1-.37.19-.17.29Z" transform="translate(-155.27 -77.6)"/><path class="cls-4" d="M185.75,140.38a9.33,9.33,0,0,1,1.3,1.05c.16.14.4-.09.24-.24a12,12,0,0,0-1.37-1.1.17.17,0,0,0-.23.06.17.17,0,0,0,.06.23Z" transform="translate(-155.27 -77.6)"/><path class="cls-4" d="M180.86,142.22c0,.44,0,.87,0,1.3a.17.17,0,0,0,.34,0c0-.43,0-.86,0-1.3a.17.17,0,0,0-.34,0Z" transform="translate(-155.27 -77.6)"/><path class="cls-4" d="M179.07,143.53a15.21,15.21,0,0,1-.2,1.51.17.17,0,1,0,.32.09,12.29,12.29,0,0,0,.21-1.6.17.17,0,0,0-.16-.17.17.17,0,0,0-.17.17Z" transform="translate(-155.27 -77.6)"/><path class="cls-4" d="M178,138.29l-2.53,1.11c-.2.08,0,.37.17.29l2.53-1.11c.2-.08,0-.37-.17-.29Z" transform="translate(-155.27 -77.6)"/><path class="cls-4" d="M176.46,136.73A17.18,17.18,0,0,1,173,137a.17.17,0,0,0,0,.34,18.11,18.11,0,0,0,3.52-.28c.21,0,.12-.36-.09-.32Z" transform="translate(-155.27 -77.6)"/><path class="cls-4" d="M175.09,133.06l-2.43-.23c-.22,0-.21.31,0,.33l2.43.24c.22,0,.21-.32,0-.34Z" transform="translate(-155.27 -77.6)"/><path class="cls-4" d="M175.24,130.13a8.08,8.08,0,0,1-1.67-1l-1.72-1.22c-.18-.13-.35.16-.17.29l1.78,1.26a7.54,7.54,0,0,0,1.69,1c.2.08.29-.25.09-.32Z" transform="translate(-155.27 -77.6)"/><path class="cls-4" d="M175.37,128.16c-.27-.52-.53-1.06-.76-1.6-.12-.28-.24-.56-.34-.84a2.14,2.14,0,0,1-.19-.85c0-.22-.33-.22-.34,0a4.35,4.35,0,0,0,.53,1.74c.24.58.52,1.16.81,1.72.1.19.39,0,.29-.17Z" transform="translate(-155.27 -77.6)"/><path class="cls-4" d="M177,127.3c.14-1.58.36-3.16.64-4.72,0-.21-.28-.31-.32-.09-.29,1.59-.51,3.2-.66,4.81,0,.22.32.22.34,0Z" transform="translate(-155.27 -77.6)"/><path class="cls-4" d="M179.41,126.57a18.21,18.21,0,0,1,2.09-2.47c.15-.15-.09-.39-.24-.24a20.78,20.78,0,0,0-2.15,2.54c-.12.18.17.35.3.17Z" transform="translate(-155.27 -77.6)"/><path class="cls-4" d="M179.47,131.65c-.41-.37-.84-.72-1.27-1.06l-.64-.49c-.2-.14-.43-.37-.7-.3s-.11.39.09.33.21.1.27.14l.3.22.59.45c.38.31.76.62,1.12.95.17.15.4-.09.24-.24Z" transform="translate(-155.27 -77.6)"/><path class="cls-4" d="M179.13,134c-.68.15-1.35.33-2,.53-.21.07-.12.39.08.33.67-.2,1.34-.38,2-.53.21-.05.12-.38-.09-.33Z" transform="translate(-155.27 -77.6)"/><path class="cls-3" d="M229,167.89a42.2,42.2,0,0,1-4.69-.6,12.24,12.24,0,0,1-3.28-.83c-.38-.21-1.38-.8-2.65-3.32a11.83,11.83,0,0,1-1.75-5.4,10.2,10.2,0,0,1,1.42-5.4,9.07,9.07,0,0,1,4.44-4.33c1.69-.7,3.29-.6,6.51-.42,3.78.22,7.11.39,8.87,2.36A16.06,16.06,0,0,1,239,152c1.37,2.77,2.06,4.15,2.36,5.7a7.87,7.87,0,0,1,0,4.09c-1,3.28-4.81,6-8.47,6.27A30.27,30.27,0,0,1,229,167.89Z" transform="translate(-155.27 -77.6)"/><path class="cls-4" d="M228.63,158.11c.94-.06.45.87.1,1.27s-.92,1-1.3.25a2.76,2.76,0,0,1,.27-3c.66-.71,2.06-.55,2.92-.36a2.7,2.7,0,0,1,2.19,1.63c.6,2.15-2.08,3.36-3.73,3.69-1.9.39-5,.47-6.17-1.41s-.44-4.45.6-6.09a5.94,5.94,0,0,1,5.32-2.76c2.06.13,3.68,1.56,5.14,2.88a7.48,7.48,0,0,1,1.92,2.27,3.55,3.55,0,0,1-.4,3.22,9.77,9.77,0,0,1-2.38,2.92,10.11,10.11,0,0,1-3.29,1.49,9.5,9.5,0,0,1-3.87.57,17,17,0,0,1-3.87-1.57c-.7-.31-1.31.73-.6,1s1.55.69,2.33,1a6.9,6.9,0,0,0,2.33.74,12.8,12.8,0,0,0,4.76-.89,9,9,0,0,0,3.74-2.18,10.6,10.6,0,0,0,2.47-3.84c1-3-1.64-5.22-3.76-6.91s-5-2.56-7.73-1.35a7.85,7.85,0,0,0-4.42,6.57,5.19,5.19,0,0,0,1.12,4,6,6,0,0,0,3.85,1.61c2.56.23,6.22-.4,7.5-3a3.19,3.19,0,0,0-.21-3.41,4.63,4.63,0,0,0-3.25-1.6c-1.44-.17-3,0-3.81,1.4a4.06,4.06,0,0,0,.3,4.36c1.06,1.31,2.62,0,3.3-1,.82-1.19.26-2.91-1.37-2.8-.76.05-.77,1.26,0,1.2Z" transform="translate(-155.27 -77.6)"/><path class="cls-4" d="M222.79,147.87a18.76,18.76,0,0,0-4.09,5.66.62.62,0,0,0,.22.82.61.61,0,0,0,.82-.21,17.6,17.6,0,0,1,3.9-5.42c.56-.54-.29-1.38-.85-.85Z" transform="translate(-155.27 -77.6)"/><path class="cls-4" d="M218.58,157.43c.39,1.54.79,3.09,1.19,4.63a.6.6,0,0,0,1.16-.32c-.4-1.54-.8-3.09-1.19-4.63a.6.6,0,0,0-1.16.32Z" transform="translate(-155.27 -77.6)"/><path class="cls-4" d="M234.24,150.54a6.52,6.52,0,0,1,1.06.67l-.13-.1a4.73,4.73,0,0,1,.53.46.6.6,0,0,0,.85-.85,6.75,6.75,0,0,0-1.7-1.21.57.57,0,0,0-.46-.06.58.58,0,0,0-.36.27.6.6,0,0,0,.21.82Z" transform="translate(-155.27 -77.6)"/><path class="cls-4" d="M238.7,159.38a3.08,3.08,0,0,1-.3,1.37,9.91,9.91,0,0,1-.78,1.43,6.24,6.24,0,0,1-2.3,1.76.6.6,0,0,0,.6,1,7.45,7.45,0,0,0,2.74-2.2,6.14,6.14,0,0,0,1.24-3.4c0-.77-1.23-.77-1.2,0Z" transform="translate(-155.27 -77.6)"/><path class="cls-4" d="M238.6,154.69a15.23,15.23,0,0,1,3.26,1.49c.18.11.35-.18.16-.29a15.65,15.65,0,0,0-3.33-1.52c-.21-.07-.3.26-.09.32Z" transform="translate(-155.27 -77.6)"/><path class="cls-4" d="M239,153.75a6,6,0,0,1,1.54.59.17.17,0,0,0,.17-.3,6.59,6.59,0,0,0-1.62-.61c-.21-.05-.3.27-.09.32Z" transform="translate(-155.27 -77.6)"/><path class="cls-4" d="M238.35,152.78c.51,0,1,0,1.52.06a.18.18,0,0,0,.17-.17.18.18,0,0,0-.17-.17c-.51,0-1-.06-1.52-.06a.17.17,0,0,0,0,.34Z" transform="translate(-155.27 -77.6)"/><path class="cls-4" d="M238.48,151.86l.4-.1.21,0,.18,0a.16.16,0,0,0,.17-.16.16.16,0,0,0-.17-.17,3.71,3.71,0,0,0-.88.17.17.17,0,0,0-.12.21.17.17,0,0,0,.21.11Z" transform="translate(-155.27 -77.6)"/><path class="cls-4" d="M237.28,151.35a.85.85,0,0,1,.34-.14l.44-.13a8.93,8.93,0,0,1,.89-.23c.22,0,.13-.38-.09-.33s-.64.16-1,.25l-.46.14a1.16,1.16,0,0,0-.4.2.17.17,0,1,0,.24.24Z" transform="translate(-155.27 -77.6)"/><path class="cls-4" d="M236.83,150.86a12.45,12.45,0,0,1,1.45-.63.17.17,0,0,0,.12-.21.17.17,0,0,0-.21-.11,12.83,12.83,0,0,0-1.53.66.17.17,0,0,0-.06.23.18.18,0,0,0,.23.06Z" transform="translate(-155.27 -77.6)"/><path class="cls-4" d="M235.3,147.6c-.63.55-1.27,1.08-1.93,1.59a.17.17,0,0,0-.06.23.18.18,0,0,0,.23.06c.68-.53,1.35-1.07,2-1.64.17-.14-.07-.38-.24-.24Z" transform="translate(-155.27 -77.6)"/><path class="cls-4" d="M233.68,147.46a16.41,16.41,0,0,0-1.29,1.72c-.12.18.17.35.29.17a16.83,16.83,0,0,1,1.23-1.65.17.17,0,0,0,0-.24.16.16,0,0,0-.23,0Z" transform="translate(-155.27 -77.6)"/><path class="cls-4" d="M231.24,148a1.22,1.22,0,0,1,0,.27l0,.1a.51.51,0,0,1,0,.13,1.84,1.84,0,0,1-.09.25,1.29,1.29,0,0,1-.12.23.16.16,0,0,0,.06.23.17.17,0,0,0,.23-.06,2,2,0,0,0,.3-1.15c0-.09-.07-.18-.17-.17a.17.17,0,0,0-.17.17Z" transform="translate(-155.27 -77.6)"/><path class="cls-4" d="M228.19,146a1.43,1.43,0,0,1-.16.92,6,6,0,0,1-.45.87.17.17,0,0,0,.29.17,5.74,5.74,0,0,0,.5-1,1.56,1.56,0,0,0,.14-1.06c-.06-.21-.39-.12-.32.09Z" transform="translate(-155.27 -77.6)"/><path class="cls-4" d="M224.42,146.46a14.6,14.6,0,0,1,.25,3.3c0,.21.32.21.33,0a14.28,14.28,0,0,0-.26-3.39c0-.21-.36-.12-.32.09Z" transform="translate(-155.27 -77.6)"/><path class="cls-4" d="M226.12,146.67c0,.47,0,.94,0,1.41,0,.21.34.21.33,0,0-.47,0-.94,0-1.41a.17.17,0,1,0-.34,0Z" transform="translate(-155.27 -77.6)"/><path class="cls-4" d="M229.55,146.69c0,.49-.07,1-.11,1.48a.17.17,0,0,0,.17.17.18.18,0,0,0,.17-.17c0-.5.07-1,.1-1.48a.17.17,0,0,0-.17-.17.17.17,0,0,0-.16.17Z" transform="translate(-155.27 -77.6)"/><path class="cls-4" d="M221.14,147.89V152a.17.17,0,0,0,.34,0v-4.15a.17.17,0,0,0-.34,0Z" transform="translate(-155.27 -77.6)"/><path class="cls-4" d="M218.58,149.81h-.09c-.16,0-.2.18-.12.28a5.2,5.2,0,0,1,1,2.21c.05.21.37.12.33-.09a5.67,5.67,0,0,0-1.11-2.35l-.12.28h.09a.17.17,0,0,0,0-.34Z" transform="translate(-155.27 -77.6)"/><path class="cls-4" d="M216.53,153c.61.34,1.21.7,1.79,1.09.18.12.35-.17.17-.29-.58-.39-1.18-.75-1.79-1.09-.19-.1-.36.19-.17.29Z" transform="translate(-155.27 -77.6)"/><path class="cls-4" d="M216,154.72a7.25,7.25,0,0,1,1.52.9.17.17,0,0,0,.24,0,.16.16,0,0,0,0-.23,7.16,7.16,0,0,0-1.59-1,.17.17,0,0,0-.17.29Z" transform="translate(-155.27 -77.6)"/><path class="cls-4" d="M215.67,157.45a5.71,5.71,0,0,1,1.55.59.17.17,0,0,0,.17-.29,6,6,0,0,0-1.63-.63c-.21-.05-.3.28-.09.33Z" transform="translate(-155.27 -77.6)"/><path class="cls-4" d="M216.4,160.08a8.11,8.11,0,0,1,2,.39c.2.07.29-.25.09-.32a7.53,7.53,0,0,0-2-.4c-.21,0-.21.32,0,.33Z" transform="translate(-155.27 -77.6)"/><path class="cls-4" d="M216.75,161.48a20.83,20.83,0,0,1,2.8,1.66c.18.13.35-.17.17-.29a20.83,20.83,0,0,0-2.8-1.66c-.2-.1-.37.19-.17.29Z" transform="translate(-155.27 -77.6)"/><path class="cls-4" d="M217.82,163.88a24.32,24.32,0,0,1,3.05.53c.21.05.3-.27.09-.32a25.78,25.78,0,0,0-3.14-.55c-.21,0-.21.31,0,.34Z" transform="translate(-155.27 -77.6)"/><path class="cls-4" d="M219.21,165.78a10.31,10.31,0,0,1,2.28-.28.17.17,0,0,0,0-.34,11.13,11.13,0,0,0-2.37.29c-.21.05-.12.38.09.33Z" transform="translate(-155.27 -77.6)"/><path class="cls-4" d="M220.28,167.45a14.47,14.47,0,0,1,2.82-1.24.17.17,0,0,0-.09-.33,15.31,15.31,0,0,0-2.9,1.28.17.17,0,0,0,.17.29Z" transform="translate(-155.27 -77.6)"/><path class="cls-4" d="M227.28,166.78c-.83.73-1.67,1.46-2.52,2.17-.16.14.07.38.24.24.85-.72,1.69-1.44,2.52-2.18.16-.14-.08-.38-.24-.23Z" transform="translate(-155.27 -77.6)"/><path class="cls-4" d="M228.61,166.81a7.92,7.92,0,0,0-1.55,1.72c-.12.18.17.35.29.17a7.84,7.84,0,0,1,1.5-1.65.17.17,0,1,0-.24-.24Z" transform="translate(-155.27 -77.6)"/><path class="cls-4" d="M230,167.06c-.33.46-.66.9-1,1.34a.17.17,0,0,0,0,.24.16.16,0,0,0,.23,0c.37-.46.73-.93,1.07-1.41a.17.17,0,0,0-.06-.23.16.16,0,0,0-.23.06Z" transform="translate(-155.27 -77.6)"/><path class="cls-4" d="M232.77,167.23a8.55,8.55,0,0,1-.53,2.06.17.17,0,1,0,.33.09,8.36,8.36,0,0,0,.53-2.15.17.17,0,0,0-.16-.17.18.18,0,0,0-.17.17Z" transform="translate(-155.27 -77.6)"/><path class="cls-4" d="M234.4,166.94a5.68,5.68,0,0,1,.19,1.59.17.17,0,0,0,.34,0,6.33,6.33,0,0,0-.2-1.68.17.17,0,0,0-.33.09Z" transform="translate(-155.27 -77.6)"/><path class="cls-4" d="M235.83,166c.31.6.59,1.22.84,1.84a.17.17,0,0,0,.33-.09c-.27-.65-.56-1.29-.88-1.92-.09-.19-.39,0-.29.17Z" transform="translate(-155.27 -77.6)"/><path class="cls-4" d="M236.88,166l1.56,1.63c.15.16.39-.08.24-.24l-1.56-1.63a.17.17,0,0,0-.24.24Z" transform="translate(-155.27 -77.6)"/><path class="cls-4" d="M238.45,164.65a20,20,0,0,1,1.81,2.29c.12.17.41,0,.29-.17a23.53,23.53,0,0,0-1.86-2.36c-.14-.16-.38.08-.24.24Z" transform="translate(-155.27 -77.6)"/><path class="cls-4" d="M239.49,163.51A13.69,13.69,0,0,1,241,166c.09.2.38,0,.29-.17a13.59,13.59,0,0,0-1.59-2.57.16.16,0,0,0-.23.23Z" transform="translate(-155.27 -77.6)"/><path class="cls-4" d="M240.15,162.44a3,3,0,0,1,.76.89c.24.36.47.72.68,1.1.1.19.39,0,.29-.17a12.48,12.48,0,0,0-.72-1.16,3.2,3.2,0,0,0-.84-.95c-.19-.12-.35.17-.17.29Z" transform="translate(-155.27 -77.6)"/><path class="cls-4" d="M240.31,160.23a6.12,6.12,0,0,1,1.61,1.75c.45.64.84,1.33,1.24,2,.1.19.39,0,.29-.17-.42-.72-.84-1.44-1.32-2.12a6.3,6.3,0,0,0-1.65-1.76.17.17,0,0,0-.17.29Z" transform="translate(-155.27 -77.6)"/><path class="cls-4" d="M240.67,158.77a6.57,6.57,0,0,1,2.21,1.45c.16.14.4-.1.24-.24a7.24,7.24,0,0,0-2.36-1.54.17.17,0,0,0-.09.33Z" transform="translate(-155.27 -77.6)"/><path class="cls-4" d="M239.67,157.34a2.22,2.22,0,0,1,1,.48,8,8,0,0,1,.89.75,12.63,12.63,0,0,1,1.42,1.75c.12.18.41,0,.29-.17a12.93,12.93,0,0,0-1.56-1.9,7.1,7.1,0,0,0-1-.77,2.32,2.32,0,0,0-1.12-.47c-.21,0-.21.31,0,.33Z" transform="translate(-155.27 -77.6)"/><path class="cls-4" d="M235,157.39a15.36,15.36,0,0,1,3.62-.64c.21,0,.21-.35,0-.33a15.12,15.12,0,0,0-3.71.65c-.2.06-.11.38.09.32Z" transform="translate(-155.27 -77.6)"/><path class="cls-4" d="M235.16,159.12l2.94.8a.17.17,0,0,0,.09-.33l-2.94-.79a.17.17,0,0,0-.09.32Z" transform="translate(-155.27 -77.6)"/><path class="cls-4" d="M234.71,160.58a17.92,17.92,0,0,1,2.55,1.65.17.17,0,1,0,.17-.29,17.92,17.92,0,0,0-2.55-1.65.17.17,0,0,0-.17.29Z" transform="translate(-155.27 -77.6)"/><path class="cls-4" d="M233.26,161.7a8.87,8.87,0,0,1,1.05,1.31.19.19,0,0,0,.23.06.17.17,0,0,0,.06-.23,9.65,9.65,0,0,0-1.1-1.38c-.15-.16-.39.08-.24.24Z" transform="translate(-155.27 -77.6)"/><path class="cls-4" d="M230.3,164.56a8.39,8.39,0,0,1,.77,1.25.17.17,0,0,0,.23.06.17.17,0,0,0,.06-.23,8.39,8.39,0,0,0-.77-1.25.17.17,0,0,0-.23-.06.16.16,0,0,0-.06.23Z" transform="translate(-155.27 -77.6)"/><path class="cls-4" d="M225.11,164.22l-.53,1a.17.17,0,0,0,.06.23.16.16,0,0,0,.23-.06l.53-1a.18.18,0,0,0-.06-.23.17.17,0,0,0-.23.06Z" transform="translate(-155.27 -77.6)"/><path class="cls-4" d="M222.93,164.58a10.59,10.59,0,0,1-.81,1.06.17.17,0,0,0,0,.24.18.18,0,0,0,.24,0,10.51,10.51,0,0,0,.86-1.13.17.17,0,0,0-.06-.23.18.18,0,0,0-.23.06Z" transform="translate(-155.27 -77.6)"/><path class="cls-4" d="M224.15,160.3l-2.77,0c-.21,0-.21.33,0,.33l2.77,0a.17.17,0,0,0,0-.34Z" transform="translate(-155.27 -77.6)"/><path class="cls-4" d="M223.41,158.61a18.67,18.67,0,0,1-3.27-1c-.2-.08-.29.25-.09.33a20.55,20.55,0,0,0,3.27,1c.21,0,.3-.28.09-.33Z" transform="translate(-155.27 -77.6)"/><path class="cls-4" d="M223.69,155.42l-2.11-1c-.19-.09-.36.2-.17.29l2.11,1c.2.09.37-.2.17-.29Z" transform="translate(-155.27 -77.6)"/><path class="cls-4" d="M225.05,153.29A6.4,6.4,0,0,1,224,152l-1.08-1.53c-.12-.18-.41,0-.29.17l1.11,1.57a6.11,6.11,0,0,0,1.08,1.34c.17.14.41-.1.24-.23Z" transform="translate(-155.27 -77.6)"/><path class="cls-4" d="M226,151.89c0-.5,0-1,0-1.5,0-.25,0-.49,0-.74a1.47,1.47,0,0,1,.18-.65c.11-.18-.18-.35-.29-.17a2.89,2.89,0,0,0-.26,1.45,12.38,12.38,0,0,0,0,1.61c0,.22.35.22.33,0Z" transform="translate(-155.27 -77.6)"/><path class="cls-4" d="M227.79,151.81c.8-1.13,1.66-2.24,2.56-3.3.14-.16-.1-.4-.24-.24-.92,1.09-1.79,2.21-2.61,3.37-.13.18.17.35.29.17Z" transform="translate(-155.27 -77.6)"/><path class="cls-4" d="M230.3,152.1a22.1,22.1,0,0,1,2.93-1.12c.21-.06.12-.39-.09-.32a21.46,21.46,0,0,0-3,1.15c-.2.1,0,.39.17.29Z" transform="translate(-155.27 -77.6)"/><path class="cls-4" d="M228.24,155.85c-.23-.43-.47-.85-.73-1.26l-.4-.6c-.13-.19-.24-.38-.48-.41a.17.17,0,0,0,0,.34c.05,0,.12.13.14.17a2.75,2.75,0,0,1,.19.28c.12.17.23.35.35.53.22.37.44.74.64,1.12.1.19.39,0,.29-.17Z" transform="translate(-155.27 -77.6)"/><path class="cls-4" d="M227,157.51c-.69-.13-1.39-.23-2.1-.31-.09,0-.16.09-.16.17a.17.17,0,0,0,.16.17c.68.08,1.35.17,2,.29a.17.17,0,0,0,.21-.12.16.16,0,0,0-.12-.2Z" transform="translate(-155.27 -77.6)"/><ellipse class="cls-5" cx="47.36" cy="5.04" rx="12.16" ry="3.36"/><path class="cls-6" d="M203.25,141.06a2.7,2.7,0,0,1,0,.49c-.1,2.59-1.47,4.32-2.48,4.32s-2.56-1.9-2.49-4.75a35.7,35.7,0,0,1-3.4-16.37,35.21,35.21,0,0,1,1.65-9.5l7.59,6.63a86.85,86.85,0,0,1-.87,11.55,23.06,23.06,0,0,0-.33,4.82A24.05,24.05,0,0,0,203.25,141.06Z" transform="translate(-155.27 -77.6)"/><path class="cls-6" d="M202.85,164.42l-2.57.27c-.06-.64-.16-1.64-.35-2.84-1-6.19-2.59-8.24-2.73-12a15.35,15.35,0,0,1,1.34-6.72l4.75-1.8c-.25,2.59-.45,5.31-.57,8.14C202.5,154.8,202.58,159.81,202.85,164.42Z" transform="translate(-155.27 -77.6)"/><path class="cls-6" d="M203.43,167.17a.72.72,0,0,1-.69.88h-4.6a1,1,0,0,1,0-.51,1.37,1.37,0,0,1,.79-.72c.45-.24,1-.82,1.43-2.42l2.5,0Z" transform="translate(-155.27 -77.6)"/><path class="cls-6" d="M209.53,115.25c.44,4.94-2.48,8.84-5.37,9.26-3.27.47-7.73-3.36-7.59-9.26l.27-6.6c-.34-.63-.66-1.3-1-2a33.91,33.91,0,0,1-2.79-12.49,22.87,22.87,0,0,1,19.1.2,41,41,0,0,1-1.92,10.57c-.38,1.16-.79,2.25-1.22,3.25Z" transform="translate(-155.27 -77.6)"/><path class="cls-6" d="M206,95.53h-6.34c.24-2.55.49-5.11.74-7.66h5C205.58,90.42,205.77,93,206,95.53Z" transform="translate(-155.27 -77.6)"/><path class="cls-6" d="M215.38,111.57,219,110.3c-.78-2.75-1.54-5-2.13-6.7-2.6-7.3-4.09-8.88-5.64-9.21a3,3,0,0,0-.73-.06l.36,8.5Z" transform="translate(-155.27 -77.6)"/><path class="cls-5" d="M204.86,88.6c0,1.61-.87,2.92-2,2.92S201,90.21,201,88.6s.87-2.92,1.95-2.92S204.86,87,204.86,88.6Z" transform="translate(-155.27 -77.6)"/><path class="cls-6" d="M202.73,90.49A3.73,3.73,0,0,1,199,86.76V81.3a6.7,6.7,0,0,1,3.88-1.14,6.77,6.77,0,0,1,3.59,1.14v5.46A3.74,3.74,0,0,1,202.73,90.49Z" transform="translate(-155.27 -77.6)"/><path class="cls-6" d="M200.15,85.33a1,1,0,1,1-1-1.23A1.14,1.14,0,0,1,200.15,85.33Z" transform="translate(-155.27 -77.6)"/><path class="cls-6" d="M207.36,85.33a1,1,0,1,1-1-1.23A1.14,1.14,0,0,1,207.36,85.33Z" transform="translate(-155.27 -77.6)"/><path class="cls-5" d="M202,95.7a.84.84,0,0,0,1,.52.68.68,0,0,0,.35-.48Z" transform="translate(-155.27 -77.6)"/><path class="cls-5" d="M196.28,95.66a4.17,4.17,0,0,0,1.57.67,4.27,4.27,0,0,0,2.5-.29Z" transform="translate(-155.27 -77.6)"/><path class="cls-5" d="M205,96.1a4.4,4.4,0,0,0,1.68.32,4.2,4.2,0,0,0,2.38-.81Z" transform="translate(-155.27 -77.6)"/><path class="cls-5" d="M205.91,84.05a1.78,1.78,0,0,0-.38-.08,7.67,7.67,0,0,0-1.8.28.75.75,0,0,1-.15-.44.8.8,0,0,1,.09-.4,8.83,8.83,0,0,0,1.26,0,2,2,0,0,1,.81,0,.78.78,0,0,1,.3.13.88.88,0,0,1,.26.72A1.36,1.36,0,0,0,205.91,84.05Z" transform="translate(-155.27 -77.6)"/><path d="M201.82,85.15a1.45,1.45,0,0,0-.81-.45,1.13,1.13,0,0,0-.83.31.08.08,0,1,1-.1-.12,1.21,1.21,0,0,1,.95-.34,1.33,1.33,0,0,1,.85.46.09.09,0,0,1,0,.12Z" transform="translate(-155.27 -77.6)"/><ellipse class="cls-5" cx="45.71" cy="7.42" rx="0.39" ry="0.42"/><path d="M203.73,85.16c-.08,0-.08-.1-.06-.13a1.24,1.24,0,0,1,.92-.44,1.3,1.3,0,0,1,.89.38.08.08,0,1,1-.11.11,1.18,1.18,0,0,0-.78-.33,1.08,1.08,0,0,0-.79.38A.09.09,0,0,1,203.73,85.16Z" transform="translate(-155.27 -77.6)"/><path class="cls-5" d="M204.19,85.13a.39.39,0,1,0,.35-.46A.41.41,0,0,0,204.19,85.13Z" transform="translate(-155.27 -77.6)"/><path class="cls-5" d="M199.71,83.59a1.48,1.48,0,0,1,.38-.07,7.56,7.56,0,0,1,1.8.27.8.8,0,0,0,.15-.44A.8.8,0,0,0,202,83a8.83,8.83,0,0,1-1.26,0,2,2,0,0,0-.81,0,.78.78,0,0,0-.3.13.86.86,0,0,0-.26.72A1.36,1.36,0,0,1,199.71,83.59Z" transform="translate(-155.27 -77.6)"/><path class="cls-5" d="M202.26,87.15a.85.85,0,0,0,.49.19.79.79,0,0,0,.58-.25Z" transform="translate(-155.27 -77.6)"/><path d="M202.56,89.41a.08.08,0,0,1-.08-.06.1.1,0,0,1,.07-.1l1-.13s.09,0,.09.07a.07.07,0,0,1-.07.09l-1,.13Z" transform="translate(-155.27 -77.6)"/><path class="cls-6" d="M234,147.65l-10.31.11a2.56,2.56,0,0,1,0-1.59,2.72,2.72,0,0,1,.24-.47,6.05,6.05,0,0,0,.75-2.47l1.87-.23c2.38,3.15,3.72,3.78,4.52,3.73.55,0,1.09.27,1.65.27.36,0,.8,0,1.06.24A.77.77,0,0,1,234,147.65Z" transform="translate(-155.27 -77.6)"/><path class="cls-6" d="M227,144.67l-2.35-.06c-.06-.64-.16-1.64-.35-2.84-1-6.23-2.56-8.32-2.73-12a15.56,15.56,0,0,1,1.5-7.25l4.59-1.28c-.24,2.63-.44,5.34-.57,8.14C226.86,134.76,226.85,139.87,227,144.67Z" transform="translate(-155.27 -77.6)"/><path class="cls-7" d="M203.76,141.63l-.11,22.75-3.93-.06a70.82,70.82,0,0,1-3-23.75,106.61,106.61,0,0,1-2.09-15.24,22,22,0,0,1,.41-5.5,21.24,21.24,0,0,1,1.53-4.58h13l.39,1.13-4,5.6Q204.85,131.81,203.76,141.63Z" transform="translate(-155.27 -77.6)"/><path class="cls-7" d="M222.17,125l-18.69,1.89q2-5.2,4-10.4a33.38,33.38,0,0,1,15.16,1.27c.93.31,1.8.65,2.63,1a4.82,4.82,0,0,1,3.41,2.81,4,4,0,0,1,0,2.24q-.13,9.57-.26,19.15l-4.38.28c-.77-3.93-1.56-6.95-2.18-9.09s-1.3-4.25-.62-6.91A9.26,9.26,0,0,1,222.17,125Z" transform="translate(-155.27 -77.6)"/><path d="M202.8,163.43a.07.07,0,0,1-.08-.08l-.16-10.18a.08.08,0,0,1,.07-.08.08.08,0,0,1,.09.08l.16,10.18C202.88,163.4,202.85,163.44,202.8,163.43Z" transform="translate(-155.27 -77.6)"/><path d="M202.72,151a.07.07,0,0,1-.08-.08l-.08-10a.08.08,0,0,1,.08-.08.09.09,0,0,1,.08.08l.08,10a.09.09,0,0,1-.08.08Z" transform="translate(-155.27 -77.6)"/><path d="M205.43,126.77c-.08,0-.09-.09-.06-.13l.64-.82a.08.08,0,0,1,.11,0,.07.07,0,0,1,0,.11l-.65.82A.07.07,0,0,1,205.43,126.77Z" transform="translate(-155.27 -77.6)"/><path d="M206.57,125.54a.08.08,0,0,1-.08-.06l-1.72-6a.08.08,0,0,1,.06-.1.08.08,0,0,1,.1.06l1.71,6a.07.07,0,0,1,0,.1Z" transform="translate(-155.27 -77.6)"/><path d="M223.09,123l-15.63-1.34a.07.07,0,0,1-.07-.08s0-.09.08-.08l15.63,1.34a.07.07,0,0,1,.07.09A.08.08,0,0,1,223.09,123Z" transform="translate(-155.27 -77.6)"/><path d="M225.19,142.09a.08.08,0,0,1-.08-.07,45,45,0,0,0-1.57-8.1l-.31-1a15.44,15.44,0,0,1-.54-2,16.26,16.26,0,0,1,.3-7.35.08.08,0,0,1,.1,0,.07.07,0,0,1,0,.09,16.38,16.38,0,0,0-.3,7.28,15.56,15.56,0,0,0,.54,2c.09.31.2.64.31,1a44.61,44.61,0,0,1,1.58,8.14.07.07,0,0,1-.07.08Z" transform="translate(-155.27 -77.6)"/><path d="M223.36,123.08c-.08,0-.09-.08-.07-.12l1.07-1.78a.08.08,0,0,1,.11,0,.09.09,0,0,1,0,.11L223.43,123A.08.08,0,0,1,223.36,123.08Z" transform="translate(-155.27 -77.6)"/><path d="M224.12,123.41c-.09-.07-.08-.12-.05-.15l1.48-1.09a.08.08,0,0,1,.11,0,.07.07,0,0,1,0,.11l-1.47,1.1Z" transform="translate(-155.27 -77.6)"/><path d="M202.27,141.69c-.05,0-1-.75-1-.75a.08.08,0,0,1,0-.11s.07,0,.11,0l.93.73a.08.08,0,0,1,0,.11Z" transform="translate(-155.27 -77.6)"/><path d="M197.48,140.8a.07.07,0,0,1-.07-.06,71.51,71.51,0,0,1-1.6-12A72.67,72.67,0,0,1,196,119s0-.09.08-.08a.09.09,0,0,1,.08.09,72.66,72.66,0,0,0,1.41,21.74.07.07,0,0,1-.06.09Z" transform="translate(-155.27 -77.6)"/><path class="cls-8" d="M209.92,115.51a11.07,11.07,0,0,1-13.85-.15,11.3,11.3,0,0,1-.62-1.49,15.09,15.09,0,0,1-.33-8.29l-2.22,8.58c-.33.32-1.8,1.66-3.2,1.28-1.82-.51-2.26-3.62-2-5.55a7.1,7.1,0,0,1,1.63-3.58c0-.52.21-7.1,2.29-10.47a5.62,5.62,0,0,1,3.1-2.76c.14,0,.4,0,.94-.14,1-.17,1.42-.29,2.11-.4a13.34,13.34,0,0,1,1.83-.18l3.44,6.9,3.69-6.67a15.9,15.9,0,0,1,2,.23,14.86,14.86,0,0,1,4.17,1.42,39.69,39.69,0,0,1,6.48,11.48c.67,1.9,1,3.51.19,4.74-1.1,1.61-3.59,1.58-4.16,1.56l-4.07-7.68Z" transform="translate(-155.27 -77.6)"/><path class="cls-6" d="M190.07,98.73A4.42,4.42,0,0,1,191,97a2.83,2.83,0,0,0-3.84-1.21,4.47,4.47,0,0,0-.46,2.91,4,4,0,0,0,.34,1c.11,1.76.09,3.21.06,4.2-.11,3.75-.62,5.53.39,7.59a6.49,6.49,0,0,0,1.27,1.78,2,2,0,0,0,1.89,1.25,2,2,0,0,0,1.89-1.89,16.75,16.75,0,0,0-.15-1.78s-.08-.63-.21-1.28c-.32-1.54-1.4-5.52-2.08-8.43A4.87,4.87,0,0,1,190.07,98.73Z" transform="translate(-155.27 -77.6)"/><path class="cls-6" d="M212.8,123l2.66.35c.57-1.66,1.12-3,1.53-3.91,1.53-3.42,2.67-4.88,2.52-7.17a6.55,6.55,0,0,0-.51-2.12,2,2,0,0,0-1.27-1.88,2.05,2.05,0,0,0-2.47,1,19.18,19.18,0,0,0-.82,3c-.69,3.69.1,5.65-.95,9A13.43,13.43,0,0,1,212.8,123Z" transform="translate(-155.27 -77.6)"/><path class="cls-5" d="M204.3,168.25h-7a2.15,2.15,0,0,1,.74-1.69,3.31,3.31,0,0,1,.68-.29,3.31,3.31,0,0,0,1.42-1.28c-.27-.83-.3-1.67.09-2s1.77,0,2.87,1.36C203.54,165.66,203.92,167,204.3,168.25Z" transform="translate(-155.27 -77.6)"/><path class="cls-5" d="M234.69,147.89H223.4a3,3,0,0,1,.16-1.81l.26-.5c.24-.43.46-.78.6-1a1.69,1.69,0,0,0,1.31,1,1.77,1.77,0,0,0,1.75-1.6c.07-.83.27-1,.41-1.06.46-.13,1.19,1.1,1.56,1.77l5.24,1.69a1,1,0,0,1,.4,1A1,1,0,0,1,234.69,147.89Z" transform="translate(-155.27 -77.6)"/><path d="M194.9,105.82a.07.07,0,0,1-.08-.07v-2a.07.07,0,0,1,.08-.08.08.08,0,0,1,.08.08v2A.08.08,0,0,1,194.9,105.82Z" transform="translate(-155.27 -77.6)"/><path d="M194.29,102.5a.07.07,0,0,1-.07-.06l-1.53-5.73a.08.08,0,0,1,.06-.1.09.09,0,0,1,.09.06l1.53,5.73a.08.08,0,0,1-.06.1Z" transform="translate(-155.27 -77.6)"/><path d="M211.69,104.35a.08.08,0,0,1-.08-.08l.06-.55s.05-.07.09-.07a.08.08,0,0,1,.07.09l-.06.54A.08.08,0,0,1,211.69,104.35Z" transform="translate(-155.27 -77.6)"/><path d="M211.88,102.47a.09.09,0,0,1-.08-.09l1-7.34a.08.08,0,0,1,.08-.07c.06,0,.09,0,.08.1l-1,7.33A.08.08,0,0,1,211.88,102.47Z" transform="translate(-155.27 -77.6)"/><path class="cls-8" d="M221.29,112.13l-7-1v-3.41l7.08.39Z" transform="translate(-155.27 -77.6)"/><path class="cls-8" d="M191,116.14l-3.2-.54c-.34-1-.68-2-1-3.07,0-.15-.21-1.37.12-1.49.05,0,.25-.06.69.5A3.2,3.2,0,0,0,190,112a3.39,3.39,0,0,0,2.5-2.87,4.48,4.48,0,0,1,1.14,3.7A4.57,4.57,0,0,1,191,116.14Z" transform="translate(-155.27 -77.6)"/><path class="cls-6" d="M213,123.88a13.32,13.32,0,0,0,.2,2.05,6.49,6.49,0,0,0,.72,2.42c.09,0,.16-.38.07-2.07,0,1.42.09,2.13.22,2.14s.46-1.27.86-3.85c-.07,1.05-.13,1.87-.17,2.43s-.1,1.13.05,1.17.12-.08.15-.11a15.53,15.53,0,0,0,.93-3.5q0,2.66.18,2.67c.14,0,.35-1,.65-3.08-.15-1.26-.29-2.52-.44-3.77l-2.32-.42C213.68,121.27,213.32,122.58,213,123.88Z" transform="translate(-155.27 -77.6)"/><path class="cls-6" d="M212.75,123.3q.15.65.33.66c.18,0,.38-.39.6-1.21s.33-1.63.49-2.45l-.12-.34a3.84,3.84,0,0,0-1.36,2.6A3.41,3.41,0,0,0,212.75,123.3Z" transform="translate(-155.27 -77.6)"/><path d="M214,127.66s-.07,0-.08-.08l-.12-1.37a.1.1,0,0,1,.07-.09.09.09,0,0,1,.09.08l.12,1.37s0,.08-.07.09Z" transform="translate(-155.27 -77.6)"/><path d="M213.78,125.77c-.06,0-.09,0-.08-.1l.29-1.44a.08.08,0,0,1,.09-.06.09.09,0,0,1,.07.1l-.29,1.43A.08.08,0,0,1,213.78,125.77Z" transform="translate(-155.27 -77.6)"/><path d="M213,123.8a.09.09,0,0,1-.08-.1l.5-2.28a.08.08,0,0,1,.1-.06.08.08,0,0,1,.06.09l-.51,2.29S213.05,123.8,213,123.8Z" transform="translate(-155.27 -77.6)"/><path d="M189.36,114.32c-.06,0-1.55-1.62-1.55-1.62a.08.08,0,0,1,0-.11.09.09,0,0,1,.12,0l1.49,1.59a.07.07,0,0,1,0,.11A.05.05,0,0,1,189.36,114.32Z" transform="translate(-155.27 -77.6)"/><path d="M190.27,113.9c-.09-.05-.09-.1-.06-.14l2.45-2.78a.08.08,0,0,1,.11,0,.07.07,0,0,1,0,.11l-2.45,2.78Z" transform="translate(-155.27 -77.6)"/><path d="M192.36,113.62c-.07,0-.09-.06-.08-.11l.21-.5a.08.08,0,0,1,.1-.05.09.09,0,0,1,0,.11l-.21.5A.06.06,0,0,1,192.36,113.62Z" transform="translate(-155.27 -77.6)"/><path d="M193.25,110.88a.08.08,0,0,1-.07,0l-.69-1.4a.07.07,0,0,1,0-.1.08.08,0,0,1,.1,0l.69,1.4a.08.08,0,0,1,0,.11Z" transform="translate(-155.27 -77.6)"/><path d="M214.58,108.66a.08.08,0,0,1-.08-.07.09.09,0,0,1,.08-.09l4.41-.22a.09.09,0,0,1,.09.08.08.08,0,0,1-.08.08l-4.41.22Z" transform="translate(-155.27 -77.6)"/><path d="M221.16,110.18l-6.15-.84a.07.07,0,0,1-.07-.09.08.08,0,0,1,.08-.07l6.15.84a.08.08,0,0,1,.06.09A.07.07,0,0,1,221.16,110.18Z" transform="translate(-155.27 -77.6)"/><path d="M218.54,110.54l-2.39-.36a.08.08,0,0,1,0-.16l2.38.36a.1.1,0,0,1,.07.09A.08.08,0,0,1,218.54,110.54Z" transform="translate(-155.27 -77.6)"/><path class="cls-9" d="M204.55,87.52a1.8,1.8,0,0,1-3.18.24,7.75,7.75,0,0,0,1.71,0A7.4,7.4,0,0,0,204.55,87.52Z" transform="translate(-155.27 -77.6)"/><path class="cls-5" d="M198.25,82.78c0,.69.38,1.4.6,1.37s.33-.75.33-1.29-.2-.83-.06-1,.71-.16,1.73,0a18.39,18.39,0,0,0,2.74.38c1.24-.08,1.56-.61,2.08-.35.91.47.59,2.49.78,2.49s.62-3.4.18-3.5c-.12,0-.24.18-.44.14s-.24-.48-.4-.6a4,4,0,0,0-2.83-.36c-2.56.32-3.85.5-4.48,1.51A2,2,0,0,0,198.25,82.78Z" transform="translate(-155.27 -77.6)"/><path class="cls-5" d="M198.92,80.15a4.84,4.84,0,0,1,3.65-2.53A4.56,4.56,0,0,1,207,80Z" transform="translate(-155.27 -77.6)"/><path d="M199.83,79.48a.08.08,0,0,1-.08-.07.09.09,0,0,1,.07-.09l1.54-.12a.1.1,0,0,1,.09.07.08.08,0,0,1-.08.09l-1.53.12Z" transform="translate(-155.27 -77.6)"/><path d="M206,79.49l-3.17-.07a.08.08,0,0,1-.08-.08s0-.07.08-.08l3.17.07a.09.09,0,0,1,.08.08S206,79.49,206,79.49Z" transform="translate(-155.27 -77.6)"/><path d="M186.26,156.24a.6.6,0,0,1-.6-.63l3.12-61.56a.62.62,0,0,1,.64-.57.61.61,0,0,1,.57.63l-3.13,61.56A.61.61,0,0,1,186.26,156.24Z" transform="translate(-155.27 -77.6)"/><path class="cls-10" d="M180.24,168.86a.81.81,0,0,1-.8-.82l.24-9.76a.79.79,0,0,1,.43-.7l5.53-2.84a.81.81,0,0,1,.74,1.43l-5.11,2.62-.23,9.29A.81.81,0,0,1,180.24,168.86Z" transform="translate(-155.27 -77.6)"/><path class="cls-10" d="M191,169.24a.81.81,0,0,1-.8-.86l.71-9.26-4.81-3a.82.82,0,0,1-.26-1.11.81.81,0,0,1,1.1-.26l5.23,3.22a.82.82,0,0,1,.38.74l-.76,9.75A.8.8,0,0,1,191,169.24Z" transform="translate(-155.27 -77.6)"/><path class="cls-10" d="M183.55,168.58a.81.81,0,0,1-.8-.85l.56-11a.8.8,0,1,1,1.6.09l-.56,11A.81.81,0,0,1,183.55,168.58Z" transform="translate(-155.27 -77.6)"/><path class="cls-10" d="M187.7,168.86a.81.81,0,0,1-.8-.84l.55-10.91a.81.81,0,0,1,.84-.76.79.79,0,0,1,.76.84l-.55,10.91A.8.8,0,0,1,187.7,168.86Z" transform="translate(-155.27 -77.6)"/><polygon class="cls-11" points="32.34 79.23 29.25 79.12 29.44 75.51 32.52 75.62 32.34 79.23"/><path class="cls-6" d="M191,97.07c-.26.19-.88-.17-1.39-.83s-.71-1.34-.45-1.54.87.17,1.38.82S191.26,96.87,191,97.07Z" transform="translate(-155.27 -77.6)"/><ellipse class="cls-6" cx="32.94" cy="18.66" rx="1.5" ry="0.43"/><ellipse class="cls-6" cx="32.87" cy="19.34" rx="1.5" ry="0.43"/><ellipse class="cls-6" cx="32.77" cy="19.9" rx="1.5" ry="0.43"/><path d="M188.45,96.7h-1.32a.09.09,0,0,1-.08-.08.08.08,0,0,1,.08-.08h1.32a.08.08,0,1,1,0,.16Z" transform="translate(-155.27 -77.6)"/><path d="M188.28,97.57l-1.5-.12s-.08,0-.07-.09a.08.08,0,0,1,.08-.07l1.49.12a.09.09,0,0,1,.08.09A.08.08,0,0,1,188.28,97.57Z" transform="translate(-155.27 -77.6)"/><path d="M188.21,98.26l-1.13-.08a.07.07,0,0,1-.07-.09.08.08,0,0,1,.08-.07l1.13.08a.08.08,0,0,1,.07.09A.08.08,0,0,1,188.21,98.26Z" transform="translate(-155.27 -77.6)"/></g></svg>