<svg id="Ñëîé_1" data-name="Ñëîé 1" xmlns="http://www.w3.org/2000/svg" viewBox="0 0 1590.3 1041.72"><defs><style>.cls-1{fill:#dce6ff;}.cls-2{fill:#d4e8ff;}.cls-3{fill:#eef7ff;}.cls-4{fill:#cfddf9;}.cls-5{fill:#966338;}.cls-6{fill:#b55a3a;}.cls-7{fill:#f4d4be;}.cls-8{fill:#eb5648;}.cls-9{fill:#894631;}.cls-10{fill:#ee9023;}.cls-11{fill:#6a8530;}.cls-12{fill:#d67513;}.cls-13{fill:#1c8e4a;}.cls-14{fill:#1baf56;}.cls-15{fill:#f39200;}.cls-16{fill:#f9b233;}.cls-17{fill:#d3774f;}.cls-18{fill:#ce3932;}.cls-19{fill:#d1a68f;}.cls-20{fill:#7689d6;}.cls-21{fill:#677cc1;}.cls-22{fill:#662948;}.cls-23{fill:#e57d61;}.cls-24{fill:#f99370;}.cls-25{fill:#1d3f70;}.cls-26{fill:#3a72aa;}.cls-27{fill:#d8b09a;}.cls-28{fill:#ce4abf;}.cls-29{fill:#103663;}.cls-30{fill:#e8c0a6;}.cls-31{fill:#a523a2;}.cls-32{fill:#0f2e54;}.cls-33{fill:#8c4225;}.cls-34{fill:#163860;}.cls-35{fill:#c16256;}.cls-36{fill:#23659b;}.cls-37{fill:#7f341c;}.cls-38{fill:#99452b;}.cls-39{fill:#f9f8f3;}.cls-40{fill:#2fac66;}.cls-41{fill:#269e57;}</style></defs><g id="_12" data-name="12"><path class="cls-1" d="M839,1303.8c-3.15-7.82-6.26-15.92-9.25-24.09l7.37-1.78c3,8.11,6.06,16.16,9.18,23.93Zm1318.21-10.1-7.63-.76c1.27-8.33,2.47-16.72,3.58-24.93l7.64.68C2159.71,1276.93,2158.5,1285.35,2157.23,1293.7ZM821.29,1255.45c-2.69-8.07-5.3-16.28-7.76-24.42l7.47-1.49c2.44,8.09,5,16.26,7.71,24.28ZM2164,1243.64l-7.65-.59c1-8.36,1.87-16.76,2.67-25l7.67.49C2165.85,1226.81,2165,1235.25,2164,1243.64ZM806.51,1206.46c-2.22-8.22-4.34-16.53-6.28-24.7l7.54-1.18c1.94,8.12,4,16.38,6.24,24.54Zm1362.35-13-7.67-.39c.65-8.35,1.22-16.78,1.7-25l7.67.29C2170.09,1176.58,2169.52,1185,2168.86,1193.43ZM794.72,1156.94c-1.71-8.32-3.3-16.71-4.71-24.93l7.62-.86c1.4,8.17,3,16.5,4.67,24.76Zm1377-13.83-7.69-.18c.3-8.39.51-16.82.62-25.07l7.69.07C2172.25,1126.21,2172,1134.68,2171.74,1143.11ZM786.16,1107c-1.15-8.4-2.15-16.85-3-25.11l7.66-.51c.82,8.21,1.81,16.6,2.95,24.94Zm1378.54-14.18c-.09-8.4-.29-16.83-.58-25.07l7.68-.18c.3,8.28.5,16.75.59,25.19ZM781.17,1056.67c-.51-8.45-.84-16.93-1-25.22l7.69-.1c.15,8.22.49,16.63,1,25Zm1381.71-14c-.53-8.39-1.18-16.8-1.93-25l7.67-.46c.75,8.25,1.41,16.72,1.94,25.15Zm-1375-36.35-7.69-.13c.22-8.47.63-17,1.23-25.22l7.67.36C788.55,989.53,788.14,997.94,787.93,1006.33Zm1370.36-13.62c-1-8.38-2.19-16.76-3.46-24.89l7.63-.78c1.27,8.18,2.44,16.61,3.48,25.05ZM791.58,956.42l-7.65-.62c1.05-8.45,2.32-16.89,3.79-25.09l7.6.9C793.87,939.72,792.61,948.07,791.58,956.42Zm1359-13.4c-1.6-8.33-3.36-16.63-5.22-24.67l7.55-1.15c1.88,8.1,3.65,16.47,5.26,24.86Zm-909.19-.88c-10.68-1.37-18.41-5.31-29.11-12.13l4.86-4.84c9.38,6,16.15,9.53,25.07,10.76ZM1268,927.29l-6.84-2.84c3.52-5.6,6.63-13.36,9.24-23.08l7.51,1.33C1275.13,913.09,1271.89,921.13,1268,927.29Zm-78.34-15.19c-6.13-5.54-12.67-11.91-20-19.49l6-3.86c7.24,7.47,13.68,13.74,19.69,19.18ZM800.46,907l-7.55-1.19c2-8.33,4.25-16.64,6.7-24.7l7.46,1.5C804.65,890.55,802.43,898.75,800.46,907Zm1338.63-13.13c-2.27-8.25-4.73-16.42-7.3-24.3l7.44-1.6c2.59,7.95,5.07,16.21,7.36,24.53Zm-856-16.28-7.63-.79c1.18-7.46,2.24-15.62,3.24-24.95l7.66.54C1285.36,861.79,1284.29,870,1283.1,877.57Zm-132.27-5.07c-6.25-6.85-12.73-14.1-18.31-20.35l6.22-3.67c5.57,6.24,12,13.47,18.27,20.3Zm562.82-.51a38.11,38.11,0,0,1-17.46-4.32l4.1-5.28c8.41,4.31,16.68,4.32,25.62.88l3.3,5.63A43,43,0,0,1,1713.65,872Zm-898.4-13.46-7.35-1.82c3.05-8.11,6.4-16.18,10-24l7.21,2.17C821.56,842.58,818.26,850.54,815.25,858.53Zm939.1-5.95-5.65-4.23A224.25,224.25,0,0,0,1767.8,829l6.23,3.66A230.24,230.24,0,0,1,1754.35,852.58Zm-80-4.29a186,186,0,0,1-15.07-22.44l7-2.67a179,179,0,0,0,14.58,21.71Zm449-2.76c-3.1-8.09-6.4-16.06-9.82-23.67l7.22-2.14c3.46,7.71,6.81,15.77,9.94,23.95Zm-1009-13.73c-7-7.81-12.9-14.22-18.45-20.17l6.13-3.77c5.58,6,11.46,12.41,18.52,20.25Zm174.38-4.64-7.67-.41c.58-7.31,1.17-15.53,1.81-25.13l7.68.33C1289.86,811.57,1289.26,819.82,1288.68,827.16ZM836.59,811.79l-7-2.52q6.33-11.65,13.49-22.84l6.82,2.88Q842.82,800.32,836.59,811.79Zm955.05,0-6.42-3.43c5.46-6.74,11.11-13.89,16.82-21.11l6.47,3.38C1802.78,797.86,1797.13,805,1791.64,811.78Zm-144.75-9.23c-3.48-7.09-7.08-14.83-11-23.66l7.23-2.11c3.89,8.76,7.46,16.43,10.91,23.46Zm455.28-3.89c-4.13-7.82-8.5-15.42-13-22.58l6.85-2.83c4.56,7.28,9,15,13.2,23Zm-1025.3-6.82c-7-7-13.47-13.29-19.85-19.13l5.75-4.14c6.47,5.92,13,12.25,20.09,19.36Zm215.22-15.07-7.67-.31c.51-8.34,1-16.69,1.58-25.18l7.68.33C1293.13,760.09,1292.61,768.43,1292.09,776.77Zm533.27-7.24-6.41-3.44c6.42-7.89,12.16-14.72,17.56-20.87l6.26,3.62C1837.43,754.93,1831.73,761.7,1825.36,769.53Zm-960.24-1.76-6.48-3.36a201.41,201.41,0,0,1,18.51-20.62l5.87,4A195.13,195.13,0,0,0,865.12,767.77Zm760.5-12.7c-3.52-8.39-7-16.79-9.9-23.89l7.29-2c2.92,7.1,6.37,15.48,9.89,23.85Zm-589.73-.44a257.55,257.55,0,0,0-23-16.31l4.69-5a264.24,264.24,0,0,1,23.64,16.79Zm1038.36-.26a259.59,259.59,0,0,0-17.17-20.53l6.13-3.76a263.79,263.79,0,0,1,17.59,21ZM904.59,730.83l-4.67-5a100.23,100.23,0,0,1,28.4-12.19l2.25,6A91.36,91.36,0,0,0,904.59,730.83Zm956.72-1.91-6-3.93a271.47,271.47,0,0,1,20.88-19l5.44,4.42A263.29,263.29,0,0,0,1861.31,728.92Zm-565.91-2.46-7.68-.37c.67-9.07,1.33-17.31,2-25.19l7.67.44C1296.72,709.2,1296.06,717.41,1295.4,726.46Zm-307.89-1.3a107,107,0,0,0-28-7.36l1-6.18a115.52,115.52,0,0,1,30.42,8Zm1049.8-10.09a175.4,175.4,0,0,0-22.78-16.16l4.53-5a184,184,0,0,1,23.75,16.84Zm-431.4-7.78c-3.82-9.29-7-16.86-9.91-23.84l7.27-2c3,7,6.1,14.58,9.93,23.88Zm298.76-12.83-4.41-5.12a119.51,119.51,0,0,1,28.39-11.82l2.37,5.94A110.86,110.86,0,0,0,1904.67,694.46Zm83.88-7.65a115.63,115.63,0,0,0-28.64-6l.71-6.21a124.3,124.3,0,0,1,30.92,6.46Zm-688.68-10.53-7.66-.55c1-8.76,2-17.22,3.1-25.15l7.64.7C1301.86,659.16,1300.82,667.57,1299.87,676.28Zm285.9-16.57c-3.72-8.42-7.22-16.12-10.7-23.53l7.18-2.23c3.5,7.45,7,15.19,10.75,23.65Zm-278.9-33.32-7.61-.9c1.55-8.74,3.26-17.14,5.08-25l7.55,1.15C1310.1,609.41,1308.4,617.73,1306.87,626.39Zm256.78-13.52c-4.14-8.07-8.3-15.79-12.38-23l7-2.62c4.13,7.23,8.33,15,12.5,23.17Zm-245.23-35.64-7.46-1.51c2.68-8.72,5.64-16.93,8.79-24.41l7.27,2C1323.94,560.64,1321.05,568.68,1318.42,577.23Zm219.2-9.72c-5.06-7.73-10.22-15-15.35-21.57l6.49-3.34c5.24,6.72,10.5,14.11,15.65,22Zm-199-37-6.9-2.76a123.45,123.45,0,0,1,16.64-21.83l6,3.86A117.09,117.09,0,0,0,1338.57,530.46Zm166.08-4.77a171.12,171.12,0,0,0-20.61-18l5.16-4.63a179.38,179.38,0,0,1,21.46,18.74ZM1375.8,493.55l-4.15-5.26a88.3,88.3,0,0,1,29.82-9.15l1.17,6.17A79.53,79.53,0,0,0,1375.8,493.55Zm84,0a107.29,107.29,0,0,0-27.72-8l1.35-6.15a116.12,116.12,0,0,1,30,8.62Z" transform="translate(-704.85 -479.14)"/><path class="cls-2" d="M985.51,1337.58S798.28,964.16,933,881c90.06-55.58,185.51,66.94,299.45,2.12,101.43-57.7,69.19-233.26,231-257.53,181.89-27.28,221.94,300.16,371.2,255.41,181.13-54.31,361.3,55.94,205.6,457.28Z" transform="translate(-704.85 -479.14)"/><path class="cls-3" d="M2206,1208.84c-63.79-7.68-53.38,61.7-144.32,61.7-83.14,0-109.73-264.21-170.23-188.68-310.11,387.19-130-164.66-376.66-171.67-111.52-3.17-185.83,93.4-213.24,264.38-39.72,154.57-131.84-117.9-226.64-92.56-60.25,16.1-53.35,188.53-136.49,188.53-90.94,0-80.53-69.38-144.32-61.7-68.69,8.27-89.2,131.07-89.2,131.07h1590.3S2274.64,1217.11,2206,1208.84Z" transform="translate(-704.85 -479.14)"/><path class="cls-1" d="M2149.46,1283.94c-58.69-3.28-49.11,26.35-132.77,26.35-76.49,0-74.38-66.4-125.57-80.51-94.26-26-172,105.53-208.51,39.53-69.41-175.15-271.83-263-365.22,0-36.54,66-122-51.78-208.51-39.53-53.25,7.54-49.08,80.51-125.57,80.51-83.66,0-74.08-29.63-132.77-26.35-63.19,3.53-82.06,56-82.06,56h1463S2212.65,1287.47,2149.46,1283.94Z" transform="translate(-704.85 -479.14)"/><path class="cls-4" d="M706,1339.91s-11.16,42,35.07,52.5c63.22,14.38,434.33,52.16,344.18,80.87-50.9,16.21,26,38.21,273.86,46.32s673.24-23.65,530.2-70.63,439.75-11.35,404.25-109.06Z" transform="translate(-704.85 -479.14)"/></g><g id="_11" data-name="11"><polygon class="cls-5" points="553.14 786.18 89.25 786.18 120.8 661.51 521.6 661.51 553.14 786.18"/><rect class="cls-6" x="99.56" y="786.18" width="443.27" height="114.36"/><rect class="cls-6" x="121.11" y="381.6" width="9.46" height="279.9"/><rect class="cls-6" x="511.79" y="381.6" width="9.46" height="279.9"/><polygon class="cls-5" points="553.14 514.65 89.25 514.65 120.8 389.98 521.6 389.98 553.14 514.65"/><path class="cls-7" d="M1206.44,993.79c0,15-11.53,27.06-25.77,27.06s-25.77-12.11-25.77-27.06l-17.52-124.67h44.53l22.42,113.94A28,28,0,0,1,1206.44,993.79Z" transform="translate(-704.85 -479.14)"/><path class="cls-7" d="M914.71,869.12,898.29,986v0l-1.1,7.81c0,15-11.54,27.06-25.77,27.06s-25.77-12.11-25.77-27.06a28,28,0,0,1,2.11-10.73l22.42-113.94Z" transform="translate(-704.85 -479.14)"/><path class="cls-7" d="M1003.78,869.12l-3.46,123.15s0,.07,0,.1l0,1.42c0,15-11.54,27.06-25.77,27.06s-25.77-12.11-25.77-27.06a28.06,28.06,0,0,1,.4-4.71l10.12-120Z" transform="translate(-704.85 -479.14)"/><path class="cls-7" d="M1103.36,993.79c0,15-11.54,27.06-25.77,27.06s-25.77-12.11-25.77-27.06l0-1.42v-.1l-3.47-123.15h44.53l10.12,120A28.06,28.06,0,0,1,1103.36,993.79Z" transform="translate(-704.85 -479.14)"/><path class="cls-8" d="M1258,993.79c0,15-11.54,27.06-25.77,27.06s-25.78-12.11-25.78-27.06l-2.11-10.73-22.42-113.94h44.54S1258,988.91,1258,993.79Z" transform="translate(-704.85 -479.14)"/><path class="cls-8" d="M870.18,869.12,847.76,983.06l-2.11,10.73c0,15-11.54,27.06-25.77,27.06s-25.78-12.11-25.78-27.06c0-4.88,31.55-124.67,31.55-124.67Z" transform="translate(-704.85 -479.14)"/><path class="cls-8" d="M959.25,869.12l-10.12,120-.4,4.71c0,15-11.54,27.06-25.77,27.06s-25.77-12.11-25.77-27.06a27.86,27.86,0,0,1,1.1-7.81v0l16.42-116.84Z" transform="translate(-704.85 -479.14)"/><path class="cls-8" d="M1051.82,993.79c0,15-11.54,27.06-25.77,27.06s-25.78-12.11-25.78-27.06l0-1.42s0-.07,0-.1l3.46-123.15h44.53l3.47,123.15v.1Z" transform="translate(-704.85 -479.14)"/><path class="cls-8" d="M1154.9,993.79c0,15-11.54,27.06-25.77,27.06s-25.77-12.11-25.77-27.06l-.4-4.71-10.12-120h44.54L1153.81,986A28.43,28.43,0,0,1,1154.9,993.79Z" transform="translate(-704.85 -479.14)"/><rect class="cls-6" x="115.03" y="373.23" width="411.99" height="16.75" rx="8.38"/><polygon class="cls-9" points="120.8 661.51 89.25 786.18 243.32 786.18 253.91 661.51 120.8 661.51"/><polygon class="cls-9" points="253.91 661.51 243.32 786.18 398.23 786.18 387.75 661.51 253.91 661.51"/><polygon class="cls-6" points="248.07 786.18 238.57 786.18 249.16 661.51 258.66 661.51 248.07 786.18"/><polygon class="cls-9" points="387.75 661.51 398.23 786.18 553.14 786.18 521.6 661.51 387.75 661.51"/><polygon class="cls-6" points="393.48 786.18 383.01 661.51 392.5 661.51 402.98 786.18 393.48 786.18"/><polygon class="cls-6" points="100.16 740.5 89.25 742.69 120.8 661.51 521.6 661.51 553.14 742.69 542.54 740.35 513.34 665.56 129.48 664.57 100.16 740.5"/><path class="cls-10" d="M932.36,1126.36s16.07-2.74,19.62,34-20.7,44.91-30,35.36Z" transform="translate(-704.85 -479.14)"/><path class="cls-10" d="M922.2,1124.15s-13.5-9.14-32,22.86.24,49.44,12.65,44.6Z" transform="translate(-704.85 -479.14)"/><path class="cls-11" d="M925.13,1126.23c0-.91-.14-1.93-.27-2.89s-.31-1.92-.52-2.84a27.14,27.14,0,0,0-.76-2.69,18.44,18.44,0,0,0-1-2.43,4.5,4.5,0,1,1,8.56-2v.24a28,28,0,0,1-.17,3.58c-.14,1.15-.32,2.28-.56,3.37s-.52,2.17-.84,3.22-.68,2-1.11,3.13a1.72,1.72,0,0,1-3.31-.54Z" transform="translate(-704.85 -479.14)"/><path class="cls-12" d="M928.24,1123.22c9.76,2.11,10.06,33,7,50.92-3.91,23.21-16.14,28-24.72,26.15-9.25-2-16.65-17-11.08-33.91C904.14,1152.22,914.72,1120.31,928.24,1123.22Z" transform="translate(-704.85 -479.14)"/><path class="cls-10" d="M867.38,1131s-19.77-7.61-38,23.88S839.46,1201.43,855,1196Z" transform="translate(-704.85 -479.14)"/><path class="cls-10" d="M881.35,1132.34s20.85-3.76,32.85,30.59-18.67,43.81-32.93,35.51Z" transform="translate(-704.85 -479.14)"/><path class="cls-11" d="M872.61,1132.8a28.33,28.33,0,0,1,.26-6.72,23.67,23.67,0,0,1,.8-3.41,24.33,24.33,0,0,1,1.36-3.42l.19-.41a5.15,5.15,0,1,1,9.31,4.41,5.21,5.21,0,0,1-1.73,2,15.42,15.42,0,0,0-1.87,1.47,17.45,17.45,0,0,0-1.73,1.88,22.08,22.08,0,0,0-1.54,2.2,25,25,0,0,0-1.26,2.38l-.13.27a1.93,1.93,0,0,1-3.66-.68Z" transform="translate(-704.85 -479.14)"/><path class="cls-12" d="M873.87,1129.56c-13.4-1.28-25.26,26-28,42.92-3.57,21.86,10.48,30.06,22.26,31.18,12.72,1.2,27.85-9.7,26.93-26.52C894.28,1163.07,892.44,1131.34,873.87,1129.56Z" transform="translate(-704.85 -479.14)"/><path class="cls-10" d="M917.41,1175.71s15.12-4.24,26.38,20.28-10.71,33.63-21.81,28.5Z" transform="translate(-704.85 -479.14)"/><path class="cls-10" d="M907,1175.71s-15.13-4.24-26.39,20.28,10.71,33.63,21.82,28.5Z" transform="translate(-704.85 -479.14)"/><path class="cls-11" d="M910.6,1176.7a17.62,17.62,0,0,0-.77-1.84,14.72,14.72,0,0,0-1-1.74,11.65,11.65,0,0,0-1.15-1.5,9.67,9.67,0,0,0-1.27-1.22,3.82,3.82,0,1,1,6-4.24l.12.33a17.58,17.58,0,0,1,.76,2.62,18,18,0,0,1,.35,2.57,19,19,0,0,1,0,2.5,18.53,18.53,0,0,1-.29,2.48,1.42,1.42,0,0,1-2.74.25Z" transform="translate(-704.85 -479.14)"/><path class="cls-12" d="M912.72,1174.18c10,0,16.82,21,17.67,33.63,1.11,16.39-9.83,21.46-18.61,21.46-9.46,0-19.87-9.11-18-21.46C895.31,1197.48,898.89,1174.19,912.72,1174.18Z" transform="translate(-704.85 -479.14)"/><ellipse class="cls-13" cx="998.96" cy="1155.82" rx="41.97" ry="36.13" transform="translate(-1226.56 822.98) rotate(-54.66)"/><path class="cls-14" d="M974.68,1190.06a61.22,61.22,0,0,0,13.29-.47,51.06,51.06,0,0,0,12.45-3.41,42.88,42.88,0,0,0,19.13-16c.61-.89,1.21-1.78,1.75-2.71l.85-1.36.78-1.41c.54-.92,1-1.88,1.47-2.84s.87-1.94,1.31-2.91a48,48,0,0,0,2-6c.29-1,.47-2.06.7-3.1s.35-2.1.43-3.15a39.48,39.48,0,0,0-.74-12.8,40.13,40.13,0,0,0-4.88-12.27,27.17,27.17,0,0,1,4.27,5.32,35.11,35.11,0,0,1,3.1,6.19,37.2,37.2,0,0,1,2.46,13.78,38.82,38.82,0,0,1-.7,7,43.56,43.56,0,0,1-1.85,6.85,56.61,56.61,0,0,1-6.41,12.48,43.54,43.54,0,0,1-9.58,10.48,40.21,40.21,0,0,1-12.56,6.63,44.29,44.29,0,0,1-20.67,1.41A34.53,34.53,0,0,1,974.68,1190.06Z" transform="translate(-704.85 -479.14)"/><path class="cls-14" d="M1023.23,1121.59c.1,29.79-20.32,58.82-48.55,68.47A104.39,104.39,0,0,0,1023.23,1121.59Z" transform="translate(-704.85 -479.14)"/><path class="cls-14" d="M1023.23,1121.59c-22,18.42-39.1,41.2-48.55,68.47C972.27,1160,994.58,1129.94,1023.23,1121.59Z" transform="translate(-704.85 -479.14)"/><path class="cls-14" d="M1023.23,1121.59a41,41,0,0,0-13.44-1.16,38.18,38.18,0,0,0-12.68,3.2c-8,3.51-14.38,9.71-19.5,16.84s-8.62,15.25-9.15,23.94a43.2,43.2,0,0,0,1.21,13.06,48.76,48.76,0,0,0,5,12.59,31.06,31.06,0,0,1-4.35-5.46,39.63,39.63,0,0,1-3.28-6.26,39.17,39.17,0,0,1-3-14,40.37,40.37,0,0,1,2.29-14.32,50.23,50.23,0,0,1,6.78-12.76,54.81,54.81,0,0,1,9.8-10.51c.92-.79,1.93-1.48,2.9-2.19.49-.36,1-.66,1.53-1s1-.65,1.56-.93a38,38,0,0,1,6.64-3A35.09,35.09,0,0,1,1023.23,1121.59Z" transform="translate(-704.85 -479.14)"/><path class="cls-10" d="M857.31,1192.24s-22.67-2.48-33,35.31,23.3,45.65,38,35.67Z" transform="translate(-704.85 -479.14)"/><path class="cls-10" d="M872.21,1189.78s20.67-9.64,42.6,22.81-7.37,50.72-24.5,46Z" transform="translate(-704.85 -479.14)"/><path class="cls-11" d="M863.25,1192.66a30.73,30.73,0,0,1-1-3.48,29.37,29.37,0,0,1-.57-3.58,26,26,0,0,1-.1-3.76,24.73,24.73,0,0,1,.47-3.94l.09-.48a5.54,5.54,0,1,1,10.9,2,5.69,5.69,0,0,1-1.25,2.6,14.87,14.87,0,0,0-1.53,2,16.92,16.92,0,0,0-1.29,2.43,21.24,21.24,0,0,0-1,2.71,24.88,24.88,0,0,0-.67,2.82l-.06.31a2.07,2.07,0,0,1-4,.3Z" transform="translate(-704.85 -479.14)"/><path class="cls-12" d="M863.67,1189c-14.3,2.35-19.13,34-17.36,52.37,2.29,23.73,19.17,28.41,31.74,26.33,13.57-2.24,26.32-17.75,20.74-35C894.12,1218.21,883.48,1185.69,863.67,1189Z" transform="translate(-704.85 -479.14)"/><circle class="cls-13" cx="1051.82" cy="1174.18" r="44.91" transform="translate(-916.78 -247.27) rotate(-11.44)"/><path class="cls-14" d="M1051.82,1219.09c41-19.09,43.1-72.41,0-89.82C1102.52,1137.84,1101.88,1208.89,1051.82,1219.09Z" transform="translate(-704.85 -479.14)"/><path class="cls-14" d="M1051.82,1129.27c21.18,24.93,21.34,65,0,89.82A96.57,96.57,0,0,0,1051.82,1129.27Z" transform="translate(-704.85 -479.14)"/><path class="cls-14" d="M1051.82,1129.27c-9.5,29.5-10.48,60.39,0,89.82C1028.35,1195.6,1029.33,1153.1,1051.82,1129.27Z" transform="translate(-704.85 -479.14)"/><path class="cls-14" d="M1051.82,1129.27a56.16,56.16,0,0,0-13.75,6.93,45.31,45.31,0,0,0-10.76,10.26,41.33,41.33,0,0,0-6.44,13,52.66,52.66,0,0,0-2,14.51,47.38,47.38,0,0,0,2,14.4,41.27,41.27,0,0,0,6.68,12.87,51.26,51.26,0,0,0,10.77,10.31,59.19,59.19,0,0,0,6.47,4.13c1.12.64,2.27,1.24,3.44,1.8s2.35,1.11,3.57,1.6a46.72,46.72,0,0,1-15.13-4.8,46.13,46.13,0,0,1-13-9.77,41.67,41.67,0,0,1-8.58-14.21,47.84,47.84,0,0,1-2.59-16.38,51.87,51.87,0,0,1,2.65-16.28,41.46,41.46,0,0,1,8.33-14.32,42.37,42.37,0,0,1,13-9.77,47.34,47.34,0,0,1,7.49-2.87A36.65,36.65,0,0,1,1051.82,1129.27Z" transform="translate(-704.85 -479.14)"/><ellipse class="cls-13" cx="994.26" cy="1219.09" rx="36.13" ry="41.66" transform="translate(-1049.14 -86.5) rotate(-19.11)"/><path class="cls-14" d="M1007.9,1258.46c25.23-26.4,10.34-75.57-27.28-78.73C1022.18,1174.17,1042.71,1236.23,1007.9,1258.46Z" transform="translate(-704.85 -479.14)"/><path class="cls-14" d="M980.62,1179.73c24.21,17,35.9,50.37,27.28,78.73A102.89,102.89,0,0,0,980.62,1179.73Z" transform="translate(-704.85 -479.14)"/><path class="cls-14" d="M980.62,1179.73c2.13,28.39,10.64,55.4,27.28,78.73C982.1,1243.11,970.71,1207.69,980.62,1179.73Z" transform="translate(-704.85 -479.14)"/><path class="cls-14" d="M980.62,1179.73a41.15,41.15,0,0,0-8.75,10.2,37.74,37.74,0,0,0-4.81,12.08c-1.8,8.47-.53,17.26,2.29,25.53s7.38,15.79,14.13,21.21a43.19,43.19,0,0,0,11.31,6.53,48.65,48.65,0,0,0,13.11,3.18,31.55,31.55,0,0,1-6.94.39,40.26,40.26,0,0,1-7-.94,39,39,0,0,1-13.1-5.63,39.8,39.8,0,0,1-10.31-10.11,49.58,49.58,0,0,1-6.44-12.87,54.53,54.53,0,0,1-2.82-14c-.1-1.19-.07-2.41-.08-3.61,0-.6.06-1.21.09-1.81s.07-1.21.16-1.81a36.42,36.42,0,0,1,1.45-7.09A35.09,35.09,0,0,1,980.62,1179.73Z" transform="translate(-704.85 -479.14)"/><path class="cls-15" d="M1117,1186.84c.61.42,1.23.83,1.87,1.23,1.56,1,2.87.18,2.14-1.25l-.65-1.27A5.4,5.4,0,0,0,1117,1186.84Z" transform="translate(-704.85 -479.14)"/><path class="cls-16" d="M1208.18,1129.56c-4,21-30,32.71-48.46,22.33-1.65-.88-7.53-4.21-3.35-5.38C1177.31,1148.74,1192,1142.14,1208.18,1129.56Z" transform="translate(-704.85 -479.14)"/><path class="cls-15" d="M1208.14,1129.59l0,0,0,.13A31.23,31.23,0,0,1,1198,1147a35.52,35.52,0,0,1-22.86,8.74,30.59,30.59,0,0,1-15.37-3.84c.47.1,37.61,7.94,47.75-21.8C1207.7,1129.93,1207.92,1129.76,1208.14,1129.59Z" transform="translate(-704.85 -479.14)"/><path class="cls-16" d="M1204,1146.71c-8.33,14.46-26.72,22.74-42.73,16.75-1.69-.22-3.84-2.29-1.39-3.25,21.18-3.61,36.2-15.64,48.69-33.78A34.11,34.11,0,0,1,1204,1146.71Z" transform="translate(-704.85 -479.14)"/><path class="cls-15" d="M1204,1146.71a38.2,38.2,0,0,1-23.1,17.6,32.89,32.89,0,0,1-16.52.12s34.73.37,43.61-36.77l.69.61v0c0,.18,0,.35,0,.53q0,.63,0,1.26c0,1.13-.09,2.25-.22,3.36A34.58,34.58,0,0,1,1204,1146.71Z" transform="translate(-704.85 -479.14)"/><path class="cls-16" d="M1208.73,1145.82c-4.08,18.19-22.84,32.27-41.53,27.9-1.79-.74-.16-2.19,1-2.45h0c20-8.31,31.86-23.82,39.73-43.63h0A33.87,33.87,0,0,1,1208.73,1145.82Z" transform="translate(-704.85 -479.14)"/><path class="cls-15" d="M1208.73,1145.82a38.07,38.07,0,0,1-20.47,25.46,32.49,32.49,0,0,1-16,3.16c.52-.15,37.6-10.13,36-46,0,0,.13.43.29,1,0,.19.1.38.14.57A33.77,33.77,0,0,1,1208.73,1145.82Z" transform="translate(-704.85 -479.14)"/><path class="cls-16" d="M1202.75,1171.14a33.34,33.34,0,0,1-18.84,10c-1.79.38-9,1.14-4.91-2h0c17.9-12.29,26.46-30.34,29.88-51.29C1217.27,1142,1213.5,1160.16,1202.75,1171.14Z" transform="translate(-704.85 -479.14)"/><path class="cls-15" d="M1202.75,1171.14a33.34,33.34,0,0,1-18.84,10s32.34-11.17,24.92-53.1c0-.07,0-.14.05-.22.33.57.65,1.15.94,1.73C1217,1143.67,1213,1160.55,1202.75,1171.14Z" transform="translate(-704.85 -479.14)"/><path class="cls-16" d="M1198.61,1186.16c-18,7,17-11.38,9.35-58.54C1226,1144.28,1220.5,1176.48,1198.61,1186.16Z" transform="translate(-704.85 -479.14)"/><path class="cls-16" d="M1213.78,1121.68l0,0q-.54.55-1.08,1.2a12.63,12.63,0,0,0-2.73,6.82l-4.2,1.66s.54-7.83,2.77-11.81l.3-.51a9.94,9.94,0,0,1,.88-1.17,2.59,2.59,0,0,1,3.19-.55l.3.16A2.62,2.62,0,0,1,1213.78,1121.68Z" transform="translate(-704.85 -479.14)"/><path class="cls-15" d="M1213.78,1121.68l0,0q-.54.55-1.08,1.2a21,21,0,0,1-4.16-3.33l.3-.51a9.94,9.94,0,0,1,.88-1.17,2.59,2.59,0,0,1,3.19-.55l.3.16A2.62,2.62,0,0,1,1213.78,1121.68Z" transform="translate(-704.85 -479.14)"/><path class="cls-15" d="M1161.24,1163.45h0c-.56-.21-1.11-.43-1.67-.67a1.36,1.36,0,0,1,.28-2.58l.92-.2A2.59,2.59,0,0,1,1161.24,1163.45Z" transform="translate(-704.85 -479.14)"/><path class="cls-15" d="M1169.13,1174.09c-.64-.1-1.28-.22-1.93-.37a1,1,0,0,1-.19-1.89l1.23-.56h0S1170.39,1171.21,1169.13,1174.09Z" transform="translate(-704.85 -479.14)"/><path class="cls-15" d="M1180.56,1181.43c-.59,0-1.17,0-1.76,0a1,1,0,0,1-.59-1.81l.79-.59h0A2,2,0,0,1,1180.56,1181.43Z" transform="translate(-704.85 -479.14)"/><path class="cls-15" d="M1196.09,1187.16c-.53.18-1.06.35-1.6.51a1,1,0,0,1-1.09-1.57l.74-1S1196.22,1185.29,1196.09,1187.16Z" transform="translate(-704.85 -479.14)"/><path class="cls-15" d="M1157,1150.17h0c-.55-.39-1.09-.81-1.62-1.25a1.36,1.36,0,0,1,1-2.41l1.24.1S1159.16,1148,1157,1150.17Z" transform="translate(-704.85 -479.14)"/><path class="cls-15" d="M1198.61,1186.16h0c30.2-25.2,11.32-56.42,11.32-56.42l.08,0C1225.65,1147.11,1219.49,1176.83,1198.61,1186.16Z" transform="translate(-704.85 -479.14)"/><path class="cls-16" d="M1113.61,1199c5.33,21.07,32.34,31.33,50.37,19.73,2.34-1.1,8-6.24,1.81-5.47C1145,1216.4,1130.43,1210.52,1113.61,1199Z" transform="translate(-704.85 -479.14)"/><path class="cls-15" d="M1113.64,1199.05l0,0a.53.53,0,0,0,0,.12,31.73,31.73,0,0,0,11.35,16.92,36,36,0,0,0,23.66,7.49,31,31,0,0,0,15.32-4.8c-.46.13-37.6,10.26-49.62-19.23Z" transform="translate(-704.85 -479.14)"/><path class="cls-16" d="M1118.88,1216.13c9.29,14.14,28.39,21.44,44.23,14.42,1.7-.33,3.76-2.54,1.23-3.37-21.66-2.41-37.57-13.69-51.29-31.31A34.67,34.67,0,0,0,1118.88,1216.13Z" transform="translate(-704.85 -479.14)"/><path class="cls-15" d="M1118.88,1216.13a38.73,38.73,0,0,0,24.42,16.44,33.2,33.2,0,0,0,16.73-.86s-35.13,2.43-46.32-34.63l-.67.66s0,0,0,0c0,.17,0,.35,0,.52,0,.43,0,.86.07,1.28a34.12,34.12,0,0,0,.43,3.39A35,35,0,0,0,1118.88,1216.13Z" transform="translate(-704.85 -479.14)"/><path class="cls-16" d="M1114,1215.5c4.81,16.45,21.25,28.91,38.58,26.82,2.15-.11,9.28-1.49,3.91-3.45h0c-20.74-7.23-33.66-22.22-42.8-41.81h0A34.36,34.36,0,0,0,1114,1215.5Z" transform="translate(-704.85 -479.14)"/><path class="cls-15" d="M1114,1215.5a38.62,38.62,0,0,0,22.22,24.57,33.16,33.16,0,0,0,16.36,2.25c-.54-.13-38.66-8-39.11-44.41,0,0-.11.45-.24,1.08,0,.19-.07.39-.11.58A34.27,34.27,0,0,0,1114,1215.5Z" transform="translate(-704.85 -479.14)"/><path class="cls-16" d="M1121.56,1240.78a33.72,33.72,0,0,0,19.66,9c1.83.28,9.15.63,4.85-2.34h0c-18.84-11.38-28.57-29.14-33.27-50.14C1105.14,1212.16,1110,1230.31,1121.56,1240.78Z" transform="translate(-704.85 -479.14)"/><path class="cls-15" d="M1121.56,1240.78a33.72,33.72,0,0,0,19.66,9s-33.4-9.38-28.37-52.26l-.06-.22c-.3.59-.59,1.2-.85,1.8C1105.49,1213.83,1110.54,1230.67,1121.56,1240.78Z" transform="translate(-704.85 -479.14)"/><path class="cls-16" d="M1126.64,1255.74c18.64,6-17.81-10.44-12.93-58.7C1096.48,1215,1103.91,1247.24,1126.64,1255.74Z" transform="translate(-704.85 -479.14)"/><path class="cls-16" d="M1107.47,1191.37l0,0c.39.35.79.74,1.18,1.15a12.8,12.8,0,0,1,3.16,6.74l4.35,1.43s-1-7.89-3.5-11.79l-.34-.5a11.26,11.26,0,0,0-1-1.13,2.63,2.63,0,0,0-3.26-.36l-.3.18A2.66,2.66,0,0,0,1107.47,1191.37Z" transform="translate(-704.85 -479.14)"/><path class="cls-15" d="M1107.47,1191.37l0,0c.39.35.79.74,1.18,1.15a21.28,21.28,0,0,0,4-3.62l-.34-.5a11.26,11.26,0,0,0-1-1.13,2.63,2.63,0,0,0-3.26-.36l-.3.18A2.66,2.66,0,0,0,1107.47,1191.37Z" transform="translate(-704.85 -479.14)"/><path class="cls-15" d="M1163.12,1230.54h0c.56-.25,1.11-.5,1.66-.78a1.38,1.38,0,0,0-.43-2.59l-.95-.15A2.62,2.62,0,0,0,1163.12,1230.54Z" transform="translate(-704.85 -479.14)"/><path class="cls-15" d="M1155.76,1241.78c.64-.14,1.29-.3,1.93-.49a1,1,0,0,0,.09-1.93l-1.28-.49h0S1154.32,1238.94,1155.76,1241.78Z" transform="translate(-704.85 -479.14)"/><path class="cls-15" d="M1144.63,1249.88c.59,0,1.18,0,1.78-.06a1,1,0,0,0,.49-1.87l-.83-.55h0A2,2,0,0,0,1144.63,1249.88Z" transform="translate(-704.85 -479.14)"/><path class="cls-15" d="M1129.25,1256.6c.54.15,1.09.3,1.65.42a1,1,0,0,0,1-1.65q-.42-.48-.81-1S1129,1254.71,1129.25,1256.6Z" transform="translate(-704.85 -479.14)"/><path class="cls-15" d="M1166.61,1216.85h0c.53-.43,1.05-.88,1.57-1.36a1.38,1.38,0,0,0-1.13-2.38l-1.26.17S1164.31,1214.78,1166.61,1216.85Z" transform="translate(-704.85 -479.14)"/><path class="cls-15" d="M1126.64,1255.74h0c-32.06-23.71-14.8-56.43-14.8-56.43l-.08,0C1097,1217.82,1105,1247.54,1126.64,1255.74Z" transform="translate(-704.85 -479.14)"/><path class="cls-16" d="M1170.49,1177.78c29.4-8-20.63,3.41-35.83-40.3-.14,0,.7-9.43-3-9.47-3,1.21,1.58,6.61.79,9.86C1128.19,1166,1148.29,1182,1170.49,1177.78Z" transform="translate(-704.85 -479.14)"/><path class="cls-15" d="M1176.72,1176.09c.59-.21,1.18-.43,1.77-.67,1.44-.58,1.55-1.87.21-2.08l-1.19-.19A4.64,4.64,0,0,0,1176.72,1176.09Z" transform="translate(-704.85 -479.14)"/><path class="cls-15" d="M1170.49,1177.78c-34.2-2.14-38-39.91-38-39.91C1128.19,1166,1148.29,1182,1170.49,1177.78Z" transform="translate(-704.85 -479.14)"/><path class="cls-16" d="M1153.26,1187.77c31.45,2.57-27.65-6.41-19.9-54.43.27-2,.89-4.46-1.14-5.17-.94-.21-1.35.34-1.52,1.3-.38,2.11.32,6.32-1.26,9C1116.93,1162.05,1125.93,1184.91,1153.26,1187.77Z" transform="translate(-704.85 -479.14)"/><path class="cls-15" d="M1153.26,1187.77c-36.46-8.8-23.82-49.34-23.82-49.34-.62,1.23-1.19,2.45-1.7,3.65C1117.57,1165.84,1127.88,1184.66,1153.26,1187.77Z" transform="translate(-704.85 -479.14)"/><path class="cls-15" d="M1159.34,1188.2c.62,0,1.25,0,1.89-.06,1.54-.09,2.06-1.27.86-1.9-.36-.19-.71-.37-1.06-.57A4.63,4.63,0,0,0,1159.34,1188.2Z" transform="translate(-704.85 -479.14)"/><path class="cls-16" d="M1136.15,1192.83c28.68,10.35-18.83-9-6.11-53.59-.13,0,6-7.3,3-9.44-3.19-.77-2.51,6.31-5,8.51C1108.31,1158.88,1115.59,1183.46,1136.15,1192.83Z" transform="translate(-704.85 -479.14)"/><path class="cls-15" d="M1142.21,1195c.61.17,1.22.32,1.84.47,1.51.35,2.34-.64,1.36-1.58l-.86-.84A4.65,4.65,0,0,0,1142.21,1195Z" transform="translate(-704.85 -479.14)"/><path class="cls-15" d="M1136.15,1192.83c-26.74-21.44-8.12-54.52-8.12-54.52C1108.31,1158.88,1115.59,1183.46,1136.15,1192.83Z" transform="translate(-704.85 -479.14)"/><path class="cls-16" d="M1116.31,1191.07c24.18,20.21-18.89-21.29,15-56,1.37-1.47,3.29-3.13,2.05-4.88-.66-.71-1.3-.5-2,.18-1.52,1.51-3.37,5.36-6.18,6.61C1101.4,1149.13,1095.61,1173,1116.31,1191.07Z" transform="translate(-704.85 -479.14)"/><path class="cls-15" d="M1116.31,1191.07c-24.76-28.18,8.92-54,8.92-54-1.21.65-2.38,1.31-3.49,2C1099.74,1152.6,1097.34,1173.92,1116.31,1191.07Z" transform="translate(-704.85 -479.14)"/><path class="cls-15" d="M1134.5,1132.79s-3.88.41-3.94-1.37c0,0-.69-3.41,1.13-3.41C1133.81,1128,1135,1131.12,1134.5,1132.79Z" transform="translate(-704.85 -479.14)"/><rect class="cls-17" x="89.25" y="742.69" width="463.89" height="143.03"/><rect class="cls-6" x="89.25" y="814.63" width="463.89" height="9.46"/><rect class="cls-6" x="89.25" y="778.37" width="463.89" height="9.46"/><rect class="cls-6" x="89.25" y="847.81" width="463.89" height="9.46"/><path class="cls-18" d="M794.1,993.79h51.55c0,15-11.54,27.06-25.77,27.06S794.1,1008.74,794.1,993.79Z" transform="translate(-704.85 -479.14)"/><path class="cls-19" d="M845.65,993.79h51.54c0,15-11.54,27.06-25.77,27.06S845.65,1008.74,845.65,993.79Z" transform="translate(-704.85 -479.14)"/><path class="cls-18" d="M897.19,993.79h51.54c0,15-11.54,27.06-25.77,27.06S897.19,1008.74,897.19,993.79Z" transform="translate(-704.85 -479.14)"/><path class="cls-19" d="M948.73,993.79h51.54c0,15-11.54,27.06-25.77,27.06S948.73,1008.74,948.73,993.79Z" transform="translate(-704.85 -479.14)"/><path class="cls-18" d="M1000.27,993.79h51.55c0,15-11.54,27.06-25.77,27.06S1000.27,1008.74,1000.27,993.79Z" transform="translate(-704.85 -479.14)"/><path class="cls-19" d="M1051.82,993.79h51.54c0,15-11.54,27.06-25.77,27.06S1051.82,1008.74,1051.82,993.79Z" transform="translate(-704.85 -479.14)"/><path class="cls-18" d="M1103.36,993.79h51.54c0,15-11.54,27.06-25.77,27.06S1103.36,1008.74,1103.36,993.79Z" transform="translate(-704.85 -479.14)"/><path class="cls-19" d="M1154.9,993.79h51.54c0,15-11.53,27.06-25.77,27.06S1154.9,1008.74,1154.9,993.79Z" transform="translate(-704.85 -479.14)"/><path class="cls-18" d="M1258,993.79c0,15-11.54,27.06-25.77,27.06s-25.78-12.11-25.78-27.06Z" transform="translate(-704.85 -479.14)"/><path class="cls-16" d="M1136.42,1204.71c-21.63-16.66,16.18,9.81,43.54-21.12.1.09,2.66-8.06,5.71-6.82,2,2.22-3.55,4.84-4,7.9C1175.52,1209.49,1153.39,1215.79,1136.42,1204.71Z" transform="translate(-704.85 -479.14)"/><path class="cls-15" d="M1131.83,1201.17c-.41-.38-.83-.77-1.23-1.17-1-1-.64-2.08.54-1.79l1,.25A4.09,4.09,0,0,1,1131.83,1201.17Z" transform="translate(-704.85 -479.14)"/><path class="cls-15" d="M1136.42,1204.71c29.09,10,45.21-20,45.21-20C1175.52,1209.49,1153.39,1215.79,1136.42,1204.71Z" transform="translate(-704.85 -479.14)"/><path class="cls-16" d="M1147.27,1218.9c-26.89-8.56,25.36,3.93,35.19-38.29a7.84,7.84,0,0,1,1.26-3.29c.83-1.17,2.83-.62,2.27,1-.4,1.88-2.44,5.13-2,7.86C1186.22,1210.05,1170.91,1225.91,1147.27,1218.9Z" transform="translate(-704.85 -479.14)"/><path class="cls-15" d="M1147.27,1218.9c33.26,5.23,36.69-32.73,36.69-32.73.09,1.23.14,2.44.16,3.61C1184.4,1213,1169.38,1225,1147.27,1218.9Z" transform="translate(-704.85 -479.14)"/><path class="cls-15" d="M1142.09,1217.18c-.52-.22-1-.46-1.54-.71-1.26-.6-1.28-1.76-.07-1.87l1.08-.1A4.18,4.18,0,0,1,1142.09,1217.18Z" transform="translate(-704.85 -479.14)"/><path class="cls-15" d="M1183.14,1177.71s1.34,1.92,2.72,1.11c0,0,1-1.22.06-1.9S1184.15,1176.5,1183.14,1177.71Z" transform="translate(-704.85 -479.14)"/><path class="cls-16" d="M1185.45,1210.3c-24.32-7.06,17.37,3,30.51-33,.11.05-.43-7.86,2.63-7.83,2.52,1.23-1.44,5.39-.82,8.2C1220.87,1201.23,1203.87,1214.15,1185.45,1210.3Z" transform="translate(-704.85 -479.14)"/><path class="cls-15" d="M1180.29,1208.79c-.49-.18-1-.38-1.46-.59-1.19-.5-1.26-1.58-.14-1.73l1-.14A3.89,3.89,0,0,1,1180.29,1208.79Z" transform="translate(-704.85 -479.14)"/><path class="cls-15" d="M1185.45,1210.3c28.52-1.21,32.32-32.6,32.32-32.6C1220.87,1201.23,1203.87,1214.15,1185.45,1210.3Z" transform="translate(-704.85 -479.14)"/><path class="cls-16" d="M1199.63,1218.91c-26.08,1.73,23.34-5.38,17.48-45-.2-1.66-.66-3.72,1-4.29.79-.15,1.12.31,1.25,1.11-.18,3,.41,7.56,2.25,10.55C1229.72,1201.24,1220.82,1216.74,1199.63,1218.91Z" transform="translate(-704.85 -479.14)"/><path class="cls-15" d="M1199.63,1218.91c30.52-6.72,20.66-40.7,20.66-40.7.49,1,1,2.06,1.35,3.07C1229.72,1201.24,1220.82,1216.74,1199.63,1218.91Z" transform="translate(-704.85 -479.14)"/><path class="cls-15" d="M1194.57,1219.17c-.52,0-1-.05-1.57-.09-1.29-.1-1.7-1.09-.69-1.59.3-.15.6-.3.89-.46A3.81,3.81,0,0,1,1194.57,1219.17Z" transform="translate(-704.85 -479.14)"/><path class="cls-15" d="M1216.72,1171.18s1.81,1.2,2.72,0c0,0,.41-1.37-.58-1.65S1217.18,1169.79,1216.72,1171.18Z" transform="translate(-704.85 -479.14)"/><polygon class="cls-6" points="89.25 742.69 92.77 733.63 549.52 733.38 553.14 742.69 89.25 742.69"/><path class="cls-12" d="M892.26,1179.74a1.16,1.16,0,0,1-.63-2.14c.38-.24,9.24-5.77,15.83-3a1.16,1.16,0,0,1,.62,1.52,1.18,1.18,0,0,1-1.53.62c-5.46-2.34-13.59,2.73-13.68,2.78A1.14,1.14,0,0,1,892.26,1179.74Z" transform="translate(-704.85 -479.14)"/><path class="cls-12" d="M910.76,1152.44a1.17,1.17,0,0,1-1-.61c-4.57-8.57-13.37-13.88-13.46-13.93a1.16,1.16,0,0,1-.4-1.59,1.17,1.17,0,0,1,1.59-.41c.38.23,9.44,5.68,14.32,14.83a1.15,1.15,0,0,1-.47,1.57A1.1,1.1,0,0,1,910.76,1152.44Z" transform="translate(-704.85 -479.14)"/><path class="cls-12" d="M898.48,1194.51a1.1,1.1,0,0,1-.62-.19,36.09,36.09,0,0,0-22.72-5.5,1.16,1.16,0,1,1-.36-2.29,37.58,37.58,0,0,1,24.33,5.84,1.16,1.16,0,0,1-.63,2.14Z" transform="translate(-704.85 -479.14)"/><path class="cls-12" d="M943,1195.54a1.17,1.17,0,0,1-1-.67c-5.22-11.13-10.47-15.34-10.52-15.38a1.16,1.16,0,0,1,1.42-1.83c.23.18,5.72,4.53,11.2,16.22a1.16,1.16,0,0,1-.55,1.55A1.25,1.25,0,0,1,943,1195.54Z" transform="translate(-704.85 -479.14)"/></g><g id="_10" data-name="10"><polygon class="cls-20" points="1282.96 209.24 1195.61 324.37 1175.18 275.81 920.62 382.85 885.09 298.37 650.34 397.08 635.16 360.97 906.02 247.07 941.54 331.56 1160 239.7 1139.58 191.14 1282.96 209.24"/><polygon class="cls-21" points="1282.96 209.24 1195.61 324.37 1175.18 275.81 920.62 382.85 885.09 298.37 650.34 397.08 642.53 378.5 893.93 272.78 928.99 356.16 1282.96 209.24"/></g><g id="_9" data-name="9"><path class="cls-22" d="M1382.1,1001.07c12.06-27.55-11.83-57.14-36.29-53.33,0,0-50.24,6.51-29.92,126.79h72.86S1390,1035.84,1382.1,1001.07Z" transform="translate(-704.85 -479.14)"/><path class="cls-23" d="M1485.69,1106.06s8.59-1.21,14-.89l-6.11,12.22s-12.09-5.79-12.66-7.13S1485.69,1106.06,1485.69,1106.06Z" transform="translate(-704.85 -479.14)"/><path class="cls-24" d="M1327,1441.54a4.7,4.7,0,0,1-4.48,3.63h-22a4.73,4.73,0,0,1-4.45-6.08c1.7-5.72,5.63-11.42,4.85-17.55-.16-12,.05-36.22,0-44.08h24.84c-.48,6.73-2.76,33.47-3.52,45C1321.25,1429.45,1327.17,1434.88,1327,1441.54Z" transform="translate(-704.85 -479.14)"/><path class="cls-24" d="M1359.15,1064.19c-5.89,14.64-9.79,38.16,7.69,46.34,26.4,10.49,57.07,8.84,84.08,1,1.5-.47,3-1,4.51-1.53l.21-.07,2.94-.11c7.12-.49,10,9.82,3.72,13.08-.76.38-2,1.2-2.8,1.57-31.29,16.51-86.44,28.77-117.75,7.52-25.45-17.44-27.87-52.69-20.38-80.07C1329.38,1026.19,1367.75,1038.64,1359.15,1064.19Z" transform="translate(-704.85 -479.14)"/><path class="cls-24" d="M1446,1441.54a4,4,0,0,1-4,3.63h-55.07c-.58-5.6,1.31-10.72,1-16.86,0,0,0,0,0,0,.25-16.3-3.08-36.09-4.26-50.84h31.64c-.35,6.29-4.93,32.58-5,43.84,3.36,12.67,21.68,8.73,30.08,13.7C1442.89,1436.39,1446.1,1438.43,1446,1441.54Z" transform="translate(-704.85 -479.14)"/><path class="cls-25" d="M1446.23,1441.54a3.75,3.75,0,0,1-3.75,3.63h-55.57c-.65-5.6.81-11.21,1-16.86,0,0,0,0,0,0a38.19,38.19,0,0,0,0-4.28c17.91,21.64,50.14,1.39,57.95,15.86h0A3.56,3.56,0,0,1,1446.23,1441.54Z" transform="translate(-704.85 -479.14)"/><path class="cls-25" d="M1327.07,1441.54a4.66,4.66,0,0,1-4.56,3.63h-22c-6.39-.44-4.88-7.46-2.35-11.48a22.49,22.49,0,0,1,26.74,0C1326.09,1436,1327.48,1438.82,1327.07,1441.54Z" transform="translate(-704.85 -479.14)"/><path class="cls-24" d="M1366,1031.21c27.74,5.85,44.39,33.19,51.51,58.63,4.56,15.92,5.36,32.59,9.11,48.68,4.29,20.25,12,47.24,19.76,62.93,4.12,8.35-4.82,16.19-11.31,9a287.41,287.41,0,0,1-35-57.62c-6.89-14.95-11.6-31-16.79-46.55-4.79-12.54-11.14-25.62-22-32.8a15.91,15.91,0,0,0-3-1.49c.37.1.84.16,1.22.23C1332.69,1067.88,1339.16,1027.08,1366,1031.21Z" transform="translate(-704.85 -479.14)"/><path class="cls-26" d="M1442.46,1192.93a35.68,35.68,0,0,1-14,9.71c-9.54-12.45-22-28.51-29.49-42.78-11.83-33.21-24.74-100.22-31.41-129.14,33,5.51,46.94,41.67,56.06,80.53,2.7,11.53,5,23.3,7.2,34.56C1434.32,1163.75,1437.71,1180.44,1442.46,1192.93Z" transform="translate(-704.85 -479.14)"/><path class="cls-8" d="M1295.57,1420s17.9,6.63,30.35,1.2c7.57-40.44,29.51-122.05,37-200.87,0-3.18,24.7,110.87,18.39,198.31,7.89,2.79,25.06,7.06,33,.45,5.76-41.17,21.19-157.85-2.72-281.52,0,0-50.76,6.39-95.72-5.32,0,0-19.62,33.83-14.67,106.19C1305.34,1308.64,1302.25,1378.54,1295.57,1420Z" transform="translate(-704.85 -479.14)"/><path class="cls-23" d="M1652.36,1038.89C1645.6,1049,1634.2,1064,1627,1074c-16.72,22.65-28.55,43.72-57.51,52.17-17.34,5.28-35.21,4.87-52.24,1a118.41,118.41,0,0,1-23.31-7.87,7.43,7.43,0,0,1,3.24-14.18c27.55.38,61.22-1.68,77.33-27.09,1.7-2.88,3.25-5.84,5-8.71,11.8-20.13,25.36-39.54,42.1-55.92C1639,995,1667,1018.41,1652.36,1038.89Z" transform="translate(-704.85 -479.14)"/><path class="cls-26" d="M1415.8,1160.81c-26.17,16.42-89,7.74-110.09,1.65-4.08-11,4.49-25,5.57-39.08a31.14,31.14,0,0,0-.23-7.47,91.81,91.81,0,0,1-1.11-13.86c-.2-33.2,17.17-63.39,37.17-70.56,0-.11,20.41-.77,20.41-.77,10.35,7.37,19.42,15.61,29.41,29.78,15.1,21.4,3.74,31.89,8.14,52.2C1406,1122.55,1422,1156.16,1415.8,1160.81Z" transform="translate(-704.85 -479.14)"/><path class="cls-27" d="M1347.13,1031.48l-.07,0C1347.06,1031.35,1347.08,1031.34,1347.13,1031.48Z" transform="translate(-704.85 -479.14)"/><path class="cls-28" d="M1619.68,1087.45q-.67,3.06-1.57,5.9c-8.91,28.49-33.89,38.76-59.47,40.07-24.07,1.24-48.67-5.46-60.93-12.35,4.64-6.1,2-15.9,2-15.9,90.94-2.82,80.07-81.76,128-98C1627.68,1007.21,1630.46,1052.39,1619.68,1087.45Z" transform="translate(-704.85 -479.14)"/><path class="cls-24" d="M1675.54,1441.71l.87-.42c0,.57.75,2.54,1.35,2.54l25.65.5c.61,0,1-1.07,1-1.64l2.19-.59c0-3.59-.32-4.9-2-7.68-6.24-7.67,1.2-42.45,1-51.53,1.23-2.53-26.92-.51-27.41-1.12a1.05,1.05,0,0,0-1.09,1.11c-.28,9,6.73,43.92.76,51.52C1676.13,1437.19,1675.53,1438.12,1675.54,1441.71Z" transform="translate(-704.85 -479.14)"/><path class="cls-24" d="M1564.36,1445.17h51.09c4.38-.16,4.46-4.31,3.6-7.73-2.81-11.9,2.16-39.24,3.08-51.48a3.9,3.9,0,0,0-4-4.19c-37.21-.14-25.67-4-22.47,34.89,1.58,14.41-14.64,15.39-24.38,17.31-4,.94-8.27,2.42-10.23,5.25A3.8,3.8,0,0,0,1564.36,1445.17Z" transform="translate(-704.85 -479.14)"/><path class="cls-29" d="M1621,1440.21c-.16,2.44-1.43,5-4.28,5h-53c-13.23-3.82,8.11-21,31.83-19.68,1.89.42,8.87,1.71,19.44.34C1620.8,1425.19,1621.25,1435.21,1621,1440.21Z" transform="translate(-704.85 -479.14)"/><path class="cls-29" d="M1702.52,1445.17h-22.65c-10.92-1.15-3.21-21.3,11.32-19.81C1705.81,1423.59,1713.39,1444.1,1702.52,1445.17Z" transform="translate(-704.85 -479.14)"/><path class="cls-30" d="M1576.36,1438.49a1.07,1.07,0,0,1-1-.66,11.72,11.72,0,0,0-5.88-6.19,1.09,1.09,0,0,1,.76-2.05,13.74,13.74,0,0,1,7.12,7.38A1.09,1.09,0,0,1,1576.36,1438.49Z" transform="translate(-704.85 -479.14)"/><path class="cls-30" d="M1585.11,1437.5a1.09,1.09,0,0,1-1-.75,15,15,0,0,0-6.92-8,1.09,1.09,0,0,1,1-2,17,17,0,0,1,8,9.25A1.09,1.09,0,0,1,1585.11,1437.5Z" transform="translate(-704.85 -479.14)"/><path class="cls-30" d="M1595.06,1436.36a1.11,1.11,0,0,1-1-.71,19.16,19.16,0,0,0-7-8.76,1.09,1.09,0,0,1,1.15-1.85,21.22,21.22,0,0,1,7.9,9.85A1.1,1.1,0,0,1,1595.06,1436.36Z" transform="translate(-704.85 -479.14)"/><path class="cls-31" d="M1619.68,1087.45q-.73,3-1.57,5.9c-8.91,28.49-33.89,38.76-59.47,40.07,2.51-1.18,18.3-9.56,22.82-35.88,4.92-28.64,23.62-58.4,23.62-58.4Z" transform="translate(-704.85 -479.14)"/><path class="cls-30" d="M1699.31,1431.7c-8.51-4.56-16.38,1.47-17.44-.66a1.09,1.09,0,0,1,.57-1.43c.4-.17,9.84-4.09,17.4.05A1.09,1.09,0,0,1,1699.31,1431.7Z" transform="translate(-704.85 -479.14)"/><path class="cls-32" d="M1560,1440.21h61a12.49,12.49,0,0,1-1.68,5h-55.6A3.72,3.72,0,0,1,1560,1440.21Z" transform="translate(-704.85 -479.14)"/><path class="cls-32" d="M1702.52,1445.17h-22.65a4.84,4.84,0,0,1-5-5h32.69A4.84,4.84,0,0,1,1702.52,1445.17Z" transform="translate(-704.85 -479.14)"/><path class="cls-33" d="M1627.49,949.55s-2.89-16.31,11.42-21.59l9,6.79Z" transform="translate(-704.85 -479.14)"/><path class="cls-25" d="M1709.13,1418.11s-24.15,5.49-36.6-.41c-6.47-38-24.45-143.93-30.72-216.51-.24,4.24-13.39,174.89-15.9,216.51-8.6,2.7-25.87,5.94-35.54-.58-4.34-43.8-18.28-188,2.72-305.84,0,0,57.57,6,102.53-6.72C1708,1141.85,1711.27,1373.22,1709.13,1418.11Z" transform="translate(-704.85 -479.14)"/><path class="cls-34" d="M1599.67,1413.35c-8.74-83.37-3.87-189.1,5.7-240.7,2.87,1.11-3.34,27.56-5.13,71.82C1596.53,1283.39,1598.8,1348.71,1599.67,1413.35Z" transform="translate(-704.85 -479.14)"/><path class="cls-34" d="M1690.13,1413.35c-7.67-130-27.93-250.23-26-252.12C1666.89,1161.63,1687.27,1283.85,1690.13,1413.35Z" transform="translate(-704.85 -479.14)"/><path class="cls-24" d="M1637.19,1004.18c-1.26-10.95.45-26.75,2-33.26a9.54,9.54,0,0,1,6.15-7c7.23-2.52,15.79,3.65,13.56,11.8-.65-.42-2.75,22.82-1.3,29.28C1676.66,1010.67,1619.26,1029.5,1637.19,1004.18Z" transform="translate(-704.85 -479.14)"/><path class="cls-23" d="M1659.08,974.61a9.87,9.87,0,0,1-.2,1.06c-.47-.32-1.79,12.51-1.8,21.81-8.75,4-18.5,2.23-20.28,1.86.45-12.58-.85-32.3,8.52-35.47C1652.14,961,1660.28,967.17,1659.08,974.61Z" transform="translate(-704.85 -479.14)"/><path class="cls-24" d="M1672.82,966c-1.47,9.11-4.55,19.38-11.74,25.41h0a22.73,22.73,0,0,1-10.2,4.69c-21.26,6-46.2-18.77-29.58-36.77,6.18-5.79,7.08-15,12.13-21,7-10.15,22.36-9.63,30.65-1.34C1671.56,944.5,1674.12,954.82,1672.82,966Z" transform="translate(-704.85 -479.14)"/><path class="cls-35" d="M1638.05,960.42a1.38,1.38,0,0,1,2.46-1.25A1.38,1.38,0,0,1,1638.05,960.42Z" transform="translate(-704.85 -479.14)"/><path class="cls-35" d="M1626.45,958.47a1.38,1.38,0,0,1,2.46-1.25A1.38,1.38,0,0,1,1626.45,958.47Z" transform="translate(-704.85 -479.14)"/><path class="cls-23" d="M1672.82,966c-1.47,9.11-4.55,19.38-11.74,25.41h0a19.5,19.5,0,0,1-1.87,1.37c5.48-5.43,8.65-17.09,8.65-17.09l-1.29-9.87c-8.84-9-5-19-5-19-14.78,4.15-19.77-5-19.77-5-4.67.6-9.59-1.76-9.59-1.76,6.5-11.54,23-12.08,31.9-3.08C1671.56,944.5,1674.12,954.82,1672.82,966Z" transform="translate(-704.85 -479.14)"/><path class="cls-24" d="M1699.48,1174.65a62.92,62.92,0,0,1,0,7.93l10,3.65,5.3-2.22a20.59,20.59,0,0,1,1.29-8.85C1717.86,1170.42,1699.48,1174.65,1699.48,1174.65Z" transform="translate(-704.85 -479.14)"/><path class="cls-35" d="M1630.84,970.46c-2.53,0-6.46-1.73-3.26-4,2.6-1.41,4.52-6.81,4.54-6.87a.52.52,0,0,1,1,.35c-.08.23-2.07,5.83-5,7.44-2,1.25,2.21,2.46,4,1.84a.53.53,0,0,1,.66.34C1632.85,970.53,1631.49,970.39,1630.84,970.46Z" transform="translate(-704.85 -479.14)"/><path class="cls-28" d="M1703.62,1169.89c-3.11,2.66-7.78,4.73-13.49,6.3h0c-32.74,9-99.87,1.17-105.41-10.37-4.43-9.23-4.73-38,1.53-68.58,8.28-42.44,21.3-72.33,50.93-93-.15.6-3.93,16.31,20.4.75l7.48,1.34C1667.58,1047,1722.41,1151.08,1703.62,1169.89Z" transform="translate(-704.85 -479.14)"/><path class="cls-33" d="M1666,928l-.14.31c-4.93-5.84-13.89-8.7-15.94-14.64a25.75,25.75,0,0,0-2.68,12.06,47.38,47.38,0,0,1-6.29-8.74,14.09,14.09,0,0,0-4.09,8.1,25.23,25.23,0,0,0-14.4,1.41c4,11.13,13.14,13.59,20.35,13.63,5.79,5.54,14.92,8.15,23.88,3.18-4.93,4.14-5.52,17,8,26.08a49.39,49.39,0,0,0,1.84-15.11C1689.12,932.32,1666,928,1666,928Z" transform="translate(-704.85 -479.14)"/><path class="cls-24" d="M1678.61,970.64c-2.37,10.39-14.79,7.76-12.75-2.69C1668.23,957.56,1680.65,960.19,1678.61,970.64Z" transform="translate(-704.85 -479.14)"/><path class="cls-35" d="M1675.32,972.78a.52.52,0,0,1-.5-.67c1.93-5.6-.36-7.79-4.18-6.3a.52.52,0,0,1-.38-1c4.35-1.78,7.92,1,5.56,7.57A.52.52,0,0,1,1675.32,972.78Z" transform="translate(-704.85 -479.14)"/><path class="cls-35" d="M1670.45,972.05c-1.62-.13,1.47-5.13,5.43-5.4a.52.52,0,0,1,.55.49.53.53,0,0,1-.49.56C1671.91,968.11,1671.4,971.92,1670.45,972.05Z" transform="translate(-704.85 -479.14)"/><path class="cls-34" d="M1625.91,1417.7c-.2-3.66,15.9-216.51,15.9-216.51s-7.6,3.81-9.41,26.41c-1.57,19.65-11,150.23-13.37,184a53.41,53.41,0,0,1-29.46-2.11c.5,4.94.8,7.63.8,7.63,7.92,5.34,21,4.13,30.13,2,2.32-.51,4.12-1.05,4.93-1.3Z" transform="translate(-704.85 -479.14)"/><path class="cls-34" d="M1709.13,1418.11s-24.15,5.49-36.6-.41c0,0-.51-2.94-1.41-8.21,0,0,16.46,4.46,37.75,0C1709,1414.62,1709.06,1417.68,1709.13,1418.11Z" transform="translate(-704.85 -479.14)"/><path class="cls-18" d="M1381.29,1418.61s23.08,8.59,33,.45c0,0,.45-2.72,1.16-7.74,0,0-17.32,6-33.71-2.88h0Q1381.59,1413.55,1381.29,1418.61Z" transform="translate(-704.85 -479.14)"/><path class="cls-18" d="M1339.39,1160.41c-7.13,18.18-23.71,25.5-24.58,27.07-.07.23-6.85,24.29-5.28,71.9,2.82,45.36-4.29,116-8.3,151.86-1.3-.39-2.64-.84-4-1.35-.54,4-1.09,7.42-1.63,10.08,0,0,17.9,6.63,30.35,1.2,0,0,.72-3.54,2-9.85,0,0-9.35,4.87-25.87.15,14.92-46.9,4.57-184,14.82-222.92,2.89-1.59,18.4-10.76,24.64-27.35C1342,1159.81,1339.87,1159.09,1339.39,1160.41Z" transform="translate(-704.85 -479.14)"/><path class="cls-18" d="M1381.78,1408.45q-.19,5.1-.49,10.16s2.56,1,6.35,1.92c-.08-60.76,0-158.82-24.74-200.23C1362.9,1220.3,1385.33,1313.14,1381.78,1408.45Z" transform="translate(-704.85 -479.14)"/><path class="cls-24" d="M1455.28,1110.13c9.6-5,19.66-3.88,34.66,1.5,5.21.64,8.71,10.41.33,12-12.24,2.32-28-.89-28-.89Z" transform="translate(-704.85 -479.14)"/><path class="cls-23" d="M1470.87,1112.33a24,24,0,0,1,17.28-6.32c4-.11,6.72,5.85,2.73,5.84-5-.84-12.9.14-17.15,3C1471.92,1116.72,1469,1114.27,1470.87,1112.33Z" transform="translate(-704.85 -479.14)"/><path class="cls-23" d="M1475.36,1123.71c-1.92,3.42-6,1.06-4-2.31S1477.35,1120.34,1475.36,1123.71Z" transform="translate(-704.85 -479.14)"/><path class="cls-23" d="M1479.42,1124.13c-1.92,3.41-6,1-4-2.32S1481.42,1120.75,1479.42,1124.13Z" transform="translate(-704.85 -479.14)"/><path class="cls-23" d="M1483.57,1124.54c-1.92,3.41-6,1.06-4-2.32S1485.56,1121.17,1483.57,1124.54Z" transform="translate(-704.85 -479.14)"/><path class="cls-23" d="M1487.79,1124.54c-1.93,3.41-6,1.06-4-2.32S1489.78,1121.17,1487.79,1124.54Z" transform="translate(-704.85 -479.14)"/><path class="cls-36" d="M1430.78,1145.81v0s-9.37,3.71-14.36,4.54-17.78-24.16-17.78-24.16l8.28-15a105,105,0,0,0,16.65,0h0C1426.28,1122.78,1428.56,1134.55,1430.78,1145.81Z" transform="translate(-704.85 -479.14)"/><path class="cls-36" d="M1335,1122.1s-4.61,21.15-12.16,15.5a42.52,42.52,0,0,1-11.55-14.22h0a31.14,31.14,0,0,0-.23-7.47,91.81,91.81,0,0,1-1.11-13.86Z" transform="translate(-704.85 -479.14)"/><path class="cls-31" d="M1665.06,1006.28c.13,9.28-23.68,17.47-25,17.48l-2.85-8.44c-3.66.9-6.89,6-6.89,6-10.5-10.43-.9-18.58,6.89-17.17a0,0,0,0,1,0,0c-.14.6-1.8,14.37,20.32.28C1660.34,1003.15,1665.06,1006.28,1665.06,1006.28Z" transform="translate(-704.85 -479.14)"/><rect class="cls-33" x="1653.67" y="1217.37" width="113.9" height="83.03" transform="translate(-867.06 -222.01) rotate(-8.21)"/><polygon class="cls-37" points="955.34 828.97 948.83 825.25 936.96 743.07 943.47 746.79 955.34 828.97"/><polygon class="cls-37" points="936.96 743.07 1049.73 726.83 1056.21 730.53 943.47 746.79 936.96 743.07"/><path class="cls-33" d="M1726.17,1210.06c-11.05-22.67-39.62-16.27-46,6.63-.11,1.87,1.14,3.55,2.76,3.31,1.95-.33,2.18-2.7,3-4.14,4.61-10.44,17.19-17.24,27.65-11.2a22.69,22.69,0,0,1,8.14,7.87C1723.42,1215.28,1726.67,1212.78,1726.17,1210.06Z" transform="translate(-704.85 -479.14)"/><polygon class="cls-38" points="943.47 746.79 1005.77 779.75 1056.21 730.53 943.47 746.79"/><path class="cls-7" d="M1712.26,1265.91c-2.58.75-5.56-.48-6-3.35-.38-3.42-2.6-9.94,2.67-10.69,2.59-.76,5.57.47,6,3.35C1715.32,1258.64,1717.53,1265.15,1712.26,1265.91Z" transform="translate(-704.85 -479.14)"/><path class="cls-24" d="M1699.51,1182.58s-5.19,11.15-5.19,23.21l17.14,1c5.57-8.06,3.32-22.76,3.32-22.76Z" transform="translate(-704.85 -479.14)"/><path class="cls-31" d="M1703.62,1169.89c-3.11,2.66-7.78,4.73-13.49,6.3,1.33-16.42-1.34-42.39-12.88-71.63s-11-59.32-11-59.32l8.51.64C1689.7,1087.77,1717.31,1158.21,1703.62,1169.89Z" transform="translate(-704.85 -479.14)"/><path class="cls-28" d="M1665.06,1006.28c62.48,13.81,79.89,112.15,49.72,177.73,0,0-6.7,2.22-15.27-1.43,0,0-.3-46.87-19.25-84.66S1665.06,1006.28,1665.06,1006.28Z" transform="translate(-704.85 -479.14)"/><path class="cls-32" d="M1327.07,1441.54a4.66,4.66,0,0,1-4.56,3.63h-22a4.67,4.67,0,0,1-4.55-3.63Z" transform="translate(-704.85 -479.14)"/><path class="cls-32" d="M1446.23,1441.54a3.75,3.75,0,0,1-3.75,3.63h-55.57a16.78,16.78,0,0,1-.18-3.63Z" transform="translate(-704.85 -479.14)"/><path class="cls-36" d="M1442.81,1193.35a32.17,32.17,0,0,1-13.67,10,10.16,10.16,0,0,1-3.91-4.79s11.92-4.32,15.08-11.47A11.31,11.31,0,0,1,1442.81,1193.35Z" transform="translate(-704.85 -479.14)"/><path class="cls-25" d="M1429.85,1236.5c-6.14-55.9-11-78.89-13.51-87.88-2.66-11.37-11.61-27.83-9.42-52.85,1.83-20.87-5-29.52-7.39-31.84h0c-8.32-15.35-26.63-32-26.63-32a6.05,6.05,0,0,0-5.38-1.22c15.56,18.55,20.4,32,20.4,32h0a218.24,218.24,0,0,0-32.7,1.57c-3.67-16.89-8.11-32.77-8.11-32.77a5.67,5.67,0,0,0-4.77,1.07c.28,21.47,2.38,33.28,2.38,33.28h0c-7.48,1.34-11.74,2.59-11.74,2.59-4.23,29.24-11.78,80.27-11.78,80.27h0c-9.34-1.1-15.27-2.15-15.27-2.15a6.53,6.53,0,0,0-1.27,7.89c4,3.64,13,6.79,13,6.79-.89,9.34-2.32,131.62,4.62,166.24,1,5.06,2.2,8.25,3.6,8.94,11,5.45,103.58,4.39,104.45-2.88.17-1.44.53-3.58,1-6.58C1433,1314.71,1435.52,1288.13,1429.85,1236.5Z" transform="translate(-704.85 -479.14)"/><path class="cls-26" d="M1451.91,1128.37c-39.25,32-116.37,37.52-140.67-10.06-22.35-44.19,7-80.57,31.1-85.75,0,0-.59,42.43,11.4,63.89,12.87,23,72,20.19,94.21,15.81C1456,1120.28,1451.91,1128.37,1451.91,1128.37Z" transform="translate(-704.85 -479.14)"/><path class="cls-36" d="M1453.39,1127.61c-2,2.32-4.44,2.9-5.93,3.92,1.81-13.39-5-18.35-5-18.35a12.43,12.43,0,0,1,6.3-.92C1455.28,1118.53,1453.39,1127.61,1453.39,1127.61Z" transform="translate(-704.85 -479.14)"/><path class="cls-23" d="M1489.54,1115.6c-5-.17-12.37,0-10-1.34.09,0,9,.87,14.81.28C1496.54,1115.83,1490.36,1115.54,1489.54,1115.6Z" transform="translate(-704.85 -479.14)"/><path class="cls-23" d="M1487.75,1119.19c-.12,0-10.62,0-7.9-1.45a47.8,47.8,0,0,0,15.36,0C1497.31,1118.78,1492.52,1119.11,1487.75,1119.19Z" transform="translate(-704.85 -479.14)"/><path class="cls-24" d="M1698.8,1206.77c-1.82,3.47-6,1.23-4.07-2.2S1700.7,1203.34,1698.8,1206.77Z" transform="translate(-704.85 -479.14)"/><path class="cls-24" d="M1702.88,1207.07c-1.83,3.47-6,1.23-4.08-2.2S1704.77,1203.64,1702.88,1207.07Z" transform="translate(-704.85 -479.14)"/><path class="cls-24" d="M1707,1207.36c-1.83,3.47-6,1.23-4.08-2.2S1708.93,1203.93,1707,1207.36Z" transform="translate(-704.85 -479.14)"/><path class="cls-24" d="M1711.25,1207.24c-1.82,3.47-6,1.23-4.07-2.2S1713.15,1203.81,1711.25,1207.24Z" transform="translate(-704.85 -479.14)"/><path class="cls-24" d="M1367.52,1030.72c1.26-11-.46-26.75-2-33.26-2.91-12.84-23-8-19.72,4.75.66-.42,1.29,29.28,1.29,29.28C1350.38,1036.69,1367.52,1039.09,1367.52,1030.72Z" transform="translate(-704.85 -479.14)"/><path class="cls-23" d="M1347,1024.33c8.75,4,19.18,1.92,21,1.55C1370.82,981.32,1348.09,976.77,1347,1024.33Z" transform="translate(-704.85 -479.14)"/><path class="cls-24" d="M1331.89,992.58c1.46,9.11,4.54,19.38,11.74,25.41h0a22.84,22.84,0,0,0,10.2,4.69c21.27,5.94,46.2-18.77,29.58-36.77-6-5.58-7.31-15.47-12.13-21-7-10.15-22.35-9.63-30.65-1.34C1333.15,971,1330.59,981.36,1331.89,992.58Z" transform="translate(-704.85 -479.14)"/><path class="cls-39" d="M1375.72,1003.13l-12-6.1C1362.68,1004.28,1370.24,1008.91,1375.72,1003.13Z" transform="translate(-704.85 -479.14)"/><path class="cls-35" d="M1366.66,987a1.38,1.38,0,0,0-2.46-1.25A1.38,1.38,0,0,0,1366.66,987Z" transform="translate(-704.85 -479.14)"/><path class="cls-35" d="M1378.25,985a1.38,1.38,0,0,0-2.45-1.25A1.38,1.38,0,0,0,1378.25,985Z" transform="translate(-704.85 -479.14)"/><path class="cls-35" d="M1375.72,1003.65c-.3,0-11.92-6.09-12.19-6.16a.52.52,0,0,1-.22-.7c-.09-1.33,12.38,6,12.65,5.87A.53.53,0,0,1,1375.72,1003.65Z" transform="translate(-704.85 -479.14)"/><path class="cls-35" d="M1373.87,997c-.65-.06-2,.06-1.87-.87a.52.52,0,0,1,.66-.34c1.75.62,6-.59,4-1.84-3-1.61-4.94-7.21-5-7.44a.53.53,0,0,1,1-.35c0,.06,1.93,5.46,4.54,6.87C1380.32,995.27,1376.39,997,1373.87,997Z" transform="translate(-704.85 -479.14)"/><path class="cls-23" d="M1331.89,992.58c1.46,9.11,4.54,19.38,11.74,25.41h0c-4-5-6.48-16-6.48-16l1.89-4.93c31.63-10.21,28.92-35.62,28.92-35.62-4.72-4.13-11.09-5-17.15-3.45C1336,961.8,1330,977.84,1331.89,992.58Z" transform="translate(-704.85 -479.14)"/><path class="cls-22" d="M1364.61,959.15a43,43,0,0,0-4.68-2.68c7.92-36.47-43-34.85-25.58,1.6-8.21,7-11.06,20.23-5.67,30.81l10.16,5.61C1367.16,984.2,1364.61,959.15,1364.61,959.15Z" transform="translate(-704.85 -479.14)"/><path class="cls-24" d="M1326.1,997.18c2.36,10.39,14.79,7.76,12.74-2.69C1336.48,984.1,1324.06,986.73,1326.1,997.18Z" transform="translate(-704.85 -479.14)"/><path class="cls-35" d="M1329.39,999.32a.51.51,0,0,1-.5-.37c-2.36-6.59,1.22-9.35,5.56-7.57a.52.52,0,0,1-.38,1c-3.83-1.49-6.11.7-4.18,6.3A.53.53,0,0,1,1329.39,999.32Z" transform="translate(-704.85 -479.14)"/><path class="cls-35" d="M1334.26,998.59c-1-.12-1.47-4-5.5-4.36a.52.52,0,0,1-.49-.55.53.53,0,0,1,.56-.49C1332.79,993.46,1335.88,998.46,1334.26,998.59Z" transform="translate(-704.85 -479.14)"/><path class="cls-7" d="M1331.8,1002a1.18,1.18,0,0,0,2.35,0A1.18,1.18,0,0,0,1331.8,1002Z" transform="translate(-704.85 -479.14)"/><path class="cls-23" d="M1698.44,1207.75c-1-.1.26-5.24,1.06-8.91a.42.42,0,0,1,.52-.3.44.44,0,0,1,.3.53C1699.06,1202.88,1699.35,1207.53,1698.44,1207.75Z" transform="translate(-704.85 -479.14)"/><path class="cls-23" d="M1702.54,1207.75c-1-.1.42-4.91,1.24-8.55a.43.43,0,0,1,.82.24C1703.33,1203.12,1703.43,1207.49,1702.54,1207.75Z" transform="translate(-704.85 -479.14)"/><path class="cls-23" d="M1707,1207.79c-1.14-.25.93-4.34.78-8.48a.43.43,0,0,1,.44-.41.42.42,0,0,1,.41.43,40.57,40.57,0,0,1-1.22,8.14A.43.43,0,0,1,1707,1207.79Z" transform="translate(-704.85 -479.14)"/><path class="cls-35" d="M1360.2,985.49a.54.54,0,0,1-.21,0,.52.52,0,0,1-.26-.69,8.64,8.64,0,0,1,7.74-4.68.52.52,0,0,1,0,1,7.68,7.68,0,0,0-6.8,4.07A.54.54,0,0,1,1360.2,985.49Z" transform="translate(-704.85 -479.14)"/><path class="cls-35" d="M1379.07,981.11a.54.54,0,0,1-.37-.16c-1.94-2-5.27-1-5.31-1a.52.52,0,1,1-.3-1c.16,0,4-1.19,6.35,1.27a.52.52,0,0,1-.37.88Z" transform="translate(-704.85 -479.14)"/><path class="cls-35" d="M1644.5,958.64a.5.5,0,0,1-.4-.19,9.73,9.73,0,0,0-5.66-3.46.52.52,0,1,1,.14-1,10.6,10.6,0,0,1,6.32,3.84.51.51,0,0,1-.08.73A.54.54,0,0,1,1644.5,958.64Z" transform="translate(-704.85 -479.14)"/><path class="cls-35" d="M1632.48,954.14a.46.46,0,0,1-.23-.06,10,10,0,0,0-5.75-.49.51.51,0,0,1-.62-.38.52.52,0,0,1,.38-.63,10.89,10.89,0,0,1,6.45.57.53.53,0,0,1,.24.69A.52.52,0,0,1,1632.48,954.14Z" transform="translate(-704.85 -479.14)"/><path class="cls-35" d="M1630.33,974.94a5.9,5.9,0,0,1-1-.07.53.53,0,0,1-.41-.61.51.51,0,0,1,.61-.41h0s4,.68,8.64-3.27a.52.52,0,0,1,.68.79C1635.18,974.49,1631.91,974.94,1630.33,974.94Z" transform="translate(-704.85 -479.14)"/><path class="cls-31" d="M1634.85,1030.93a2.69,2.69,0,1,1-2.69-2.69A2.68,2.68,0,0,1,1634.85,1030.93Z" transform="translate(-704.85 -479.14)"/><path class="cls-31" d="M1631.05,1042.55a2.69,2.69,0,1,1-2.69-2.69A2.7,2.7,0,0,1,1631.05,1042.55Z" transform="translate(-704.85 -479.14)"/><path class="cls-24" d="M1461.49,1209.85c-1.82,2.14-5.88-1.78-8.47-1.67a31.9,31.9,0,0,0,3.56,7.26,140.12,140.12,0,0,0,11.39,9.67c2.22,7.06-12.21-4.72-14.18-5.72a.18.18,0,0,1-.07,0,101.56,101.56,0,0,0,9.4,12.33c.84,8-12-8.57-13.46-10.12h0a58.35,58.35,0,0,0,7.37,12.76c-.16,8-11.34-9.59-12.35-11.68h-.06a59.68,59.68,0,0,0,4,11c-1.23,7.58-8.54-9.18-9.21-11.2-1-1-5.29-8.09-6.42-16.93-.37-2.9,9.25-7.77,11.18-5.67,1.45,1.57,6.83,3.18,8,3.88C1454.56,1204.88,1462,1206.73,1461.49,1209.85Z" transform="translate(-704.85 -479.14)"/><path class="cls-34" d="M1431.27,1327c-.42,3-.78,5.14-1,6.58-.87,7.27-93.47,8.33-104.45,2.88-1.4-.69-2.59-3.88-3.6-8.94C1322.27,1327.47,1368.61,1335.82,1431.27,1327Z" transform="translate(-704.85 -479.14)"/><circle class="cls-34" cx="690.04" cy="589.29" r="3.76"/><path class="cls-34" d="M1355.26,1071.36a3.76,3.76,0,1,1-3.76-3.75A3.76,3.76,0,0,1,1355.26,1071.36Z" transform="translate(-704.85 -479.14)"/></g><g id="_8" data-name="8"><rect class="cls-40" x="1901.76" y="984.74" width="131.98" height="308.31" transform="translate(-843.32 -196.38) rotate(-7.94)"/><path class="cls-41" d="M2011.81,977.1l42.59,305.36-130.72,18.23-42.59-305.36,130.72-18.23Zm10.53-14-155.2,21.65,46,329.84,155.2-21.65-46-329.84Z" transform="translate(-704.85 -479.14)"/><circle class="cls-40" cx="1967.75" cy="1138.89" r="48.14" transform="translate(-933.83 1245.84) rotate(-45)"/><path class="cls-41" d="M1962.56,1091c63-5.77,73.21,87.82,10.37,95.73-63,5.77-73.21-87.82-10.37-95.73Zm-1-9c-74.95,10.42-63.07,119.64,12.33,113.75,75-10.42,63.07-119.64-12.33-113.75Z" transform="translate(-704.85 -479.14)"/><path class="cls-41" d="M2009.61,1129.57a3,3,0,0,0-3.36-2.54l-7.17,1c-3.77-11.18-11.46-17.6-20.16-16.66l-.48.06c-11.07,1.55-14.34,13.27-16.22,25.67-1.81,11.23-4.5,13.08-6.89,13.42a5.26,5.26,0,0,1-4.65-2.19,18,18,0,0,1-3.49-9,39.08,39.08,0,0,1,1.45-17.42,3,3,0,0,0-1.93-3.81l-6.85-2.14a3,3,0,0,0-3.68,1.8c-1.74,4.65-2.47,11.64-2,18.44l-6.86,1a3,3,0,0,0-2.54,3.36l1.11,8a3,3,0,0,0,3.37,2.54l7.45-1c4.43,13.17,13.57,18.25,21.19,17.42l.44-.05c12.05-1.68,15.53-13.35,17.35-24.53,2-12,3.67-14.4,6.23-14.75a4.08,4.08,0,0,1,3.45,1.41c1.14,1.16,2.64,3.55,3.3,8.31a35.44,35.44,0,0,1-1,15.19,3,3,0,0,0,1.92,3.62l6.77,2.28a3,3,0,0,0,3.82-2,44,44,0,0,0,1.42-15.18l6.5-.91a3,3,0,0,0,2.54-3.36Z" transform="translate(-704.85 -479.14)"/><path class="cls-41" d="M1984.65,1260.1a18.39,18.39,0,1,1,15.68-20.75A18.38,18.38,0,0,1,1984.65,1260.1Z" transform="translate(-704.85 -479.14)"/><circle class="cls-41" cx="1953.38" cy="1035.9" r="18.39" transform="translate(-526.69 1874.86) rotate(-64.53)"/></g><g id="_7" data-name="7"><rect class="cls-40" x="1921.31" y="1113.8" width="308.31" height="131.98" transform="translate(-446.14 2249.48) rotate(-70.06)"/><path class="cls-41" d="M2190.07,1057.38l-105.13,289.83-124.07-45L2066,1012.38l124.07,45Zm15.83-7.41-147.31-53.43L1945,1309.62,2092.35,1363,2205.9,1050Z" transform="translate(-704.85 -479.14)"/><circle class="cls-40" cx="2075.47" cy="1179.79" r="48.14" transform="translate(-1009.21 511.19) rotate(-25.06)"/><path class="cls-41" d="M2093.27,1135.06c58.35,24.33,23.65,111.86-35.6,89.46-58.35-24.33-23.65-111.85,35.6-89.46Zm3.35-8.43c-71.13-25.83-111.7,76.27-42.29,106.33,71.12,25.82,111.68-76.27,42.29-106.33Z" transform="translate(-704.85 -479.14)"/><path class="cls-41" d="M2116.84,1191.13a3,3,0,0,0-.11-2.28,2.93,2.93,0,0,0-1.68-1.54l-6.8-2.47c1.9-11.64-1.9-20.92-10-24.15l-.46-.17c-10.5-3.81-18.87,5-26.34,15.11-6.84,9.08-10.09,9.46-12.36,8.63a5.23,5.23,0,0,1-3.08-4.11,17.93,17.93,0,0,1,1.12-9.6,39.16,39.16,0,0,1,9.43-14.72,2.94,2.94,0,0,0,.94-2.12,3,3,0,0,0-.87-2.15l-5-5.1a3,3,0,0,0-4.1-.12c-3.71,3.29-7.62,9.13-10.36,15.37l-6.51-2.36a3,3,0,0,0-3.82,1.78l-2.75,7.57a3,3,0,0,0,1.79,3.82l7.07,2.56c-2.24,13.72,3.47,22.48,10.59,25.31l.41.16c11.44,4.14,20-4.54,26.81-13.57,7.39-9.68,10-11,12.4-10.13a4.11,4.11,0,0,1,2.39,2.86c.47,1.56.68,4.37-1,8.89a35.49,35.49,0,0,1-8,13,3,3,0,0,0,0,4.1l4.93,5.18a3,3,0,0,0,2.15.93,3,3,0,0,0,2.16-.91,44,44,0,0,0,8.35-12.76l6.17,2.24a3,3,0,0,0,3.82-1.78Z" transform="translate(-704.85 -479.14)"/><circle class="cls-41" cx="2040.01" cy="1277.55" r="18.39" transform="translate(-280.97 2582.19) rotate(-79.88)"/><circle class="cls-41" cx="2110.93" cy="1082.04" r="18.39" transform="translate(-964.46 517.01) rotate(-25.06)"/></g><g id="_6" data-name="6"><circle class="cls-16" cx="2027.63" cy="1120.57" r="48.26" transform="translate(-685.12 1796.96) rotate(-58.85)"/><path class="cls-15" d="M2052.23,1079a48.3,48.3,0,1,1-11.59-4.94,48.28,48.28,0,0,1,11.59,4.94Zm4-6.7h0a56.06,56.06,0,1,0,25.41,63.35,55.75,55.75,0,0,0-25.41-63.35Z" transform="translate(-704.85 -479.14)"/><path class="cls-15" d="M2050,1140.6c3.29-11.75-6-19.63-15.57-25.78-10.24-6.67-11.76-9.15-11.06-11.64a4.11,4.11,0,0,1,2.68-2.6c1.53-.59,4.32-1,9,.29a35.52,35.52,0,0,1,13.57,7,3,3,0,0,0,4.1-.31l4.81-5.31a3,3,0,0,0,.77-2.22,3,3,0,0,0-1.08-2.09,43.79,43.79,0,0,0-13.37-7.39l1.77-6.34a3,3,0,0,0-2.07-3.68l-7.65-2.14a3,3,0,0,0-3.68,2.07l-2,7c-12-1-21.1,3.64-23.53,12.3-3,10.79,6.44,18.5,17.08,25.2,9.59,6.16,10.22,9.38,9.56,11.72a5.31,5.31,0,0,1-3.87,3.39,18.19,18.19,0,0,1-9.69-.41,39.1,39.1,0,0,1-15.42-8.32,3,3,0,0,0-4.27.25l-4.72,5.44a3,3,0,0,0,.18,4.1c3.57,3.46,9.71,6.93,16.15,9.21l-1.88,6.68a3,3,0,0,0,1.36,3.38,2.88,2.88,0,0,0,.72.3l7.77,2.18a3,3,0,0,0,3.68-2.07l2-7.27C2039.51,1154.74,2047.9,1148.11,2050,1140.6Z" transform="translate(-704.85 -479.14)"/></g><g id="_5" data-name="5"><circle class="cls-16" cx="1858.38" cy="1188.72" r="48.26" transform="translate(-908.9 -73.36) rotate(-11.82)"/><path class="cls-15" d="M1858.41,1140.45a48.3,48.3,0,1,1-12.49,1.65,48.28,48.28,0,0,1,12.49-1.65Zm0-7.79h0a56.06,56.06,0,1,0,54.12,41.59,56.11,56.11,0,0,0-54.12-41.59Z" transform="translate(-704.85 -479.14)"/><path class="cls-15" d="M1887.83,1194.58c-3.15-11.79-15.18-13.82-26.53-14.26-12.2-.53-14.77-1.89-15.44-4.39a4.11,4.11,0,0,1,1-3.61c1-1.27,3.21-3.06,7.86-4.3a35.43,35.43,0,0,1,15.23-.91,3,3,0,0,0,3.37-2.36l1.44-7a3,3,0,0,0-2.46-3.55,43.85,43.85,0,0,0-15.28.45l-1.7-6.36a3,3,0,0,0-1.39-1.81,2.93,2.93,0,0,0-2.26-.3l-7.68,2a3,3,0,0,0-2.11,3.66l1.87,7c-10.86,5.22-16.31,13.88-14,22.58,2.9,10.82,15,12.64,27.54,13,11.38.42,13.56,2.87,14.19,5.21a5.3,5.3,0,0,1-1.61,4.89,18.19,18.19,0,0,1-8.55,4.59,39.26,39.26,0,0,1-17.51.69,3,3,0,0,0-3.55,2.38l-1.29,7.08a3,3,0,0,0,2.24,3.45c4.84,1.16,11.89,1,18.59-.3l1.79,6.71a3,3,0,0,0,3.66,2.11l7.79-2.08a3,3,0,0,0,1.82-1.39,3,3,0,0,0,.3-2.27l-2-7.29C1886,1212.09,1889.84,1202.11,1887.83,1194.58Z" transform="translate(-704.85 -479.14)"/></g><g id="_4" data-name="4"><rect class="cls-15" x="1353.02" y="812.12" width="114.13" height="14.49"/><rect class="cls-15" x="1341.38" y="826.6" width="114.13" height="14.49"/><rect class="cls-15" x="1353.02" y="783.14" width="114.13" height="14.49"/><rect class="cls-15" x="1341.38" y="797.63" width="114.13" height="14.49"/><rect class="cls-15" x="2041.87" y="1233.31" width="114.13" height="14.49" transform="translate(3493.02 2001.97) rotate(180)"/><rect class="cls-15" x="2053.51" y="1247.8" width="114.13" height="14.49" transform="translate(3516.3 2030.94) rotate(180)"/><rect class="cls-15" x="2053.51" y="1218.82" width="114.13" height="14.49" transform="translate(3516.3 1972.99) rotate(180)"/><rect class="cls-15" x="1344.29" y="841.09" width="114.13" height="14.49"/><rect class="cls-15" x="1353.02" y="855.58" width="114.13" height="14.49"/><rect class="cls-15" x="1355.93" y="870.06" width="114.13" height="14.49"/><rect class="cls-15" x="1341.38" y="884.55" width="114.13" height="14.49"/><rect class="cls-16" x="1367.58" y="812.12" width="6.84" height="14.49"/><rect class="cls-16" x="1393.64" y="812.12" width="6.84" height="14.49"/><rect class="cls-16" x="1419.7" y="812.12" width="6.84" height="14.49"/><rect class="cls-16" x="1445.77" y="812.12" width="6.84" height="14.49"/><rect class="cls-16" x="1355.93" y="826.6" width="6.84" height="14.49"/><rect class="cls-16" x="1382" y="826.6" width="6.84" height="14.49"/><rect class="cls-16" x="1408.06" y="826.6" width="6.84" height="14.49"/><rect class="cls-16" x="1434.13" y="826.6" width="6.84" height="14.49"/><rect class="cls-16" x="1367.58" y="783.14" width="6.84" height="14.49"/><rect class="cls-16" x="1393.64" y="783.14" width="6.84" height="14.49"/><rect class="cls-16" x="1419.7" y="783.14" width="6.84" height="14.49"/><rect class="cls-16" x="1445.77" y="783.14" width="6.84" height="14.49"/><rect class="cls-16" x="1355.93" y="797.63" width="6.84" height="14.49"/><rect class="cls-16" x="1382" y="797.63" width="6.84" height="14.49"/><rect class="cls-16" x="1408.06" y="797.63" width="6.84" height="14.49"/><rect class="cls-16" x="1434.13" y="797.63" width="6.84" height="14.49"/><rect class="cls-16" x="2134.61" y="1233.31" width="6.84" height="14.49" transform="translate(3571.21 2001.97) rotate(180)"/><rect class="cls-16" x="2108.55" y="1233.31" width="6.84" height="14.49" transform="translate(3519.08 2001.97) rotate(180)"/><rect class="cls-16" x="2082.48" y="1233.31" width="6.84" height="14.49" transform="translate(3466.95 2001.97) rotate(180)"/><rect class="cls-16" x="2056.42" y="1233.31" width="6.84" height="14.49" transform="translate(3414.82 2001.97) rotate(180)"/><rect class="cls-16" x="2146.25" y="1247.8" width="6.84" height="14.49" transform="translate(3594.49 2030.94) rotate(180)"/><rect class="cls-16" x="2120.19" y="1247.8" width="6.84" height="14.49" transform="translate(3542.36 2030.94) rotate(180)"/><rect class="cls-16" x="2094.12" y="1247.8" width="6.84" height="14.49" transform="translate(3490.23 2030.94) rotate(180)"/><rect class="cls-16" x="2068.06" y="1247.8" width="6.84" height="14.49" transform="translate(3438.11 2030.94) rotate(180)"/><rect class="cls-16" x="2146.25" y="1218.82" width="6.84" height="14.49" transform="translate(3594.49 1972.99) rotate(180)"/><rect class="cls-16" x="2120.19" y="1218.82" width="6.84" height="14.49" transform="translate(3542.36 1972.99) rotate(180)"/><rect class="cls-16" x="2094.12" y="1218.82" width="6.84" height="14.49" transform="translate(3490.23 1972.99) rotate(180)"/><rect class="cls-16" x="2068.06" y="1218.82" width="6.84" height="14.49" transform="translate(3438.11 1972.99) rotate(180)"/><rect class="cls-16" x="1358.84" y="841.09" width="6.84" height="14.49"/><rect class="cls-16" x="1384.91" y="841.09" width="6.84" height="14.49"/><rect class="cls-16" x="1410.97" y="841.09" width="6.84" height="14.49"/><rect class="cls-16" x="1437.04" y="841.09" width="6.84" height="14.49"/><rect class="cls-16" x="1367.58" y="855.58" width="6.84" height="14.49"/><rect class="cls-16" x="1393.64" y="855.58" width="6.84" height="14.49"/><rect class="cls-16" x="1419.7" y="855.58" width="6.84" height="14.49"/><rect class="cls-16" x="1445.77" y="855.58" width="6.84" height="14.49"/><rect class="cls-16" x="1370.49" y="870.06" width="6.84" height="14.49"/><rect class="cls-16" x="1396.55" y="870.06" width="6.84" height="14.49"/><rect class="cls-16" x="1422.61" y="870.06" width="6.84" height="14.49"/><rect class="cls-16" x="1448.68" y="870.06" width="6.84" height="14.49"/><rect class="cls-16" x="1355.93" y="884.55" width="6.84" height="14.49"/><rect class="cls-16" x="1382" y="884.55" width="6.84" height="14.49"/><rect class="cls-16" x="1408.06" y="884.55" width="6.84" height="14.49"/><rect class="cls-16" x="1434.13" y="884.55" width="6.84" height="14.49"/></g><g id="_3" data-name="3"><rect class="cls-15" x="1892.11" y="1291.26" width="114.13" height="14.49" transform="translate(3193.5 2117.86) rotate(180)"/><rect class="cls-15" x="1903.75" y="1305.75" width="114.13" height="14.49" transform="translate(3216.78 2146.84) rotate(180)"/><rect class="cls-15" x="1203.27" y="783.14" width="114.13" height="14.49"/><rect class="cls-15" x="1191.62" y="797.63" width="114.13" height="14.49"/><rect class="cls-15" x="1900.84" y="1320.23" width="114.13" height="14.49" transform="translate(3210.96 2175.81) rotate(180)"/><rect class="cls-15" x="1892.11" y="1334.72" width="114.13" height="14.49" transform="translate(3193.5 2204.78) rotate(180)"/><rect class="cls-15" x="1889.2" y="1349.21" width="114.13" height="14.49" transform="translate(3187.68 2233.76) rotate(180)"/><rect class="cls-15" x="1903.75" y="1363.69" width="114.13" height="14.49" transform="translate(3216.78 2262.73) rotate(180)"/><rect class="cls-16" x="1984.85" y="1291.26" width="6.84" height="14.49" transform="translate(3271.69 2117.86) rotate(180)"/><rect class="cls-16" x="1958.79" y="1291.26" width="6.84" height="14.49" transform="translate(3219.56 2117.86) rotate(180)"/><rect class="cls-16" x="1932.72" y="1291.26" width="6.84" height="14.49" transform="translate(3167.43 2117.86) rotate(180)"/><rect class="cls-16" x="1906.66" y="1291.26" width="6.84" height="14.49" transform="translate(3115.31 2117.86) rotate(180)"/><rect class="cls-16" x="1996.49" y="1305.75" width="6.84" height="14.49" transform="translate(3294.97 2146.84) rotate(180)"/><rect class="cls-16" x="1970.43" y="1305.75" width="6.84" height="14.49" transform="translate(3242.84 2146.84) rotate(180)"/><rect class="cls-16" x="1944.36" y="1305.75" width="6.84" height="14.49" transform="translate(3190.72 2146.84) rotate(180)"/><rect class="cls-16" x="1918.3" y="1305.75" width="6.84" height="14.49" transform="translate(3138.59 2146.84) rotate(180)"/><rect class="cls-16" x="1217.82" y="783.14" width="6.84" height="14.49"/><rect class="cls-16" x="1243.88" y="783.14" width="6.84" height="14.49"/><rect class="cls-16" x="1269.94" y="783.14" width="6.84" height="14.49"/><rect class="cls-16" x="1296.01" y="783.14" width="6.84" height="14.49"/><rect class="cls-16" x="1206.18" y="797.63" width="6.84" height="14.49"/><rect class="cls-16" x="1232.24" y="797.63" width="6.84" height="14.49"/><rect class="cls-16" x="1258.3" y="797.63" width="6.84" height="14.49"/><rect class="cls-16" x="1284.37" y="797.63" width="6.84" height="14.49"/><rect class="cls-16" x="1993.58" y="1320.23" width="6.84" height="14.49" transform="translate(3289.15 2175.81) rotate(180)"/><rect class="cls-16" x="1967.52" y="1320.23" width="6.84" height="14.49" transform="translate(3237.02 2175.81) rotate(180)"/><rect class="cls-16" x="1941.45" y="1320.23" width="6.84" height="14.49" transform="translate(3184.9 2175.81) rotate(180)"/><rect class="cls-16" x="1915.39" y="1320.23" width="6.84" height="14.49" transform="translate(3132.77 2175.81) rotate(180)"/><rect class="cls-16" x="1984.85" y="1334.72" width="6.84" height="14.49" transform="translate(3271.69 2204.78) rotate(180)"/><rect class="cls-16" x="1958.79" y="1334.72" width="6.84" height="14.49" transform="translate(3219.56 2204.78) rotate(180)"/><rect class="cls-16" x="1932.72" y="1334.72" width="6.84" height="14.49" transform="translate(3167.43 2204.78) rotate(180)"/><rect class="cls-16" x="1906.66" y="1334.72" width="6.84" height="14.49" transform="translate(3115.31 2204.78) rotate(180)"/><rect class="cls-16" x="1981.94" y="1349.21" width="6.84" height="14.49" transform="translate(3265.87 2233.76) rotate(180)"/><rect class="cls-16" x="1955.88" y="1349.21" width="6.84" height="14.49" transform="translate(3213.74 2233.76) rotate(180)"/><rect class="cls-16" x="1929.81" y="1349.21" width="6.84" height="14.49" transform="translate(3161.61 2233.76) rotate(180)"/><rect class="cls-16" x="1903.75" y="1349.21" width="6.84" height="14.49" transform="translate(3109.49 2233.76) rotate(180)"/><rect class="cls-16" x="1996.49" y="1363.69" width="6.84" height="14.49" transform="translate(3294.97 2262.73) rotate(180)"/><rect class="cls-16" x="1970.43" y="1363.69" width="6.84" height="14.49" transform="translate(3242.84 2262.73) rotate(180)"/><rect class="cls-16" x="1944.36" y="1363.69" width="6.84" height="14.49" transform="translate(3190.72 2262.73) rotate(180)"/><rect class="cls-16" x="1918.3" y="1363.69" width="6.84" height="14.49" transform="translate(3138.59 2262.73) rotate(180)"/></g><g id="_2" data-name="2"><rect class="cls-15" x="1759.3" y="1320.23" width="114.13" height="14.49" transform="translate(2927.88 2175.81) rotate(180)"/><rect class="cls-15" x="1750.57" y="1334.72" width="114.13" height="14.49" transform="translate(2910.42 2204.78) rotate(180)"/><rect class="cls-15" x="1747.66" y="1349.21" width="114.13" height="14.49" transform="translate(2904.6 2233.76) rotate(180)"/><rect class="cls-15" x="1762.21" y="1363.69" width="114.13" height="14.49" transform="translate(2933.7 2262.73) rotate(180)"/><rect class="cls-16" x="1852.04" y="1320.23" width="6.84" height="14.49" transform="translate(3006.07 2175.81) rotate(180)"/><rect class="cls-16" x="1825.98" y="1320.23" width="6.84" height="14.49" transform="translate(2953.95 2175.81) rotate(180)"/><rect class="cls-16" x="1799.92" y="1320.23" width="6.84" height="14.49" transform="translate(2901.82 2175.81) rotate(180)"/><rect class="cls-16" x="1773.85" y="1320.23" width="6.84" height="14.49" transform="translate(2849.69 2175.81) rotate(180)"/><rect class="cls-16" x="1843.31" y="1334.72" width="6.84" height="14.49" transform="translate(2988.61 2204.78) rotate(180)"/><rect class="cls-16" x="1817.25" y="1334.72" width="6.84" height="14.49" transform="translate(2936.48 2204.78) rotate(180)"/><rect class="cls-16" x="1791.19" y="1334.72" width="6.84" height="14.49" transform="translate(2884.36 2204.78) rotate(180)"/><rect class="cls-16" x="1765.12" y="1334.72" width="6.84" height="14.49" transform="translate(2832.23 2204.78) rotate(180)"/><rect class="cls-16" x="1840.4" y="1349.21" width="6.84" height="14.49" transform="translate(2982.79 2233.76) rotate(180)"/><rect class="cls-16" x="1814.34" y="1349.21" width="6.84" height="14.49" transform="translate(2930.66 2233.76) rotate(180)"/><rect class="cls-16" x="1788.27" y="1349.21" width="6.84" height="14.49" transform="translate(2878.54 2233.76) rotate(180)"/><rect class="cls-16" x="1762.21" y="1349.21" width="6.84" height="14.49" transform="translate(2826.41 2233.76) rotate(180)"/><rect class="cls-16" x="1854.95" y="1363.69" width="6.84" height="14.49" transform="translate(3011.89 2262.73) rotate(180)"/><rect class="cls-16" x="1828.89" y="1363.69" width="6.84" height="14.49" transform="translate(2959.77 2262.73) rotate(180)"/><rect class="cls-16" x="1802.83" y="1363.69" width="6.84" height="14.49" transform="translate(2907.64 2262.73) rotate(180)"/><rect class="cls-16" x="1776.76" y="1363.69" width="6.84" height="14.49" transform="translate(2855.51 2262.73) rotate(180)"/></g><g id="_1" data-name="1"><path class="cls-8" d="M1963.81,874.12a26,26,0,1,1,26-26A26.07,26.07,0,0,1,1963.81,874.12Zm0-37.48a11.45,11.45,0,1,0,11.44,11.45A11.46,11.46,0,0,0,1963.81,836.64Z" transform="translate(-704.85 -479.14)"/><path class="cls-8" d="M2030.19,940.51a26,26,0,1,1,26-26A26.07,26.07,0,0,1,2030.19,940.51Zm0-37.49a11.45,11.45,0,1,0,11.45,11.45A11.46,11.46,0,0,0,2030.19,903Z" transform="translate(-704.85 -479.14)"/><path class="cls-8" d="M1952.36,933.21a7.29,7.29,0,0,1-5.16-12.45l89.28-89.28a7.3,7.3,0,0,1,10.32,10.32l-89.28,89.28A7.29,7.29,0,0,1,1952.36,933.21Z" transform="translate(-704.85 -479.14)"/></g></svg>