<svg xmlns="http://www.w3.org/2000/svg" viewBox="0 0 500 500"><defs><style>.cls-1{fill:#fff;}.cls-2{fill:#108f6e;}.cls-3{fill:#fce300;}.cls-4{fill:#ededed;}.cls-5{fill:#ffd200;}.cls-6{fill:#bce13e;}.cls-7{fill:#91b31e;}.cls-8{fill:#0e1a34;}.cls-9{fill:#ff9a5c;}.cls-10{fill:#753519;}.cls-11{fill:#1a6652;}.cls-12{fill:#19614f;}.cls-13{fill:#9ae5e5;opacity:0.79;}</style></defs><g id="BACKGROUND"><rect class="cls-1" width="500" height="500"/></g><g id="OBJECTS"><path class="cls-2" d="M327.79,258.64l-.08-1.06s.47,0,1.26,0,1.92,0,3.27.13a49.23,49.23,0,0,1,9.73,1.74,46.07,46.07,0,0,1,9.16,3.7,28.61,28.61,0,0,1,2.82,1.65l1,.68-.6.87-1-.66a28.34,28.34,0,0,0-2.75-1.61,44.79,44.79,0,0,0-8.95-3.62,49,49,0,0,0-9.52-1.7c-1.32-.09-2.42-.13-3.18-.12S327.79,258.64,327.79,258.64Z"/><path class="cls-3" d="M356.06,271.08a4,4,0,0,1-1.46-2.39,3.3,3.3,0,0,1,.44-2.57,2.92,2.92,0,0,1,2.36-1.24,4.83,4.83,0,0,1,3,1.1,4.57,4.57,0,0,1,1.56,2.76,2.84,2.84,0,0,1-.79,2.5,3.44,3.44,0,0,1-2.49.9A4.17,4.17,0,0,1,356.06,271.08Z"/><path class="cls-2" d="M356.44,268.92a6.37,6.37,0,0,0,1,.4,5.19,5.19,0,0,0,2,.35,4,4,0,0,0-.61-2,6.74,6.74,0,0,0-.67-.93,6.36,6.36,0,0,0,2.38-1.17,4.68,4.68,0,0,0,.83-.79,8.39,8.39,0,0,0-3.21-1,5.35,5.35,0,0,0-2.35.37A5.11,5.11,0,0,0,354,265.4a6.12,6.12,0,0,0-.44,2.19,7.83,7.83,0,0,0,.27,2.19A7,7,0,0,0,355,272.3a5.43,5.43,0,0,0,.66-.93A5.72,5.72,0,0,0,356.44,268.92Z"/><ellipse class="cls-4" cx="252.13" cy="348.1" rx="108.57" ry="9.11"/><path class="cls-2" d="M178.28,256.29l-.38,1.07s-.44-.16-1.23-.4-1.93-.59-3.31-.94a81.7,81.7,0,0,0-10.27-1.93,75.23,75.23,0,0,0-10.42-.55c-1.42.07-2.61.08-3.43.17l-1.3.13-.11-1.13,1.32-.13c.84-.09,2-.1,3.5-.17a77.52,77.52,0,0,1,10.58.55,83.54,83.54,0,0,1,10.41,2c1.4.36,2.56.7,3.37,1S178.28,256.29,178.28,256.29Z"/><path class="cls-3" d="M142.53,250.41a5,5,0,0,1,3.33.52,3.27,3.27,0,0,1,1.58,2.39,3.38,3.38,0,0,1-.93,2.64,4.35,4.35,0,0,1-2.65,1.51,6,6,0,0,1-1.58,0,4.35,4.35,0,0,1-1.43-.45,3.62,3.62,0,0,1-1.84-2.18,3.09,3.09,0,0,1,.61-2.75,4.47,4.47,0,0,1,1.23-1.08A4.32,4.32,0,0,1,142.53,250.41Z"/><path class="cls-2" d="M144.16,252.24a8.62,8.62,0,0,0-1.11.53,4.24,4.24,0,0,0-1.64,1.54,6.06,6.06,0,0,0,2.07.77,8.44,8.44,0,0,0,1.17.15,5.91,5.91,0,0,0-.59,2.7,6.14,6.14,0,0,0,.11,1.22,7.78,7.78,0,0,0,2.54-1.74,6.78,6.78,0,0,0,1.41-1.92,6.4,6.4,0,0,0,.7-2.31,5.48,5.48,0,0,0-1.14-2.12,6.54,6.54,0,0,0-2-1.58,9,9,0,0,0-3.47-.76,4.79,4.79,0,0,0,.35,1.18A6.89,6.89,0,0,0,144.16,252.24Z"/><path class="cls-5" d="M251.68,187s-8.79-4.35-10.33-13.91,13.73-13.2,20.06,2.63c0,0-1.15-17.14,9.29-19s8.76,19,5.59,22.3c0,0,4.39-3.18,8.69-.54s2.91,13-11,15.72A24.3,24.3,0,0,1,251.68,187Z"/><path class="cls-1" d="M261.27,189.62a68,68,0,0,0-6.91-11.21l.24-.19a68.77,68.77,0,0,1,6.94,11.27Z"/><rect class="cls-1" x="259.79" y="178.02" width="21.4" height="0.3" transform="matrix(0.17, -0.99, 0.99, 0.17, 48.9, 414.4)"/><path class="cls-6" d="M201.5,205.85s-3.63-7.95-11.1-7.94-8.56,7.89-4.18,13.75a31,31,0,0,0-17.49-4.58c-10.31.39-17.93,8-15.69,16.53s13.75,10.46,17,9.57c0,0-11.36,8.07-6.88,15.39s18.53,0,18.53,0Z"/><path class="cls-1" d="M186.42,226.54c-.13,0-12.85-5.29-19.35-5.94l.06-.61c6.59.66,19.39,5.94,19.52,6Z"/><path class="cls-1" d="M167.28,226.51l-.36-.49a40.51,40.51,0,0,1,7.8-3.83l.21.57A41.34,41.34,0,0,0,167.28,226.51Z"/><path class="cls-1" d="M180.56,224.18a41.52,41.52,0,0,1-1.9-6.72l.61-.05a42.15,42.15,0,0,0,1.86,6.56Z"/><path class="cls-1" d="M169.71,245.13l-.31-.53a35.47,35.47,0,0,1,11.4-4.45l.09.61A34.39,34.39,0,0,0,169.71,245.13Z"/><path class="cls-1" d="M196.94,214.16c-.2-.22-4.93-5.37-6.22-9.57l.59-.17c1.25,4.06,6,9.27,6.08,9.33Z"/><path class="cls-5" d="M165.18,262.27l-.51-3.72a47.07,47.07,0,0,0-6.3-.44,46.18,46.18,0,0,0-17.22,3.14l-.22,2.63-1.27-2c-.84.39-1.64.8-2.41,1.25l.8,4.87-2.91-3.51a16.29,16.29,0,0,0-5.14,5.66,10.22,10.22,0,0,0-.92,6.83,11.13,11.13,0,0,0,2.72,5.33,13.5,13.5,0,0,0,2.27,2,16.74,16.74,0,0,0,2.8,1.54c4,1.77,9.31,2.42,15,2l1.34-4.28,1.88,3.93c1.28-.18,2.59-.41,3.88-.7l-.36-2.56,2.13,2.14,1.5-.41c9-2.6,14.68-6.87,18.1-10.51a23.16,23.16,0,0,0,4.6-6.65s-5.16-7.3-17.87-9.84Z"/><rect class="cls-1" x="138.65" y="272.48" width="42.57" height="0.61" transform="translate(-47.84 34.42) rotate(-10.69)"/><path class="cls-1" d="M153.08,274.38c-3-.18-8.89-2.75-9.14-2.86l.25-.56c.06,0,6.06,2.64,8.93,2.81Z"/><path class="cls-1" d="M155.48,279.06l-.59-.14c.64-2.55,3.93-6,4.07-6.1l.44.43S156.08,276.68,155.48,279.06Z"/><path class="cls-1" d="M169.48,271.27c-3.42-.78-7-4.41-7.14-4.56l.43-.43s3.61,3.65,6.85,4.39Z"/><path class="cls-5" d="M333,298.29l-.8,3.57a46.75,46.75,0,0,0,22.43,5.51l1.1-2.34.48,2.25q1.35-.11,2.64-.33l.92-4.72,1.47,4.19a15.77,15.77,0,0,0,6.61-3.44,9.84,9.84,0,0,0,3.16-5.93,10.88,10.88,0,0,0-.68-5.8,12.42,12.42,0,0,0-1.41-2.57,16,16,0,0,0-2-2.36c-3.1-3-7.69-5.36-13-6.91l-2.68,3.45-.39-4.23c-1.23-.26-2.5-.49-3.79-.67l-.54,2.46-1.22-2.67c-.5-.06-1-.1-1.51-.14-9.11-.67-15.75,1.31-20.12,3.48a22.59,22.59,0,0,0-6.46,4.53s2.25,8.43,13,15.06Z"/><rect class="cls-1" x="341.06" y="269.68" width="0.61" height="41.53" transform="translate(-2.2 578.28) rotate(-80.35)"/><path class="cls-1" d="M355.14,297.46s-4.64-4.47-7.21-5.6l.24-.56c2.67,1.17,7.2,5.53,7.39,5.72Z"/><path class="cls-1" d="M342.26,290.75l-.26-.55s4.2-2,5.55-4l.51.35C346.61,288.66,342.44,290.66,342.26,290.75Z"/><path class="cls-1" d="M336.55,295.43s-2.06-4.55-4.77-6.33l.33-.51c2.87,1.88,4.91,6.4,5,6.59Z"/><rect class="cls-6" x="288.92" y="335.87" width="22.38" height="1.28" transform="translate(-121.75 495.7) rotate(-68.95)"/><rect class="cls-6" x="307.51" y="325.32" width="1.28" height="22.38" transform="translate(-100.32 133.17) rotate(-21.05)"/><rect class="cls-6" x="300.78" y="334.14" width="6.95" height="1.28"/><rect class="cls-6" x="299.18" y="338.73" width="10.07" height="1.28"/><path class="cls-7" d="M163.68,347a4.73,4.73,0,0,0,.72,1.49,12.91,12.91,0,0,1,1.43,2c.1.39-.37.74-.82.59a35.18,35.18,0,0,1-4.47-2.21c-.76-.59-1-.81-1-.94a22.58,22.58,0,0,1,1.22-2.18C161.07,345.34,163.11,345.35,163.68,347Z"/><path class="cls-7" d="M172.14,342.64a4.86,4.86,0,0,0,1.35,1,13.85,13.85,0,0,1,2.22,1.09c.27.3,0,.83-.45.91a33.11,33.11,0,0,1-5,.19c-1-.15-1.25-.23-1.3-.36s0-2,0-2.5S170.86,341.48,172.14,342.64Z"/><path class="cls-8" d="M172.29,314.08s1.57,10.51,1.63,13.26-1.63,15.48-1.63,15.48H169s.32-6.2.32-7.17-.32-9.44-.32-9.44l.32-11.79S171.23,313.23,172.29,314.08Z"/><path class="cls-8" d="M164.62,314.45s-1,2.7-.72,8.25a62.89,62.89,0,0,0,.59,6.85s-3.72,14.46-4.2,16.18a7.89,7.89,0,0,0,3.61,1.35l5.34-13.16a21.73,21.73,0,0,0,1.82-8.9c0-3,.34-11.16.34-11.16Z"/><path class="cls-1" d="M169.7,333.17l-.29-.09A40.84,40.84,0,0,0,171,321.33h.3A40.78,40.78,0,0,1,169.7,333.17Z"/><path class="cls-9" d="M174.88,312.57s-6.83-1.18-9.31-2.55-2.17-2.59-1.83-3.47,1.41-2.74,1.41-2.74l2.43,1.73-.07.54-.41.95s.79.5,2,1.16,6,2.89,6,2.89S176.31,312.05,174.88,312.57Z"/><path class="cls-9" d="M174.7,312.51a4.21,4.21,0,0,0,1.29.92c0,.47.32.66.46.64s.16-.71.16-.71c.13.32.65.64.73.45a1.2,1.2,0,0,0,0-.52s.21.29.37.29.35-.15.28-.5a3.38,3.38,0,0,0-.49-1.17c-.22-.29-.34-.57-.8-.68a10.13,10.13,0,0,0-1.16-.09,10.75,10.75,0,0,0-1.33,0Z"/><path class="cls-10" d="M169.66,290.85a2.75,2.75,0,0,0-3.48-1.23c-2.57.75-1.76,3.16-3.42,4.18s-4.12,1.55-4.76,4.38,1.33,3.05,0,4.77-1.82,2.94-.38,4.7,4,1.23,5.58.38,8.55-4.12,8.55-4.12a2.59,2.59,0,0,0,0-3.53,6.21,6.21,0,0,1-1.18-4.6s.59-.11.8-1.72S171.07,290.37,169.66,290.85Z"/><path class="cls-9" d="M295.74,156.44l.9-.65a27.27,27.27,0,0,0,8.1,6.29c5,2.54,6.76,3.51,7.21,3.59s2.62.46,3.37,1.41.83,1.5.67,1.54-1-1.16-1-1.16.83,1.07.75,1.47-.55-.28-.72-.45-.58-.65-.58-.65a6.49,6.49,0,0,1,.91,1.5c0,.35-.55-.1-1-.6s-1-.73-1.06-.58-.17.76-.35.65-.22-.59-.3-.92c-.3,0-1.66-.49-4.1-1s-12.2-4.77-14.42-7.54S295.74,156.44,295.74,156.44Z"/><path class="cls-6" d="M357.57,256.6h0a6.41,6.41,0,0,0,1.55-3.29,5.91,5.91,0,0,0-.78-3.44l.71.76c.42.46,1,1.05,1.56,1.68l2.07,2.62a7.55,7.55,0,0,0-1.67,3.33,6.11,6.11,0,0,0,.28,3.53h0a6.14,6.14,0,0,0,1.88-3,5.37,5.37,0,0,0,.16-1.75,4.79,4.79,0,0,0-.43-1.8l.36.45c.21.28.45.68.71,1.06l1,1.55a6.61,6.61,0,0,0,.28,1.88,6.47,6.47,0,0,0,.63,1.69,6.68,6.68,0,0,0,2.7,2.55h0a6.44,6.44,0,0,0-.7-3.68,5.69,5.69,0,0,0-1.11-1.48,7,7,0,0,0-1.66-1.05s-.25-.39-.64-1l-.66-1-.37-.56-.43-.54-2.31-2.92a7,7,0,0,0,7,.82h0a6.67,6.67,0,0,0-3.58-1.81,5.73,5.73,0,0,0-3.68.72l-2.29-2.44a21.35,21.35,0,0,0-1.66-1.59l-.78-.7a7.61,7.61,0,0,0,1.77.66,9.25,9.25,0,0,0,1.78.2,6.76,6.76,0,0,0,3.53-1h0a7.88,7.88,0,0,0-1.85-1,5.32,5.32,0,0,0-1.92-.33,6,6,0,0,0-3.57,1.24l-.78-.7-1.82-1.41c-.66-.51-1.32-1-1.85-1.36l-.88-.57a7.17,7.17,0,0,0,1.85.38,6.63,6.63,0,0,0,1.78,0,7.12,7.12,0,0,0,3.38-1.5h0a6.5,6.5,0,0,0-3.93-.81,5.91,5.91,0,0,0-3.37,1.75l-.88-.58c-.53-.34-1.27-.73-2-1.14l-1.07-.6-1-.47-1-.45a8,8,0,0,0,3.65-.16,7.13,7.13,0,0,0,3.13-2h0a7.81,7.81,0,0,0-2.1-.44,6.4,6.4,0,0,0-1,0,5.79,5.79,0,0,0-4,2.41l-.44-.21-1.19-.49c-1-.42-2.33-.89-3.68-1.33s-2.74-.76-3.79-1-1.76-.28-1.76-.28l0,.17s.5.05,1.24.19,1.71.35,2.68.59,1.93.54,2.64.8l1.18.41a7.59,7.59,0,0,0,.37,3.72,6.83,6.83,0,0,0,2.05,2.82h0a6.08,6.08,0,0,0,0-3.58,5.49,5.49,0,0,0-2.13-2.84l1,.4c.58.24,1.36.53,2.1.91s1.51.7,2.06,1l.91.51a7.24,7.24,0,0,0-.17,3.7,6.36,6.36,0,0,0,1.62,3.11h0a6.16,6.16,0,0,0,.55-3.53,5.46,5.46,0,0,0-.55-1.67,6.07,6.07,0,0,0-1.14-1.44l.91.51c.56.28,1.24.77,1.94,1.22a30.65,30.65,0,0,1,2.72,1.93,7.27,7.27,0,0,0-.71,3.64,6.68,6.68,0,0,0,1.16,3.32h0a6.09,6.09,0,0,0,1.05-3.42,5,5,0,0,0-.3-1.74,6.24,6.24,0,0,0-.92-1.58l.83.63a21.67,21.67,0,0,1,1.74,1.49l1.7,1.54c.24.2.4.41.53.53l.2.21a7.32,7.32,0,0,0-1.23,3.54,5.83,5.83,0,0,0,.14,1.72A8.11,8.11,0,0,0,357.57,256.6Z"/><path class="cls-7" d="M167,180.4h0a7.61,7.61,0,0,0-2.16,3.72,7,7,0,0,0,.38,4.24l-.73-1c-.45-.59-1-1.41-1.56-2.24l-1.52-2.27c-.22-.31-.38-.57-.49-.76l-.18-.29a8.25,8.25,0,0,0,2.29-3.83,7.05,7.05,0,0,0,.22-2.1,8.27,8.27,0,0,0-.32-2.18h0a7.59,7.59,0,0,0-2.49,3.52,7.12,7.12,0,0,0,.08,4.23s-.58-.94-1.15-1.89c-.29-.47-.59-.94-.79-1.3l-.33-.61a8.1,8.1,0,0,0-.87-4.3,7.92,7.92,0,0,0-3-3.22h0a7.88,7.88,0,0,0,.57,4.44,7.51,7.51,0,0,0,3.14,3.18l.18.34c.11.21.28.52.5.87l1.59,2.6c.56,1,1.19,1.86,1.66,2.55l.77,1.15a8.36,8.36,0,0,0-3.85-2,8,8,0,0,0-4.35.32h0a9.75,9.75,0,0,0,1.87,1.58,7.27,7.27,0,0,0,2.1.84,7.4,7.4,0,0,0,4.47-.44l.69,1,1.61,2.21c1.16,1.63,2.4,3.18,2.4,3.18a8.57,8.57,0,0,0-1.93-1.12,7.25,7.25,0,0,0-2-.58,8,8,0,0,0-4.31.65h0a7.9,7.9,0,0,0,4.1,2.12,7.58,7.58,0,0,0,4.43-.73l.77,1c.45.6,1.08,1.36,1.72,2.13l1.74,2.11.81.94a7.78,7.78,0,0,0-8.3-.59h0a8,8,0,0,0,4.19,1.86,7.59,7.59,0,0,0,4.39-.95l.82.94c.48.57,1.14,1.31,1.81,2l1.84,2,.86.91a7.77,7.77,0,0,0-8.32-.21h0a7.33,7.33,0,0,0,8.6.52l1.46,1.53c.89.91,2.05,2.13,3.26,3.31s2.42,2.37,3.34,3.24,1.56,1.43,1.56,1.43l.14-.15s-1.77-1.6-3.48-3.28c-.86-.82-1.7-1.68-2.34-2.3l-1-1.07a8,8,0,0,0,1.38-4.23A7.7,7.7,0,0,0,182,199.3h0a7.2,7.2,0,0,0-.52,8.17s-1.39-1.42-2.75-2.88c-.68-.72-1.35-1.45-1.85-2l-.84-.92a7.67,7.67,0,0,0,.6-8.44h0a7.17,7.17,0,0,0-.88,8.13l-.83-.92-1.79-2.07c-.66-.75-1.29-1.51-1.76-2.09s-.79-1-.79-1a8.08,8.08,0,0,0,1.75-4.09,7.61,7.61,0,0,0-.74-4.3h0a7.58,7.58,0,0,0-1.91,3.85,7.08,7.08,0,0,0,.63,4.22l-.79-1-1.69-2.16c-1.24-1.55-2.39-3.17-2.39-3.17a8.08,8.08,0,0,0,2-4A7.9,7.9,0,0,0,167,180.4Z"/><path class="cls-9" d="M268.52,161.49a3.32,3.32,0,0,1-.77-.62,2.23,2.23,0,0,0-.47-.64,1.69,1.69,0,0,0-.76-.32,3.39,3.39,0,0,0,.62,1.24.3.3,0,0,0,.42,0,4.08,4.08,0,0,0,.58,1S269,161.79,268.52,161.49Z"/><circle class="cls-11" cx="252.38" cy="264.37" r="77.55"/><path class="cls-12" d="M268,318.67A69.33,69.33,0,0,1,233.67,189.1a77.56,77.56,0,1,0,93.24,96.76A69.25,69.25,0,0,1,268,318.67Z"/><path class="cls-9" d="M278.67,161.65s-1.85,1.66-2.47,1.66-6.79-1.84-8-2.09-1.1.12-1.56.43,1,1.23,1,1.23a54.66,54.66,0,0,0,8.35,3.49c2.85.67,5.13-1.64,5.13-1.64A2.38,2.38,0,0,0,278.67,161.65Z"/><path class="cls-2" d="M256.51,163.34a25.39,25.39,0,0,0,7.32-.29s1.86,3.11,2.56,4.26l-.31,1.48a10,10,0,0,1-7,3.4S255.84,167.69,256.51,163.34Z"/><path class="cls-2" d="M263.31,168.59a3.43,3.43,0,0,1-1.59-.38l.31-.56a2.82,2.82,0,0,0,2.26.1c1-.44,1.77-1.56,2.25-3.35.55-2,.27-3.65-.79-4.69a4.88,4.88,0,0,0-4.65-.9c-2.89.88-2.6,4.94-2.59,5l-.64.05s-.34-4.62,3.05-5.64a5.45,5.45,0,0,1,5.27,1.05c.87.84,1.74,2.45,1,5.32-.54,2-1.42,3.26-2.62,3.77A3,3,0,0,1,263.31,168.59Z"/><path class="cls-9" d="M266.67,160.74s-.56-.21-.78.17.7.7,1.49.62S267.46,160.88,266.67,160.74Z"/><path class="cls-9" d="M266.66,161.3a1.07,1.07,0,0,0-.93.14c-.37.33.83.78,1.75.7S267.58,161.44,266.66,161.3Z"/><path class="cls-7" d="M284.2,207a5.49,5.49,0,0,1-.81,1.67,13.42,13.42,0,0,0-1.6,2.26c-.11.43.41.83.92.65a36.27,36.27,0,0,0,5-2.47c.86-.66,1.1-.9,1.08-1a27.65,27.65,0,0,0-1.37-2.44C287.11,205.19,284.83,205.21,284.2,207Z"/><path class="cls-9" d="M266.55,161.82a.82.82,0,0,0-.82.18c-.33.34.74.81,1.56.72S267.72,161.88,266.55,161.82Z"/><path class="cls-2" d="M257,167.86s-11.93-2.69-12.37-2.69-1.93-.28-2.64.71a1.43,1.43,0,0,0,.77.94c.66.33,1.54-.33,1.54-.33l14.41,5.08A2.94,2.94,0,0,0,257,167.86Z"/><path class="cls-2" d="M243.15,167.06h0a1.09,1.09,0,0,1-.48-.11,1.56,1.56,0,0,1-.85-1l0-.15.15,0a3.2,3.2,0,0,1,.45,0,3.07,3.07,0,0,1,2,.67l.16.13-.16.11A2.37,2.37,0,0,1,243.15,167.06Zm-1-1.05a1.28,1.28,0,0,0,.64.67.74.74,0,0,0,.34.08,1.79,1.79,0,0,0,.86-.28,2.88,2.88,0,0,0-1.62-.48Z"/><polygon class="cls-5" points="319.6 326.07 298.11 326.07 301.74 321.89 323.23 321.89 319.6 326.07"/><path class="cls-13" d="M242,165.88s-8.47,8.45-7.34,18.56h10.24s-2.53-12.5-.59-17.95A2.9,2.9,0,0,0,242,165.88Z"/><path class="cls-8" d="M283.37,172.8s-8.28,6.55-9.22,8.81,3.73,7.1,3.73,7.1,4.42,15.73,5.95,18.37a19.27,19.27,0,0,0,3.73-1.43s-1.47-14.2-2.15-16.1c0,0,10.73-10,12.57-13S284.65,171.77,283.37,172.8Z"/><path class="cls-7" d="M288.86,198.69a5.66,5.66,0,0,1,0,1.85,13.64,13.64,0,0,0-.42,2.74.66.66,0,0,0,1.12.17,37.47,37.47,0,0,0,3.35-4.45c.47-1,.58-1.3.49-1.42a26.31,26.31,0,0,0-2.31-1.57C290.64,195.74,288.61,196.77,288.86,198.69Z"/><path class="cls-1" d="M277.73,188.72c-.11-3.5,5.74-9.14,6-9.38l.21.22c-.06.06-6,5.78-5.9,9.15Z"/><path class="cls-8" d="M278.52,189.49l10.2,9.29A23.19,23.19,0,0,0,291,196s-3.72-7.24-5.26-8.72S278.52,189.49,278.52,189.49Z"/><path class="cls-7" d="M309.56,320.47a5.42,5.42,0,0,1-1.44,1.16,14.14,14.14,0,0,0-2.4,1.37c-.29.35,0,.93.55,1a38.5,38.5,0,0,0,5.57-.13c1.06-.23,1.38-.35,1.42-.5a25,25,0,0,0-.2-2.78C313,320,310.91,319.08,309.56,320.47Z"/><path class="cls-2" d="M239.89,186.26l-.62,0s0-.24-.06-.69-.15-1.08-.31-1.83a27.05,27.05,0,0,0-1.8-5.37,30,30,0,0,0-2.79-4.94c-.41-.65-.83-1.14-1.1-1.51l-.43-.56.48-.39.44.57c.27.37.7.88,1.12,1.54a30.36,30.36,0,0,1,2.85,5,29,29,0,0,1,1.84,5.49c.16.78.26,1.43.31,1.89S239.89,186.26,239.89,186.26Z"/><path class="cls-3" d="M232.76,167.9a2.15,2.15,0,0,1,.11,3.09,2.39,2.39,0,0,1-3.19-3.42A2.15,2.15,0,0,1,232.76,167.9Z"/><path class="cls-2" d="M232.38,169.18a3.3,3.3,0,0,0-.56-.35,2.56,2.56,0,0,0-1.19-.3,2.57,2.57,0,0,0,.26,1.17,5,5,0,0,0,.27.59,3.41,3.41,0,0,0-1.95.91,4.08,4.08,0,0,0,2.87.75,3.33,3.33,0,0,0,1.25-.36,3.15,3.15,0,0,0,.64-1.16,3.94,3.94,0,0,0-.53-3.17A3.76,3.76,0,0,0,232.38,169.18Z"/><path class="cls-7" d="M321.1,312.16a5.4,5.4,0,0,1-.25,1.83,13.45,13.45,0,0,0-.82,2.65c0,.45.65.66,1.08.34a38.81,38.81,0,0,0,4-3.91c.61-.89.76-1.19.69-1.33a26.28,26.28,0,0,0-2-1.9C323.3,309.51,321.14,310.23,321.1,312.16Z"/><path class="cls-7" d="M223,175.23a15,15,0,0,0,5.89,10.42c5.66,4.36,11,2.58,11,2.58s.37-5.6-5.28-9.95A15,15,0,0,0,223,175.23Z"/><rect class="cls-1" x="232.48" y="173.49" width="0.31" height="18.3" transform="translate(-54.03 255.44) rotate(-52.38)"/><rect class="cls-1" x="227.17" y="180.98" width="3.43" height="0.3" transform="translate(-5.53 7.21) rotate(-1.78)"/><rect class="cls-1" x="229.01" y="176.88" width="0.3" height="3.43" transform="translate(-34.19 55.88) rotate(-12.95)"/><rect class="cls-1" x="230.9" y="183.85" width="3.43" height="0.3" transform="matrix(1, -0.03, 0.03, 1, -5.65, 7.37)"/><rect class="cls-1" x="232.74" y="179.75" width="0.3" height="3.43" transform="translate(-34.73 56.77) rotate(-12.94)"/><rect class="cls-1" x="234.63" y="186.72" width="3.43" height="0.3" transform="translate(-5.7 7.45) rotate(-1.78)"/><rect class="cls-1" x="236.47" y="182.63" width="0.3" height="3.43" transform="translate(-35.27 57.68) rotate(-12.94)"/><path class="cls-6" d="M249.18,175.1a12,12,0,0,0-8.3,4.7,9.91,9.91,0,0,0-2,8.73,9.9,9.9,0,0,0,7.93-4.21A11.94,11.94,0,0,0,249.18,175.1Z"/><path class="cls-7" d="M212.17,185.62l3.19-5.12a56.8,56.8,0,0,0-5.62-14.3,45.22,45.22,0,0,0-7.7-10l-4.31,3s.56-1.23,1.17-2.45l1.2-2.42a58,58,0,0,0-9.84-7c-1.55-.86-2.92-1.58-4.19-2.13a19.75,19.75,0,0,0-3.24-1.16,18.13,18.13,0,0,0-2.31,4.88,26.36,26.36,0,0,0-.92,3.68,34.73,34.73,0,0,0-.56,4.36l2.7,1.09,2.68,1-2.72.11-2.73.07a41.61,41.61,0,0,0,5.78,21.44,42.49,42.49,0,0,0,2.44,3.71c.85,1.16,1.71,2.26,2.6,3.28l3.8-.24,3.8-.26-4.78,3.49a50.36,50.36,0,0,0,10.66,8c1.45.8,2.66,1.37,3.5,1.74s1.34.55,1.34.55l4.47-3.1,4.47-3.09s0-.28,0-.84,0-1.36-.06-2.38a59.44,59.44,0,0,0-1.06-8.3Z"/><path class="cls-1" d="M214,196.84c-1.69-2.46-5.84-8.57-10.92-16.47S191.91,162.78,186.53,153a201.18,201.18,0,0,0,14.06,28.87c4.74,8.2,8.87,14.36,10.6,16.89l1.39-1Z"/><path class="cls-6" d="M218.47,190.79l3.34-2a36.31,36.31,0,0,0,.95-9.89,29.14,29.14,0,0,0-1.51-8.07l-3.37.5,1.39-1.07,1.39-1.06a35.93,35.93,0,0,0-3.69-6.93,19.83,19.83,0,0,0-3.4-4,17.64,17.64,0,0,0-5.83,6.41s.63.69,1.25,1.39l1.25,1.36-1.6-.71L207,166a26.94,26.94,0,0,0-2.87,13.95,31.29,31.29,0,0,0,.85,5.48l4.51,1.94-3.77.6a32.86,32.86,0,0,0,3.78,7.69c.6.88,1.12,1.56,1.5,2s.6.71.6.71l3.48-.45,3.48-.46a19.16,19.16,0,0,0,.93-1.86,39.35,39.35,0,0,0,1.83-5.08Z"/><path class="cls-1" d="M216.2,197.76c-.24-1.91-.82-6.64-1.43-12.67s-1.25-13.37-1.58-20.56a140.75,140.75,0,0,0-.27,20.71c.32,6.09.87,10.85,1.12,12.81l1.08-.14Z"/><path class="cls-6" d="M313,221s5.14-14.27,4.5-28.11,3.42-24.22,10.05-23.41,12.42,25.84-12.84,53Z"/><path class="cls-1" d="M315.21,220.46l-.52-.32c.1-.15,9.33-15,9.68-31.43H325C324.62,205.3,315.31,220.31,315.21,220.46Z"/><path class="cls-7" d="M314.15,222.68s9.21-4.8,18.65-5.64,16.12-4.56,15-9-18.68-6-34.78,13.59Z"/><path class="cls-1" d="M314.63,221.52l-.39-.47c.09-.08,9.43-7.8,20.68-9.58l.09.61C323.94,213.83,314.72,221.44,314.63,221.52Z"/><path class="cls-6" d="M355.82,220.3a68.13,68.13,0,0,0-9.77-.46,31.92,31.92,0,0,0-12,2.72,15.48,15.48,0,0,0-7.83,8.23,21.09,21.09,0,0,0-1.57,5.48,17.27,17.27,0,0,0,5.07,2.71,14.94,14.94,0,0,0,11.9-.74,27.11,27.11,0,0,0,9.93-8.76A30.35,30.35,0,0,0,355.82,220.3Z"/><path class="cls-1" d="M324.71,236.36l-.07-.18s1.7-.68,4.2-1.76,5.84-2.58,9.12-4.17,6.51-3.27,8.9-4.6c1.2-.65,2.18-1.22,2.87-1.63l1.08-.63.09.16-1.08.63c-.69.41-1.67,1-2.87,1.64-2.39,1.33-5.63,3-8.91,4.6s-6.61,3.09-9.12,4.17S324.71,236.36,324.71,236.36Z"/><path class="cls-1" d="M342.79,227.91a4.57,4.57,0,0,1,0-1.43,11,11,0,0,1,1.39-3.71l.16.09A10.89,10.89,0,0,0,343,226.5a6.28,6.28,0,0,0-.08,1c0,.23,0,.36,0,.36Z"/><path class="cls-1" d="M338.08,230.33l.14-.13a1.91,1.91,0,0,0,.32.28,6.43,6.43,0,0,0,1,.64,11.68,11.68,0,0,0,4.58,1.13l0,.19a11.76,11.76,0,0,1-4.65-1.15A4.78,4.78,0,0,1,338.08,230.33Z"/><path class="cls-1" d="M329.3,234.35l.15-.12a3.28,3.28,0,0,0,.36.34,7.43,7.43,0,0,0,1.14.78,13.57,13.57,0,0,0,5.19,1.52l0,.18a13.56,13.56,0,0,1-5.25-1.53A5.54,5.54,0,0,1,329.3,234.35Z"/><path class="cls-1" d="M333.07,232.62a6.43,6.43,0,0,1,.17-2.12,16.75,16.75,0,0,1,2.34-5.42l.16.1a16.51,16.51,0,0,0-2.31,5.37,8.07,8.07,0,0,0-.19,1.5,4.77,4.77,0,0,0,0,.55Z"/><path class="cls-1" d="M346.07,226.23l.13-.14a3.07,3.07,0,0,0,.82.5,7.1,7.1,0,0,0,2.72.55v.19a7.47,7.47,0,0,1-2.81-.56A3.21,3.21,0,0,1,346.07,226.23Z"/><path class="cls-7" d="M347.89,255.43c-1-4.43-3-11.18-9.26-16.22s-13.95-1.52-13.95-1.52-1.39,8.35,5.16,13.07S343.41,255.65,347.89,255.43Z"/><polygon class="cls-1" points="324.63 237.75 324.73 237.62 344.04 252.38 343.94 252.51 324.63 237.75"/><path class="cls-1" d="M337.91,247.77a3.66,3.66,0,0,1,1.09-.48,9,9,0,0,1,3.32-.21l0,.16a8.66,8.66,0,0,0-3.25.21,4.58,4.58,0,0,0-.79.3,1.5,1.5,0,0,0-.26.15Z"/><path class="cls-1" d="M334.37,245.12l.15.06a1.81,1.81,0,0,0-.09.35,5.51,5.51,0,0,0-.09,1,10.42,10.42,0,0,0,.79,3.82l-.14.06a10.68,10.68,0,0,1-.82-3.88A4.58,4.58,0,0,1,334.37,245.12Z"/><path class="cls-1" d="M328,240.24l.15,0a3,3,0,0,0-.1.4,5.28,5.28,0,0,0-.11,1.15,11.79,11.79,0,0,0,.9,4.38l-.14.05a11.84,11.84,0,0,1-.93-4.43A4.7,4.7,0,0,1,328,240.24Z"/><path class="cls-1" d="M330.75,242.3a5.51,5.51,0,0,1,1.63-.71,13.15,13.15,0,0,1,4.95-.3l0,.15a12.76,12.76,0,0,0-4.89.32,6.84,6.84,0,0,0-1.18.44c-.26.13-.4.22-.4.22Z"/><path class="cls-1" d="M340.32,249.67l.15.06a2.64,2.64,0,0,0-.11.79,6.23,6.23,0,0,0,.48,2.25l-.15.06a6.49,6.49,0,0,1-.49-2.32A2.69,2.69,0,0,1,340.32,249.67Z"/><path class="cls-5" d="M167.27,299.42s-.22-.31-1.47.25-4.15,4.38-5,6.42a21.22,21.22,0,0,0,2.89,2.21,15.33,15.33,0,0,1,1.67-1.22,35.73,35.73,0,0,1-.42,5.92,34.93,34.93,0,0,1-.91,3.56,15.69,15.69,0,0,0,8.91.82s.07-5.3.23-7.34,1.12-4.31.59-6.22-2.77-2.62-4.59-4.49Z"/><path class="cls-9" d="M170.88,294.59a5.24,5.24,0,0,0-1-2.65c-.89-1.11-2.84-.71-3.63,1a5.63,5.63,0,0,0-.64,2.5.59.59,0,0,0-.77,0c-.59.41.31,1.84,1.22,1.59a3.18,3.18,0,0,0,.76.92,2.69,2.69,0,0,0,.24,1.46c.84,1,1.83,2,2.49,1.58s-.13-1.06-.35-1.41a.37.37,0,0,1,.06-.54C171.27,298.76,170.88,294.59,170.88,294.59Z"/><path class="cls-10" d="M169.46,292.77s-.51,2-1.67,2.37a2.18,2.18,0,0,0,.42-.56s-1.48,1.39-2.3,1.26c0,0-.53-.23-.69-2.08s1.78-2.89,1.78-2.89h2.2l1.55,1.77.16,1.25A1.68,1.68,0,0,1,169.46,292.77Z"/><path class="cls-9" d="M171.06,314.78s-6.83-1.18-9.31-2.55-2.17-2.59-1.83-3.46,1.41-2.75,1.41-2.75l2.42,1.74-.06.54-.41.94s.79.5,2,1.16,6.05,2.89,6.05,2.89S172.49,314.27,171.06,314.78Z"/><path class="cls-2" d="M182.88,327.27l-1.38-7.51a1.79,1.79,0,0,0-1-1.31l-8.24-3.72.45-1,8.24,3.72a2.89,2.89,0,0,1,1.65,2.11l1.39,7.52Z"/><path class="cls-10" d="M186.78,322.81a9.52,9.52,0,0,1,2.51-1.26c.84-.12,1.08.78,1.68.63a2.64,2.64,0,0,0,1.08-.64l1.2.63s.12-.33,1,0,.36,0,.84.34a2,2,0,0,0,1.19.3,2.47,2.47,0,0,1,1.2,0c.6.17,1.49-.29,2.88,0s2.63-.29,3.35,0,1.08,1.34,1.68,1.06a11.36,11.36,0,0,0,1.56-1.06l1,1.68s.36-.78.84,0a4,4,0,0,0,1.56,1.25,2.38,2.38,0,0,1,.6.73,9.42,9.42,0,0,1,.65,2.2v.72l-18-.72-7.55-4.18Z"/><path class="cls-2" d="M185.49,324.67l-1.38-7.52a1.79,1.79,0,0,0-1-1.31l-8.25-3.72.45-1,8.25,3.73a2.86,2.86,0,0,1,1.65,2.1l1.38,7.52Z"/><path class="cls-2" d="M184.06,322.81s-1.52,4.73-1.92,5.54,1,3.69,1,3.69l14.36,7.06,14-9.71Z"/><path class="cls-2" d="M181.38,345.82a1.94,1.94,0,0,1-1.09-.29c-.72-.47-1-1.48-.83-3.27.29-3.51,2.73-13.25,2.83-13.66l.6.15c0,.1-2.53,10.1-2.82,13.56-.13,1.52.05,2.38.56,2.71.76.5,2.55,0,5.45-1.58,5.46-2.95,9.53-5.63,9.57-5.66l.34.51c-.05,0-4.14,2.73-9.62,5.68C184.06,345.22,182.47,345.82,181.38,345.82Z"/><path class="cls-10" d="M211.52,332.54a4,4,0,0,0-.91,1.56c-.05.59.91,0,.91,0s.48.65,1,.26,0-.85,0-.85l.21-1Z"/><path class="cls-2" d="M252.79,346.19l-.82.63-.72-1c-.45-.62-1.08-1.51-1.81-2.59-1.47-2.17-3.34-5.11-5-8.16s-3.23-6.18-4.28-8.58c-.49-1.22-.91-2.23-1.2-2.94s-.4-1.13-.4-1.13l1-.35s.14.41.4,1.12l1.18,2.89c1,2.37,2.53,5.48,4.23,8.49s3.53,5.94,5,8.08c.72,1.07,1.35,1.95,1.79,2.56Z"/><path class="cls-3" d="M240.81,317.31a4.27,4.27,0,0,1-.14,2.79,3.09,3.09,0,0,1-1.81,1.8,2.93,2.93,0,0,1-2.56-.34,4.35,4.35,0,0,1-1.76-2.47,6.16,6.16,0,0,1-.17-.81,4.36,4.36,0,0,1,0-.81,3.93,3.93,0,0,1,.38-1.43,2.77,2.77,0,0,1,2-1.61,3.24,3.24,0,0,1,2.51.6,4,4,0,0,1,1.28,1.59A4.15,4.15,0,0,1,240.81,317.31Z"/><path class="cls-2" d="M239.31,318.87a7.75,7.75,0,0,0-.59-.9,6.4,6.4,0,0,0-.67-.74,2.82,2.82,0,0,0-.8-.62,3.17,3.17,0,0,0-.43.95,5.15,5.15,0,0,0-.15,1,7.44,7.44,0,0,0,0,1.11,6.09,6.09,0,0,0-2.53-.35,5.14,5.14,0,0,0-1.1.19,6.33,6.33,0,0,0,4.06,3.48,5,5,0,0,0,2.18.1,5.71,5.71,0,0,0,1.61-1.48,7.1,7.1,0,0,0,1.4-4.72,5,5,0,0,0-1,.4A5.43,5.43,0,0,0,239.31,318.87Z"/><path class="cls-10" d="M214.16,334.48s-.72,1.41-.6,1.77.6,0,.6,0,.71.32,1.07.16a4.22,4.22,0,0,0,1-.94h-1.32Z"/><path class="cls-10" d="M217.87,344s-3-.32-3,0v1.24a.84.84,0,0,0-1.33,0,4,4,0,0,0-.85,2,1.25,1.25,0,0,1-1,.84,1.23,1.23,0,0,0-1,.84,20.08,20.08,0,0,0,2.93.71,9.85,9.85,0,0,0,2.05,0,9.41,9.41,0,0,1,2.28.06c1.08.18,2.27.42,3.35.54a7.57,7.57,0,0,0,3-.84,35.47,35.47,0,0,1,4.67.12,5.72,5.72,0,0,0,2.76-.35l.48-1.08a3,3,0,0,1-1.56-1c-.6-.79-1.32-2.87-1.8-3a11,11,0,0,1-1.8-1.24,9.57,9.57,0,0,1-1.31-3c-.12-1.17-1.68-1.92-1.68-1.92a2.16,2.16,0,0,0-1.2,1.19,1.21,1.21,0,0,1-1.41.73s-.63.1-1,1.15a11.83,11.83,0,0,0-.47,1.87s-1.44-.49-2.16,0S217.87,344,217.87,344Z"/><rect class="cls-2" x="198.11" y="338.21" width="1.22" height="5" transform="translate(-152.09 160.41) rotate(-32.55)"/><rect class="cls-7" x="302.08" y="335.87" width="22.38" height="1.28" transform="translate(-113.32 507.99) rotate(-68.95)"/><rect class="cls-7" x="320.67" y="325.32" width="1.28" height="22.38" transform="translate(-99.44 137.89) rotate(-21.05)"/><rect class="cls-7" x="313.94" y="334.14" width="6.95" height="1.28"/><rect class="cls-7" x="312.34" y="338.73" width="10.07" height="1.28"/><path class="cls-9" d="M309.3,259.92a10.18,10.18,0,0,0-2.27,3.45A2.85,2.85,0,0,0,309,267.2a16.76,16.76,0,0,1,.34,2.57,7.21,7.21,0,0,0,1.94.25,5.54,5.54,0,0,0,1.26-.34V267a7.09,7.09,0,0,0,1.64-2.19c.38-1.05.72-3.62-.5-4.88S310,259.17,309.3,259.92Z"/><path class="cls-7" d="M291,251.74s0,.19-1,.49-1.66,0-1.94.81.28,2.31-.32,2.63a2.81,2.81,0,0,0-.79.55s1.52,1.95,2,2.78a3,3,0,0,0,.93-1.53c.23-1,1.81-.5,2.17-.83a8.14,8.14,0,0,0,.75-.83S292.32,252.43,291,251.74Z"/><path class="cls-10" d="M311.6,261.66a6.79,6.79,0,0,1-2.09-2.29c-.39-1.1.08-2.12,1.05-2a8.76,8.76,0,0,1,1.47.27s.9-1.14,2.46.31a4.58,4.58,0,0,1,1.36,3.51,1.71,1.71,0,0,1,1.18,2.4,4.65,4.65,0,0,1-2.54,2.45s-.25,1.2-.92,1.27a4.14,4.14,0,0,0-1.07.22l.12-2.25a1.19,1.19,0,0,0,1-.74c.35-.75-.75-.63-.75-.63s-.63-1.15-.35-1.58C312.51,262.6,311.52,262.21,311.6,261.66Z"/><path class="cls-9" d="M303.27,266a40.22,40.22,0,0,1-5.6-5.54c-2.58-3.16-4.15-5.42-4.15-5.42a6.34,6.34,0,0,0-.53-2.41,3.76,3.76,0,0,0-.89-1.32c-.32-.42-.32.34.08,1.09l.4.74s-1-1.65-1.41-1.59.07.59.27.88a2.26,2.26,0,0,1,.27.8s-.74-1.14-1-.94.27.88.68,1.43a11.51,11.51,0,0,1,.75,1.84s3.57,9.29,8.68,13.28S303.27,266,303.27,266Z"/><path class="cls-9" d="M293.42,255.17a4.86,4.86,0,0,1,.16-.67c0-.07.18-.57.28-.88s0-.62-.22-.47a1.94,1.94,0,0,0-.56,1A3.57,3.57,0,0,0,293.42,255.17Z"/><path class="cls-9" d="M317.22,275.38a20.79,20.79,0,0,0,3.16,3.21c.87.43,3.18-1.49,4.37-3.69a33,33,0,0,0,1.8-3.88,6.82,6.82,0,0,0,2-2.19s.16-.48,0-.58-.61.66-.85,1c0,0,.69-1.2.59-1.47s-1.1,1.12-1.1,1.12.78-1.42.51-1.44-1,1.25-1,1.25,0-.88-.29-.83-.19,1.05-.19,1.05-.27,1.23-.43,1.63a29.36,29.36,0,0,1-4,4.36s-1.36-1.93-2.62-2.3S317.22,275.38,317.22,275.38Z"/><path class="cls-8" d="M305.53,284s3.17,33.53,3.72,36.35a14.49,14.49,0,0,0,4,0s-.22-20.42,0-22.51,2-12.82,1.38-14.27S305.53,284,305.53,284Z"/><path class="cls-8" d="M315.45,283.4s1.13,13.41,1.69,15.46,6.62,10.74,6.62,10.74l-2.66,2.69s-5.51-5.58-7.1-7.61-4.34-10.49-4.34-10.49S311.25,281.3,315.45,283.4Z"/><path class="cls-2" d="M268.49,207.68c-3.09-1-5.32-1.26-7.13-2.28a10.62,10.62,0,0,0-5-1.72c-1.39.06-4.26-.69-6,0s-3.5,4.21-6.11,4.85-9.17-.74-11-1.92a4.21,4.21,0,0,1-1.83-4.68,9.92,9.92,0,0,0,.64-4c-.11-.77,2.66-2.27,3.62-3.28s1.86-4.28-.41-5.92a77.25,77.25,0,0,0-29.46,13.63,4.58,4.58,0,0,0,.7,1.83c.64,1.06-.39,1.7-.35,2s.6.28.1.89,0,.49-.45.92a14.29,14.29,0,0,1-1.22,1.06c-.32.22-.21.85-.85,1.6S202,212,202,213.21s-1.81,2.77-2,3.41-2,3.09-2.13,4.68a27.19,27.19,0,0,0,0,4.26,10,10,0,0,1-.08,3.2,25,25,0,0,0-.56,4.36c-.1,2.13.75,3.09,2.77,3.72s5.85,2.45,6.81,3.84,1.49,3.08,2.24,3.3,1.38,2.44,3.83,4.15,7,1.92,9.05,4.1,5.75,7.49,6.7,10.42,2.56,4,4.26,5.44,3.83,3,5.43,3.14,2.25-.57,2.19-1.14-2.08-2.27-2.4-2.7-1-3.3-1.92-5.32-1.06-2.1-.74-3.07,1-3.1,1.91-3.63,1.71-.15,2.34-1.09a3.1,3.1,0,0,0,.81-2.05c-.06-.59-1-.95-2-1s-1.27-.93-2.55-1.15-3.09-.74-3.51-1.49a2,2,0,0,0-2-.85,4.32,4.32,0,0,1-3.83-.85c-1.28-1.28-1.38-3.73-1.6-5s-.42-1.71-.1-2.66.32-1.71,1.81-2.4,3.94-1.23,5.43,0,4.47.27,5.11-.48,2.44-3,3.93-3.08,3.94,0,4.9-.86,4.58-2.64,5.22-4.09,3.08-5.63,3.08-7,4.47-4,5.75-3.61,3-1.59,3.62-1.59,2.55.32,3.62-1,1.92-2.14,2.77-3.36S271.58,208.64,268.49,207.68Z"/><path class="cls-2" d="M261.85,308a57.5,57.5,0,0,0-6.64-3.53c-3.05-1.28-5.29-5.83-6.09-6.76s-1.45-9.13,0-10.57a35.38,35.38,0,0,0,4.09-5.78c1.2-1.93,1.68-3.21,1.2-4s-.48-5.36,0-6.13,2.89-2.22,4-2.06,4.66-.82,6.1,0,6.9,3.7,9.31,3.86,4.82,2.25,6.74,1.13,4.76.16,6.39,2.57a20.32,20.32,0,0,0,6.29,6.44c2.73,1.58,2.49,3,4.06,3.35a23,23,0,0,1,6.94,2.56c1.89,1.3,1.27,2.89-.29,4.82s-3.5,5-4.78,6.9-.81,4.82,0,5.62.17,4.17-.95,5.13-3.53,2.57-4.5,4.34-.87,3.07-3.08,3.86-7.19,3-10.24,3.76-5.62.89-7.7,2.65-2.38,6.54-4.35,7.36-7.85,4.51-10.1,4.27-2.24-.69-1-2.31,4.53-4.47,6.36-7.07-.58-5.12,1-6.17,1.89-4.19,2.39-5.11S267.44,311.08,261.85,308Z"/><path class="cls-2" d="M308,236.27c.32.65,2,1.4,3.32,2s2.49-.34,3-2,2.77-2,3.95-1.38a5.15,5.15,0,0,0,3.31.75c.85-.21,2.49-.84,2.53-.86a77.68,77.68,0,0,0-22.41-30.27,16.8,16.8,0,0,1-2.27,2.57,7.88,7.88,0,0,0-2.09,3c-.37.75-1.44,4-1,5.35s.25,2.35,1.84,3.53,3,1.57,2.29,3.73-.17,4.45-.92,5.6a3.87,3.87,0,0,0,.92,4.9c1.76,1.5,4,1.17,4.54,1.28S307.64,235.61,308,236.27Z"/><path class="cls-2" d="M255.21,254.28a3.6,3.6,0,0,1-1.07,2.44c-1.07,1-2.14,2.67-1.07,2.89a23.36,23.36,0,0,1,3.86.85c.53.32,3.31,1.82,4.06,1.29s1.29-1.82,2-1.93,1-2,1.61-2.61,2.89-2.74,3.1-4.45.43-4.28,0-4.92-3.42-1.07-3.74-1.93-2.23-1.5-3.68-.64-2.1,2.78-2.31,4.17S255.11,251.85,255.21,254.28Z"/><path class="cls-2" d="M301.22,208.86l-.88-.66s.26-.35.69-1,1-1.65,1.69-2.86a67.83,67.83,0,0,0,4.1-9.26,82.69,82.69,0,0,0,2.82-9.74c.34-1.34.51-2.48.67-3.27l.24-1.25,1.08.19-.24,1.26c-.16.8-.33,2-.68,3.32a80.93,80.93,0,0,1-2.86,9.87,69.22,69.22,0,0,1-4.16,9.4c-.67,1.24-1.28,2.25-1.73,2.94S301.22,208.86,301.22,208.86Z"/><path class="cls-3" d="M315.22,176.75c-.33,2.38-2.16,4-4.05,3.7a4.25,4.25,0,0,1,1-8.26C314.09,172.33,315.46,174.37,315.22,176.75Z"/><path class="cls-2" d="M313.05,177.71a7,7,0,0,0-.17-1.17,4.75,4.75,0,0,0-.95-2,4.72,4.72,0,0,0-1.31,1.69,8.6,8.6,0,0,0-.48,1.06,6.16,6.16,0,0,0-3.49-1.61,7.26,7.26,0,0,0,2.31,4.82,5.9,5.9,0,0,0,2,1.25,5.5,5.5,0,0,0,2.29-.52,7,7,0,0,0,3.65-4.31A6.42,6.42,0,0,0,313.05,177.71Z"/><path class="cls-2" d="M286.67,154.75a11.09,11.09,0,0,0-2.73,1.24,50.37,50.37,0,0,0-5.86,5.06,15.55,15.55,0,0,0,3.38,4.13,30.06,30.06,0,0,0,2.76-1.4s1.13,5.41-1.12,8.74a6,6,0,0,0,3.41,1.85c2.13.32,4.37.28,6.22,1.6s4.86,1.21,6.14,0a17.69,17.69,0,0,0,0-8.06,20.52,20.52,0,0,0-2.65-6.06l.68.52s2.33-2.53,2.45-4.49a26.34,26.34,0,0,0-4.61-3.81,6.39,6.39,0,0,0-5.63,0A7.08,7.08,0,0,1,286.67,154.75Z"/><path class="cls-9" d="M282.49,149.79a7.74,7.74,0,0,0,1.55,3.46c1.07,1.07,1.91.41,2.2.53s.48,1,.48,1.55a1.11,1.11,0,0,0,1.85.54c.89-.66.42-3.7.42-3.7a3.66,3.66,0,0,0,.12-2.38,2.78,2.78,0,0,0,.14-1.79c-.32-.65-.8-.47-1,0,0,0-1.13-2.08-2.8-1.73S282.25,147.53,282.49,149.79Z"/><path class="cls-10" d="M290.24,148.54c-.54-.72-.18-2.56-.88-3.64a2.11,2.11,0,0,0-2.16-.71s-.36-1.61-1.73-1.37-2.62,2.08-2.62,2.08a4.64,4.64,0,0,0-2,0c-1.31.24-2.8,1.14-2.26,2.45s2.56,1.23,2.56,1.23-.54,2.58,1.34,1.87l.16-.08c-.08-.31-.12-.53-.13-.58a2.79,2.79,0,0,1,1.59-3.07h0a5.79,5.79,0,0,1,1.33-.45c1.67-.35,2.8,1.73,2.8,1.73.24-.47.72-.65,1,0a2.78,2.78,0,0,1-.14,1.79,3.91,3.91,0,0,1,.05,1.82l.2,0C291.11,151.64,290.77,149.25,290.24,148.54Z"/><path class="cls-10" d="M282.62,150.37s2.05-.87,2.2-3.94c0,0,.63,1.92,3.39,1.57a3.77,3.77,0,0,0-2.49-3.2c-2.28-.64-3.94,3.15-3.94,3.15A2.65,2.65,0,0,0,282.62,150.37Z"/><path class="cls-1" d="M286.41,196.83c-.43-3.61-1.15-7.21-1.15-7.25l.3-.06s.72,3.66,1.15,7.28Z"/><path class="cls-9" d="M175.06,311.05a8.68,8.68,0,0,1,1,.07c.35.06.58.56.68.76s-.34.19-.56-.1l-.27-.35a1.21,1.21,0,0,0-.52,0c-.19.07-.43-.15-.46-.31S175.06,311.05,175.06,311.05Z"/><path class="cls-9" d="M170.88,314.72a4.37,4.37,0,0,0,1.28.93c.06.46.32.65.47.64s.15-.71.15-.71c.14.32.66.64.73.44a1.15,1.15,0,0,0,0-.51s.22.28.38.28.35-.14.28-.5a3.29,3.29,0,0,0-.5-1.17c-.21-.28-.33-.57-.8-.67a6.79,6.79,0,0,0-1.15-.09,9,9,0,0,0-1.33,0Z"/><path class="cls-9" d="M171.06,313.62v-.29a6.07,6.07,0,0,1,1.56-.3c.25.09.5.45.64.59A11.52,11.52,0,0,1,171.06,313.62Z"/><circle class="cls-8" cx="202.37" cy="347.51" r="5.59"/><path class="cls-1" d="M202.37,350a2.5,2.5,0,1,1,2.5-2.5A2.5,2.5,0,0,1,202.37,350Zm0-4.69a2.19,2.19,0,1,0,2.19,2.19A2.19,2.19,0,0,0,202.37,345.32Z"/><path class="cls-2" d="M269.37,256.59a17,17,0,0,0-2.14,2.41c-.89,1.26,1.51.62,2.14.75s.76,1,2,.71a7.17,7.17,0,0,0,1.26-.33,9.64,9.64,0,0,1,2.65-.38c1.14-.13.91-.95,1.53-1.67a1.28,1.28,0,0,0,0-2c-.65-.63-1,1.26-2.29,0s-1.22-2.35-2.38-1.81-.85.74-1.38,1.21S269.37,256.59,269.37,256.59Z"/><path class="cls-7" d="M310.47,268.54a9.39,9.39,0,0,1-6.8-2.9,14.85,14.85,0,0,0-3.24,3.87,17.58,17.58,0,0,0,4.84,3.87s-1.16,9.79-.55,13.18c0,0,4.09.76,6.61.92a21.38,21.38,0,0,0,5.64-.63l-.71-12.08.71.84s2.61-2.39,2.65-3.7c0,0-3.72-3.49-5.33-4S312,268.67,310.47,268.54Z"/><path class="cls-1" d="M313.32,303.29H313c0-.28.11-6.74.3-7.63s1.31-7,1.32-7l.3.05c0,.07-1.13,6.17-1.32,7.05S313.33,303.23,313.32,303.29Z"/><path class="cls-5" d="M265.05,351.17h-6.23s-3.41-22.84,0-27.66S269.38,320.33,265.05,351.17Z"/><path class="cls-5" d="M256.8,351.17h-5.56s-7.3-2.28-10.79-7.84,1.69-7.92,5.48-5.54S256.8,351.17,256.8,351.17Z"/><path class="cls-7" d="M258.82,351.17h-3.41s-8.09-8-9.1-17.65,6.7-6.52,10.11,2a54.38,54.38,0,0,1,3.79,15.69Z"/><path class="cls-5" d="M267.07,351.17h5.56s7.3-2.28,10.79-7.84-1.69-7.92-5.48-5.54S267.07,351.17,267.07,351.17Z"/><path class="cls-7" d="M265.05,351.17h3.41s8.09-8,9.1-17.65-6.7-6.52-10.11,2a54.38,54.38,0,0,0-3.79,15.69Z"/><polygon class="cls-1" points="284.21 249.84 284.54 249.17 284.97 249.79 285.64 250.12 285.02 250.55 284.69 251.22 284.26 250.6 283.59 250.27 284.21 249.84"/><polygon class="cls-1" points="296.04 252.64 296.24 252.23 296.5 252.6 296.91 252.8 296.54 253.06 296.34 253.47 296.08 253.1 295.67 252.9 296.04 252.64"/><polygon class="cls-1" points="297.95 247.11 298.15 246.7 298.41 247.08 298.82 247.28 298.45 247.54 298.25 247.95 297.98 247.58 297.57 247.38 297.95 247.11"/><polygon class="cls-1" points="281.35 245.05 281.55 244.64 281.81 245.02 282.23 245.22 281.85 245.48 281.65 245.89 281.39 245.51 280.98 245.31 281.35 245.05"/><polygon class="cls-1" points="283.83 260.19 284.03 259.78 284.29 260.15 284.7 260.35 284.33 260.61 284.13 261.02 283.87 260.65 283.45 260.45 283.83 260.19"/><path class="cls-1" d="M241.84,167.56l-.12-.08.19-.26.12.09Z"/><path class="cls-1" d="M237.79,176.29l-.15,0,0-.13.15,0Zm.18-.74-.14,0c0-.21.11-.41.17-.62l.15.05Zm.37-1.22-.14,0,.21-.61.15.06C238.48,173.93,238.41,174.13,238.34,174.33Zm.45-1.18-.15-.06c.08-.2.17-.4.25-.59l.14.06Zm.5-1.17-.14-.06c.09-.2.18-.39.28-.58l.13.07Zm.56-1.14-.13-.07.3-.56.13.07Zm.61-1.11-.13-.08.32-.54.13.07Zm.66-1.09-.13-.08c.12-.2.24-.37.35-.53l.12.08Z"/><path class="cls-1" d="M237.66,176.94l-.15,0,.06-.32.15,0Z"/><path class="cls-1" d="M243,168l-.15,0c0-.2.07-.31.07-.31l.15,0S243,167.75,243,168Z"/><path class="cls-1" d="M242.17,175.56c0-.21,0-.42,0-.64h.15c0,.21,0,.42,0,.64Zm.14-1.27h-.15c0-.22,0-.43,0-.64h.16C242.32,173.86,242.31,174.08,242.31,174.29Zm.05-1.27h-.16c0-.21,0-.43,0-.63h.16C242.38,172.59,242.37,172.81,242.36,173Zm.09-1.27h-.16c0-.22,0-.43.07-.63h.15Zm.13-1.26-.15,0c0-.22,0-.43.08-.63l.15,0C242.63,170.06,242.6,170.27,242.58,170.49Zm.17-1.26-.15,0c0-.23.07-.44.1-.63l.15,0C242.82,168.79,242.78,169,242.75,169.23Z"/><path class="cls-1" d="M242.25,176.93l0-.32h.16c0,.1,0,.21,0,.32Z"/><path class="cls-1" d="M239.81,179.07a3,3,0,0,0,0-.31H240c0,.1,0,.2,0,.31Zm0-.93a1.93,1.93,0,0,1,0-.24c0-.12,0-.25,0-.37h.15v.61Zm.17-1.21h-.15c0-.21,0-.41,0-.61H240C240,176.52,240,176.72,240,176.93Zm.11-1.21-.16,0c0-.21,0-.41.08-.61l.15,0C240.11,175.31,240.08,175.51,240.06,175.72Zm.17-1.21-.15,0c0-.21.08-.41.11-.6l.15,0C240.3,174.11,240.27,174.31,240.23,174.51Zm.24-1.19-.14,0c0-.2.09-.4.14-.6l.15,0Zm.31-1.17-.15-.05.18-.58.14,0C240.89,171.75,240.83,172,240.78,172.15Zm.36-1.17-.15,0c.07-.21.14-.4.21-.58l.14,0C241.27,170.59,241.21,170.78,241.14,171Zm.42-1.14-.14-.05c.08-.21.15-.4.23-.57l.14.06C241.71,169.45,241.64,169.64,241.56,169.84Zm.47-1.12-.13-.06c.16-.36.26-.55.26-.56l.14.08S242.19,168.37,242,168.72Z"/><path class="cls-5" d="M165.28,306.61l-.2-.11a22.23,22.23,0,0,0-3.27-2l-.13-.08a11.88,11.88,0,0,0-.88,1.65,21.22,21.22,0,0,0,2.89,2.21s.73-.61,1.32-1A5.66,5.66,0,0,1,165.28,306.61Z"/></g></svg>